G04*
G04 #@! TF.GenerationSoftware,Altium Limited,Altium Designer,23.9.2 (47)*
G04*
G04 Layer_Color=8388736*
%FSLAX26Y26*%
%MOIN*%
G70*
G04*
G04 #@! TF.SameCoordinates,B82247BB-B753-4175-90AF-5BB11890976D*
G04*
G04*
G04 #@! TF.FilePolarity,Positive*
G04*
G01*
G75*
%ADD13C,0.007874*%
D13*
X1559055Y3141732D02*
X1590551D01*
X1559055Y3078740D02*
Y3141732D01*
Y3078740D02*
X1590551D01*
Y3141732D01*
X1480315D02*
X1511811D01*
X1480315Y3078740D02*
Y3141732D01*
Y3078740D02*
X1511811D01*
Y3141732D01*
X4894252Y3351496D02*
X4925748D01*
X4894252Y3288504D02*
Y3351496D01*
Y3288504D02*
X4925748D01*
Y3351496D01*
X2304252Y3999935D02*
X2335748D01*
Y4062927D01*
X2304252D02*
X2335748D01*
X2304252Y3999935D02*
Y4062927D01*
X2216252Y3999935D02*
X2247748D01*
Y4062927D01*
X2216252D02*
X2247748D01*
X2216252Y3999935D02*
Y4062927D01*
X2040252Y3999935D02*
X2071748D01*
Y4062927D01*
X2040252D02*
X2071748D01*
X2040252Y3999935D02*
Y4062927D01*
X2128252Y3999935D02*
X2159748D01*
Y4062927D01*
X2128252D02*
X2159748D01*
X2128252Y3999935D02*
Y4062927D01*
X1864252Y3999935D02*
X1895748D01*
Y4062927D01*
X1864252D02*
X1895748D01*
X1864252Y3999935D02*
Y4062927D01*
X1952252Y3999935D02*
X1983748D01*
Y4062927D01*
X1952252D02*
X1983748D01*
X1952252Y3999935D02*
Y4062927D01*
X2224252Y2798504D02*
X2255748D01*
Y2861496D01*
X2224252D02*
X2255748D01*
X2224252Y2798504D02*
Y2861496D01*
X2360630Y3585394D02*
Y3634606D01*
Y3585394D02*
X2439370D01*
Y3634606D01*
X2360630D02*
X2439370D01*
X2007323Y2892677D02*
Y3227323D01*
X1672677Y2892677D02*
X2007323D01*
X1672677D02*
Y3227323D01*
X2007323D01*
X2360630Y3465394D02*
Y3514606D01*
Y3465394D02*
X2439370D01*
Y3514606D01*
X2360630D02*
X2439370D01*
M02*
