%TF.GenerationSoftware,Altium Limited,Altium Designer,23.9.2 (47)*%
G04 Layer_Color=32768*
%FSLAX26Y26*%
%MOIN*%
%TF.SameCoordinates,9865C014-B1B1-49D6-8399-87C266C41E35*%
%TF.FilePolarity,Positive*%
%TF.FileFunction,Other,Mechanical_15*%
%TF.Part,Single*%
G01*
G75*
%TA.AperFunction,NonConductor*%
%ADD82C,0.010000*%
%ADD84C,0.007874*%
%ADD92C,0.003937*%
%ADD145C,0.001968*%
D82*
X1879435Y2391513D02*
G03*
X1879435Y2391513I-75787J0D01*
G01*
D84*
X3408937Y2576063D02*
Y2833937D01*
X3201063Y2576063D02*
X3408937D01*
X3201063D02*
Y2833937D01*
X3408937D01*
X2746063D02*
X2953937D01*
X2746063Y2576063D02*
Y2833937D01*
Y2576063D02*
X2953937D01*
Y2833937D01*
X3863937Y2576063D02*
Y2833937D01*
X3656063Y2576063D02*
X3863937D01*
X3656063D02*
Y2833937D01*
X3863937D01*
X1262795Y2625984D02*
X1598425D01*
X1262795D02*
Y3122047D01*
X1598425D01*
Y2625984D02*
Y3122047D01*
X1262795Y3712598D02*
X1598425D01*
X1262795Y3216535D02*
Y3712598D01*
Y3216535D02*
X1598425D01*
Y3712598D01*
X3173583Y3298898D02*
Y3661102D01*
Y3298898D02*
X3496417D01*
Y3661102D01*
X3173583D02*
X3496417D01*
X2014134Y3861260D02*
X2288937D01*
Y2619134D02*
Y3861260D01*
X2014134Y2619134D02*
X2288937D01*
X2014134D02*
Y3861260D01*
X4789370Y3401653D02*
Y4137874D01*
X4135827D02*
X4789370D01*
X4135827Y3405590D02*
Y4137874D01*
Y3401653D02*
Y3405590D01*
Y3401653D02*
X4789370D01*
X4462598Y3578819D02*
Y3618189D01*
X4442913Y3598504D02*
X4482283D01*
X1875827Y1787126D02*
Y2523347D01*
Y1787126D02*
X2529370D01*
Y2519410D01*
Y2523347D01*
X1875827D02*
X2529370D01*
X2202598Y2306811D02*
Y2346181D01*
X2182913Y2326496D02*
X2222283D01*
X1774606Y2755118D02*
Y2992913D01*
X1611220D02*
X1774606D01*
X1611220Y2755118D02*
Y2992913D01*
Y2755118D02*
X1774606D01*
X1933602Y2186747D02*
Y2596536D01*
X1673524D02*
X2293602D01*
Y2186536D02*
Y2596536D01*
X1673799Y2186536D02*
X2293602D01*
X1673524Y2186811D02*
Y2596536D01*
X3986648Y3831321D02*
Y3999479D01*
X2687143Y1942143D02*
Y2110302D01*
X2607790Y2026230D02*
X2766731D01*
X3907295Y3915407D02*
X4066236D01*
X2607790Y3916230D02*
X2766731D01*
X2687143Y3832143D02*
Y4000302D01*
X3986286Y1941228D02*
Y2025497D01*
Y2106286D01*
X3905000Y2025000D02*
X4070000D01*
D92*
X4085394Y3915000D02*
G03*
X4085394Y3915000I-100394J0D01*
G01*
X2790394D02*
G03*
X2790394Y3915000I-100394J0D01*
G01*
Y2025000D02*
G03*
X2790394Y2025000I-100394J0D01*
G01*
X4085394D02*
G03*
X4085394Y2025000I-100394J0D01*
G01*
X1801929Y3915000D02*
G03*
X1801929Y3915000I-100394J0D01*
G01*
Y2025000D02*
G03*
X1801929Y2025000I-100394J0D01*
G01*
X3305000Y2685315D02*
Y2724685D01*
X3285315Y2705000D02*
X3324685D01*
X2830315D02*
X2869685D01*
X2850000Y2685315D02*
Y2724685D01*
X3760000Y2685315D02*
Y2724685D01*
X3740315Y2705000D02*
X3779685D01*
X4862283Y3686575D02*
X4897717D01*
X4880000Y3668858D02*
Y3704291D01*
X5122283Y3640000D02*
X5157717D01*
X5140000Y3622284D02*
Y3657716D01*
X2410000Y2790000D02*
Y2830000D01*
X2390000Y2810000D02*
X2430000D01*
X2320315Y3030000D02*
X2359685D01*
X2340000Y3010315D02*
Y3049685D01*
X3742285Y3246379D02*
X3777718D01*
X3760002Y3228663D02*
Y3264096D01*
X2591289Y2234212D02*
X2626722D01*
X2609005Y2216495D02*
Y2251928D01*
X2349184Y3155766D02*
X2384617D01*
X2366901Y3138049D02*
Y3173482D01*
X4023475Y3371964D02*
Y3407397D01*
X4005758Y3389681D02*
X4041191D01*
X3822498Y3246099D02*
X3857931D01*
X3840214Y3228382D02*
Y3263815D01*
X1612284Y3349528D02*
X1647716D01*
X1630000Y3331811D02*
Y3367244D01*
X1801850Y2881793D02*
X1837283D01*
X1819566Y2864077D02*
Y2899510D01*
X4023475Y3452169D02*
Y3487602D01*
X4005758Y3469885D02*
X4041191D01*
X4062284Y2980000D02*
X4097717D01*
X4080000Y2962283D02*
Y2997716D01*
X3640000Y3842284D02*
Y3877716D01*
X3622283Y3860000D02*
X3657716D01*
X2462284Y3040000D02*
X2497716D01*
X2480000Y3022284D02*
Y3057717D01*
X3902430Y3246020D02*
X3937863D01*
X3920147Y3228303D02*
Y3263736D01*
X5002283Y3780000D02*
X5037717D01*
X5020000Y3762284D02*
Y3797717D01*
X2342284Y2310000D02*
X2377716D01*
X2360000Y2292284D02*
Y2327717D01*
X4298748Y3602233D02*
X4334181D01*
X4316465Y3584516D02*
Y3619949D01*
X4485415Y3488436D02*
Y3523869D01*
X4467698Y3506152D02*
X4503131D01*
X4971057Y3325000D02*
X5006490D01*
X4988773Y3307283D02*
Y3342716D01*
X2400000Y2602284D02*
Y2637716D01*
X2382284Y2620000D02*
X2417717D01*
X4023475Y3291760D02*
Y3327193D01*
X4005758Y3309476D02*
X4041191D01*
X2180315Y2560000D02*
X2219685D01*
X2200000Y2540315D02*
Y2579685D01*
X4286833Y2780823D02*
Y2899177D01*
X4227534D02*
X4286833D01*
X4227534Y2780823D02*
X4286833D01*
X4227534D02*
Y2899177D01*
X4257183Y2820315D02*
Y2859685D01*
X4237498Y2840000D02*
X4276868D01*
X1397638Y2874016D02*
X1437008D01*
X1417323Y2854331D02*
Y2893701D01*
X1397638Y3464567D02*
X1437008D01*
X1417323Y3444882D02*
Y3484252D01*
X3335000Y3460315D02*
Y3499685D01*
X3315315Y3480000D02*
X3354685D01*
X4523346Y3867165D02*
X4562716D01*
X4543031Y3847480D02*
Y3886850D01*
X3795000Y2165630D02*
Y2185315D01*
X3785157Y2175472D02*
X3804843D01*
X3707000Y2165630D02*
Y2185315D01*
X3697157Y2175472D02*
X3716843D01*
X3619000Y2165630D02*
Y2185315D01*
X3609157Y2175472D02*
X3628843D01*
X3531000Y2165630D02*
Y2185315D01*
X3521157Y2175472D02*
X3540843D01*
X3443000Y2165630D02*
Y2185315D01*
X3433157Y2175472D02*
X3452843D01*
X3355000Y2165630D02*
Y2185315D01*
X3345157Y2175472D02*
X3364843D01*
X2389997Y4020154D02*
Y4039839D01*
X2380154Y4029997D02*
X2399839D01*
X2264997Y4020154D02*
Y4039839D01*
X2255154Y4029997D02*
X2274839D01*
X2139997Y4020154D02*
Y4039839D01*
X2130154Y4029997D02*
X2149839D01*
X2014997Y4020154D02*
Y4039839D01*
X2005154Y4029997D02*
X2024839D01*
X2382283Y3710000D02*
X2417716D01*
X2400000Y3692284D02*
Y3727716D01*
X2610000Y2442283D02*
Y2477716D01*
X2592284Y2460000D02*
X2627716D01*
X4892283Y2480000D02*
X4927717D01*
X4910000Y2462284D02*
Y2497716D01*
X2910000Y3930315D02*
Y3969685D01*
X2890315Y3950000D02*
X2929685D01*
X3090000Y3930315D02*
Y3969685D01*
X3070315Y3950000D02*
X3109685D01*
X3270000Y3930315D02*
Y3969685D01*
X3250315Y3950000D02*
X3289685D01*
X1480000Y3900315D02*
Y3939685D01*
X1460315Y3920000D02*
X1499685D01*
X3705000Y3525315D02*
Y3564685D01*
X3685315Y3545000D02*
X3724685D01*
X4725000Y3265315D02*
Y3304685D01*
X4705315Y3285000D02*
X4744685D01*
X4930000Y3265315D02*
Y3304685D01*
X4910315Y3285000D02*
X4949685D01*
X3450000Y3930315D02*
Y3969685D01*
X3430315Y3950000D02*
X3469685D01*
X2632520Y2576850D02*
X2947480D01*
Y2183150D02*
Y2576850D01*
X2632520Y2183150D02*
X2947480D01*
X2632520D02*
Y2576850D01*
X2775000Y2380000D02*
X2805000D01*
X2790000Y2365000D02*
Y2395000D01*
X1692913Y2854331D02*
Y2893701D01*
X1673228Y2874016D02*
X1712598D01*
X3965315Y3915000D02*
X4004685D01*
X3985000Y3895315D02*
Y3934685D01*
X2670315Y3915000D02*
X2709685D01*
X2690000Y3895315D02*
Y3934685D01*
X2670315Y2025000D02*
X2709685D01*
X2690000Y2005315D02*
Y2044685D01*
X3965315Y2025000D02*
X4004685D01*
X3985000Y2005315D02*
Y2044685D01*
X1681850Y3915000D02*
X1721220D01*
X1701535Y3895315D02*
Y3934685D01*
X1681850Y2025000D02*
X1721220D01*
X1701535Y2005315D02*
Y2044685D01*
X4584801Y2416850D02*
Y2456220D01*
X4565116Y2436535D02*
X4604486D01*
X2448602Y2308859D02*
Y2323465D01*
Y2274213D02*
X2493602D01*
X2448602Y2308859D02*
X2493602D01*
X2448602Y2274213D02*
Y2308859D01*
X2295059Y2323465D02*
X2448602D01*
Y2258071D02*
Y2274213D01*
X2295059Y2256536D02*
X2448602D01*
X2295059Y2258071D02*
Y2325000D01*
X2493602Y2274213D02*
Y2308859D01*
X2448602Y2508859D02*
Y2523465D01*
Y2474213D02*
X2493602D01*
X2448602Y2508859D02*
X2493602D01*
X2448602Y2474213D02*
Y2508859D01*
X2295059Y2523465D02*
X2448602D01*
Y2458071D02*
Y2474213D01*
X2295059Y2456536D02*
X2448602D01*
X2295059Y2458071D02*
Y2525000D01*
X2493602Y2474213D02*
Y2508859D01*
X2448602Y2408859D02*
Y2423465D01*
Y2374213D02*
X2493602D01*
X2448602Y2408859D02*
X2493602D01*
X2448602Y2374213D02*
Y2408859D01*
X2295059Y2423465D02*
X2448602D01*
X2493602Y2374213D02*
Y2408859D01*
X2448602Y2358071D02*
Y2374213D01*
Y2408859D01*
X1818580Y2391513D02*
X1818602Y2391536D01*
X1803648Y2391513D02*
X1818580D01*
X1788625D02*
X1803648D01*
Y2376536D02*
Y2406490D01*
X1675323Y2185184D02*
X1935166D01*
X1673760Y2596536D02*
X1933602D01*
X1673799Y2186536D02*
Y2596536D01*
Y2186536D02*
X2488602D01*
X1673799Y2596536D02*
X2488602D01*
X2378602Y2186536D02*
Y2596536D01*
Y2186536D02*
X2563602D01*
Y2596536D01*
X2378602D02*
X2563602D01*
X2463602Y2371851D02*
Y2411221D01*
X2443917Y2391536D02*
X2483287D01*
X1673524Y2186811D02*
X1673799Y2186536D01*
X1933602Y2186747D02*
Y2596536D01*
X2295059Y2356536D02*
X2448602D01*
X2295059Y2358071D02*
Y2425000D01*
X2493602Y2374213D02*
Y2408859D01*
X1545153Y3051059D02*
Y3169413D01*
X1604453D01*
X1545153Y3051059D02*
X1604453D01*
Y3169413D01*
X1574803Y3090551D02*
Y3129921D01*
X1555118Y3110236D02*
X1594488D01*
X1466413Y3051059D02*
Y3169413D01*
X1525713D01*
X1466413Y3051059D02*
X1525713D01*
Y3169413D01*
X1496063Y3090551D02*
Y3129921D01*
X1476378Y3110236D02*
X1515748D01*
X1530823Y3736398D02*
X1649177D01*
X1530823Y3677099D02*
Y3736398D01*
X1649177Y3677099D02*
Y3736398D01*
X1530823Y3677099D02*
X1649177D01*
X1570315Y3706748D02*
X1609685D01*
X1590000Y3687063D02*
Y3726433D01*
X1530823Y3656398D02*
X1649177D01*
X1530823Y3597099D02*
Y3656398D01*
X1649177Y3597099D02*
Y3656398D01*
X1530823Y3597099D02*
X1649177D01*
X1570315Y3626748D02*
X1609685D01*
X1590000Y3607063D02*
Y3646433D01*
X2824650Y3164392D02*
Y3282746D01*
X2765350D02*
X2824650D01*
X2765350Y3164392D02*
X2824650D01*
X2765350D02*
Y3282746D01*
X2795000Y3203884D02*
Y3243254D01*
X2775315Y3223569D02*
X2814685D01*
X4198949Y2780823D02*
Y2899177D01*
X4139650D02*
X4198949D01*
X4139650Y2780823D02*
X4198949D01*
X4139650D02*
Y2899177D01*
X4169299Y2820315D02*
Y2859685D01*
X4149614Y2840000D02*
X4188984D01*
X4880350Y3260823D02*
Y3379177D01*
X4939650D01*
X4880350Y3260823D02*
X4939650D01*
Y3379177D01*
X4910000Y3300315D02*
Y3339685D01*
X4890315Y3320000D02*
X4929685D01*
X4837254Y3884650D02*
X4955608D01*
X4837254Y3825350D02*
Y3884650D01*
X4955608Y3825350D02*
Y3884650D01*
X4837254Y3825350D02*
X4955608D01*
X4876746Y3855000D02*
X4916116D01*
X4896431Y3835315D02*
Y3874685D01*
X2349650Y3972254D02*
Y4090608D01*
X2290350Y3972254D02*
X2349650D01*
X2290350Y4090608D02*
X2349650D01*
X2290350Y3972254D02*
Y4090608D01*
X2320000Y4011746D02*
Y4051116D01*
X2300315Y4031431D02*
X2339685D01*
X2261650Y3972254D02*
Y4090608D01*
X2202350Y3972254D02*
X2261650D01*
X2202350Y4090608D02*
X2261650D01*
X2202350Y3972254D02*
Y4090608D01*
X2232000Y4011746D02*
Y4051116D01*
X2212315Y4031431D02*
X2251685D01*
X2085650Y3972254D02*
Y4090608D01*
X2026350Y3972254D02*
X2085650D01*
X2026350Y4090608D02*
X2085650D01*
X2026350Y3972254D02*
Y4090608D01*
X2056000Y4011746D02*
Y4051116D01*
X2036315Y4031431D02*
X2075685D01*
X2173650Y3972254D02*
Y4090608D01*
X2114350Y3972254D02*
X2173650D01*
X2114350Y4090608D02*
X2173650D01*
X2114350Y3972254D02*
Y4090608D01*
X2144000Y4011746D02*
Y4051116D01*
X2124315Y4031431D02*
X2163685D01*
X1909650Y3972254D02*
Y4090608D01*
X1850350Y3972254D02*
X1909650D01*
X1850350Y4090608D02*
X1909650D01*
X1850350Y3972254D02*
Y4090608D01*
X1880000Y4011746D02*
Y4051116D01*
X1860315Y4031431D02*
X1899685D01*
X1997650Y3972254D02*
Y4090608D01*
X1938350Y3972254D02*
X1997650D01*
X1938350Y4090608D02*
X1997650D01*
X1938350Y3972254D02*
Y4090608D01*
X1968000Y4011746D02*
Y4051116D01*
X1948315Y4031431D02*
X1987685D01*
X3594650Y3419392D02*
Y3537746D01*
X3535350D02*
X3594650D01*
X3535350Y3419392D02*
X3594650D01*
X3535350D02*
Y3537746D01*
X3565000Y3458884D02*
Y3498254D01*
X3545315Y3478569D02*
X3584685D01*
X3765350Y1986295D02*
Y2104650D01*
Y1986295D02*
X3824650D01*
X3765350Y2104650D02*
X3824650D01*
Y1986295D02*
Y2104650D01*
X3795000Y2025787D02*
Y2065157D01*
X3775315Y2045472D02*
X3814685D01*
X3677350Y1986295D02*
Y2104650D01*
Y1986295D02*
X3736650D01*
X3677350Y2104650D02*
X3736650D01*
Y1986295D02*
Y2104650D01*
X3707000Y2025787D02*
Y2065157D01*
X3687315Y2045472D02*
X3726685D01*
X3589350Y1986295D02*
Y2104650D01*
Y1986295D02*
X3648650D01*
X3589350Y2104650D02*
X3648650D01*
Y1986295D02*
Y2104650D01*
X3619000Y2025787D02*
Y2065157D01*
X3599315Y2045472D02*
X3638685D01*
X3501350Y1986295D02*
Y2104650D01*
Y1986295D02*
X3560650D01*
X3501350Y2104650D02*
X3560650D01*
Y1986295D02*
Y2104650D01*
X3531000Y2025787D02*
Y2065157D01*
X3511315Y2045472D02*
X3550685D01*
X3413350Y1986295D02*
Y2104650D01*
Y1986295D02*
X3472650D01*
X3413350Y2104650D02*
X3472650D01*
Y1986295D02*
Y2104650D01*
X3443000Y2025787D02*
Y2065157D01*
X3423315Y2045472D02*
X3462685D01*
X3325350Y1986295D02*
Y2104650D01*
Y1986295D02*
X3384650D01*
X3325350Y2104650D02*
X3384650D01*
Y1986295D02*
Y2104650D01*
X3355000Y2025787D02*
Y2065157D01*
X3335315Y2045472D02*
X3374685D01*
X2150823Y3760350D02*
X2269177D01*
Y3819650D01*
X2150823Y3760350D02*
Y3819650D01*
X2269177D01*
X2190315Y3790000D02*
X2229685D01*
X2210000Y3770315D02*
Y3809685D01*
X1910823Y3760350D02*
X2029177D01*
Y3819650D01*
X1910823Y3760350D02*
Y3819650D01*
X2029177D01*
X1950315Y3790000D02*
X1989685D01*
X1970000Y3770315D02*
Y3809685D01*
X2269650Y2770823D02*
Y2889177D01*
X2210350Y2770823D02*
X2269650D01*
X2210350Y2889177D02*
X2269650D01*
X2210350Y2770823D02*
Y2889177D01*
X2240000Y2810315D02*
Y2849685D01*
X2220315Y2830000D02*
X2259685D01*
X4155610Y3079190D02*
Y3100844D01*
X4144783Y3090017D02*
X4166436D01*
X4155610Y2979794D02*
Y3001448D01*
X4144783Y2990621D02*
X4166436D01*
X5110000Y1770000D02*
X5182085D01*
X2400000Y3010315D02*
Y3049685D01*
X2380315Y3030000D02*
X2419685D01*
X4988346Y3471968D02*
Y3511339D01*
X4968661Y3491654D02*
X5008032D01*
D145*
X4110984Y3915000D02*
G03*
X4110984Y3915000I-125984J0D01*
G01*
X2815984D02*
G03*
X2815984Y3915000I-125984J0D01*
G01*
Y2025000D02*
G03*
X2815984Y2025000I-125984J0D01*
G01*
X4110984D02*
G03*
X4110984Y2025000I-125984J0D01*
G01*
X1827520Y3915000D02*
G03*
X1827520Y3915000I-125984J0D01*
G01*
Y2025000D02*
G03*
X1827520Y2025000I-125984J0D01*
G01*
X4908543Y3591024D02*
Y3718976D01*
Y3591024D02*
X5101457D01*
Y3718976D01*
X4908543D02*
X5101457D01*
X4838661Y3619646D02*
Y3753504D01*
X4921339Y3619646D02*
Y3753504D01*
X4838661Y3619646D02*
X4921339D01*
X4838661Y3753504D02*
X4921339D01*
X5181339Y3573071D02*
Y3706929D01*
X5098661Y3573071D02*
Y3706929D01*
X5181339D01*
X5098661Y3573071D02*
X5181339D01*
X1770315Y3700000D02*
X1809685D01*
X1790000Y3680315D02*
Y3719685D01*
X1711260Y3635039D02*
X1868740D01*
Y3764961D01*
X1711260D02*
X1868740D01*
X1711260Y3635039D02*
Y3764961D01*
X2301732Y2663347D02*
Y2956653D01*
X2518268D01*
Y2663347D02*
Y2956653D01*
X2301732Y2663347D02*
X2518268D01*
X2381339Y2963071D02*
Y3096929D01*
X2298662Y2963071D02*
Y3096929D01*
X2381339D01*
X2298662Y2963071D02*
X2381339D01*
X3730474Y3305434D02*
X3789529D01*
X3730474Y3187324D02*
Y3305434D01*
X3789529Y3187324D02*
Y3305434D01*
X3730474Y3187324D02*
X3789529D01*
X2579478Y2175157D02*
X2638533D01*
Y2293267D01*
X2579478Y2175157D02*
Y2293267D01*
X2638533D01*
X2337373Y3096711D02*
X2396428D01*
X2337373D02*
Y3214821D01*
X2396428Y3096711D02*
Y3214821D01*
X2337373D02*
X2396428D01*
X4082530Y3360153D02*
Y3419208D01*
X3964420D02*
X4082530D01*
X3964420Y3360153D02*
X4082530D01*
X3964420D02*
Y3419208D01*
X3810687Y3187044D02*
X3869742D01*
Y3305154D01*
X3810687Y3187044D02*
Y3305154D01*
X3869742D01*
X1600472Y3408583D02*
X1659527D01*
Y3290472D02*
Y3408583D01*
X1600472Y3290472D02*
Y3408583D01*
Y3290472D02*
X1659527D01*
X1790039Y2822738D02*
X1849094D01*
Y2940849D01*
X1790039Y2822738D02*
Y2940849D01*
X1849094D01*
X3964420Y3440358D02*
Y3499413D01*
Y3440358D02*
X4082530D01*
X3964420Y3499413D02*
X4082530D01*
Y3440358D02*
Y3499413D01*
X4050472Y3039055D02*
X4109528D01*
X4050472Y2920945D02*
Y3039055D01*
X4109528Y2920945D02*
Y3039055D01*
X4050472Y2920945D02*
X4109528D01*
X3699055Y3830472D02*
Y3889528D01*
X3580945D02*
X3699055D01*
X3580945Y3830472D02*
X3699055D01*
X3580945D02*
Y3889528D01*
X2450472Y2980945D02*
X2509528D01*
X2450472D02*
Y3099055D01*
X2509528Y2980945D02*
Y3099055D01*
X2450472D02*
X2509528D01*
X3890619Y3305075D02*
X3949674D01*
X3890619Y3186965D02*
Y3305075D01*
X3949674Y3186965D02*
Y3305075D01*
X3890619Y3186965D02*
X3949674D01*
X4990472Y3720945D02*
X5049528D01*
Y3839055D01*
X4990472Y3720945D02*
Y3839055D01*
X5049528D01*
X2330472Y2250945D02*
X2389528D01*
X2330472D02*
Y2369055D01*
X2389528Y2250945D02*
Y2369055D01*
X2330472D02*
X2389528D01*
X4286937Y3661288D02*
X4345992D01*
Y3543178D02*
Y3661288D01*
X4286937Y3543178D02*
Y3661288D01*
Y3543178D02*
X4345992D01*
X4426360Y3476624D02*
Y3535680D01*
Y3476624D02*
X4544470D01*
X4426360Y3535680D02*
X4544470D01*
Y3476624D02*
Y3535680D01*
X4959246Y3384055D02*
X5018301D01*
Y3265945D02*
Y3384055D01*
X4959246Y3265945D02*
Y3384055D01*
Y3265945D02*
X5018301D01*
X2340945Y2590472D02*
Y2649528D01*
X2459055D01*
X2340945Y2590472D02*
X2459055D01*
Y2649528D01*
X4082530Y3279949D02*
Y3339004D01*
X3964420D02*
X4082530D01*
X3964420Y3279949D02*
X4082530D01*
X3964420D02*
Y3339004D01*
X2261417Y2498976D02*
Y2621024D01*
X2138583Y2498976D02*
Y2621024D01*
X2261417D01*
X2138583Y2498976D02*
X2261417D01*
X3557299Y3896646D02*
Y4134835D01*
X3844701D01*
Y3896646D02*
Y4134835D01*
X3557299Y3896646D02*
X3844701D01*
X4815866Y3561260D02*
Y4133307D01*
X4270197Y3561260D02*
X4815866D01*
X4270197D02*
Y4133307D01*
X4815866D01*
X3775315Y2126260D02*
X3814685D01*
Y2224685D01*
X3775315Y2126260D02*
Y2224685D01*
X3814685D01*
X3687315Y2126260D02*
X3726685D01*
Y2224685D01*
X3687315Y2126260D02*
Y2224685D01*
X3726685D01*
X3599315Y2126260D02*
X3638685D01*
Y2224685D01*
X3599315Y2126260D02*
Y2224685D01*
X3638685D01*
X3511315Y2126260D02*
X3550685D01*
Y2224685D01*
X3511315Y2126260D02*
Y2224685D01*
X3550685D01*
X3423315Y2126260D02*
X3462685D01*
Y2224685D01*
X3423315Y2126260D02*
Y2224685D01*
X3462685D01*
X3335315Y2126260D02*
X3374685D01*
Y2224685D01*
X3335315Y2126260D02*
Y2224685D01*
X3374685D01*
X2370312Y4079209D02*
X2409682D01*
X2370312Y3980784D02*
Y4079209D01*
X2409682Y3980784D02*
Y4079209D01*
X2370312Y3980784D02*
X2409682D01*
X2245312Y4079209D02*
X2284682D01*
X2245312Y3980784D02*
Y4079209D01*
X2284682Y3980784D02*
Y4079209D01*
X2245312Y3980784D02*
X2284682D01*
X2120312Y4079209D02*
X2159682D01*
X2120312Y3980784D02*
Y4079209D01*
X2159682Y3980784D02*
Y4079209D01*
X2120312Y3980784D02*
X2159682D01*
X1995312Y4079209D02*
X2034682D01*
X1995312Y3980784D02*
Y4079209D01*
X2034682Y3980784D02*
Y4079209D01*
X1995312Y3980784D02*
X2034682D01*
X1988189Y3503583D02*
Y3692559D01*
X1692913D02*
X1988189D01*
X1692913Y3503583D02*
Y3692559D01*
Y3503583D02*
X1988189D01*
X2340945Y3680472D02*
Y3739528D01*
X2459055D01*
X2340945Y3680472D02*
X2459055D01*
Y3739528D01*
X2580472Y2400945D02*
X2639528D01*
Y2519055D01*
X2580472Y2400945D02*
Y2519055D01*
X2639528D01*
X4969055Y2450472D02*
Y2509528D01*
X4850945D02*
X4969055D01*
X4850945Y2450472D02*
X4969055D01*
X4850945D02*
Y2509528D01*
X2267284Y2613071D02*
X2552716D01*
Y2746929D01*
X2267284D02*
X2552716D01*
X2267284Y2613071D02*
Y2746929D01*
X2831260Y3906102D02*
X2988740D01*
X2831260D02*
Y3993898D01*
X2988740Y3906102D02*
Y3993898D01*
X2831260D02*
X2988740D01*
X3011260Y3906102D02*
X3168740D01*
X3011260D02*
Y3993898D01*
X3168740Y3906102D02*
Y3993898D01*
X3011260D02*
X3168740D01*
X3191260Y3906102D02*
X3348740D01*
X3191260D02*
Y3993898D01*
X3348740Y3906102D02*
Y3993898D01*
X3191260D02*
X3348740D01*
X1401260Y3876102D02*
X1558740D01*
X1401260D02*
Y3963898D01*
X1558740Y3876102D02*
Y3963898D01*
X1401260D02*
X1558740D01*
X3626260Y3501102D02*
X3783740D01*
X3626260D02*
Y3588898D01*
X3783740Y3501102D02*
Y3588898D01*
X3626260D02*
X3783740D01*
X4646260Y3241102D02*
X4803740D01*
X4646260D02*
Y3328898D01*
X4803740Y3241102D02*
Y3328898D01*
X4646260D02*
X4803740D01*
X4851260Y3241102D02*
X5008740D01*
X4851260D02*
Y3328898D01*
X5008740Y3241102D02*
Y3328898D01*
X4851260D02*
X5008740D01*
X3371260Y3906102D02*
X3528740D01*
X3371260D02*
Y3993898D01*
X3528740Y3906102D02*
Y3993898D01*
X3371260D02*
X3528740D01*
X3965315Y3915000D02*
X4004685D01*
X3985000Y3895315D02*
Y3934685D01*
X2670315Y3915000D02*
X2709685D01*
X2690000Y3895315D02*
Y3934685D01*
X2670315Y2025000D02*
X2709685D01*
X2690000Y2005315D02*
Y2044685D01*
X3965315Y2025000D02*
X4004685D01*
X3985000Y2005315D02*
Y2044685D01*
X1681850Y3915000D02*
X1721220D01*
X1701535Y3895315D02*
Y3934685D01*
X1681850Y2025000D02*
X1721220D01*
X1701535Y2005315D02*
Y2044685D01*
X4185195Y1782992D02*
Y3090078D01*
Y1782992D02*
X4984408D01*
Y3090078D01*
X4185195D02*
X4984408D01*
X4137893Y3054584D02*
X4173326D01*
X4137893Y3125450D02*
X4173326D01*
Y3054584D02*
Y3125450D01*
X4137893Y3054584D02*
Y3125450D01*
Y2955188D02*
X4173326D01*
X4137893Y3026054D02*
X4173326D01*
Y2955188D02*
Y3026054D01*
X4137893Y2955188D02*
Y3026054D01*
X2358662Y2963071D02*
X2441339D01*
X2358662Y3096929D02*
X2441339D01*
X2358662Y2963071D02*
Y3096929D01*
X2441339Y2963071D02*
Y3096929D01*
X4893858Y3586142D02*
X5082835D01*
X4893858Y3397165D02*
X5082835D01*
X4893858D02*
Y3586142D01*
X5082835Y3397165D02*
Y3586142D01*
%TF.MD5,914d30d4606aeab5d3f0e25d8ecb543e*%
M02*
