%TF.GenerationSoftware,Altium Limited,Altium Designer,23.9.2 (47)*%
G04 Layer_Physical_Order=2*
G04 Layer_Color=36540*
%FSLAX26Y26*%
%MOIN*%
%TF.SameCoordinates,9865C014-B1B1-49D6-8399-87C266C41E35*%
%TF.FilePolarity,Positive*%
%TF.FileFunction,Copper,L2,Inr,Signal*%
%TF.Part,Single*%
G01*
G75*
%TA.AperFunction,ComponentPad*%
%ADD38C,0.025591*%
%ADD39C,0.070866*%
%ADD40R,0.070866X0.070866*%
%ADD42C,0.094488*%
%ADD43C,0.110236*%
%ADD44C,0.059843*%
%ADD45C,0.055118*%
G04:AMPARAMS|DCode=46|XSize=55.118mil|YSize=55.118mil|CornerRadius=13.78mil|HoleSize=0mil|Usage=FLASHONLY|Rotation=180.000|XOffset=0mil|YOffset=0mil|HoleType=Round|Shape=RoundedRectangle|*
%AMROUNDEDRECTD46*
21,1,0.055118,0.027559,0,0,180.0*
21,1,0.027559,0.055118,0,0,180.0*
1,1,0.027559,-0.013780,0.013780*
1,1,0.027559,0.013780,0.013780*
1,1,0.027559,0.013780,-0.013780*
1,1,0.027559,-0.013780,-0.013780*
%
%ADD46ROUNDEDRECTD46*%
%ADD47O,0.055118X0.047244*%
%ADD48C,0.075000*%
%ADD49R,0.075000X0.075000*%
%TA.AperFunction,ViaPad*%
%ADD50C,0.019685*%
%ADD51C,0.020000*%
%ADD52C,0.013780*%
%ADD53C,0.040000*%
%ADD54C,0.030000*%
%TA.AperFunction,Conductor*%
%ADD55C,0.030000*%
G36*
X5280000Y4010000D02*
X5270000Y4000000D01*
Y1890000D01*
X5190000Y1810000D01*
X5050000D01*
X4920000Y1940000D01*
Y2040277D01*
X4924415Y2041460D01*
X4937468Y2048996D01*
X4948126Y2059654D01*
X4955662Y2072708D01*
X4959563Y2087267D01*
Y2089803D01*
X4902319D01*
Y2099803D01*
X4959563D01*
Y2102339D01*
X4955662Y2116898D01*
X4948126Y2129952D01*
X4937468Y2140610D01*
X4924415Y2148146D01*
X4920000Y2149329D01*
Y3080000D01*
X4870000Y3130000D01*
X4290000D01*
X4250000Y3090000D01*
Y2441835D01*
X4245843Y2439057D01*
X4243947Y2439843D01*
X4236053D01*
X4228760Y2436822D01*
X4223178Y2431240D01*
X4220158Y2423947D01*
Y2416053D01*
X4223178Y2408760D01*
X4228760Y2403178D01*
X4236053Y2400157D01*
X4243947D01*
X4245843Y2400943D01*
X4250000Y2398165D01*
Y2149436D01*
X4245184Y2148146D01*
X4232131Y2140610D01*
X4221473Y2129952D01*
X4213937Y2116898D01*
X4210036Y2102339D01*
Y2099803D01*
X4267280D01*
Y2089803D01*
X4210036D01*
Y2087267D01*
X4213937Y2072708D01*
X4221473Y2059654D01*
X4232131Y2048996D01*
X4245184Y2041460D01*
X4250000Y2040170D01*
Y1950000D01*
X4100000Y1800000D01*
X1420000Y1800000D01*
X1320000Y1900000D01*
Y4042085D01*
X1397915Y4120000D01*
X1962947D01*
X1965725Y4115843D01*
X1965000Y4114091D01*
Y4106135D01*
X1968045Y4098784D01*
X1973671Y4093158D01*
X1981022Y4090113D01*
X1988978D01*
X1996329Y4093158D01*
X2001955Y4098784D01*
X2005000Y4106135D01*
Y4114091D01*
X2004275Y4115843D01*
X2007053Y4120000D01*
X2121172D01*
X2124513Y4115000D01*
X2123446Y4112425D01*
Y4104468D01*
X2126491Y4097117D01*
X2132117Y4091491D01*
X2139468Y4088446D01*
X2147425D01*
X2154776Y4091491D01*
X2160402Y4097117D01*
X2163446Y4104468D01*
Y4112425D01*
X2162380Y4115000D01*
X2165721Y4120000D01*
X2222994D01*
X2225772Y4115843D01*
X2225000Y4113978D01*
Y4106022D01*
X2228045Y4098671D01*
X2233671Y4093045D01*
X2241022Y4090000D01*
X2248978D01*
X2256329Y4093045D01*
X2261955Y4098671D01*
X2265000Y4106022D01*
Y4113978D01*
X2264228Y4115843D01*
X2267006Y4120000D01*
X2312994D01*
X2315772Y4115843D01*
X2315000Y4113978D01*
Y4106022D01*
X2318045Y4098671D01*
X2323671Y4093045D01*
X2331022Y4090000D01*
X2338978D01*
X2346329Y4093045D01*
X2351955Y4098671D01*
X2355000Y4106022D01*
Y4113978D01*
X2354228Y4115843D01*
X2357006Y4120000D01*
X5170000D01*
X5280000Y4010000D01*
D02*
G37*
%LPC*%
G36*
X2193978Y3970000D02*
X2186022D01*
X2178671Y3966955D01*
X2173045Y3961329D01*
X2170000Y3953978D01*
Y3946022D01*
X2173045Y3938671D01*
X2178671Y3933045D01*
X2186022Y3930000D01*
X2193978D01*
X2201329Y3933045D01*
X2206955Y3938671D01*
X2210000Y3946022D01*
Y3953978D01*
X2206955Y3961329D01*
X2201329Y3966955D01*
X2193978Y3970000D01*
D02*
G37*
G36*
X1923978D02*
X1916022D01*
X1908671Y3966955D01*
X1903045Y3961329D01*
X1900000Y3953978D01*
Y3946022D01*
X1903045Y3938671D01*
X1908671Y3933045D01*
X1916022Y3930000D01*
X1923978D01*
X1931329Y3933045D01*
X1936955Y3938671D01*
X1940000Y3946022D01*
Y3953978D01*
X1936955Y3961329D01*
X1931329Y3966955D01*
X1923978Y3970000D01*
D02*
G37*
G36*
X4898947Y3954843D02*
X4891053D01*
X4883760Y3951822D01*
X4878178Y3946240D01*
X4875158Y3938947D01*
Y3931053D01*
X4878178Y3923760D01*
X4883760Y3918178D01*
X4891053Y3915157D01*
X4898947D01*
X4906240Y3918178D01*
X4911822Y3923760D01*
X4914842Y3931053D01*
Y3938947D01*
X4911822Y3946240D01*
X4906240Y3951822D01*
X4898947Y3954843D01*
D02*
G37*
G36*
X4353947Y3919843D02*
X4346053D01*
X4338760Y3916822D01*
X4333178Y3911240D01*
X4330158Y3903947D01*
Y3896053D01*
X4333178Y3888760D01*
X4338760Y3883178D01*
X4346053Y3880157D01*
X4353947D01*
X4361240Y3883178D01*
X4366822Y3888760D01*
X4369842Y3896053D01*
Y3903947D01*
X4366822Y3911240D01*
X4361240Y3916822D01*
X4353947Y3919843D01*
D02*
G37*
G36*
X3243947Y3909843D02*
X3236053D01*
X3228760Y3906822D01*
X3223178Y3901240D01*
X3220157Y3893947D01*
Y3886053D01*
X3223178Y3878760D01*
X3228760Y3873178D01*
X3236053Y3870157D01*
X3243947D01*
X3251240Y3873178D01*
X3256822Y3878760D01*
X3259843Y3886053D01*
Y3893947D01*
X3256822Y3901240D01*
X3251240Y3906822D01*
X3243947Y3909843D01*
D02*
G37*
G36*
X3992949Y3995709D02*
X3977051D01*
X3961458Y3992607D01*
X3946770Y3986523D01*
X3933551Y3977691D01*
X3922309Y3966449D01*
X3913477Y3953230D01*
X3907393Y3938542D01*
X3904291Y3922949D01*
Y3907051D01*
X3907393Y3891458D01*
X3913477Y3876770D01*
X3922309Y3863551D01*
X3933551Y3852309D01*
X3946770Y3843477D01*
X3961458Y3837393D01*
X3977051Y3834291D01*
X3992949D01*
X4008542Y3837393D01*
X4023230Y3843477D01*
X4036448Y3852309D01*
X4047690Y3863551D01*
X4056523Y3876770D01*
X4062607Y3891458D01*
X4065708Y3907051D01*
Y3922949D01*
X4062607Y3938542D01*
X4056523Y3953230D01*
X4047690Y3966449D01*
X4036448Y3977691D01*
X4023230Y3986523D01*
X4008542Y3992607D01*
X3992949Y3995709D01*
D02*
G37*
G36*
X2697949D02*
X2682051D01*
X2666458Y3992607D01*
X2651770Y3986523D01*
X2638551Y3977691D01*
X2627309Y3966449D01*
X2618477Y3953230D01*
X2612393Y3938542D01*
X2609291Y3922949D01*
Y3907051D01*
X2612393Y3891458D01*
X2618477Y3876770D01*
X2627309Y3863551D01*
X2638551Y3852309D01*
X2651770Y3843477D01*
X2666458Y3837393D01*
X2682051Y3834291D01*
X2697949D01*
X2713542Y3837393D01*
X2728230Y3843477D01*
X2741448Y3852309D01*
X2752690Y3863551D01*
X2761523Y3876770D01*
X2767607Y3891458D01*
X2770708Y3907051D01*
Y3922949D01*
X2767607Y3938542D01*
X2761523Y3953230D01*
X2752690Y3966449D01*
X2741448Y3977691D01*
X2728230Y3986523D01*
X2713542Y3992607D01*
X2697949Y3995709D01*
D02*
G37*
G36*
X1709484D02*
X1693586D01*
X1677993Y3992607D01*
X1663305Y3986523D01*
X1650086Y3977691D01*
X1638845Y3966449D01*
X1630012Y3953230D01*
X1623928Y3938542D01*
X1620827Y3922949D01*
Y3907051D01*
X1623928Y3891458D01*
X1630012Y3876770D01*
X1638845Y3863551D01*
X1650086Y3852309D01*
X1663305Y3843477D01*
X1677993Y3837393D01*
X1693586Y3834291D01*
X1709484D01*
X1725077Y3837393D01*
X1739765Y3843477D01*
X1752984Y3852309D01*
X1764226Y3863551D01*
X1773058Y3876770D01*
X1779142Y3891458D01*
X1782244Y3907051D01*
Y3922949D01*
X1779142Y3938542D01*
X1773058Y3953230D01*
X1764226Y3966449D01*
X1752984Y3977691D01*
X1739765Y3986523D01*
X1725077Y3992607D01*
X1709484Y3995709D01*
D02*
G37*
G36*
X2090702Y3833307D02*
X2079298D01*
X2068284Y3830356D01*
X2058409Y3824654D01*
X2050346Y3816591D01*
X2044644Y3806716D01*
X2041693Y3795702D01*
Y3784298D01*
X2044644Y3773284D01*
X2050346Y3763409D01*
X2058409Y3755346D01*
X2068284Y3749644D01*
X2079298Y3746693D01*
X2090702D01*
X2101716Y3749644D01*
X2111591Y3755346D01*
X2119654Y3763409D01*
X2125356Y3773284D01*
X2128307Y3784298D01*
Y3795702D01*
X2125356Y3806716D01*
X2119654Y3816591D01*
X2111591Y3824654D01*
X2101716Y3830356D01*
X2090702Y3833307D01*
D02*
G37*
G36*
X4343947Y3759843D02*
X4336053D01*
X4328760Y3756822D01*
X4323178Y3751240D01*
X4320158Y3743947D01*
Y3736053D01*
X4323178Y3728760D01*
X4328760Y3723178D01*
X4336053Y3720157D01*
X4343947D01*
X4351240Y3723178D01*
X4356822Y3728760D01*
X4359842Y3736053D01*
Y3743947D01*
X4356822Y3751240D01*
X4351240Y3756822D01*
X4343947Y3759843D01*
D02*
G37*
G36*
X2928947D02*
X2921053D01*
X2913760Y3756822D01*
X2908178Y3751240D01*
X2905157Y3743947D01*
Y3736053D01*
X2908178Y3728760D01*
X2913760Y3723178D01*
X2921053Y3720157D01*
X2928947D01*
X2936240Y3723178D01*
X2941822Y3728760D01*
X2944843Y3736053D01*
Y3743947D01*
X2941822Y3751240D01*
X2936240Y3756822D01*
X2928947Y3759843D01*
D02*
G37*
G36*
X4168847Y3730672D02*
X4160953D01*
X4153660Y3727651D01*
X4148079Y3722070D01*
X4145058Y3714776D01*
Y3706883D01*
X4148079Y3699590D01*
X4153660Y3694008D01*
X4160953Y3690987D01*
X4168847D01*
X4176140Y3694008D01*
X4181722Y3699590D01*
X4184743Y3706883D01*
Y3714776D01*
X4181722Y3722070D01*
X4176140Y3727651D01*
X4168847Y3730672D01*
D02*
G37*
G36*
X5005000Y3699577D02*
Y3685000D01*
X5019577D01*
X5016955Y3691329D01*
X5011329Y3696955D01*
X5005000Y3699577D01*
D02*
G37*
G36*
X4995000D02*
X4988671Y3696955D01*
X4983045Y3691329D01*
X4980423Y3685000D01*
X4995000D01*
Y3699577D01*
D02*
G37*
G36*
X1703947Y3719843D02*
X1696053D01*
X1688760Y3716822D01*
X1683178Y3711240D01*
X1680158Y3703947D01*
Y3696053D01*
X1683178Y3688760D01*
X1688760Y3683178D01*
X1696053Y3680157D01*
X1703947D01*
X1711240Y3683178D01*
X1716822Y3688760D01*
X1719842Y3696053D01*
Y3703947D01*
X1716822Y3711240D01*
X1711240Y3716822D01*
X1703947Y3719843D01*
D02*
G37*
G36*
X4707155Y3687668D02*
Y3673092D01*
X4721732D01*
X4719110Y3679421D01*
X4713484Y3685047D01*
X4707155Y3687668D01*
D02*
G37*
G36*
X4697155D02*
X4690826Y3685047D01*
X4685200Y3679421D01*
X4682578Y3673092D01*
X4697155D01*
Y3687668D01*
D02*
G37*
G36*
X2968947Y3709843D02*
X2961053D01*
X2953760Y3706822D01*
X2948178Y3701240D01*
X2945157Y3693947D01*
Y3686053D01*
X2948178Y3678760D01*
X2953760Y3673178D01*
X2961053Y3670157D01*
X2968947D01*
X2976240Y3673178D01*
X2981822Y3678760D01*
X2984843Y3686053D01*
Y3693947D01*
X2981822Y3701240D01*
X2976240Y3706822D01*
X2968947Y3709843D01*
D02*
G37*
G36*
X4765000Y3684577D02*
Y3670000D01*
X4779577D01*
X4776955Y3676329D01*
X4771329Y3681955D01*
X4765000Y3684577D01*
D02*
G37*
G36*
X4755000D02*
X4748671Y3681955D01*
X4743045Y3676329D01*
X4740423Y3670000D01*
X4755000D01*
Y3684577D01*
D02*
G37*
G36*
X4635000D02*
Y3670000D01*
X4649577D01*
X4646955Y3676329D01*
X4641329Y3681955D01*
X4635000Y3684577D01*
D02*
G37*
G36*
X4625000D02*
X4618671Y3681955D01*
X4613045Y3676329D01*
X4610423Y3670000D01*
X4625000D01*
Y3684577D01*
D02*
G37*
G36*
X5019577Y3675000D02*
X5005000D01*
Y3660423D01*
X5011329Y3663045D01*
X5016955Y3668671D01*
X5019577Y3675000D01*
D02*
G37*
G36*
X4995000D02*
X4980423D01*
X4983045Y3668671D01*
X4988671Y3663045D01*
X4995000Y3660423D01*
Y3675000D01*
D02*
G37*
G36*
X4721732Y3663092D02*
X4707155D01*
Y3648515D01*
X4713484Y3651136D01*
X4719110Y3656762D01*
X4721732Y3663092D01*
D02*
G37*
G36*
X4697155D02*
X4682578D01*
X4685200Y3656762D01*
X4690826Y3651136D01*
X4697155Y3648515D01*
Y3663092D01*
D02*
G37*
G36*
X2090702Y3733307D02*
X2079298D01*
X2068284Y3730356D01*
X2058409Y3724654D01*
X2050346Y3716591D01*
X2044644Y3706716D01*
X2041693Y3695702D01*
Y3684298D01*
X2044644Y3673284D01*
X2050346Y3663409D01*
X2058409Y3655346D01*
X2068284Y3649644D01*
X2079298Y3646693D01*
X2090702D01*
X2101716Y3649644D01*
X2111591Y3655346D01*
X2119654Y3663409D01*
X2125356Y3673284D01*
X2128307Y3684298D01*
Y3695702D01*
X2125356Y3706716D01*
X2119654Y3716591D01*
X2111591Y3724654D01*
X2101716Y3730356D01*
X2090702Y3733307D01*
D02*
G37*
G36*
X4779577Y3660000D02*
X4765000D01*
Y3645423D01*
X4771329Y3648045D01*
X4776955Y3653671D01*
X4779577Y3660000D01*
D02*
G37*
G36*
X4755000D02*
X4740423D01*
X4743045Y3653671D01*
X4748671Y3648045D01*
X4755000Y3645423D01*
Y3660000D01*
D02*
G37*
G36*
X4649577D02*
X4635000D01*
Y3645423D01*
X4641329Y3648045D01*
X4646955Y3653671D01*
X4649577Y3660000D01*
D02*
G37*
G36*
X4625000D02*
X4610423D01*
X4613045Y3653671D01*
X4618671Y3648045D01*
X4625000Y3645423D01*
Y3660000D01*
D02*
G37*
G36*
X4235000Y3652077D02*
Y3637500D01*
X4249577D01*
X4246955Y3643829D01*
X4241329Y3649455D01*
X4235000Y3652077D01*
D02*
G37*
G36*
X4225000D02*
X4218671Y3649455D01*
X4213045Y3643829D01*
X4210423Y3637500D01*
X4225000D01*
Y3652077D01*
D02*
G37*
G36*
X4249577Y3627500D02*
X4235000D01*
Y3612923D01*
X4241329Y3615545D01*
X4246955Y3621171D01*
X4249577Y3627500D01*
D02*
G37*
G36*
X4225000D02*
X4210423D01*
X4213045Y3621171D01*
X4218671Y3615545D01*
X4225000Y3612923D01*
Y3627500D01*
D02*
G37*
G36*
X3983947Y3609843D02*
X3976053D01*
X3968760Y3606822D01*
X3963178Y3601240D01*
X3962306Y3601066D01*
X3962073Y3601300D01*
X3954780Y3604320D01*
X3946886D01*
X3939593Y3601300D01*
X3934012Y3595718D01*
X3930991Y3588425D01*
Y3580531D01*
X3934012Y3573238D01*
X3939593Y3567656D01*
X3946886Y3564635D01*
X3954780D01*
X3962073Y3567656D01*
X3967655Y3573238D01*
X3968527Y3573412D01*
X3968760Y3573178D01*
X3976053Y3570157D01*
X3983947D01*
X3991240Y3573178D01*
X3996822Y3578760D01*
X3999843Y3586053D01*
Y3593947D01*
X3996822Y3601240D01*
X3991240Y3606822D01*
X3983947Y3609843D01*
D02*
G37*
G36*
X5105000Y3594577D02*
Y3580000D01*
X5119577D01*
X5116955Y3586329D01*
X5111329Y3591955D01*
X5105000Y3594577D01*
D02*
G37*
G36*
X5095000D02*
X5088671Y3591955D01*
X5083045Y3586329D01*
X5080423Y3580000D01*
X5095000D01*
Y3594577D01*
D02*
G37*
G36*
X5150000Y3584577D02*
Y3570000D01*
X5164577D01*
X5161955Y3576329D01*
X5156329Y3581955D01*
X5150000Y3584577D01*
D02*
G37*
G36*
X5140000D02*
X5133671Y3581955D01*
X5128045Y3576329D01*
X5125423Y3570000D01*
X5140000D01*
Y3584577D01*
D02*
G37*
G36*
X1523993Y3599016D02*
X1515771D01*
X1508174Y3595869D01*
X1502359Y3590055D01*
X1499213Y3582458D01*
Y3574235D01*
X1502359Y3566638D01*
X1508174Y3560824D01*
X1515771Y3557677D01*
X1523993D01*
X1531590Y3560824D01*
X1537405Y3566638D01*
X1540551Y3574235D01*
Y3582458D01*
X1537405Y3590055D01*
X1531590Y3595869D01*
X1523993Y3599016D01*
D02*
G37*
G36*
X5119577Y3570000D02*
X5105000D01*
Y3555423D01*
X5111329Y3558045D01*
X5116955Y3563671D01*
X5119577Y3570000D01*
D02*
G37*
G36*
X5095000D02*
X5080423D01*
X5083045Y3563671D01*
X5088671Y3558045D01*
X5095000Y3555423D01*
Y3570000D01*
D02*
G37*
G36*
X1673947Y3559843D02*
X1666053D01*
X1658760Y3556822D01*
X1653178Y3551240D01*
X1652706Y3550099D01*
X1647294D01*
X1646822Y3551240D01*
X1641240Y3556822D01*
X1633947Y3559843D01*
X1626053D01*
X1618760Y3556822D01*
X1613178Y3551240D01*
X1610158Y3543947D01*
Y3536053D01*
X1613178Y3528760D01*
X1618760Y3523178D01*
X1626053Y3520157D01*
X1633947D01*
X1641240Y3523178D01*
X1646822Y3528760D01*
X1647294Y3529901D01*
X1652706D01*
X1653178Y3528760D01*
X1658760Y3523178D01*
X1666053Y3520157D01*
X1673947D01*
X1681240Y3523178D01*
X1686822Y3528760D01*
X1689842Y3536053D01*
Y3543947D01*
X1686822Y3551240D01*
X1681240Y3556822D01*
X1673947Y3559843D01*
D02*
G37*
G36*
X4570323Y3564577D02*
Y3550000D01*
X4584900D01*
X4582278Y3556329D01*
X4576652Y3561955D01*
X4570323Y3564577D01*
D02*
G37*
G36*
X4560323D02*
X4553994Y3561955D01*
X4548368Y3556329D01*
X4545746Y3550000D01*
X4560323D01*
Y3564577D01*
D02*
G37*
G36*
X2090702Y3633307D02*
X2079298D01*
X2068284Y3630356D01*
X2058409Y3624654D01*
X2050346Y3616591D01*
X2044644Y3606716D01*
X2041693Y3595702D01*
Y3584298D01*
X2044644Y3573284D01*
X2050346Y3563409D01*
X2058409Y3555346D01*
X2068284Y3549644D01*
X2079298Y3546693D01*
X2090702D01*
X2101716Y3549644D01*
X2111591Y3555346D01*
X2119654Y3563409D01*
X2125356Y3573284D01*
X2128307Y3584298D01*
Y3595702D01*
X2125356Y3606716D01*
X2119654Y3616591D01*
X2111591Y3624654D01*
X2101716Y3630356D01*
X2090702Y3633307D01*
D02*
G37*
G36*
X5164577Y3560000D02*
X5150000D01*
Y3545423D01*
X5156329Y3548045D01*
X5161955Y3553671D01*
X5164577Y3560000D01*
D02*
G37*
G36*
X5140000D02*
X5125423D01*
X5128045Y3553671D01*
X5133671Y3548045D01*
X5140000Y3545423D01*
Y3560000D01*
D02*
G37*
G36*
X4858978Y3575000D02*
X4851022D01*
X4843671Y3571955D01*
X4838045Y3566329D01*
X4835000Y3558978D01*
Y3551022D01*
X4838045Y3543671D01*
X4843671Y3538045D01*
X4851022Y3535000D01*
X4858978D01*
X4866329Y3538045D01*
X4871955Y3543671D01*
X4875000Y3551022D01*
Y3558978D01*
X4871955Y3566329D01*
X4866329Y3571955D01*
X4858978Y3575000D01*
D02*
G37*
G36*
X4243978D02*
X4236022D01*
X4228671Y3571955D01*
X4223045Y3566329D01*
X4220000Y3558978D01*
Y3551022D01*
X4223045Y3543671D01*
X4228671Y3538045D01*
X4236022Y3535000D01*
X4243978D01*
X4251329Y3538045D01*
X4256955Y3543671D01*
X4260000Y3551022D01*
Y3558978D01*
X4256955Y3566329D01*
X4251329Y3571955D01*
X4243978Y3575000D01*
D02*
G37*
G36*
X4178978D02*
X4171022D01*
X4163671Y3571955D01*
X4158045Y3566329D01*
X4155000Y3558978D01*
Y3551022D01*
X4158045Y3543671D01*
X4163671Y3538045D01*
X4171022Y3535000D01*
X4178978D01*
X4186329Y3538045D01*
X4191955Y3543671D01*
X4195000Y3551022D01*
Y3558978D01*
X4191955Y3566329D01*
X4186329Y3571955D01*
X4178978Y3575000D01*
D02*
G37*
G36*
X4584900Y3540000D02*
X4570323D01*
Y3525423D01*
X4576652Y3528045D01*
X4582278Y3533671D01*
X4584900Y3540000D01*
D02*
G37*
G36*
X4560323D02*
X4545746D01*
X4548368Y3533671D01*
X4553994Y3528045D01*
X4560323Y3525423D01*
Y3540000D01*
D02*
G37*
G36*
X5005000Y3532713D02*
X4998760Y3530129D01*
X4993178Y3524547D01*
X4991052Y3519415D01*
X4985640D01*
X4983515Y3524547D01*
X4977933Y3530129D01*
X4971693Y3532713D01*
Y3513307D01*
X4966693D01*
Y3508307D01*
X4947287D01*
X4949871Y3502067D01*
X4955453Y3496485D01*
X4960585Y3494360D01*
Y3488948D01*
X4955453Y3486822D01*
X4949871Y3481240D01*
X4947287Y3475000D01*
X4966693D01*
Y3470000D01*
X4971693D01*
Y3450594D01*
X4977933Y3453178D01*
X4983515Y3458760D01*
X4985640Y3463892D01*
X4991052D01*
X4993178Y3458760D01*
X4998760Y3453178D01*
X5005000Y3450594D01*
Y3470000D01*
X5010000D01*
Y3475000D01*
X5029406D01*
X5026822Y3481240D01*
X5021240Y3486822D01*
X5016108Y3488948D01*
Y3494360D01*
X5021240Y3496485D01*
X5026822Y3502067D01*
X5029406Y3508307D01*
X5010000D01*
Y3513307D01*
X5005000D01*
Y3532713D01*
D02*
G37*
G36*
X5015000D02*
Y3518307D01*
X5029406D01*
X5026822Y3524547D01*
X5021240Y3530129D01*
X5015000Y3532713D01*
D02*
G37*
G36*
X4961693D02*
X4955453Y3530129D01*
X4949871Y3524547D01*
X4947287Y3518307D01*
X4961693D01*
Y3532713D01*
D02*
G37*
G36*
X3338978Y3555000D02*
X3331022D01*
X3323671Y3551955D01*
X3318045Y3546329D01*
X3315000Y3538978D01*
Y3531022D01*
X3318045Y3523671D01*
X3323671Y3518045D01*
X3331022Y3515000D01*
X3338978D01*
X3346329Y3518045D01*
X3351955Y3523671D01*
X3355000Y3531022D01*
Y3538978D01*
X3351955Y3546329D01*
X3346329Y3551955D01*
X3338978Y3555000D01*
D02*
G37*
G36*
X1523545Y3549548D02*
X1515589D01*
X1508238Y3546504D01*
X1502612Y3540878D01*
X1499567Y3533527D01*
Y3525570D01*
X1502612Y3518219D01*
X1508238Y3512593D01*
X1515589Y3509548D01*
X1523545D01*
X1530896Y3512593D01*
X1536522Y3518219D01*
X1539567Y3525570D01*
Y3533527D01*
X1536522Y3540878D01*
X1530896Y3546504D01*
X1523545Y3549548D01*
D02*
G37*
G36*
X4065249Y3591386D02*
X4057293D01*
X4049942Y3588341D01*
X4044316Y3582715D01*
X4041271Y3575364D01*
Y3567408D01*
X4044316Y3560057D01*
X4049942Y3554431D01*
X4051871Y3553632D01*
Y3548220D01*
X4045839Y3545722D01*
X4038806Y3538689D01*
X4035000Y3529500D01*
Y3519555D01*
X4038806Y3510366D01*
X4045839Y3503334D01*
X4055027Y3499528D01*
X4064973D01*
X4074161Y3503334D01*
X4081194Y3510366D01*
X4085000Y3519555D01*
Y3529500D01*
X4081194Y3538689D01*
X4074161Y3545722D01*
X4069401Y3547694D01*
Y3553106D01*
X4072600Y3554431D01*
X4078226Y3560057D01*
X4081271Y3567408D01*
Y3575364D01*
X4078226Y3582715D01*
X4072600Y3588341D01*
X4065249Y3591386D01*
D02*
G37*
G36*
X4273978Y3530000D02*
X4266022D01*
X4258671Y3526955D01*
X4253045Y3521329D01*
X4250000Y3513978D01*
Y3506022D01*
X4253045Y3498671D01*
X4258671Y3493045D01*
X4266022Y3490000D01*
X4273978D01*
X4281329Y3493045D01*
X4286955Y3498671D01*
X4290000Y3506022D01*
Y3513978D01*
X4286955Y3521329D01*
X4281329Y3526955D01*
X4273978Y3530000D01*
D02*
G37*
G36*
X4223978D02*
X4216022D01*
X4208671Y3526955D01*
X4203045Y3521329D01*
X4200000Y3513978D01*
Y3506022D01*
X4203045Y3498671D01*
X4208671Y3493045D01*
X4216022Y3490000D01*
X4223978D01*
X4231329Y3493045D01*
X4236955Y3498671D01*
X4240000Y3506022D01*
Y3513978D01*
X4236955Y3521329D01*
X4231329Y3526955D01*
X4223978Y3530000D01*
D02*
G37*
G36*
X4173978D02*
X4166022D01*
X4158671Y3526955D01*
X4153045Y3521329D01*
X4150000Y3513978D01*
Y3506022D01*
X4153045Y3498671D01*
X4158671Y3493045D01*
X4166022Y3490000D01*
X4173978D01*
X4181329Y3493045D01*
X4186955Y3498671D01*
X4190000Y3506022D01*
Y3513978D01*
X4186955Y3521329D01*
X4181329Y3526955D01*
X4173978Y3530000D01*
D02*
G37*
G36*
X4125924Y3563055D02*
X4117967D01*
X4110616Y3560010D01*
X4104990Y3554384D01*
X4101945Y3547033D01*
Y3539076D01*
X4104990Y3531726D01*
X4101512Y3528132D01*
X4098671Y3526955D01*
X4093045Y3521329D01*
X4090000Y3513978D01*
Y3506022D01*
X4093045Y3498671D01*
X4098671Y3493045D01*
X4106022Y3490000D01*
X4113978D01*
X4121329Y3493045D01*
X4126955Y3498671D01*
X4130000Y3506022D01*
Y3513978D01*
X4126955Y3521329D01*
X4130433Y3524922D01*
X4133275Y3526099D01*
X4138901Y3531726D01*
X4141945Y3539076D01*
Y3547033D01*
X4138901Y3554384D01*
X4133275Y3560010D01*
X4125924Y3563055D01*
D02*
G37*
G36*
X2928950Y3535000D02*
X2921050D01*
X2913420Y3532956D01*
X2906579Y3529006D01*
X2900994Y3523421D01*
X2897044Y3516580D01*
X2895000Y3508950D01*
Y3501050D01*
X2897044Y3493420D01*
X2900994Y3486579D01*
X2906579Y3480994D01*
X2913420Y3477044D01*
X2921050Y3475000D01*
X2928950D01*
X2936580Y3477044D01*
X2943421Y3480994D01*
X2949006Y3486579D01*
X2952956Y3493420D01*
X2955000Y3501050D01*
Y3508950D01*
X2952956Y3516580D01*
X2949006Y3523421D01*
X2943421Y3529006D01*
X2936580Y3532956D01*
X2928950Y3535000D01*
D02*
G37*
G36*
X4823947Y3504843D02*
X4816053D01*
X4808760Y3501822D01*
X4803178Y3496240D01*
X4800158Y3488947D01*
Y3481053D01*
X4803178Y3473760D01*
X4808760Y3468178D01*
X4816053Y3465157D01*
X4823947D01*
X4831240Y3468178D01*
X4836822Y3473760D01*
X4839842Y3481053D01*
Y3488947D01*
X4836822Y3496240D01*
X4831240Y3501822D01*
X4823947Y3504843D01*
D02*
G37*
G36*
X2685000Y3469577D02*
X2678671Y3466955D01*
X2673045Y3461329D01*
X2672500Y3460014D01*
X2667500D01*
X2666955Y3461329D01*
X2661329Y3466955D01*
X2655000Y3469577D01*
Y3450000D01*
Y3430423D01*
X2661329Y3433045D01*
X2666955Y3438671D01*
X2667500Y3439986D01*
X2672500D01*
X2673045Y3438671D01*
X2678671Y3433045D01*
X2685000Y3430423D01*
Y3450000D01*
Y3469577D01*
D02*
G37*
G36*
X2695000D02*
Y3455000D01*
X2709577D01*
X2706955Y3461329D01*
X2701329Y3466955D01*
X2695000Y3469577D01*
D02*
G37*
G36*
X2645000D02*
X2638671Y3466955D01*
X2633045Y3461329D01*
X2630423Y3455000D01*
X2645000D01*
Y3469577D01*
D02*
G37*
G36*
X5029406Y3465000D02*
X5015000D01*
Y3450594D01*
X5021240Y3453178D01*
X5026822Y3458760D01*
X5029406Y3465000D01*
D02*
G37*
G36*
X4961693D02*
X4947287D01*
X4949871Y3458760D01*
X4955453Y3453178D01*
X4961693Y3450594D01*
Y3465000D01*
D02*
G37*
G36*
X1703947Y3489843D02*
X1696053D01*
X1688760Y3486822D01*
X1683178Y3481240D01*
X1680158Y3473947D01*
Y3466053D01*
X1683178Y3458760D01*
X1688760Y3453178D01*
X1696053Y3450157D01*
X1703947D01*
X1711240Y3453178D01*
X1716822Y3458760D01*
X1719842Y3466053D01*
Y3473947D01*
X1716822Y3481240D01*
X1711240Y3486822D01*
X1703947Y3489843D01*
D02*
G37*
G36*
X1633947D02*
X1626053D01*
X1618760Y3486822D01*
X1613178Y3481240D01*
X1610158Y3473947D01*
Y3466053D01*
X1613178Y3458760D01*
X1618760Y3453178D01*
X1626053Y3450157D01*
X1633947D01*
X1641240Y3453178D01*
X1646822Y3458760D01*
X1649842Y3466053D01*
Y3473947D01*
X1646822Y3481240D01*
X1641240Y3486822D01*
X1633947Y3489843D01*
D02*
G37*
G36*
X3917500Y3461522D02*
Y3446945D01*
X3932077D01*
X3929455Y3453274D01*
X3923829Y3458901D01*
X3917500Y3461522D01*
D02*
G37*
G36*
X3907500D02*
X3901171Y3458901D01*
X3895545Y3453274D01*
X3892923Y3446945D01*
X3907500D01*
Y3461522D01*
D02*
G37*
G36*
X2090702Y3533307D02*
X2079298D01*
X2068284Y3530356D01*
X2058409Y3524654D01*
X2050346Y3516591D01*
X2044644Y3506716D01*
X2041693Y3495702D01*
Y3484298D01*
X2044644Y3473284D01*
X2050346Y3463409D01*
X2058409Y3455346D01*
X2068284Y3449644D01*
X2079298Y3446693D01*
X2090702D01*
X2101716Y3449644D01*
X2111591Y3455346D01*
X2119654Y3463409D01*
X2125356Y3473284D01*
X2128307Y3484298D01*
Y3495702D01*
X2125356Y3506716D01*
X2119654Y3516591D01*
X2111591Y3524654D01*
X2101716Y3530356D01*
X2090702Y3533307D01*
D02*
G37*
G36*
X3737441Y3476348D02*
X3729548D01*
X3722255Y3473327D01*
X3716673Y3467745D01*
X3713652Y3460452D01*
Y3452559D01*
X3716673Y3445266D01*
X3722255Y3439684D01*
X3729548Y3436663D01*
X3737441D01*
X3744734Y3439684D01*
X3750316Y3445266D01*
X3753337Y3452559D01*
Y3460452D01*
X3750316Y3467745D01*
X3744734Y3473327D01*
X3737441Y3476348D01*
D02*
G37*
G36*
X2709577Y3445000D02*
X2695000D01*
Y3430423D01*
X2701329Y3433045D01*
X2706955Y3438671D01*
X2709577Y3445000D01*
D02*
G37*
G36*
X2645000D02*
X2630423D01*
X2633045Y3438671D01*
X2638671Y3433045D01*
X2645000Y3430423D01*
Y3445000D01*
D02*
G37*
G36*
X4863947Y3469843D02*
X4856053D01*
X4848760Y3466822D01*
X4843178Y3461240D01*
X4840158Y3453947D01*
Y3446053D01*
X4843178Y3438760D01*
X4848760Y3433178D01*
X4856053Y3430157D01*
X4863947D01*
X4871240Y3433178D01*
X4876822Y3438760D01*
X4879842Y3446053D01*
Y3453947D01*
X4876822Y3461240D01*
X4871240Y3466822D01*
X4863947Y3469843D01*
D02*
G37*
G36*
X4173978Y3470000D02*
X4166022D01*
X4158671Y3466955D01*
X4153045Y3461329D01*
X4150000Y3453978D01*
Y3446022D01*
X4153045Y3438671D01*
X4158671Y3433045D01*
X4166022Y3430000D01*
X4173978D01*
X4181329Y3433045D01*
X4186955Y3438671D01*
X4190000Y3446022D01*
Y3453978D01*
X4186955Y3461329D01*
X4181329Y3466955D01*
X4173978Y3470000D01*
D02*
G37*
G36*
X4113978D02*
X4106022D01*
X4098671Y3466955D01*
X4093045Y3461329D01*
X4090000Y3453978D01*
Y3446022D01*
X4093045Y3438671D01*
X4098671Y3433045D01*
X4106022Y3430000D01*
X4113978D01*
X4121329Y3433045D01*
X4126955Y3438671D01*
X4130000Y3446022D01*
Y3453978D01*
X4126955Y3461329D01*
X4121329Y3466955D01*
X4113978Y3470000D01*
D02*
G37*
G36*
X3932077Y3436945D02*
X3917500D01*
Y3422369D01*
X3923829Y3424990D01*
X3929455Y3430616D01*
X3932077Y3436945D01*
D02*
G37*
G36*
X3907500D02*
X3892923D01*
X3895545Y3430616D01*
X3901171Y3424990D01*
X3907500Y3422369D01*
Y3436945D01*
D02*
G37*
G36*
X4447666Y3456819D02*
X4439710D01*
X4432359Y3453774D01*
X4426733Y3448148D01*
X4423688Y3440797D01*
Y3432841D01*
X4426733Y3425490D01*
X4432359Y3419864D01*
X4439710Y3416819D01*
X4447666D01*
X4455017Y3419864D01*
X4460643Y3425490D01*
X4463688Y3432841D01*
Y3440797D01*
X4460643Y3448148D01*
X4455017Y3453774D01*
X4447666Y3456819D01*
D02*
G37*
G36*
X4153978Y3410000D02*
X4146022D01*
X4138671Y3406955D01*
X4133045Y3401329D01*
X4132500Y3400014D01*
X4127500D01*
X4126955Y3401329D01*
X4121329Y3406955D01*
X4113978Y3410000D01*
X4106022D01*
X4098671Y3406955D01*
X4093045Y3401329D01*
X4090000Y3393978D01*
Y3386022D01*
X4093045Y3378671D01*
X4098671Y3373045D01*
X4106022Y3370000D01*
X4113978D01*
X4121329Y3373045D01*
X4126955Y3378671D01*
X4127500Y3379986D01*
X4132500D01*
X4133045Y3378671D01*
X4138671Y3373045D01*
X4138496Y3367705D01*
X4134554Y3366072D01*
X4128928Y3360446D01*
X4128618Y3359698D01*
X4122748Y3358594D01*
X4119387Y3361955D01*
X4112036Y3365000D01*
X4104080D01*
X4096729Y3361955D01*
X4091103Y3356329D01*
X4088058Y3348978D01*
Y3341022D01*
X4091103Y3333671D01*
X4096729Y3328045D01*
X4104080Y3325000D01*
X4112036D01*
X4119387Y3328045D01*
X4125013Y3333671D01*
X4125323Y3334419D01*
X4131193Y3335523D01*
X4134554Y3332162D01*
X4141905Y3329117D01*
X4149861D01*
X4157212Y3332162D01*
X4162838Y3337788D01*
X4165883Y3345139D01*
Y3353095D01*
X4162838Y3360446D01*
X4157212Y3366072D01*
X4157387Y3371412D01*
X4161329Y3373045D01*
X4166955Y3378671D01*
X4170000Y3386022D01*
Y3393978D01*
X4166955Y3401329D01*
X4161329Y3406955D01*
X4153978Y3410000D01*
D02*
G37*
G36*
X2685000Y3409577D02*
X2678671Y3406955D01*
X2673045Y3401329D01*
X2672500Y3400014D01*
X2667500D01*
X2666955Y3401329D01*
X2661329Y3406955D01*
X2655000Y3409577D01*
Y3390000D01*
Y3370423D01*
X2661329Y3373045D01*
X2666955Y3378671D01*
X2667500Y3379986D01*
X2672500D01*
X2673045Y3378671D01*
X2678671Y3373045D01*
X2685000Y3370423D01*
Y3390000D01*
Y3409577D01*
D02*
G37*
G36*
X2090981Y3435433D02*
X2090000D01*
Y3395000D01*
X2130433D01*
Y3395981D01*
X2127337Y3407537D01*
X2121355Y3417896D01*
X2112896Y3426355D01*
X2102537Y3432337D01*
X2090981Y3435433D01*
D02*
G37*
G36*
X2695000Y3409577D02*
Y3395000D01*
X2709577D01*
X2706955Y3401329D01*
X2701329Y3406955D01*
X2695000Y3409577D01*
D02*
G37*
G36*
X2645000D02*
X2638671Y3406955D01*
X2633045Y3401329D01*
X2630423Y3395000D01*
X2645000D01*
Y3409577D01*
D02*
G37*
G36*
X2080000Y3435433D02*
X2079019D01*
X2067463Y3432337D01*
X2057104Y3426355D01*
X2048645Y3417896D01*
X2042663Y3407537D01*
X2039567Y3395981D01*
Y3395000D01*
X2080000D01*
Y3435433D01*
D02*
G37*
G36*
X1463978Y3415000D02*
X1456022D01*
X1448671Y3411955D01*
X1443045Y3406329D01*
X1440000Y3398978D01*
Y3391022D01*
X1443045Y3383671D01*
X1448671Y3378045D01*
X1456022Y3375000D01*
X1463978D01*
X1471329Y3378045D01*
X1476955Y3383671D01*
X1480000Y3391022D01*
Y3398978D01*
X1476955Y3406329D01*
X1471329Y3411955D01*
X1463978Y3415000D01*
D02*
G37*
G36*
X2709577Y3385000D02*
X2695000D01*
Y3370423D01*
X2701329Y3373045D01*
X2706955Y3378671D01*
X2709577Y3385000D01*
D02*
G37*
G36*
X2645000D02*
X2630423D01*
X2633045Y3378671D01*
X2638671Y3373045D01*
X2645000Y3370423D01*
Y3385000D01*
D02*
G37*
G36*
X1703947Y3399843D02*
X1696053D01*
X1688760Y3396822D01*
X1683178Y3391240D01*
X1680158Y3383947D01*
Y3376053D01*
X1683178Y3368760D01*
X1688760Y3363178D01*
X1696053Y3360157D01*
X1703947D01*
X1711240Y3363178D01*
X1716822Y3368760D01*
X1719842Y3376053D01*
Y3383947D01*
X1716822Y3391240D01*
X1711240Y3396822D01*
X1703947Y3399843D01*
D02*
G37*
G36*
X4808978Y3400000D02*
X4801022D01*
X4793671Y3396955D01*
X4788045Y3391329D01*
X4785000Y3383978D01*
Y3376022D01*
X4788045Y3368671D01*
X4793671Y3363045D01*
X4801022Y3360000D01*
X4808978D01*
X4816329Y3363045D01*
X4821955Y3368671D01*
X4825000Y3376022D01*
Y3383978D01*
X4821955Y3391329D01*
X4816329Y3396955D01*
X4808978Y3400000D01*
D02*
G37*
G36*
X4035000Y3371761D02*
Y3357184D01*
X4049577D01*
X4046955Y3363513D01*
X4041329Y3369139D01*
X4035000Y3371761D01*
D02*
G37*
G36*
X4025000D02*
X4018671Y3369139D01*
X4013045Y3363513D01*
X4010423Y3357184D01*
X4025000D01*
Y3371761D01*
D02*
G37*
G36*
X2685000Y3364577D02*
X2678671Y3361955D01*
X2673045Y3356329D01*
X2672500Y3355014D01*
X2667500D01*
X2666955Y3356329D01*
X2661329Y3361955D01*
X2655000Y3364577D01*
Y3345000D01*
Y3325423D01*
X2661329Y3328045D01*
X2666955Y3333671D01*
X2667500Y3334986D01*
X2672500D01*
X2673045Y3333671D01*
X2678671Y3328045D01*
X2685000Y3325423D01*
Y3345000D01*
Y3364577D01*
D02*
G37*
G36*
X2695000D02*
Y3350000D01*
X2709577D01*
X2706955Y3356329D01*
X2701329Y3361955D01*
X2695000Y3364577D01*
D02*
G37*
G36*
X2645000D02*
X2638671Y3361955D01*
X2633045Y3356329D01*
X2630423Y3350000D01*
X2645000D01*
Y3364577D01*
D02*
G37*
G36*
X2130433Y3385000D02*
X2090000D01*
Y3344567D01*
X2090981D01*
X2102537Y3347663D01*
X2112896Y3353645D01*
X2121355Y3362104D01*
X2127337Y3372463D01*
X2130433Y3384019D01*
Y3385000D01*
D02*
G37*
G36*
X2080000D02*
X2039567D01*
Y3384019D01*
X2042663Y3372463D01*
X2048645Y3362104D01*
X2057104Y3353645D01*
X2067463Y3347663D01*
X2079019Y3344567D01*
X2080000D01*
Y3385000D01*
D02*
G37*
G36*
X3583950Y3400000D02*
X3576050D01*
X3568420Y3397956D01*
X3561579Y3394006D01*
X3555994Y3388421D01*
X3552044Y3381580D01*
X3550000Y3373950D01*
Y3366050D01*
X3552044Y3358420D01*
X3555994Y3351579D01*
X3561579Y3345994D01*
X3568420Y3342044D01*
X3576050Y3340000D01*
X3583950D01*
X3591580Y3342044D01*
X3598421Y3345994D01*
X3604006Y3351579D01*
X3607956Y3358420D01*
X3610000Y3366050D01*
Y3373950D01*
X3607956Y3381580D01*
X3604006Y3388421D01*
X3598421Y3394006D01*
X3591580Y3397956D01*
X3583950Y3400000D01*
D02*
G37*
G36*
X5030220Y3351095D02*
Y3336518D01*
X5044797D01*
X5042176Y3342847D01*
X5036550Y3348473D01*
X5030220Y3351095D01*
D02*
G37*
G36*
X5020220D02*
X5013891Y3348473D01*
X5008265Y3342847D01*
X5005644Y3336518D01*
X5020220D01*
Y3351095D01*
D02*
G37*
G36*
X4282721Y3369366D02*
X4276002D01*
X4269794Y3366795D01*
X4265043Y3362044D01*
X4262471Y3355836D01*
Y3349117D01*
X4265043Y3342909D01*
X4269794Y3338158D01*
X4276002Y3335587D01*
X4282721D01*
X4288928Y3338158D01*
X4293680Y3342909D01*
X4296251Y3349117D01*
Y3355836D01*
X4293680Y3362044D01*
X4288928Y3366795D01*
X4282721Y3369366D01*
D02*
G37*
G36*
X3903978Y3349885D02*
X3896022D01*
X3888671Y3346840D01*
X3883045Y3341214D01*
X3880000Y3333863D01*
X3875272D01*
X3872228Y3341214D01*
X3866602Y3346840D01*
X3859251Y3349885D01*
X3851294D01*
X3843943Y3346840D01*
X3838317Y3341214D01*
X3835272Y3333863D01*
Y3325907D01*
X3838317Y3318556D01*
X3843943Y3312930D01*
X3851294Y3309885D01*
X3859251D01*
X3866602Y3312930D01*
X3872228Y3318556D01*
X3875272Y3325907D01*
X3880000D01*
X3883045Y3318556D01*
X3888671Y3312930D01*
X3896022Y3309885D01*
X3903978D01*
X3911329Y3312930D01*
X3916955Y3318556D01*
X3920000Y3325907D01*
Y3333863D01*
X3916955Y3341214D01*
X3911329Y3346840D01*
X3903978Y3349885D01*
D02*
G37*
G36*
X4049577Y3347184D02*
X4035000D01*
Y3332607D01*
X4041329Y3335229D01*
X4046955Y3340855D01*
X4049577Y3347184D01*
D02*
G37*
G36*
X4025000D02*
X4010423D01*
X4013045Y3340855D01*
X4018671Y3335229D01*
X4025000Y3332607D01*
Y3347184D01*
D02*
G37*
G36*
X1523993Y3371457D02*
X1515771D01*
X1508174Y3368310D01*
X1502359Y3362496D01*
X1499213Y3354899D01*
Y3346676D01*
X1502359Y3339079D01*
X1508174Y3333265D01*
X1515771Y3330118D01*
X1523993D01*
X1531590Y3333265D01*
X1537405Y3339079D01*
X1540551Y3346676D01*
Y3354899D01*
X1537405Y3362496D01*
X1531590Y3368310D01*
X1523993Y3371457D01*
D02*
G37*
G36*
X3435000Y3344577D02*
Y3330000D01*
X3449577D01*
X3446955Y3336329D01*
X3441329Y3341955D01*
X3435000Y3344577D01*
D02*
G37*
G36*
X3425000D02*
X3418671Y3341955D01*
X3413045Y3336329D01*
X3410423Y3330000D01*
X3425000D01*
Y3344577D01*
D02*
G37*
G36*
X3230000D02*
Y3330000D01*
X3244577D01*
X3241955Y3336329D01*
X3236329Y3341955D01*
X3230000Y3344577D01*
D02*
G37*
G36*
X3220000D02*
X3213671Y3341955D01*
X3208045Y3336329D01*
X3205423Y3330000D01*
X3220000D01*
Y3344577D01*
D02*
G37*
G36*
X2709577Y3340000D02*
X2695000D01*
Y3325423D01*
X2701329Y3328045D01*
X2706955Y3333671D01*
X2709577Y3340000D01*
D02*
G37*
G36*
X2645000D02*
X2630423D01*
X2633045Y3333671D01*
X2638671Y3328045D01*
X2645000Y3325423D01*
Y3340000D01*
D02*
G37*
G36*
X2800000Y3334577D02*
Y3320000D01*
X2814577D01*
X2811955Y3326329D01*
X2806329Y3331955D01*
X2800000Y3334577D01*
D02*
G37*
G36*
X2790000D02*
X2783671Y3331955D01*
X2778045Y3326329D01*
X2775423Y3320000D01*
X2790000D01*
Y3334577D01*
D02*
G37*
G36*
X5044797Y3326518D02*
X5030220D01*
Y3311941D01*
X5036550Y3314563D01*
X5042176Y3320189D01*
X5044797Y3326518D01*
D02*
G37*
G36*
X5020220D02*
X5005644D01*
X5008265Y3320189D01*
X5013891Y3314563D01*
X5020220Y3311941D01*
Y3326518D01*
D02*
G37*
G36*
X2685000Y3319577D02*
X2678671Y3316955D01*
X2673045Y3311329D01*
X2672500Y3310014D01*
X2667500D01*
X2666955Y3311329D01*
X2661329Y3316955D01*
X2655000Y3319577D01*
Y3300000D01*
Y3280423D01*
X2661329Y3283045D01*
X2666955Y3288671D01*
X2667500Y3289986D01*
X2672500D01*
X2673045Y3288671D01*
X2678671Y3283045D01*
X2685000Y3280423D01*
Y3300000D01*
Y3319577D01*
D02*
G37*
G36*
X3789954Y3349885D02*
X3781997D01*
X3774646Y3346840D01*
X3769020Y3341214D01*
X3765976Y3333863D01*
Y3325907D01*
X3769020Y3318556D01*
X3774646Y3312930D01*
X3781997Y3309885D01*
X3789954D01*
X3797305Y3312930D01*
X3802931Y3318556D01*
X3805976Y3325907D01*
Y3333863D01*
X3802931Y3341214D01*
X3797305Y3346840D01*
X3789954Y3349885D01*
D02*
G37*
G36*
X3244577Y3320000D02*
X3230000D01*
Y3305423D01*
X3236329Y3308045D01*
X3241955Y3313671D01*
X3244577Y3320000D01*
D02*
G37*
G36*
X3220000D02*
X3205423D01*
X3208045Y3313671D01*
X3213671Y3308045D01*
X3220000Y3305423D01*
Y3320000D01*
D02*
G37*
G36*
X3449577D02*
X3435000D01*
Y3305423D01*
X3441329Y3308045D01*
X3446955Y3313671D01*
X3449577Y3320000D01*
D02*
G37*
G36*
X3425000D02*
X3410423D01*
X3413045Y3313671D01*
X3418671Y3308045D01*
X3425000Y3305423D01*
Y3320000D01*
D02*
G37*
G36*
X2695000Y3319577D02*
Y3305000D01*
X2709577D01*
X2706955Y3311329D01*
X2701329Y3316955D01*
X2695000Y3319577D01*
D02*
G37*
G36*
X2645000D02*
X2638671Y3316955D01*
X2633045Y3311329D01*
X2630423Y3305000D01*
X2645000D01*
Y3319577D01*
D02*
G37*
G36*
X4233360Y3336890D02*
X4226640D01*
X4220433Y3334318D01*
X4215682Y3329567D01*
X4213110Y3323360D01*
Y3316640D01*
X4215682Y3310433D01*
X4220433Y3305682D01*
X4226640Y3303110D01*
X4233360D01*
X4239567Y3305682D01*
X4244318Y3310433D01*
X4246890Y3316640D01*
Y3323360D01*
X4244318Y3329567D01*
X4239567Y3334318D01*
X4233360Y3336890D01*
D02*
G37*
G36*
X3113950Y3360000D02*
X3106050D01*
X3098420Y3357956D01*
X3091579Y3354006D01*
X3085994Y3348421D01*
X3082044Y3341580D01*
X3080000Y3333950D01*
Y3326050D01*
X3082044Y3318420D01*
X3085994Y3311579D01*
X3091579Y3305994D01*
X3098420Y3302044D01*
X3106050Y3300000D01*
X3113950D01*
X3121580Y3302044D01*
X3128421Y3305994D01*
X3134006Y3311579D01*
X3137956Y3318420D01*
X3140000Y3326050D01*
Y3333950D01*
X3137956Y3341580D01*
X3134006Y3348421D01*
X3128421Y3354006D01*
X3121580Y3357956D01*
X3113950Y3360000D01*
D02*
G37*
G36*
X2814577Y3310000D02*
X2800000D01*
Y3295423D01*
X2806329Y3298045D01*
X2811955Y3303671D01*
X2814577Y3310000D01*
D02*
G37*
G36*
X2790000D02*
X2775423D01*
X2778045Y3303671D01*
X2783671Y3298045D01*
X2790000Y3295423D01*
Y3310000D01*
D02*
G37*
G36*
X2090981Y3335433D02*
X2090000D01*
Y3295000D01*
X2130433D01*
Y3295981D01*
X2127337Y3307537D01*
X2121355Y3317896D01*
X2112896Y3326355D01*
X2102537Y3332337D01*
X2090981Y3335433D01*
D02*
G37*
G36*
X2080000D02*
X2079019D01*
X2067463Y3332337D01*
X2057104Y3326355D01*
X2048645Y3317896D01*
X2042663Y3307537D01*
X2039567Y3295981D01*
Y3295000D01*
X2080000D01*
Y3335433D01*
D02*
G37*
G36*
X3700138Y3353812D02*
X3692238D01*
X3684608Y3351767D01*
X3677767Y3347818D01*
X3672182Y3342232D01*
X3668232Y3335392D01*
X3666188Y3327762D01*
Y3319862D01*
X3668232Y3312232D01*
X3672182Y3305391D01*
X3677767Y3299806D01*
X3684608Y3295856D01*
X3692238Y3293812D01*
X3700138D01*
X3707768Y3295856D01*
X3714608Y3299806D01*
X3720194Y3305391D01*
X3724144Y3312232D01*
X3726188Y3319862D01*
Y3327762D01*
X3724144Y3335392D01*
X3720194Y3342232D01*
X3714608Y3347818D01*
X3707768Y3351767D01*
X3700138Y3353812D01*
D02*
G37*
G36*
X2709577Y3295000D02*
X2695000D01*
Y3280423D01*
X2701329Y3283045D01*
X2706955Y3288671D01*
X2709577Y3295000D01*
D02*
G37*
G36*
X2645000D02*
X2630423D01*
X2633045Y3288671D01*
X2638671Y3283045D01*
X2645000Y3280423D01*
Y3295000D01*
D02*
G37*
G36*
X4137387Y3284151D02*
X4130668D01*
X4124461Y3281580D01*
X4119709Y3276829D01*
X4114536Y3277405D01*
X4112942Y3278999D01*
X4106735Y3281570D01*
X4100016D01*
X4093808Y3278999D01*
X4089057Y3274248D01*
X4086485Y3268040D01*
Y3261321D01*
X4089057Y3255113D01*
X4093808Y3250362D01*
X4100016Y3247791D01*
X4106735D01*
X4112942Y3250362D01*
X4117693Y3255113D01*
X4122867Y3254537D01*
X4124461Y3252943D01*
X4130668Y3250372D01*
X4137387D01*
X4143595Y3252943D01*
X4145375Y3254723D01*
X4150549Y3255300D01*
X4155300Y3250548D01*
X4161507Y3247977D01*
X4168226D01*
X4174434Y3250548D01*
X4179185Y3255300D01*
X4181757Y3261507D01*
Y3268227D01*
X4179185Y3274434D01*
X4174434Y3279185D01*
X4168226Y3281757D01*
X4161507D01*
X4155300Y3279185D01*
X4153520Y3277405D01*
X4148346Y3276829D01*
X4143595Y3281580D01*
X4137387Y3284151D01*
D02*
G37*
G36*
X4203360Y3306890D02*
X4196640D01*
X4190433Y3304318D01*
X4185682Y3299567D01*
X4183110Y3293360D01*
Y3286640D01*
X4185682Y3280433D01*
X4190433Y3275682D01*
X4196640Y3273110D01*
X4203360D01*
X4209567Y3275682D01*
X4214318Y3280433D01*
X4216890Y3286640D01*
Y3293360D01*
X4214318Y3299567D01*
X4209567Y3304318D01*
X4203360Y3306890D01*
D02*
G37*
G36*
X4035322Y3287473D02*
Y3272896D01*
X4049899D01*
X4047278Y3279225D01*
X4041651Y3284851D01*
X4035322Y3287473D01*
D02*
G37*
G36*
X4025322D02*
X4018993Y3284851D01*
X4013367Y3279225D01*
X4010746Y3272896D01*
X4025322D01*
Y3287473D01*
D02*
G37*
G36*
X2685000Y3269577D02*
X2678671Y3266955D01*
X2673045Y3261329D01*
X2672500Y3260014D01*
X2667500D01*
X2666955Y3261329D01*
X2661329Y3266955D01*
X2655000Y3269577D01*
Y3250000D01*
Y3230423D01*
X2661329Y3233045D01*
X2666955Y3238671D01*
X2667500Y3239986D01*
X2672500D01*
X2673045Y3238671D01*
X2678671Y3233045D01*
X2685000Y3230423D01*
Y3250000D01*
Y3269577D01*
D02*
G37*
G36*
X2695000D02*
Y3255000D01*
X2709577D01*
X2706955Y3261329D01*
X2701329Y3266955D01*
X2695000Y3269577D01*
D02*
G37*
G36*
X2645000D02*
X2638671Y3266955D01*
X2633045Y3261329D01*
X2630423Y3255000D01*
X2645000D01*
Y3269577D01*
D02*
G37*
G36*
X2130433Y3285000D02*
X2090000D01*
Y3244567D01*
X2090981D01*
X2102537Y3247663D01*
X2112896Y3253645D01*
X2121355Y3262104D01*
X2127337Y3272463D01*
X2130433Y3284019D01*
Y3285000D01*
D02*
G37*
G36*
X2080000D02*
X2039567D01*
Y3284019D01*
X2042663Y3272463D01*
X2048645Y3262104D01*
X2057104Y3253645D01*
X2067463Y3247663D01*
X2079019Y3244567D01*
X2080000D01*
Y3285000D01*
D02*
G37*
G36*
X4049899Y3262896D02*
X4010746D01*
X4013367Y3256567D01*
X4018325Y3251609D01*
X4013045Y3246329D01*
X4010423Y3240000D01*
X4049577D01*
X4046955Y3246329D01*
X4041997Y3251287D01*
X4047278Y3256567D01*
X4049899Y3262896D01*
D02*
G37*
G36*
X2709577Y3245000D02*
X2695000D01*
Y3230423D01*
X2701329Y3233045D01*
X2706955Y3238671D01*
X2709577Y3245000D01*
D02*
G37*
G36*
X2645000D02*
X2630423D01*
X2633045Y3238671D01*
X2638671Y3233045D01*
X2645000Y3230423D01*
Y3245000D01*
D02*
G37*
G36*
X4049577Y3230000D02*
X4035000D01*
Y3215423D01*
X4041329Y3218045D01*
X4046955Y3223671D01*
X4049577Y3230000D01*
D02*
G37*
G36*
X4025000D02*
X4010423D01*
X4013045Y3223671D01*
X4018671Y3218045D01*
X4025000Y3215423D01*
Y3230000D01*
D02*
G37*
G36*
X2685000Y3219577D02*
X2678671Y3216955D01*
X2673045Y3211329D01*
X2672500Y3210014D01*
X2667500D01*
X2666955Y3211329D01*
X2661329Y3216955D01*
X2655000Y3219577D01*
Y3200000D01*
Y3180423D01*
X2661329Y3183045D01*
X2666955Y3188671D01*
X2667500Y3189986D01*
X2672500D01*
X2673045Y3188671D01*
X2678671Y3183045D01*
X2685000Y3180423D01*
Y3200000D01*
Y3219577D01*
D02*
G37*
G36*
X2695000D02*
Y3205000D01*
X2709577D01*
X2706955Y3211329D01*
X2701329Y3216955D01*
X2695000Y3219577D01*
D02*
G37*
G36*
X2645000D02*
X2638671Y3216955D01*
X2633045Y3211329D01*
X2630423Y3205000D01*
X2645000D01*
Y3219577D01*
D02*
G37*
G36*
X2090981Y3235433D02*
X2090000D01*
Y3195000D01*
X2130433D01*
Y3195981D01*
X2127337Y3207537D01*
X2121355Y3217896D01*
X2112896Y3226355D01*
X2102537Y3232337D01*
X2090981Y3235433D01*
D02*
G37*
G36*
X4035000Y3209577D02*
Y3195000D01*
X4049577D01*
X4046955Y3201329D01*
X4041329Y3206955D01*
X4035000Y3209577D01*
D02*
G37*
G36*
X4025000D02*
X4018671Y3206955D01*
X4013045Y3201329D01*
X4010423Y3195000D01*
X4025000D01*
Y3209577D01*
D02*
G37*
G36*
X1765000D02*
Y3195000D01*
X1779577D01*
X1776955Y3201329D01*
X1771329Y3206955D01*
X1765000Y3209577D01*
D02*
G37*
G36*
X1755000D02*
X1748671Y3206955D01*
X1743045Y3201329D01*
X1740423Y3195000D01*
X1755000D01*
Y3209577D01*
D02*
G37*
G36*
X2080000Y3235433D02*
X2079019D01*
X2067463Y3232337D01*
X2057104Y3226355D01*
X2048645Y3217896D01*
X2042663Y3207537D01*
X2039567Y3195981D01*
Y3195000D01*
X2080000D01*
Y3235433D01*
D02*
G37*
G36*
X2709577Y3195000D02*
X2695000D01*
Y3180423D01*
X2701329Y3183045D01*
X2706955Y3188671D01*
X2709577Y3195000D01*
D02*
G37*
G36*
X2645000D02*
X2630423D01*
X2633045Y3188671D01*
X2638671Y3183045D01*
X2645000Y3180423D01*
Y3195000D01*
D02*
G37*
G36*
X1779577Y3185000D02*
X1765000D01*
Y3170423D01*
X1771329Y3173045D01*
X1776955Y3178671D01*
X1779577Y3185000D01*
D02*
G37*
G36*
X1755000D02*
X1740423D01*
X1743045Y3178671D01*
X1748671Y3173045D01*
X1755000Y3170423D01*
Y3185000D01*
D02*
G37*
G36*
X2685000Y3174577D02*
X2678671Y3171955D01*
X2673045Y3166329D01*
X2672500Y3165014D01*
X2667500D01*
X2666955Y3166329D01*
X2661329Y3171955D01*
X2655000Y3174577D01*
Y3155000D01*
Y3135423D01*
X2661329Y3138045D01*
X2666955Y3143671D01*
X2667500Y3144986D01*
X2672500D01*
X2673045Y3143671D01*
X2678671Y3138045D01*
X2685000Y3135423D01*
Y3155000D01*
Y3174577D01*
D02*
G37*
G36*
X3785000Y3178284D02*
Y3163707D01*
X3799577D01*
X3796955Y3170036D01*
X3791329Y3175662D01*
X3785000Y3178284D01*
D02*
G37*
G36*
X3775000D02*
X3768671Y3175662D01*
X3763045Y3170036D01*
X3760423Y3163707D01*
X3775000D01*
Y3178284D01*
D02*
G37*
G36*
X2695000Y3174577D02*
Y3160000D01*
X2709577D01*
X2706955Y3166329D01*
X2701329Y3171955D01*
X2695000Y3174577D01*
D02*
G37*
G36*
X2645000D02*
X2638671Y3171955D01*
X2633045Y3166329D01*
X2630423Y3160000D01*
X2645000D01*
Y3174577D01*
D02*
G37*
G36*
X4049577Y3185000D02*
X4010423D01*
X4013045Y3178671D01*
X4018671Y3173045D01*
X4019986Y3172500D01*
Y3167500D01*
X4018671Y3166955D01*
X4013045Y3161329D01*
X4010423Y3155000D01*
X4049577D01*
X4046955Y3161329D01*
X4041329Y3166955D01*
X4040014Y3167500D01*
Y3172500D01*
X4041329Y3173045D01*
X4046955Y3178671D01*
X4049577Y3185000D01*
D02*
G37*
G36*
X2130433D02*
X2090000D01*
Y3144567D01*
X2090981D01*
X2102537Y3147663D01*
X2112896Y3153645D01*
X2121355Y3162104D01*
X2127337Y3172463D01*
X2130433Y3184019D01*
Y3185000D01*
D02*
G37*
G36*
X2080000D02*
X2039567D01*
Y3184019D01*
X2042663Y3172463D01*
X2048645Y3162104D01*
X2057104Y3153645D01*
X2067463Y3147663D01*
X2079019Y3144567D01*
X2080000D01*
Y3185000D01*
D02*
G37*
G36*
X3982392Y3158754D02*
Y3144177D01*
X3996968D01*
X3994347Y3150506D01*
X3988721Y3156132D01*
X3982392Y3158754D01*
D02*
G37*
G36*
X3972392D02*
X3966062Y3156132D01*
X3960436Y3150506D01*
X3957815Y3144177D01*
X3972392D01*
Y3158754D01*
D02*
G37*
G36*
X3799577Y3153707D02*
X3785000D01*
Y3139130D01*
X3791329Y3141752D01*
X3796955Y3147378D01*
X3799577Y3153707D01*
D02*
G37*
G36*
X3775000D02*
X3760423D01*
X3763045Y3147378D01*
X3768671Y3141752D01*
X3775000Y3139130D01*
Y3153707D01*
D02*
G37*
G36*
X2709577Y3150000D02*
X2695000D01*
Y3135423D01*
X2701329Y3138045D01*
X2706955Y3143671D01*
X2709577Y3150000D01*
D02*
G37*
G36*
X2645000D02*
X2630423D01*
X2633045Y3143671D01*
X2638671Y3138045D01*
X2645000Y3135423D01*
Y3150000D01*
D02*
G37*
G36*
X4049577Y3145000D02*
X4035000D01*
Y3130423D01*
X4041329Y3133045D01*
X4046955Y3138671D01*
X4049577Y3145000D01*
D02*
G37*
G36*
X4025000D02*
X4010423D01*
X4013045Y3138671D01*
X4018671Y3133045D01*
X4025000Y3130423D01*
Y3145000D01*
D02*
G37*
G36*
X2685000Y3129577D02*
X2678671Y3126955D01*
X2673045Y3121329D01*
X2672500Y3120014D01*
X2667500D01*
X2666955Y3121329D01*
X2661329Y3126955D01*
X2655000Y3129577D01*
Y3110000D01*
Y3090423D01*
X2661329Y3093045D01*
X2666955Y3098671D01*
X2667500Y3099986D01*
X2672500D01*
X2673045Y3098671D01*
X2678671Y3093045D01*
X2685000Y3090423D01*
Y3110000D01*
Y3129577D01*
D02*
G37*
G36*
X3996968Y3134177D02*
X3982392D01*
Y3119600D01*
X3988721Y3122222D01*
X3994347Y3127848D01*
X3996968Y3134177D01*
D02*
G37*
G36*
X3972392D02*
X3957815D01*
X3960436Y3127848D01*
X3966062Y3122222D01*
X3972392Y3119600D01*
Y3134177D01*
D02*
G37*
G36*
X2695000Y3129577D02*
Y3115000D01*
X2709577D01*
X2706955Y3121329D01*
X2701329Y3126955D01*
X2695000Y3129577D01*
D02*
G37*
G36*
X2645000D02*
X2638671Y3126955D01*
X2633045Y3121329D01*
X2630423Y3115000D01*
X2645000D01*
Y3129577D01*
D02*
G37*
G36*
X4035123Y3114924D02*
Y3100348D01*
X4049700D01*
X4047078Y3106677D01*
X4041452Y3112303D01*
X4035123Y3114924D01*
D02*
G37*
G36*
X4025123D02*
X4018794Y3112303D01*
X4013168Y3106677D01*
X4010546Y3100348D01*
X4025123D01*
Y3114924D01*
D02*
G37*
G36*
X2898978Y3140000D02*
X2891022D01*
X2883671Y3136955D01*
X2878045Y3131329D01*
X2875000Y3123978D01*
Y3116022D01*
X2878045Y3108671D01*
X2883671Y3103045D01*
X2891022Y3100000D01*
X2898978D01*
X2906329Y3103045D01*
X2911955Y3108671D01*
X2915000Y3116022D01*
Y3123978D01*
X2911955Y3131329D01*
X2906329Y3136955D01*
X2898978Y3140000D01*
D02*
G37*
G36*
X2090981Y3135433D02*
X2090000D01*
Y3095000D01*
X2130433D01*
Y3095981D01*
X2127337Y3107537D01*
X2121355Y3117896D01*
X2112896Y3126355D01*
X2102537Y3132337D01*
X2090981Y3135433D01*
D02*
G37*
G36*
X3873978Y3135000D02*
X3866022D01*
X3858671Y3131955D01*
X3853045Y3126329D01*
X3850000Y3118978D01*
Y3111022D01*
X3853045Y3103671D01*
X3858671Y3098045D01*
X3866022Y3095000D01*
X3873978D01*
X3881329Y3098045D01*
X3886955Y3103671D01*
X3890000Y3111022D01*
Y3118978D01*
X3886955Y3126329D01*
X3881329Y3131955D01*
X3873978Y3135000D01*
D02*
G37*
G36*
X2798978D02*
X2791022D01*
X2783671Y3131955D01*
X2778045Y3126329D01*
X2775000Y3118978D01*
Y3111022D01*
X2778045Y3103671D01*
X2783671Y3098045D01*
X2791022Y3095000D01*
X2798978D01*
X2806329Y3098045D01*
X2811955Y3103671D01*
X2815000Y3111022D01*
Y3118978D01*
X2811955Y3126329D01*
X2806329Y3131955D01*
X2798978Y3135000D01*
D02*
G37*
G36*
X2080000Y3135433D02*
X2079019D01*
X2067463Y3132337D01*
X2057104Y3126355D01*
X2048645Y3117896D01*
X2042663Y3107537D01*
X2039567Y3095981D01*
Y3095000D01*
X2080000D01*
Y3135433D01*
D02*
G37*
G36*
X2709577Y3105000D02*
X2695000D01*
Y3090423D01*
X2701329Y3093045D01*
X2706955Y3098671D01*
X2709577Y3105000D01*
D02*
G37*
G36*
X2645000D02*
X2630423D01*
X2633045Y3098671D01*
X2638671Y3093045D01*
X2645000Y3090423D01*
Y3105000D01*
D02*
G37*
G36*
X3915000Y3104577D02*
Y3090000D01*
X3929577D01*
X3926955Y3096329D01*
X3921329Y3101955D01*
X3915000Y3104577D01*
D02*
G37*
G36*
X3905000D02*
X3898671Y3101955D01*
X3893045Y3096329D01*
X3890423Y3090000D01*
X3905000D01*
Y3104577D01*
D02*
G37*
G36*
X2655000Y3079577D02*
Y3065000D01*
X2669577D01*
X2666955Y3071329D01*
X2661329Y3076955D01*
X2655000Y3079577D01*
D02*
G37*
G36*
X2645000D02*
X2638671Y3076955D01*
X2633045Y3071329D01*
X2630423Y3065000D01*
X2645000D01*
Y3079577D01*
D02*
G37*
G36*
X4049700Y3090348D02*
X4010546D01*
X4012545Y3085520D01*
X4008946Y3084030D01*
X4003365Y3078448D01*
X4000344Y3071155D01*
Y3063261D01*
X4003365Y3055968D01*
X4008946Y3050386D01*
X4016239Y3047365D01*
X4024133D01*
X4031426Y3050386D01*
X4037008Y3055968D01*
X4040029Y3063261D01*
Y3071155D01*
X4039031Y3073563D01*
X4040945Y3078182D01*
X4041452Y3078392D01*
X4047078Y3084019D01*
X4049700Y3090348D01*
D02*
G37*
G36*
X2130433Y3085000D02*
X2090000D01*
Y3044567D01*
X2090981D01*
X2102537Y3047663D01*
X2112896Y3053645D01*
X2121355Y3062104D01*
X2127337Y3072463D01*
X2130433Y3084019D01*
Y3085000D01*
D02*
G37*
G36*
X2080000D02*
X2039567D01*
Y3084019D01*
X2042663Y3072463D01*
X2048645Y3062104D01*
X2057104Y3053645D01*
X2067463Y3047663D01*
X2079019Y3044567D01*
X2080000D01*
Y3085000D01*
D02*
G37*
G36*
X3929577Y3080000D02*
X3890423D01*
X3890838Y3079000D01*
X3888060Y3074843D01*
X3886053D01*
X3878760Y3071822D01*
X3873178Y3066240D01*
X3870157Y3058947D01*
Y3051053D01*
X3873178Y3043760D01*
X3878760Y3038178D01*
X3886053Y3035157D01*
X3893947D01*
X3901240Y3038178D01*
X3906822Y3043760D01*
X3909843Y3051053D01*
Y3058947D01*
X3909057Y3060843D01*
X3911835Y3065000D01*
X3913978D01*
X3921329Y3068045D01*
X3926955Y3073671D01*
X3929577Y3080000D01*
D02*
G37*
G36*
X2695000Y3039577D02*
Y3025000D01*
X2709577D01*
X2706955Y3031329D01*
X2701329Y3036955D01*
X2695000Y3039577D01*
D02*
G37*
G36*
X1630000D02*
Y3025000D01*
X1644577D01*
X1641955Y3031329D01*
X1636329Y3036955D01*
X1630000Y3039577D01*
D02*
G37*
G36*
X1620000D02*
X1613671Y3036955D01*
X1608045Y3031329D01*
X1605423Y3025000D01*
X1620000D01*
Y3039577D01*
D02*
G37*
G36*
X3703978Y3060000D02*
X3696022D01*
X3688671Y3056955D01*
X3683045Y3051329D01*
X3680000Y3043978D01*
Y3036022D01*
X3683045Y3028671D01*
X3688671Y3023045D01*
X3696022Y3020000D01*
X3703978D01*
X3711329Y3023045D01*
X3716955Y3028671D01*
X3720000Y3036022D01*
Y3043978D01*
X3716955Y3051329D01*
X3711329Y3056955D01*
X3703978Y3060000D01*
D02*
G37*
G36*
X1644577Y3015000D02*
X1630000D01*
Y3000423D01*
X1636329Y3003045D01*
X1641955Y3008671D01*
X1644577Y3015000D01*
D02*
G37*
G36*
X1620000D02*
X1605423D01*
X1608045Y3008671D01*
X1613671Y3003045D01*
X1620000Y3000423D01*
Y3015000D01*
D02*
G37*
G36*
X2529086Y3037903D02*
X2521193D01*
X2513900Y3034882D01*
X2508318Y3029301D01*
X2505297Y3022008D01*
Y3014114D01*
X2508318Y3006821D01*
X2513900Y3001239D01*
X2521193Y2998218D01*
X2529086D01*
X2536380Y3001239D01*
X2541961Y3006821D01*
X2544982Y3014114D01*
Y3022008D01*
X2541961Y3029301D01*
X2536380Y3034882D01*
X2529086Y3037903D01*
D02*
G37*
G36*
X3912343Y3009888D02*
Y2995311D01*
X3926920D01*
X3924298Y3001640D01*
X3918672Y3007266D01*
X3912343Y3009888D01*
D02*
G37*
G36*
X3902343D02*
X3896014Y3007266D01*
X3890388Y3001640D01*
X3887766Y2995311D01*
X3902343D01*
Y3009888D01*
D02*
G37*
G36*
X4029106Y3029163D02*
X4021212D01*
X4013919Y3026142D01*
X4008337Y3020561D01*
X4005316Y3013267D01*
Y3005374D01*
X4008337Y2998081D01*
X4013919Y2992499D01*
X4021212Y2989478D01*
X4029106D01*
X4036399Y2992499D01*
X4041981Y2998081D01*
X4045001Y3005374D01*
Y3013267D01*
X4041981Y3020561D01*
X4036399Y3026142D01*
X4029106Y3029163D01*
D02*
G37*
G36*
X3926920Y2985311D02*
X3912343D01*
Y2970734D01*
X3918672Y2973356D01*
X3924298Y2978982D01*
X3926920Y2985311D01*
D02*
G37*
G36*
X3902343D02*
X3887766D01*
X3890388Y2978982D01*
X3896014Y2973356D01*
X3902343Y2970734D01*
Y2985311D01*
D02*
G37*
G36*
X1523993Y3008465D02*
X1515771D01*
X1508174Y3005318D01*
X1502359Y2999503D01*
X1499213Y2991907D01*
Y2983684D01*
X1502359Y2976087D01*
X1508174Y2970273D01*
X1515771Y2967126D01*
X1523993D01*
X1531590Y2970273D01*
X1537405Y2976087D01*
X1540551Y2983684D01*
Y2991907D01*
X1537405Y2999503D01*
X1531590Y3005318D01*
X1523993Y3008465D01*
D02*
G37*
G36*
X2709577Y2980000D02*
X2695000D01*
Y2965423D01*
X2701329Y2968045D01*
X2706955Y2973671D01*
X2709577Y2980000D01*
D02*
G37*
G36*
X2669577Y3055000D02*
X2630423D01*
X2633045Y3048671D01*
X2638671Y3043045D01*
X2639986Y3042500D01*
Y3037500D01*
X2638671Y3036955D01*
X2633045Y3031329D01*
X2630423Y3025000D01*
X2650000D01*
Y3015000D01*
X2630423D01*
X2633045Y3008671D01*
X2635949Y3005766D01*
X2638282Y3002500D01*
X2635949Y2999234D01*
X2633045Y2996329D01*
X2630423Y2990000D01*
X2650000D01*
Y2985000D01*
X2655000D01*
Y2965423D01*
X2661329Y2968045D01*
X2666955Y2973671D01*
X2667500Y2974986D01*
X2672500D01*
X2673045Y2973671D01*
X2678671Y2968045D01*
X2685000Y2965423D01*
Y2985000D01*
X2690000D01*
Y2990000D01*
X2709577D01*
X2706955Y2996329D01*
X2704051Y2999234D01*
X2701718Y3002500D01*
X2704051Y3005766D01*
X2706955Y3008671D01*
X2709577Y3015000D01*
X2690000D01*
Y3020000D01*
X2685000D01*
Y3039577D01*
X2678671Y3036955D01*
X2673045Y3031329D01*
X2672500Y3030014D01*
X2667500D01*
X2666955Y3031329D01*
X2661329Y3036955D01*
X2660014Y3037500D01*
Y3042500D01*
X2661329Y3043045D01*
X2666955Y3048671D01*
X2669577Y3055000D01*
D02*
G37*
G36*
X2645000Y2980000D02*
X2630423D01*
X2633045Y2973671D01*
X2638671Y2968045D01*
X2645000Y2965423D01*
Y2980000D01*
D02*
G37*
G36*
X2090702Y3033307D02*
X2079298D01*
X2068284Y3030356D01*
X2058409Y3024654D01*
X2050346Y3016591D01*
X2044644Y3006716D01*
X2041693Y2995702D01*
Y2984298D01*
X2044644Y2973284D01*
X2050346Y2963409D01*
X2058409Y2955346D01*
X2068284Y2949644D01*
X2079298Y2946693D01*
X2090702D01*
X2101716Y2949644D01*
X2111591Y2955346D01*
X2119654Y2963409D01*
X2125356Y2973284D01*
X2128307Y2984298D01*
Y2995702D01*
X2125356Y3006716D01*
X2119654Y3016591D01*
X2111591Y3024654D01*
X2101716Y3030356D01*
X2090702Y3033307D01*
D02*
G37*
G36*
X3993947Y2984843D02*
X3986053D01*
X3978760Y2981822D01*
X3973178Y2976240D01*
X3970157Y2968947D01*
Y2961053D01*
X3973178Y2953760D01*
X3978760Y2948178D01*
X3986053Y2945157D01*
X3993947D01*
X4001240Y2948178D01*
X4006822Y2953760D01*
X4009843Y2961053D01*
Y2968947D01*
X4006822Y2976240D01*
X4001240Y2981822D01*
X3993947Y2984843D01*
D02*
G37*
G36*
X3915000Y2949577D02*
Y2935000D01*
X3929577D01*
X3926955Y2941329D01*
X3921329Y2946955D01*
X3915000Y2949577D01*
D02*
G37*
G36*
X3905000D02*
X3898671Y2946955D01*
X3893045Y2941329D01*
X3890423Y2935000D01*
X3905000D01*
Y2949577D01*
D02*
G37*
G36*
X2685000Y2939577D02*
X2678671Y2936955D01*
X2673045Y2931329D01*
X2672500Y2930014D01*
X2667500D01*
X2666955Y2931329D01*
X2661329Y2936955D01*
X2655000Y2939577D01*
Y2920000D01*
Y2900423D01*
X2661329Y2903045D01*
X2666955Y2908671D01*
X2667500Y2909986D01*
X2672500D01*
X2673045Y2908671D01*
X2678671Y2903045D01*
X2685000Y2900423D01*
Y2920000D01*
Y2939577D01*
D02*
G37*
G36*
X2695000D02*
Y2925000D01*
X2709577D01*
X2706955Y2931329D01*
X2701329Y2936955D01*
X2695000Y2939577D01*
D02*
G37*
G36*
X2645000D02*
X2638671Y2936955D01*
X2633045Y2931329D01*
X2630423Y2925000D01*
X2645000D01*
Y2939577D01*
D02*
G37*
G36*
X1496891Y2962913D02*
X1488935D01*
X1481584Y2959869D01*
X1475958Y2954242D01*
X1472913Y2946892D01*
Y2938935D01*
X1475958Y2931584D01*
X1481584Y2925958D01*
X1488935Y2922913D01*
X1496891D01*
X1504242Y2925958D01*
X1509869Y2931584D01*
X1512913Y2938935D01*
Y2946892D01*
X1509869Y2954242D01*
X1504242Y2959869D01*
X1496891Y2962913D01*
D02*
G37*
G36*
X4035399Y2935707D02*
Y2921130D01*
X4049976D01*
X4047354Y2927459D01*
X4041728Y2933085D01*
X4035399Y2935707D01*
D02*
G37*
G36*
X3929577Y2925000D02*
X3915000D01*
Y2910423D01*
X3921329Y2913045D01*
X3926955Y2918671D01*
X3929577Y2925000D01*
D02*
G37*
G36*
X3905000D02*
X3890423D01*
X3893045Y2918671D01*
X3898671Y2913045D01*
X3905000Y2910423D01*
Y2925000D01*
D02*
G37*
G36*
X4025399Y2935707D02*
X4019070Y2933085D01*
X4013444Y2927459D01*
X4010399Y2920108D01*
Y2912152D01*
X4008258Y2909774D01*
X4004843Y2912838D01*
Y2913947D01*
X4001822Y2921240D01*
X3996240Y2926822D01*
X3988947Y2929843D01*
X3981053D01*
X3973760Y2926822D01*
X3968178Y2921240D01*
X3965157Y2913947D01*
Y2906053D01*
X3968178Y2898760D01*
X3973760Y2893178D01*
X3981053Y2890157D01*
X3988947D01*
X3989013Y2890185D01*
X3993500Y2886631D01*
Y2881053D01*
X3996521Y2873760D01*
X4002103Y2868178D01*
X4009396Y2865157D01*
X4015025D01*
X4017096Y2860157D01*
X4013178Y2856240D01*
X4010157Y2848947D01*
Y2841053D01*
X4013178Y2833760D01*
X4018760Y2828178D01*
X4019695Y2827791D01*
Y2822379D01*
X4018671Y2821955D01*
X4013045Y2816329D01*
X4010423Y2810000D01*
X4049577D01*
X4046955Y2816329D01*
X4041329Y2821955D01*
X4040305Y2822379D01*
Y2827791D01*
X4041240Y2828178D01*
X4046822Y2833760D01*
X4049843Y2841053D01*
Y2848947D01*
X4046822Y2856240D01*
X4041240Y2861822D01*
X4033947Y2864843D01*
X4028318D01*
X4026247Y2869843D01*
X4030164Y2873760D01*
X4033185Y2881053D01*
Y2888947D01*
X4031882Y2892093D01*
X4035439Y2896570D01*
X4041728Y2899175D01*
X4047354Y2904801D01*
X4049976Y2911130D01*
X4030399D01*
Y2916130D01*
X4025399D01*
Y2935707D01*
D02*
G37*
G36*
X2709577Y2915000D02*
X2695000D01*
Y2900423D01*
X2701329Y2903045D01*
X2706955Y2908671D01*
X2709577Y2915000D01*
D02*
G37*
G36*
X2645000D02*
X2630423D01*
X2633045Y2908671D01*
X2638671Y2903045D01*
X2645000Y2900423D01*
Y2915000D01*
D02*
G37*
G36*
X2685000Y2889577D02*
X2678671Y2886955D01*
X2673045Y2881329D01*
X2672500Y2880014D01*
X2667500D01*
X2666955Y2881329D01*
X2661329Y2886955D01*
X2655000Y2889577D01*
Y2870000D01*
X2650000D01*
Y2865000D01*
X2630423D01*
X2633045Y2858671D01*
X2638671Y2853045D01*
X2639986Y2852500D01*
Y2847500D01*
X2638671Y2846955D01*
X2633045Y2841329D01*
X2630423Y2835000D01*
X2650000D01*
Y2830000D01*
X2655000D01*
Y2810423D01*
X2661329Y2813045D01*
X2666955Y2818671D01*
X2667500Y2819986D01*
X2672500D01*
X2673045Y2818671D01*
X2678671Y2813045D01*
X2685000Y2810423D01*
Y2830000D01*
X2690000D01*
Y2835000D01*
X2709577D01*
X2706955Y2841329D01*
X2701329Y2846955D01*
X2700014Y2847500D01*
Y2852500D01*
X2701329Y2853045D01*
X2706955Y2858671D01*
X2709577Y2865000D01*
X2690000D01*
Y2870000D01*
X2685000D01*
Y2889577D01*
D02*
G37*
G36*
X2695000D02*
Y2875000D01*
X2709577D01*
X2706955Y2881329D01*
X2701329Y2886955D01*
X2695000Y2889577D01*
D02*
G37*
G36*
X2645000D02*
X2638671Y2886955D01*
X2633045Y2881329D01*
X2630423Y2875000D01*
X2645000D01*
Y2889577D01*
D02*
G37*
G36*
X4103978Y2915000D02*
X4096022D01*
X4088671Y2911955D01*
X4083045Y2906329D01*
X4080000Y2898978D01*
Y2891022D01*
X4083045Y2883671D01*
X4088671Y2878045D01*
X4089986Y2877500D01*
Y2872500D01*
X4088671Y2871955D01*
X4083045Y2866329D01*
X4080423Y2860000D01*
X4119577D01*
X4116955Y2866329D01*
X4111329Y2871955D01*
X4110014Y2872500D01*
Y2877500D01*
X4111329Y2878045D01*
X4116955Y2883671D01*
X4120000Y2891022D01*
Y2898978D01*
X4116955Y2906329D01*
X4111329Y2911955D01*
X4103978Y2915000D01*
D02*
G37*
G36*
X2090702Y2933307D02*
X2079298D01*
X2068284Y2930356D01*
X2058409Y2924654D01*
X2050346Y2916591D01*
X2044644Y2906716D01*
X2041693Y2895702D01*
Y2884298D01*
X2044644Y2873284D01*
X2050346Y2863409D01*
X2058409Y2855346D01*
X2068284Y2849644D01*
X2079298Y2846693D01*
X2090702D01*
X2101716Y2849644D01*
X2111591Y2855346D01*
X2119654Y2863409D01*
X2125356Y2873284D01*
X2128307Y2884298D01*
Y2895702D01*
X2125356Y2906716D01*
X2119654Y2916591D01*
X2111591Y2924654D01*
X2101716Y2930356D01*
X2090702Y2933307D01*
D02*
G37*
G36*
X3728978Y2885000D02*
X3721022D01*
X3713671Y2881955D01*
X3708045Y2876329D01*
X3705000Y2868978D01*
Y2861022D01*
X3708045Y2853671D01*
X3713671Y2848045D01*
X3721022Y2845000D01*
X3728978D01*
X3736329Y2848045D01*
X3741955Y2853671D01*
X3745000Y2861022D01*
Y2868978D01*
X3741955Y2876329D01*
X3736329Y2881955D01*
X3728978Y2885000D01*
D02*
G37*
G36*
X3915000Y2849577D02*
Y2835000D01*
X3929577D01*
X3926955Y2841329D01*
X3921329Y2846955D01*
X3915000Y2849577D01*
D02*
G37*
G36*
X3905000D02*
X3898671Y2846955D01*
X3893045Y2841329D01*
X3890423Y2835000D01*
X3905000D01*
Y2849577D01*
D02*
G37*
G36*
X3929577Y2825000D02*
X3915000D01*
Y2810423D01*
X3921329Y2813045D01*
X3926955Y2818671D01*
X3929577Y2825000D01*
D02*
G37*
G36*
X3905000D02*
X3890423D01*
X3893045Y2818671D01*
X3898671Y2813045D01*
X3905000Y2810423D01*
Y2825000D01*
D02*
G37*
G36*
X2709577D02*
X2695000D01*
Y2810423D01*
X2701329Y2813045D01*
X2706955Y2818671D01*
X2709577Y2825000D01*
D02*
G37*
G36*
X2645000D02*
X2630423D01*
X2633045Y2818671D01*
X2638671Y2813045D01*
X2645000Y2810423D01*
Y2825000D01*
D02*
G37*
G36*
X4119577Y2850000D02*
X4080423D01*
X4083045Y2843671D01*
X4086716Y2840000D01*
X4083045Y2836329D01*
X4080000Y2828978D01*
Y2821022D01*
X4083045Y2813671D01*
X4088671Y2808045D01*
X4096022Y2805000D01*
X4103978D01*
X4111329Y2808045D01*
X4116955Y2813671D01*
X4120000Y2821022D01*
Y2828978D01*
X4116955Y2836329D01*
X4113284Y2840000D01*
X4116955Y2843671D01*
X4119577Y2850000D01*
D02*
G37*
G36*
X1498781Y2844803D02*
X1490825D01*
X1483474Y2841758D01*
X1477848Y2836132D01*
X1474803Y2828781D01*
Y2820825D01*
X1477848Y2813474D01*
X1483474Y2807848D01*
X1490825Y2804803D01*
X1498781D01*
X1506132Y2807848D01*
X1511758Y2813474D01*
X1514803Y2820825D01*
Y2828781D01*
X1511758Y2836132D01*
X1506132Y2841758D01*
X1498781Y2844803D01*
D02*
G37*
G36*
X2675000Y2794577D02*
X2668671Y2791955D01*
X2665766Y2789051D01*
X2662500Y2786718D01*
X2659234Y2789051D01*
X2656329Y2791955D01*
X2650000Y2794577D01*
Y2775000D01*
Y2755423D01*
X2656329Y2758045D01*
X2659234Y2760949D01*
X2662500Y2763282D01*
X2665766Y2760949D01*
X2666572Y2760143D01*
X2666555Y2754972D01*
X2666007Y2754176D01*
X2660928Y2749098D01*
X2660867Y2748950D01*
X2654878Y2747556D01*
X2650000Y2749577D01*
Y2730000D01*
Y2710423D01*
X2656329Y2713045D01*
X2661955Y2718671D01*
X2662016Y2718818D01*
X2668006Y2720212D01*
X2672883Y2718192D01*
Y2737769D01*
X2677883D01*
Y2742769D01*
X2697460D01*
X2694838Y2749098D01*
X2691311Y2752625D01*
X2691328Y2757796D01*
X2691877Y2758592D01*
X2696955Y2763671D01*
X2699577Y2770000D01*
X2680000D01*
Y2775000D01*
X2675000D01*
Y2794577D01*
D02*
G37*
G36*
X4049577Y2800000D02*
X4035000D01*
Y2785423D01*
X4041329Y2788045D01*
X4046955Y2793671D01*
X4049577Y2800000D01*
D02*
G37*
G36*
X4025000D02*
X4010423D01*
X4013045Y2793671D01*
X4018671Y2788045D01*
X4025000Y2785423D01*
Y2800000D01*
D02*
G37*
G36*
X2685000Y2794577D02*
Y2780000D01*
X2699577D01*
X2696955Y2786329D01*
X2691329Y2791955D01*
X2685000Y2794577D01*
D02*
G37*
G36*
X2640000D02*
X2633671Y2791955D01*
X2628045Y2786329D01*
X2625423Y2780000D01*
X2640000D01*
Y2794577D01*
D02*
G37*
G36*
X3543947Y2799843D02*
X3536053D01*
X3528760Y2796822D01*
X3523178Y2791240D01*
X3520157Y2783947D01*
Y2776053D01*
X3523178Y2768760D01*
X3528760Y2763178D01*
X3536053Y2760157D01*
X3543947D01*
X3551240Y2763178D01*
X3556822Y2768760D01*
X3559843Y2776053D01*
Y2783947D01*
X3556822Y2791240D01*
X3551240Y2796822D01*
X3543947Y2799843D01*
D02*
G37*
G36*
X3493947D02*
X3486053D01*
X3478760Y2796822D01*
X3473178Y2791240D01*
X3470157Y2783947D01*
Y2776053D01*
X3473178Y2768760D01*
X3478760Y2763178D01*
X3486053Y2760157D01*
X3493947D01*
X3501240Y2763178D01*
X3506822Y2768760D01*
X3509843Y2776053D01*
Y2783947D01*
X3506822Y2791240D01*
X3501240Y2796822D01*
X3493947Y2799843D01*
D02*
G37*
G36*
X3443947D02*
X3436053D01*
X3428760Y2796822D01*
X3423178Y2791240D01*
X3420157Y2783947D01*
Y2776053D01*
X3423178Y2768760D01*
X3428760Y2763178D01*
X3436053Y2760157D01*
X3443947D01*
X3451240Y2763178D01*
X3456822Y2768760D01*
X3459843Y2776053D01*
Y2783947D01*
X3456822Y2791240D01*
X3451240Y2796822D01*
X3443947Y2799843D01*
D02*
G37*
G36*
X4103978Y2800000D02*
X4096022D01*
X4088671Y2796955D01*
X4083045Y2791329D01*
X4080000Y2783978D01*
Y2776022D01*
X4083045Y2768671D01*
X4088671Y2763045D01*
X4096022Y2760000D01*
X4103978D01*
X4111329Y2763045D01*
X4116955Y2768671D01*
X4120000Y2776022D01*
Y2783978D01*
X4116955Y2791329D01*
X4111329Y2796955D01*
X4103978Y2800000D01*
D02*
G37*
G36*
X2640000Y2770000D02*
X2625423D01*
X2628045Y2763671D01*
X2633671Y2758045D01*
X2640000Y2755423D01*
Y2770000D01*
D02*
G37*
G36*
X2237377Y2767309D02*
Y2752732D01*
X2251953D01*
X2249332Y2759061D01*
X2243706Y2764687D01*
X2237377Y2767309D01*
D02*
G37*
G36*
X2227377D02*
X2221048Y2764687D01*
X2215421Y2759061D01*
X2212800Y2752732D01*
X2227377D01*
Y2767309D01*
D02*
G37*
G36*
X2090702Y2833307D02*
X2079298D01*
X2068284Y2830356D01*
X2058409Y2824654D01*
X2050346Y2816591D01*
X2044644Y2806716D01*
X2041693Y2795702D01*
Y2784298D01*
X2044644Y2773284D01*
X2050346Y2763409D01*
X2058409Y2755346D01*
X2068284Y2749644D01*
X2079298Y2746693D01*
X2090702D01*
X2101716Y2749644D01*
X2111591Y2755346D01*
X2119654Y2763409D01*
X2125356Y2773284D01*
X2128307Y2784298D01*
Y2795702D01*
X2125356Y2806716D01*
X2119654Y2816591D01*
X2111591Y2824654D01*
X2101716Y2830356D01*
X2090702Y2833307D01*
D02*
G37*
G36*
X4105000Y2754577D02*
Y2740000D01*
X4119577D01*
X4116955Y2746329D01*
X4111329Y2751955D01*
X4105000Y2754577D01*
D02*
G37*
G36*
X4095000D02*
X4088671Y2751955D01*
X4083045Y2746329D01*
X4080423Y2740000D01*
X4095000D01*
Y2754577D01*
D02*
G37*
G36*
X1523993Y2780905D02*
X1515771D01*
X1508174Y2777759D01*
X1502359Y2771944D01*
X1499213Y2764348D01*
Y2756125D01*
X1502359Y2748528D01*
X1508174Y2742714D01*
X1515771Y2739567D01*
X1523993D01*
X1531590Y2742714D01*
X1537405Y2748528D01*
X1540551Y2756125D01*
Y2764348D01*
X1537405Y2771944D01*
X1531590Y2777759D01*
X1523993Y2780905D01*
D02*
G37*
G36*
X2640000Y2749577D02*
X2633671Y2746955D01*
X2628045Y2741329D01*
X2625423Y2735000D01*
X2640000D01*
Y2749577D01*
D02*
G37*
G36*
X2251953Y2742732D02*
X2237377D01*
Y2728155D01*
X2243706Y2730777D01*
X2249332Y2736403D01*
X2251953Y2742732D01*
D02*
G37*
G36*
X2227377D02*
X2212800D01*
X2215421Y2736403D01*
X2221048Y2730777D01*
X2227377Y2728155D01*
Y2742732D01*
D02*
G37*
G36*
X2697460Y2732769D02*
X2682883D01*
Y2718192D01*
X2689212Y2720813D01*
X2694838Y2726439D01*
X2697460Y2732769D01*
D02*
G37*
G36*
X4119577Y2730000D02*
X4105000D01*
Y2715423D01*
X4111329Y2718045D01*
X4116955Y2723671D01*
X4119577Y2730000D01*
D02*
G37*
G36*
X4095000D02*
X4080423D01*
X4083045Y2723671D01*
X4088671Y2718045D01*
X4095000Y2715423D01*
Y2730000D01*
D02*
G37*
G36*
X2640000Y2725000D02*
X2625423D01*
X2628045Y2718671D01*
X2633671Y2713045D01*
X2640000Y2710423D01*
Y2725000D01*
D02*
G37*
G36*
X3543947Y2749843D02*
X3536053D01*
X3528760Y2746822D01*
X3523178Y2741240D01*
X3520157Y2733947D01*
Y2726053D01*
X3523178Y2718760D01*
X3528760Y2713178D01*
X3536053Y2710157D01*
X3543947D01*
X3551240Y2713178D01*
X3556822Y2718760D01*
X3559843Y2726053D01*
Y2733947D01*
X3556822Y2741240D01*
X3551240Y2746822D01*
X3543947Y2749843D01*
D02*
G37*
G36*
X3493947D02*
X3486053D01*
X3478760Y2746822D01*
X3473178Y2741240D01*
X3470157Y2733947D01*
Y2726053D01*
X3473178Y2718760D01*
X3478760Y2713178D01*
X3486053Y2710157D01*
X3493947D01*
X3501240Y2713178D01*
X3506822Y2718760D01*
X3509843Y2726053D01*
Y2733947D01*
X3506822Y2741240D01*
X3501240Y2746822D01*
X3493947Y2749843D01*
D02*
G37*
G36*
X3443947D02*
X3436053D01*
X3428760Y2746822D01*
X3423178Y2741240D01*
X3420157Y2733947D01*
Y2726053D01*
X3423178Y2718760D01*
X3428760Y2713178D01*
X3436053Y2710157D01*
X3443947D01*
X3451240Y2713178D01*
X3456822Y2718760D01*
X3459843Y2726053D01*
Y2733947D01*
X3456822Y2741240D01*
X3451240Y2746822D01*
X3443947Y2749843D01*
D02*
G37*
G36*
X4105000Y2704577D02*
Y2690000D01*
X4119577D01*
X4116955Y2696329D01*
X4111329Y2701955D01*
X4105000Y2704577D01*
D02*
G37*
G36*
X4095000D02*
X4088671Y2701955D01*
X4083045Y2696329D01*
X4080423Y2690000D01*
X4095000D01*
Y2704577D01*
D02*
G37*
G36*
X3920000Y2684577D02*
Y2670000D01*
X3934577D01*
X3931955Y2676329D01*
X3926329Y2681955D01*
X3920000Y2684577D01*
D02*
G37*
G36*
X3910000D02*
X3903671Y2681955D01*
X3898045Y2676329D01*
X3895423Y2670000D01*
X3910000D01*
Y2684577D01*
D02*
G37*
G36*
X4119577Y2680000D02*
X4105000D01*
Y2665423D01*
X4111329Y2668045D01*
X4116955Y2673671D01*
X4119577Y2680000D01*
D02*
G37*
G36*
X4095000D02*
X4080423D01*
X4083045Y2673671D01*
X4088671Y2668045D01*
X4095000Y2665423D01*
Y2680000D01*
D02*
G37*
G36*
X3543947Y2699843D02*
X3536053D01*
X3528760Y2696822D01*
X3523178Y2691240D01*
X3520157Y2683947D01*
Y2676053D01*
X3523178Y2668760D01*
X3528760Y2663178D01*
X3536053Y2660157D01*
X3543947D01*
X3551240Y2663178D01*
X3556822Y2668760D01*
X3559843Y2676053D01*
Y2683947D01*
X3556822Y2691240D01*
X3551240Y2696822D01*
X3543947Y2699843D01*
D02*
G37*
G36*
X3493947D02*
X3486053D01*
X3478760Y2696822D01*
X3473178Y2691240D01*
X3470157Y2683947D01*
Y2676053D01*
X3473178Y2668760D01*
X3478760Y2663178D01*
X3486053Y2660157D01*
X3493947D01*
X3501240Y2663178D01*
X3506822Y2668760D01*
X3509843Y2676053D01*
Y2683947D01*
X3506822Y2691240D01*
X3501240Y2696822D01*
X3493947Y2699843D01*
D02*
G37*
G36*
X3443947D02*
X3436053D01*
X3428760Y2696822D01*
X3423178Y2691240D01*
X3420157Y2683947D01*
Y2676053D01*
X3423178Y2668760D01*
X3428760Y2663178D01*
X3436053Y2660157D01*
X3443947D01*
X3451240Y2663178D01*
X3456822Y2668760D01*
X3459843Y2676053D01*
Y2683947D01*
X3456822Y2691240D01*
X3451240Y2696822D01*
X3443947Y2699843D01*
D02*
G37*
G36*
X2213313Y2665989D02*
Y2651412D01*
X2227890D01*
X2225268Y2657741D01*
X2219642Y2663367D01*
X2213313Y2665989D01*
D02*
G37*
G36*
X2203313D02*
X2196984Y2663367D01*
X2191358Y2657741D01*
X2188736Y2651412D01*
X2203313D01*
Y2665989D01*
D02*
G37*
G36*
X2128307Y2733307D02*
X2041693D01*
Y2646693D01*
X2128307D01*
Y2733307D01*
D02*
G37*
G36*
X3934577Y2660000D02*
X3920000D01*
Y2645423D01*
X3926329Y2648045D01*
X3931955Y2653671D01*
X3934577Y2660000D01*
D02*
G37*
G36*
X3910000D02*
X3895423D01*
X3898045Y2653671D01*
X3903671Y2648045D01*
X3910000Y2645423D01*
Y2660000D01*
D02*
G37*
G36*
X2227890Y2641412D02*
X2213313D01*
Y2626835D01*
X2219642Y2629457D01*
X2225268Y2635083D01*
X2227890Y2641412D01*
D02*
G37*
G36*
X2203313D02*
X2188736D01*
X2191358Y2635083D01*
X2196984Y2629457D01*
X2203313Y2626835D01*
Y2641412D01*
D02*
G37*
G36*
X3543947Y2649843D02*
X3536053D01*
X3528760Y2646822D01*
X3523178Y2641240D01*
X3520157Y2633947D01*
Y2626053D01*
X3523178Y2618760D01*
X3528760Y2613178D01*
X3536053Y2610157D01*
X3543947D01*
X3551240Y2613178D01*
X3556822Y2618760D01*
X3559843Y2626053D01*
Y2633947D01*
X3556822Y2641240D01*
X3551240Y2646822D01*
X3543947Y2649843D01*
D02*
G37*
G36*
X3493947D02*
X3486053D01*
X3478760Y2646822D01*
X3473178Y2641240D01*
X3470157Y2633947D01*
Y2626053D01*
X3473178Y2618760D01*
X3478760Y2613178D01*
X3486053Y2610157D01*
X3493947D01*
X3501240Y2613178D01*
X3506822Y2618760D01*
X3509843Y2626053D01*
Y2633947D01*
X3506822Y2641240D01*
X3501240Y2646822D01*
X3493947Y2649843D01*
D02*
G37*
G36*
X3443947D02*
X3436053D01*
X3428760Y2646822D01*
X3423178Y2641240D01*
X3420157Y2633947D01*
Y2626053D01*
X3423178Y2618760D01*
X3428760Y2613178D01*
X3436053Y2610157D01*
X3443947D01*
X3451240Y2613178D01*
X3456822Y2618760D01*
X3459843Y2626053D01*
Y2633947D01*
X3456822Y2641240D01*
X3451240Y2646822D01*
X3443947Y2649843D01*
D02*
G37*
G36*
X1668563Y2598895D02*
X1662323Y2596310D01*
X1657815Y2591802D01*
X1653307Y2596310D01*
X1647067Y2598895D01*
Y2579489D01*
X1637067D01*
Y2598895D01*
X1630827Y2596310D01*
X1626319Y2591802D01*
X1621811Y2596310D01*
X1615571Y2598895D01*
Y2579489D01*
X1605571D01*
Y2598895D01*
X1599331Y2596310D01*
X1594823Y2591802D01*
X1590315Y2596310D01*
X1584075Y2598895D01*
Y2579489D01*
X1574075D01*
Y2598895D01*
X1567835Y2596310D01*
X1563327Y2591802D01*
X1558819Y2596310D01*
X1552579Y2598895D01*
Y2579489D01*
X1542579D01*
Y2598895D01*
X1536339Y2596310D01*
X1531831Y2591802D01*
X1527323Y2596310D01*
X1521083Y2598895D01*
Y2579489D01*
X1511083D01*
Y2598895D01*
X1504843Y2596310D01*
X1500335Y2591802D01*
X1495827Y2596310D01*
X1489587Y2598895D01*
Y2579489D01*
X1479587D01*
Y2598895D01*
X1473347Y2596310D01*
X1468839Y2591802D01*
X1464331Y2596310D01*
X1458091Y2598895D01*
Y2579489D01*
X1448091D01*
Y2598895D01*
X1441851Y2596310D01*
X1437343Y2591802D01*
X1432834Y2596310D01*
X1426595Y2598895D01*
Y2579489D01*
X1416595D01*
Y2598895D01*
X1410355Y2596310D01*
X1405847Y2591802D01*
X1401338Y2596310D01*
X1395099Y2598895D01*
Y2579489D01*
X1385099D01*
Y2598895D01*
X1378859Y2596310D01*
X1374350Y2591802D01*
X1369842Y2596310D01*
X1363602Y2598895D01*
Y2579489D01*
X1358602D01*
Y2574489D01*
X1339196D01*
X1341781Y2568249D01*
X1346289Y2563741D01*
X1341781Y2559232D01*
X1339196Y2552992D01*
X1358602D01*
Y2542992D01*
X1339196D01*
X1341781Y2536753D01*
X1346289Y2532244D01*
X1341781Y2527736D01*
X1339196Y2521497D01*
X1358602D01*
Y2511497D01*
X1339196D01*
X1341781Y2505257D01*
X1346289Y2500748D01*
X1341781Y2496240D01*
X1339196Y2490000D01*
X1358602D01*
Y2480000D01*
X1339196D01*
X1341781Y2473760D01*
X1346289Y2469252D01*
X1341781Y2464744D01*
X1339196Y2458504D01*
X1358602D01*
Y2448504D01*
X1339196D01*
X1341781Y2442264D01*
X1346289Y2437756D01*
X1341781Y2433248D01*
X1339196Y2427008D01*
X1358602D01*
Y2417008D01*
X1339196D01*
X1341781Y2410768D01*
X1346289Y2406260D01*
X1341781Y2401752D01*
X1339196Y2395512D01*
X1358602D01*
Y2385512D01*
X1339196D01*
X1341781Y2379272D01*
X1346289Y2374764D01*
X1341781Y2370256D01*
X1339196Y2364016D01*
X1358602D01*
Y2354016D01*
X1339196D01*
X1341781Y2347776D01*
X1346289Y2343268D01*
X1341781Y2338760D01*
X1339196Y2332520D01*
X1358602D01*
Y2322520D01*
X1339196D01*
X1341781Y2316280D01*
X1346289Y2311772D01*
X1341781Y2307264D01*
X1339196Y2301024D01*
X1358602D01*
Y2291024D01*
X1339196D01*
X1341781Y2284784D01*
X1346289Y2280276D01*
X1341781Y2275768D01*
X1339196Y2269528D01*
X1358602D01*
Y2259528D01*
X1339196D01*
X1341781Y2253288D01*
X1346289Y2248780D01*
X1341781Y2244272D01*
X1339196Y2238032D01*
X1358602D01*
Y2228032D01*
X1339196D01*
X1341781Y2221792D01*
X1346289Y2217284D01*
X1341781Y2212776D01*
X1339196Y2206536D01*
X1358602D01*
Y2201536D01*
X1363602D01*
Y2182130D01*
X1369842Y2184714D01*
X1374350Y2189222D01*
X1378859Y2184714D01*
X1385099Y2182130D01*
Y2201536D01*
X1395099D01*
Y2182130D01*
X1401338Y2184714D01*
X1405847Y2189222D01*
X1410355Y2184714D01*
X1416595Y2182130D01*
Y2201536D01*
X1426595D01*
Y2182130D01*
X1432834Y2184714D01*
X1437343Y2189222D01*
X1441851Y2184714D01*
X1448091Y2182130D01*
Y2201536D01*
X1458091D01*
Y2182130D01*
X1464331Y2184714D01*
X1468839Y2189222D01*
X1473347Y2184714D01*
X1479587Y2182130D01*
Y2201536D01*
X1489587D01*
Y2182130D01*
X1495827Y2184714D01*
X1500335Y2189222D01*
X1504843Y2184714D01*
X1511083Y2182130D01*
Y2201536D01*
X1521083D01*
Y2182130D01*
X1527323Y2184714D01*
X1531831Y2189222D01*
X1536339Y2184714D01*
X1542579Y2182130D01*
Y2201536D01*
X1552579D01*
Y2182130D01*
X1558819Y2184714D01*
X1563327Y2189222D01*
X1567835Y2184714D01*
X1574075Y2182130D01*
Y2201536D01*
X1584075D01*
Y2182130D01*
X1590315Y2184714D01*
X1594823Y2189222D01*
X1599331Y2184714D01*
X1605571Y2182130D01*
Y2201536D01*
X1615571D01*
Y2182130D01*
X1621811Y2184714D01*
X1626319Y2189222D01*
X1630827Y2184714D01*
X1637067Y2182130D01*
Y2201536D01*
X1647067D01*
Y2182130D01*
X1653307Y2184714D01*
X1657815Y2189222D01*
X1662323Y2184714D01*
X1668563Y2182130D01*
Y2201536D01*
X1678563D01*
Y2182130D01*
X1684803Y2184714D01*
X1689311Y2189222D01*
X1693819Y2184714D01*
X1700059Y2182130D01*
Y2201536D01*
X1710059D01*
Y2182130D01*
X1716299Y2184714D01*
X1720807Y2189222D01*
X1725315Y2184714D01*
X1731555Y2182130D01*
Y2201536D01*
X1741555D01*
Y2182130D01*
X1747795Y2184714D01*
X1752303Y2189222D01*
X1756811Y2184714D01*
X1763051Y2182130D01*
Y2201536D01*
X1773051D01*
Y2182130D01*
X1779291Y2184714D01*
X1783799Y2189222D01*
X1788307Y2184714D01*
X1794547Y2182130D01*
Y2201536D01*
X1804547D01*
Y2182130D01*
X1810787Y2184714D01*
X1815295Y2189222D01*
X1819803Y2184714D01*
X1826043Y2182130D01*
Y2201536D01*
X1836043D01*
Y2182130D01*
X1842283Y2184714D01*
X1846791Y2189222D01*
X1851300Y2184714D01*
X1857539Y2182130D01*
Y2201536D01*
X1867539D01*
Y2182130D01*
X1873779Y2184714D01*
X1878287Y2189222D01*
X1882796Y2184714D01*
X1889035Y2182130D01*
Y2201536D01*
X1899035D01*
Y2182130D01*
X1905275Y2184714D01*
X1909784Y2189222D01*
X1914292Y2184714D01*
X1920532Y2182130D01*
Y2201536D01*
X1925532D01*
Y2206536D01*
X1944938D01*
X1942353Y2212776D01*
X1937845Y2217284D01*
X1942353Y2221792D01*
X1944938Y2228032D01*
X1925532D01*
Y2238032D01*
X1944938D01*
X1942353Y2244272D01*
X1937845Y2248780D01*
X1942353Y2253288D01*
X1944938Y2259528D01*
X1925532D01*
Y2269528D01*
X1944938D01*
X1942353Y2275768D01*
X1937845Y2280276D01*
X1942353Y2284784D01*
X1944938Y2291024D01*
X1925532D01*
Y2301024D01*
X1944938D01*
X1942353Y2307264D01*
X1937845Y2311772D01*
X1942353Y2316280D01*
X1944938Y2322520D01*
X1925532D01*
Y2332520D01*
X1944938D01*
X1942353Y2338760D01*
X1937845Y2343268D01*
X1942353Y2347776D01*
X1944938Y2354016D01*
X1925532D01*
Y2364016D01*
X1944938D01*
X1942353Y2370256D01*
X1937845Y2374764D01*
X1942353Y2379272D01*
X1944938Y2385512D01*
X1925532D01*
Y2395512D01*
X1944938D01*
X1942353Y2401752D01*
X1937845Y2406260D01*
X1942353Y2410768D01*
X1944938Y2417008D01*
X1925532D01*
Y2427008D01*
X1944938D01*
X1942353Y2433248D01*
X1937845Y2437756D01*
X1942353Y2442264D01*
X1944938Y2448504D01*
X1925532D01*
Y2458504D01*
X1944938D01*
X1942353Y2464744D01*
X1937845Y2469252D01*
X1942353Y2473760D01*
X1944938Y2480000D01*
X1925532D01*
Y2490000D01*
X1944938D01*
X1942353Y2496240D01*
X1937845Y2500748D01*
X1942353Y2505257D01*
X1944938Y2511497D01*
X1925532D01*
Y2521497D01*
X1944938D01*
X1942353Y2527736D01*
X1937845Y2532244D01*
X1942353Y2536753D01*
X1944938Y2542992D01*
X1925532D01*
Y2552992D01*
X1944938D01*
X1942353Y2559232D01*
X1937845Y2563741D01*
X1942353Y2568249D01*
X1944938Y2574489D01*
X1925532D01*
Y2579489D01*
X1920532D01*
Y2598895D01*
X1914292Y2596310D01*
X1909784Y2591802D01*
X1905275Y2596310D01*
X1899035Y2598895D01*
Y2579489D01*
X1889035D01*
Y2598895D01*
X1882796Y2596310D01*
X1878287Y2591802D01*
X1873779Y2596310D01*
X1867539Y2598895D01*
Y2579489D01*
X1857539D01*
Y2598895D01*
X1851300Y2596310D01*
X1846791Y2591802D01*
X1842283Y2596310D01*
X1836043Y2598895D01*
Y2579489D01*
X1826043D01*
Y2598895D01*
X1819803Y2596310D01*
X1815295Y2591802D01*
X1810787Y2596310D01*
X1804547Y2598895D01*
Y2579489D01*
X1794547D01*
Y2598895D01*
X1788307Y2596310D01*
X1783799Y2591802D01*
X1779291Y2596310D01*
X1773051Y2598895D01*
Y2579489D01*
X1763051D01*
Y2598895D01*
X1756811Y2596310D01*
X1752303Y2591802D01*
X1747795Y2596310D01*
X1741555Y2598895D01*
Y2579489D01*
X1731555D01*
Y2598895D01*
X1725315Y2596310D01*
X1720807Y2591802D01*
X1716299Y2596310D01*
X1710059Y2598895D01*
Y2579489D01*
X1700059D01*
Y2598895D01*
X1693819Y2596310D01*
X1689311Y2591802D01*
X1684803Y2596310D01*
X1678563Y2598895D01*
Y2579489D01*
X1668563D01*
Y2598895D01*
D02*
G37*
G36*
X1930532D02*
Y2584489D01*
X1944938D01*
X1942353Y2590729D01*
X1936772Y2596310D01*
X1930532Y2598895D01*
D02*
G37*
G36*
X1353602D02*
X1347362Y2596310D01*
X1341781Y2590729D01*
X1339196Y2584489D01*
X1353602D01*
Y2598895D01*
D02*
G37*
G36*
X2383736Y2592367D02*
Y2577790D01*
X2398312D01*
X2395691Y2584119D01*
X2390065Y2589746D01*
X2383736Y2592367D01*
D02*
G37*
G36*
X2373736D02*
X2367407Y2589746D01*
X2361780Y2584119D01*
X2359159Y2577790D01*
X2373736D01*
Y2592367D01*
D02*
G37*
G36*
X2398312Y2567790D02*
X2383736D01*
Y2553214D01*
X2390065Y2555835D01*
X2395691Y2561461D01*
X2398312Y2567790D01*
D02*
G37*
G36*
X2373736D02*
X2359159D01*
X2361780Y2561461D01*
X2367407Y2555835D01*
X2373736Y2553214D01*
Y2567790D01*
D02*
G37*
G36*
X2429531Y2580277D02*
X2421637D01*
X2414344Y2577256D01*
X2408762Y2571675D01*
X2405741Y2564382D01*
Y2556488D01*
X2408762Y2549195D01*
X2414344Y2543613D01*
X2421637Y2540592D01*
X2429531D01*
X2436824Y2543613D01*
X2442405Y2549195D01*
X2445426Y2556488D01*
Y2564382D01*
X2442405Y2571675D01*
X2436824Y2577256D01*
X2429531Y2580277D01*
D02*
G37*
G36*
X3763947Y2569843D02*
X3756053D01*
X3748760Y2566822D01*
X3743178Y2561240D01*
X3740157Y2553947D01*
Y2546053D01*
X3743178Y2538760D01*
X3748760Y2533178D01*
X3756053Y2530157D01*
X3763947D01*
X3771240Y2533178D01*
X3776822Y2538760D01*
X3779843Y2546053D01*
Y2553947D01*
X3776822Y2561240D01*
X3771240Y2566822D01*
X3763947Y2569843D01*
D02*
G37*
G36*
X2536976Y2536910D02*
X2446228D01*
Y2446162D01*
X2536976D01*
Y2536910D01*
D02*
G37*
G36*
X4178947Y2439843D02*
X4171053D01*
X4163760Y2436822D01*
X4158178Y2431240D01*
X4155158Y2423947D01*
Y2416053D01*
X4158178Y2408760D01*
X4163760Y2403178D01*
X4171053Y2400157D01*
X4178947D01*
X4186240Y2403178D01*
X4191822Y2408760D01*
X4194842Y2416053D01*
Y2423947D01*
X4191822Y2431240D01*
X4186240Y2436822D01*
X4178947Y2439843D01*
D02*
G37*
G36*
X4113947D02*
X4106053D01*
X4098760Y2436822D01*
X4093178Y2431240D01*
X4090157Y2423947D01*
Y2416053D01*
X4093178Y2408760D01*
X4098760Y2403178D01*
X4106053Y2400157D01*
X4113947D01*
X4121240Y2403178D01*
X4126822Y2408760D01*
X4129842Y2416053D01*
Y2423947D01*
X4126822Y2431240D01*
X4121240Y2436822D01*
X4113947Y2439843D01*
D02*
G37*
G36*
X4053947D02*
X4046053D01*
X4038760Y2436822D01*
X4033178Y2431240D01*
X4030157Y2423947D01*
Y2416053D01*
X4033178Y2408760D01*
X4038760Y2403178D01*
X4046053Y2400157D01*
X4053947D01*
X4061240Y2403178D01*
X4066822Y2408760D01*
X4069843Y2416053D01*
Y2423947D01*
X4066822Y2431240D01*
X4061240Y2436822D01*
X4053947Y2439843D01*
D02*
G37*
G36*
X3993947D02*
X3986053D01*
X3978760Y2436822D01*
X3973178Y2431240D01*
X3970157Y2423947D01*
Y2416053D01*
X3973178Y2408760D01*
X3978760Y2403178D01*
X3986053Y2400157D01*
X3993947D01*
X4001240Y2403178D01*
X4006822Y2408760D01*
X4009843Y2416053D01*
Y2423947D01*
X4006822Y2431240D01*
X4001240Y2436822D01*
X3993947Y2439843D01*
D02*
G37*
G36*
X2497856Y2439036D02*
X2496602D01*
Y2396536D01*
X2539102D01*
Y2397789D01*
X2535865Y2409870D01*
X2529612Y2420702D01*
X2520768Y2429545D01*
X2509937Y2435799D01*
X2497856Y2439036D01*
D02*
G37*
G36*
X2486602D02*
X2485349D01*
X2473268Y2435799D01*
X2462437Y2429545D01*
X2453593Y2420702D01*
X2447339Y2409870D01*
X2444102Y2397789D01*
Y2396536D01*
X2486602D01*
Y2439036D01*
D02*
G37*
G36*
X3863947Y2419843D02*
X3856053D01*
X3848760Y2416822D01*
X3843178Y2411240D01*
X3840157Y2403947D01*
Y2396053D01*
X3843178Y2388760D01*
X3848760Y2383178D01*
X3856053Y2380157D01*
X3863947D01*
X3871240Y2383178D01*
X3876822Y2388760D01*
X3879843Y2396053D01*
Y2403947D01*
X3876822Y2411240D01*
X3871240Y2416822D01*
X3863947Y2419843D01*
D02*
G37*
G36*
X2539102Y2386536D02*
X2496602D01*
Y2344036D01*
X2497856D01*
X2509937Y2347273D01*
X2520768Y2353526D01*
X2529612Y2362370D01*
X2535865Y2373202D01*
X2539102Y2385282D01*
Y2386536D01*
D02*
G37*
G36*
X2486602D02*
X2444102D01*
Y2385282D01*
X2447339Y2373202D01*
X2453593Y2362370D01*
X2462437Y2353526D01*
X2473268Y2347273D01*
X2485349Y2344036D01*
X2486602D01*
Y2386536D01*
D02*
G37*
G36*
X2497576Y2336910D02*
X2485629D01*
X2474089Y2333818D01*
X2463742Y2327844D01*
X2455294Y2319396D01*
X2449321Y2309050D01*
X2446228Y2297509D01*
Y2285562D01*
X2449321Y2274022D01*
X2455294Y2263675D01*
X2463742Y2255228D01*
X2474089Y2249254D01*
X2485629Y2246162D01*
X2497576D01*
X2509116Y2249254D01*
X2519463Y2255228D01*
X2527911Y2263675D01*
X2533884Y2274022D01*
X2536976Y2285562D01*
Y2297509D01*
X2533884Y2309050D01*
X2527911Y2319396D01*
X2519463Y2327844D01*
X2509116Y2333818D01*
X2497576Y2336910D01*
D02*
G37*
G36*
X1944938Y2196536D02*
X1930532D01*
Y2182130D01*
X1936772Y2184714D01*
X1942353Y2190296D01*
X1944938Y2196536D01*
D02*
G37*
G36*
X1353602D02*
X1339196D01*
X1341781Y2190296D01*
X1347362Y2184714D01*
X1353602Y2182130D01*
Y2196536D01*
D02*
G37*
G36*
X3396683Y1984915D02*
X3388727D01*
X3381376Y1981870D01*
X3375750Y1976244D01*
X3372705Y1968893D01*
Y1960937D01*
X3375750Y1953586D01*
X3381376Y1947960D01*
X3388727Y1944915D01*
X3396683D01*
X3404034Y1947960D01*
X3409660Y1953586D01*
X3412705Y1960937D01*
Y1968893D01*
X3409660Y1976244D01*
X3404034Y1981870D01*
X3396683Y1984915D01*
D02*
G37*
G36*
X3992949Y2105709D02*
X3977051D01*
X3961458Y2102607D01*
X3946770Y2096523D01*
X3933551Y2087691D01*
X3922309Y2076449D01*
X3913477Y2063230D01*
X3907393Y2048542D01*
X3904291Y2032949D01*
Y2017051D01*
X3907393Y2001458D01*
X3913477Y1986770D01*
X3922309Y1973551D01*
X3933551Y1962310D01*
X3946770Y1953477D01*
X3961458Y1947393D01*
X3977051Y1944291D01*
X3992949D01*
X4008542Y1947393D01*
X4023230Y1953477D01*
X4036448Y1962310D01*
X4047690Y1973551D01*
X4056523Y1986770D01*
X4062607Y2001458D01*
X4065708Y2017051D01*
Y2032949D01*
X4062607Y2048542D01*
X4056523Y2063230D01*
X4047690Y2076449D01*
X4036448Y2087691D01*
X4023230Y2096523D01*
X4008542Y2102607D01*
X3992949Y2105709D01*
D02*
G37*
G36*
X2697949D02*
X2682051D01*
X2666458Y2102607D01*
X2651770Y2096523D01*
X2638551Y2087691D01*
X2627309Y2076449D01*
X2618477Y2063230D01*
X2612393Y2048542D01*
X2609291Y2032949D01*
Y2017051D01*
X2612393Y2001458D01*
X2618477Y1986770D01*
X2627309Y1973551D01*
X2638551Y1962310D01*
X2651770Y1953477D01*
X2666458Y1947393D01*
X2682051Y1944291D01*
X2697949D01*
X2713542Y1947393D01*
X2728230Y1953477D01*
X2741448Y1962310D01*
X2752690Y1973551D01*
X2761523Y1986770D01*
X2767607Y2001458D01*
X2770708Y2017051D01*
Y2032949D01*
X2767607Y2048542D01*
X2761523Y2063230D01*
X2752690Y2076449D01*
X2741448Y2087691D01*
X2728230Y2096523D01*
X2713542Y2102607D01*
X2697949Y2105709D01*
D02*
G37*
G36*
X1709484D02*
X1693586D01*
X1677993Y2102607D01*
X1663305Y2096523D01*
X1650086Y2087691D01*
X1638845Y2076449D01*
X1630012Y2063230D01*
X1623928Y2048542D01*
X1620827Y2032949D01*
Y2017051D01*
X1623928Y2001458D01*
X1630012Y1986770D01*
X1638845Y1973551D01*
X1650086Y1962310D01*
X1663305Y1953477D01*
X1677993Y1947393D01*
X1693586Y1944291D01*
X1709484D01*
X1725077Y1947393D01*
X1739765Y1953477D01*
X1752984Y1962310D01*
X1764226Y1973551D01*
X1773058Y1986770D01*
X1779142Y2001458D01*
X1782244Y2017051D01*
Y2032949D01*
X1779142Y2048542D01*
X1773058Y2063230D01*
X1764226Y2076449D01*
X1752984Y2087691D01*
X1739765Y2096523D01*
X1725077Y2102607D01*
X1709484Y2105709D01*
D02*
G37*
G36*
X3574381Y1984221D02*
X3566425D01*
X3559074Y1981176D01*
X3553448Y1975550D01*
X3550403Y1968199D01*
Y1960243D01*
X3553448Y1952892D01*
X3559074Y1947266D01*
X3566425Y1944221D01*
X3574381D01*
X3581732Y1947266D01*
X3587358Y1952892D01*
X3590403Y1960243D01*
Y1968199D01*
X3587358Y1975550D01*
X3581732Y1981176D01*
X3574381Y1984221D01*
D02*
G37*
G36*
X3664618Y1983527D02*
X3656662D01*
X3649311Y1980482D01*
X3643685Y1974856D01*
X3640640Y1967505D01*
Y1959549D01*
X3643685Y1952198D01*
X3649311Y1946572D01*
X3656662Y1943527D01*
X3664618D01*
X3671969Y1946572D01*
X3677595Y1952198D01*
X3680640Y1959549D01*
Y1967505D01*
X3677595Y1974856D01*
X3671969Y1980482D01*
X3664618Y1983527D01*
D02*
G37*
G36*
X3487615Y1982833D02*
X3479658D01*
X3472307Y1979788D01*
X3466681Y1974162D01*
X3463636Y1966811D01*
Y1958855D01*
X3466681Y1951504D01*
X3472307Y1945878D01*
X3479658Y1942833D01*
X3487615D01*
X3494965Y1945878D01*
X3500592Y1951504D01*
X3503636Y1958855D01*
Y1966811D01*
X3500592Y1974162D01*
X3494965Y1979788D01*
X3487615Y1982833D01*
D02*
G37*
G36*
X3752079Y1981445D02*
X3744123D01*
X3736772Y1978400D01*
X3731146Y1972774D01*
X3728101Y1965423D01*
Y1957466D01*
X3731146Y1950116D01*
X3736772Y1944489D01*
X3744123Y1941445D01*
X3752079D01*
X3759430Y1944489D01*
X3765056Y1950116D01*
X3768101Y1957466D01*
Y1965423D01*
X3765056Y1972774D01*
X3759430Y1978400D01*
X3752079Y1981445D01*
D02*
G37*
%LPD*%
D38*
X1519882Y2987795D02*
D03*
Y2760236D02*
D03*
Y3350787D02*
D03*
Y3578346D02*
D03*
D39*
X2085000Y3790000D02*
D03*
Y3690000D02*
D03*
Y3590000D02*
D03*
Y3490000D02*
D03*
Y3390000D02*
D03*
Y3290000D02*
D03*
Y3190000D02*
D03*
Y3090000D02*
D03*
Y2990000D02*
D03*
Y2890000D02*
D03*
Y2790000D02*
D03*
D40*
Y2690000D02*
D03*
D42*
X4902319Y2094803D02*
D03*
X4267280D02*
D03*
D43*
X4834800Y2220000D02*
D03*
X4334800Y2220000D02*
D03*
D44*
X4445038Y3020000D02*
D03*
X4724565D02*
D03*
X4345038D02*
D03*
X4824565D02*
D03*
D45*
X4385000Y2820000D02*
D03*
X4704685D02*
D03*
X4464921D02*
D03*
X4544842D02*
D03*
X4624764D02*
D03*
X4345039Y2920000D02*
D03*
X4424961D02*
D03*
X4504882D02*
D03*
X4664724D02*
D03*
X4744646D02*
D03*
X4824567D02*
D03*
D46*
X4784606Y2820000D02*
D03*
D47*
X4364724Y2482205D02*
D03*
X4804882D02*
D03*
X4364724Y2539685D02*
D03*
X4804882D02*
D03*
D48*
X2491602Y2291536D02*
D03*
Y2391536D02*
D03*
D49*
Y2491536D02*
D03*
D50*
X4900000Y3760000D02*
D03*
X5240000Y3360000D02*
D03*
X5200000Y3280000D02*
D03*
X5240000Y3200000D02*
D03*
X5200000Y3120000D02*
D03*
X5240000Y3040000D02*
D03*
X5200000Y2960000D02*
D03*
X5240000Y2880000D02*
D03*
X5200000Y2800000D02*
D03*
X5240000Y2720000D02*
D03*
X5200000Y2640000D02*
D03*
X5240000Y2560000D02*
D03*
X5200000Y2480000D02*
D03*
X5240000Y1920000D02*
D03*
X5200000Y1840000D02*
D03*
X5120000Y3920000D02*
D03*
X5160000Y3840000D02*
D03*
X5120000Y3760000D02*
D03*
X5160000Y3520000D02*
D03*
X5120000Y3280000D02*
D03*
X5160000Y3200000D02*
D03*
X5120000Y3120000D02*
D03*
X5160000Y3040000D02*
D03*
X5120000Y2960000D02*
D03*
X5160000Y2880000D02*
D03*
X5120000Y2800000D02*
D03*
X5160000Y2720000D02*
D03*
X5120000Y2640000D02*
D03*
X5160000Y2560000D02*
D03*
X5120000Y2480000D02*
D03*
X5160000Y1920000D02*
D03*
X5120000Y1840000D02*
D03*
X5080000Y4000000D02*
D03*
X5040000Y3920000D02*
D03*
X5080000Y3840000D02*
D03*
Y3040000D02*
D03*
X5040000Y2960000D02*
D03*
X5080000Y2880000D02*
D03*
X5040000Y2800000D02*
D03*
X5080000Y2720000D02*
D03*
X5040000Y2640000D02*
D03*
X5080000Y2560000D02*
D03*
X5040000Y2480000D02*
D03*
X5080000Y1920000D02*
D03*
X5040000Y1840000D02*
D03*
X5000000Y4000000D02*
D03*
X4960000Y3920000D02*
D03*
X5000000Y3200000D02*
D03*
X4960000Y3120000D02*
D03*
Y2960000D02*
D03*
X5000000Y2880000D02*
D03*
X4960000Y2800000D02*
D03*
X5000000Y2720000D02*
D03*
X4960000Y2640000D02*
D03*
X5000000Y2560000D02*
D03*
Y2400000D02*
D03*
X4960000Y2320000D02*
D03*
X5000000Y2240000D02*
D03*
X4960000Y2160000D02*
D03*
X5000000Y2080000D02*
D03*
X4960000Y2000000D02*
D03*
X5000000Y1920000D02*
D03*
X4920000Y4000000D02*
D03*
X4880000Y3600000D02*
D03*
X4920000Y3200000D02*
D03*
X4760000D02*
D03*
X4680000Y3360000D02*
D03*
Y3200000D02*
D03*
X4360000Y4000000D02*
D03*
X4280000Y3680000D02*
D03*
X4240000Y2480000D02*
D03*
Y2160000D02*
D03*
Y2000000D02*
D03*
X4200000Y4000000D02*
D03*
X4160000Y3920000D02*
D03*
X4200000Y3680000D02*
D03*
Y2240000D02*
D03*
X4160000Y2160000D02*
D03*
X4200000Y2080000D02*
D03*
X4160000Y2000000D02*
D03*
X4200000Y1920000D02*
D03*
X4120000Y4000000D02*
D03*
Y2240000D02*
D03*
X4080000Y2160000D02*
D03*
X4120000Y2080000D02*
D03*
Y1920000D02*
D03*
X4080000Y1840000D02*
D03*
X4040000Y3680000D02*
D03*
X4000000Y1840000D02*
D03*
X3920000D02*
D03*
X3840000Y3920000D02*
D03*
X3880000Y3200000D02*
D03*
Y2880000D02*
D03*
X3840000Y2000000D02*
D03*
X3880000Y1920000D02*
D03*
X3840000Y1840000D02*
D03*
X3800000Y4000000D02*
D03*
Y3840000D02*
D03*
Y3680000D02*
D03*
Y3200000D02*
D03*
Y2880000D02*
D03*
X3760000Y2480000D02*
D03*
X3800000Y1920000D02*
D03*
X3760000Y1840000D02*
D03*
X3720000Y4000000D02*
D03*
Y3680000D02*
D03*
X3680000Y3440000D02*
D03*
Y3120000D02*
D03*
X3720000Y2560000D02*
D03*
Y1920000D02*
D03*
X3680000Y1840000D02*
D03*
X3600000Y3760000D02*
D03*
Y3280000D02*
D03*
X3640000Y3200000D02*
D03*
Y3040000D02*
D03*
X3600000Y2960000D02*
D03*
X3640000Y2720000D02*
D03*
Y2560000D02*
D03*
Y1920000D02*
D03*
X3600000Y1840000D02*
D03*
X3560000Y3840000D02*
D03*
X3520000Y3760000D02*
D03*
X3560000Y3680000D02*
D03*
X3520000Y3600000D02*
D03*
Y3280000D02*
D03*
Y3120000D02*
D03*
X3560000Y3040000D02*
D03*
Y2880000D02*
D03*
Y2560000D02*
D03*
X3520000Y2480000D02*
D03*
X3560000Y2400000D02*
D03*
Y2240000D02*
D03*
Y1920000D02*
D03*
X3520000Y1840000D02*
D03*
X3480000Y3200000D02*
D03*
X3440000Y3120000D02*
D03*
Y2960000D02*
D03*
X3480000Y2880000D02*
D03*
X3440000Y2480000D02*
D03*
X3480000Y2400000D02*
D03*
Y1920000D02*
D03*
X3440000Y1840000D02*
D03*
X3360000Y3120000D02*
D03*
X3400000Y2880000D02*
D03*
X3360000Y2480000D02*
D03*
X3400000Y2400000D02*
D03*
Y2080000D02*
D03*
Y1920000D02*
D03*
X3360000Y1840000D02*
D03*
X3320000Y3840000D02*
D03*
X3280000Y3760000D02*
D03*
X3320000Y3680000D02*
D03*
Y3360000D02*
D03*
X3280000Y3280000D02*
D03*
X3320000Y3200000D02*
D03*
Y3040000D02*
D03*
X3280000Y2960000D02*
D03*
X3320000Y2880000D02*
D03*
X3280000Y2480000D02*
D03*
X3320000Y2400000D02*
D03*
Y2240000D02*
D03*
X3280000Y2160000D02*
D03*
Y2000000D02*
D03*
X3320000Y1920000D02*
D03*
X3280000Y1840000D02*
D03*
X3240000Y3840000D02*
D03*
Y3680000D02*
D03*
X3200000Y3280000D02*
D03*
Y2960000D02*
D03*
Y2640000D02*
D03*
X3240000Y1920000D02*
D03*
X3200000Y1840000D02*
D03*
X3160000Y3840000D02*
D03*
X3120000Y3760000D02*
D03*
X3160000Y3680000D02*
D03*
X3120000Y3600000D02*
D03*
X3160000Y3520000D02*
D03*
X3120000Y3440000D02*
D03*
X3160000Y3200000D02*
D03*
X3120000Y3120000D02*
D03*
X3160000Y3040000D02*
D03*
Y2880000D02*
D03*
X3120000Y2800000D02*
D03*
Y2160000D02*
D03*
X3160000Y1920000D02*
D03*
X3120000Y1840000D02*
D03*
X3080000Y3680000D02*
D03*
X3040000Y3600000D02*
D03*
X3080000Y3520000D02*
D03*
X3040000Y3440000D02*
D03*
Y3280000D02*
D03*
X3080000Y3200000D02*
D03*
X3040000Y3120000D02*
D03*
X3080000Y2720000D02*
D03*
Y2560000D02*
D03*
X3040000Y2480000D02*
D03*
X3080000Y2400000D02*
D03*
Y2240000D02*
D03*
X3040000Y2160000D02*
D03*
X3080000Y2080000D02*
D03*
X3040000Y2000000D02*
D03*
X3000000Y3840000D02*
D03*
Y3680000D02*
D03*
Y3520000D02*
D03*
X2960000Y3440000D02*
D03*
X3000000Y3360000D02*
D03*
X2960000Y3280000D02*
D03*
X3000000Y3040000D02*
D03*
X2960000Y2960000D02*
D03*
X3000000Y2560000D02*
D03*
Y2400000D02*
D03*
X2960000Y2160000D02*
D03*
X3000000Y2080000D02*
D03*
X2960000Y2000000D02*
D03*
X2880000Y3760000D02*
D03*
Y3600000D02*
D03*
X2920000Y2400000D02*
D03*
Y2240000D02*
D03*
X2880000Y2160000D02*
D03*
X2920000Y2080000D02*
D03*
X2880000Y2000000D02*
D03*
X2920000Y1920000D02*
D03*
X2840000Y3840000D02*
D03*
X2800000Y3760000D02*
D03*
X2840000Y3680000D02*
D03*
X2800000Y3440000D02*
D03*
Y2160000D02*
D03*
X2840000Y2080000D02*
D03*
Y1920000D02*
D03*
X2720000Y3760000D02*
D03*
X2760000Y3520000D02*
D03*
X2640000Y3600000D02*
D03*
X2680000Y3520000D02*
D03*
X2640000Y2160000D02*
D03*
X2600000Y3680000D02*
D03*
X2560000Y3600000D02*
D03*
X2600000Y3520000D02*
D03*
X2560000Y3440000D02*
D03*
Y3280000D02*
D03*
Y3120000D02*
D03*
Y2960000D02*
D03*
Y2800000D02*
D03*
Y2320000D02*
D03*
Y2160000D02*
D03*
X2520000Y3680000D02*
D03*
Y3520000D02*
D03*
X2480000Y3440000D02*
D03*
X2520000Y3360000D02*
D03*
X2480000Y3280000D02*
D03*
X2520000Y3200000D02*
D03*
Y2880000D02*
D03*
X2480000Y2800000D02*
D03*
X2520000Y2560000D02*
D03*
X2480000Y2160000D02*
D03*
X2520000Y2080000D02*
D03*
Y1920000D02*
D03*
X2440000Y3360000D02*
D03*
X2400000Y3280000D02*
D03*
Y2480000D02*
D03*
X2440000Y2240000D02*
D03*
X2400000Y2160000D02*
D03*
X2440000Y2080000D02*
D03*
Y1920000D02*
D03*
X2360000Y3360000D02*
D03*
X2320000Y3280000D02*
D03*
Y3120000D02*
D03*
Y2480000D02*
D03*
X2360000Y2400000D02*
D03*
X2320000Y2320000D02*
D03*
X2360000Y2240000D02*
D03*
X2320000Y2160000D02*
D03*
X2360000Y2080000D02*
D03*
X2320000Y2000000D02*
D03*
X2280000Y3360000D02*
D03*
X2240000Y3280000D02*
D03*
X2280000Y3200000D02*
D03*
X2240000Y3120000D02*
D03*
X2280000Y3040000D02*
D03*
Y2560000D02*
D03*
X2240000Y1840000D02*
D03*
X2200000Y3360000D02*
D03*
X2160000Y3280000D02*
D03*
X2200000Y3200000D02*
D03*
X2160000Y3120000D02*
D03*
X2200000Y2560000D02*
D03*
X2160000Y2320000D02*
D03*
Y2160000D02*
D03*
Y2000000D02*
D03*
X2200000Y1920000D02*
D03*
X2160000Y1840000D02*
D03*
X2080000Y2480000D02*
D03*
Y2320000D02*
D03*
Y2160000D02*
D03*
X2120000Y2080000D02*
D03*
X2080000Y2000000D02*
D03*
X2120000Y1920000D02*
D03*
X2080000Y1840000D02*
D03*
X2000000Y3920000D02*
D03*
Y3280000D02*
D03*
Y3120000D02*
D03*
Y2480000D02*
D03*
X2040000Y2400000D02*
D03*
X2000000Y2320000D02*
D03*
X2040000Y2240000D02*
D03*
X2000000Y2160000D02*
D03*
X2040000Y2080000D02*
D03*
Y1920000D02*
D03*
X2000000Y1840000D02*
D03*
X1960000Y3840000D02*
D03*
X1920000Y3280000D02*
D03*
X1960000Y3200000D02*
D03*
X1920000Y3120000D02*
D03*
Y2640000D02*
D03*
X1960000Y2080000D02*
D03*
Y1920000D02*
D03*
X1920000Y1840000D02*
D03*
X1880000Y3840000D02*
D03*
X1840000Y3280000D02*
D03*
X1880000Y2080000D02*
D03*
Y1920000D02*
D03*
X1840000Y1840000D02*
D03*
X1760000Y3120000D02*
D03*
X1800000Y3040000D02*
D03*
Y1920000D02*
D03*
X1760000Y1840000D02*
D03*
X1680000Y3760000D02*
D03*
Y3280000D02*
D03*
X1720000Y3200000D02*
D03*
X1680000Y3120000D02*
D03*
X1720000Y3040000D02*
D03*
X1680000Y2640000D02*
D03*
Y1840000D02*
D03*
X1600000Y3280000D02*
D03*
X1640000Y3200000D02*
D03*
X1600000Y2640000D02*
D03*
Y1840000D02*
D03*
X1560000Y4000000D02*
D03*
Y3840000D02*
D03*
Y2080000D02*
D03*
X1520000Y2000000D02*
D03*
X1560000Y1920000D02*
D03*
X1520000Y1840000D02*
D03*
X1480000Y4000000D02*
D03*
X1440000Y3760000D02*
D03*
Y3440000D02*
D03*
X1480000Y3360000D02*
D03*
X1440000Y3280000D02*
D03*
X1480000Y3200000D02*
D03*
X1440000Y3120000D02*
D03*
Y2960000D02*
D03*
X1480000Y2880000D02*
D03*
X1440000Y2800000D02*
D03*
X1480000Y2720000D02*
D03*
X1440000Y2640000D02*
D03*
X1480000Y2080000D02*
D03*
X1440000Y2000000D02*
D03*
X1480000Y1920000D02*
D03*
X1440000Y1840000D02*
D03*
X1400000Y4000000D02*
D03*
X1360000Y3920000D02*
D03*
X1400000Y3840000D02*
D03*
X1360000Y3760000D02*
D03*
Y3600000D02*
D03*
X1400000Y3520000D02*
D03*
X1360000Y3440000D02*
D03*
X1400000Y3360000D02*
D03*
Y3200000D02*
D03*
X1360000Y2960000D02*
D03*
X1400000Y2880000D02*
D03*
X1360000Y2800000D02*
D03*
X1400000Y2080000D02*
D03*
X1360000Y2000000D02*
D03*
X1400000Y1920000D02*
D03*
X3060000Y3660000D02*
D03*
X4357503Y3611052D02*
D03*
X4164900Y3710830D02*
D03*
X4230000Y3740000D02*
D03*
X2525140Y3018061D02*
D03*
X2422645Y3193655D02*
D03*
X2482645Y3133655D02*
D03*
X2425584Y2560435D02*
D03*
X4462191Y3557737D02*
D03*
X3980000Y3590000D02*
D03*
X4000000Y3620000D02*
D03*
X3950833Y3584478D02*
D03*
X3840000Y3158550D02*
D03*
X3897863D02*
D03*
X3890000Y3055000D02*
D03*
X4100046Y3059833D02*
D03*
X4025159Y3009321D02*
D03*
X1642067Y2390512D02*
D03*
X1358602Y2579489D02*
D03*
Y2547992D02*
D03*
Y2516497D02*
D03*
Y2485000D02*
D03*
Y2453504D02*
D03*
Y2422008D02*
D03*
Y2390512D02*
D03*
Y2359016D02*
D03*
Y2327520D02*
D03*
Y2296024D02*
D03*
Y2264528D02*
D03*
Y2233032D02*
D03*
Y2201536D02*
D03*
X1390099Y2579489D02*
D03*
X1421595D02*
D03*
X1390099Y2547992D02*
D03*
X1421595D02*
D03*
X1390099Y2516497D02*
D03*
X1421595D02*
D03*
X1390099Y2485000D02*
D03*
X1421595D02*
D03*
X1390099Y2453504D02*
D03*
X1421595D02*
D03*
X1390099Y2422008D02*
D03*
X1421595D02*
D03*
X1390099Y2390512D02*
D03*
X1421595D02*
D03*
X1390099Y2359016D02*
D03*
X1421595D02*
D03*
X1390099Y2327520D02*
D03*
X1421595D02*
D03*
X1390099Y2296024D02*
D03*
X1421595D02*
D03*
X1390099Y2264528D02*
D03*
X1421595D02*
D03*
X1390099Y2233032D02*
D03*
X1421595D02*
D03*
X1390099Y2201536D02*
D03*
X1421595D02*
D03*
X1453091Y2296024D02*
D03*
Y2390512D02*
D03*
Y2327520D02*
D03*
Y2359016D02*
D03*
Y2422008D02*
D03*
Y2453504D02*
D03*
Y2201536D02*
D03*
Y2233032D02*
D03*
Y2264528D02*
D03*
Y2516497D02*
D03*
Y2547992D02*
D03*
Y2579489D02*
D03*
Y2485000D02*
D03*
X1862539Y2233032D02*
D03*
X1831043D02*
D03*
X1799547D02*
D03*
X1768051D02*
D03*
X1799547Y2264528D02*
D03*
X1768051D02*
D03*
X1799547Y2296024D02*
D03*
X1768051D02*
D03*
X1799547Y2327520D02*
D03*
X1768051D02*
D03*
X1799547Y2359016D02*
D03*
X1768051D02*
D03*
X1736555D02*
D03*
X1799547Y2390512D02*
D03*
X1768051D02*
D03*
X1736555D02*
D03*
X1610571Y2516497D02*
D03*
X1579075D02*
D03*
X1547579D02*
D03*
X1516083D02*
D03*
X1579075Y2547992D02*
D03*
X1547579D02*
D03*
X1516083D02*
D03*
X1610571D02*
D03*
X1831043D02*
D03*
X1799547D02*
D03*
X1768051D02*
D03*
X1736555D02*
D03*
X1705059D02*
D03*
X1673563D02*
D03*
X1862539Y2579489D02*
D03*
X1831043D02*
D03*
X1799547D02*
D03*
X1768051D02*
D03*
X1736555D02*
D03*
X1705059D02*
D03*
X1673563D02*
D03*
X1610571D02*
D03*
X1579075D02*
D03*
X1547579D02*
D03*
X1516083D02*
D03*
X1642067D02*
D03*
X1862539Y2201536D02*
D03*
X1831043D02*
D03*
X1862539Y2264528D02*
D03*
X1831043D02*
D03*
X1862539Y2296024D02*
D03*
X1831043D02*
D03*
X1862539Y2359016D02*
D03*
X1831043D02*
D03*
Y2390512D02*
D03*
X1862539D02*
D03*
X1610571D02*
D03*
X1579075D02*
D03*
X1610571Y2422008D02*
D03*
X1579075D02*
D03*
X1610571Y2453504D02*
D03*
X1579075D02*
D03*
X1547579D02*
D03*
X1610571Y2485000D02*
D03*
X1579075D02*
D03*
X1547579Y2422008D02*
D03*
Y2485000D02*
D03*
X1862539Y2327520D02*
D03*
X1831043D02*
D03*
Y2422008D02*
D03*
X1799547D02*
D03*
X1862539D02*
D03*
X1610571Y2359016D02*
D03*
X1579075D02*
D03*
X1547579D02*
D03*
X1516083D02*
D03*
X1484587D02*
D03*
Y2390512D02*
D03*
X1516083D02*
D03*
X1768051Y2422008D02*
D03*
X1736555D02*
D03*
X1705059D02*
D03*
X1673563D02*
D03*
X1862539Y2453504D02*
D03*
X1831043D02*
D03*
X1799547D02*
D03*
X1768051D02*
D03*
X1736555D02*
D03*
X1705059D02*
D03*
X1673563D02*
D03*
X1862539Y2485000D02*
D03*
X1831043D02*
D03*
X1894035Y2516497D02*
D03*
Y2547992D02*
D03*
Y2579489D02*
D03*
X1925532Y2296024D02*
D03*
Y2327520D02*
D03*
Y2359016D02*
D03*
Y2390512D02*
D03*
Y2422008D02*
D03*
Y2453504D02*
D03*
Y2485000D02*
D03*
Y2516497D02*
D03*
Y2547992D02*
D03*
Y2579489D02*
D03*
X1799547Y2485000D02*
D03*
X1768051D02*
D03*
X1736555D02*
D03*
X1705059D02*
D03*
X1673563D02*
D03*
X1862539Y2516497D02*
D03*
X1831043D02*
D03*
X1799547D02*
D03*
X1768051D02*
D03*
X1736555D02*
D03*
X1705059D02*
D03*
X1673563D02*
D03*
X1862539Y2547992D02*
D03*
X1610571Y2201536D02*
D03*
X1579075D02*
D03*
X1547579D02*
D03*
X1610571Y2233032D02*
D03*
X1579075D02*
D03*
X1547579D02*
D03*
X1610571Y2264528D02*
D03*
X1579075D02*
D03*
X1547579D02*
D03*
X1610571Y2296024D02*
D03*
X1579075D02*
D03*
X1610571Y2327520D02*
D03*
X1579075D02*
D03*
X1547579D02*
D03*
Y2390512D02*
D03*
Y2296024D02*
D03*
X1894035Y2201536D02*
D03*
Y2233032D02*
D03*
Y2264528D02*
D03*
Y2296024D02*
D03*
Y2327520D02*
D03*
Y2359016D02*
D03*
Y2390512D02*
D03*
Y2422008D02*
D03*
Y2453504D02*
D03*
Y2485000D02*
D03*
X1925532Y2264528D02*
D03*
Y2233032D02*
D03*
Y2201536D02*
D03*
X1673563D02*
D03*
X1705059Y2233032D02*
D03*
X1673563D02*
D03*
X1705059Y2264528D02*
D03*
X1673563D02*
D03*
X1705059Y2296024D02*
D03*
X1673563D02*
D03*
X1705059Y2327520D02*
D03*
X1673563D02*
D03*
X1705059Y2359016D02*
D03*
X1673563D02*
D03*
X1705059Y2390512D02*
D03*
X1673563D02*
D03*
X1642067Y2201536D02*
D03*
X1705059D02*
D03*
X1642067Y2264528D02*
D03*
Y2296024D02*
D03*
Y2327520D02*
D03*
Y2359016D02*
D03*
Y2422008D02*
D03*
Y2453504D02*
D03*
Y2485000D02*
D03*
Y2516497D02*
D03*
Y2547992D02*
D03*
Y2233032D02*
D03*
X1799547Y2201536D02*
D03*
X1768051D02*
D03*
X1736555D02*
D03*
Y2264528D02*
D03*
Y2296024D02*
D03*
Y2327520D02*
D03*
Y2233032D02*
D03*
X1516083Y2296024D02*
D03*
X1484587D02*
D03*
X1516083Y2327520D02*
D03*
X1484587D02*
D03*
X1516083Y2201536D02*
D03*
X1484587D02*
D03*
X1516083Y2233032D02*
D03*
X1484587D02*
D03*
X1516083Y2264528D02*
D03*
X1484587D02*
D03*
X1516083Y2422008D02*
D03*
X1484587D02*
D03*
X1516083Y2453504D02*
D03*
X1484587D02*
D03*
X1516083Y2485000D02*
D03*
X1484587D02*
D03*
Y2516497D02*
D03*
Y2547992D02*
D03*
Y2579489D02*
D03*
X5240000Y2000000D02*
D03*
Y2080000D02*
D03*
Y2160000D02*
D03*
Y2240000D02*
D03*
Y2320000D02*
D03*
Y2400000D02*
D03*
X3660000D02*
D03*
X3760000D02*
D03*
X3570000Y2480000D02*
D03*
X3601768Y3817952D02*
D03*
X3920000Y3570000D02*
D03*
X1480000Y3850000D02*
D03*
X4979846Y3816610D02*
D03*
X3944991Y3484903D02*
D03*
X4020186Y3067208D02*
D03*
X3850000Y3390000D02*
D03*
X3733494Y3456506D02*
D03*
X2310000Y3790000D02*
D03*
X4980000Y2480000D02*
D03*
X1630000Y3270000D02*
D03*
X4285946Y3381583D02*
D03*
X4410000Y4035000D02*
D03*
X4845000D02*
D03*
X4235000D02*
D03*
X2221667Y3950000D02*
D03*
X3590000Y2260000D02*
D03*
X3300000D02*
D03*
X4510000Y3130000D02*
D03*
X4320000Y3400000D02*
D03*
X4580000Y3160000D02*
D03*
X4700000Y3130000D02*
D03*
X4340000Y3740000D02*
D03*
X2970000Y2460000D02*
D03*
X1575000Y3195000D02*
D03*
X2495000Y3755000D02*
D03*
X1975033Y3950033D02*
D03*
X2495000Y3700000D02*
D03*
X1760000Y3090000D02*
D03*
Y3290000D02*
D03*
X3755000Y2260000D02*
D03*
X3240000Y3890000D02*
D03*
X3540000Y2630000D02*
D03*
Y2680000D02*
D03*
Y2730000D02*
D03*
Y2780000D02*
D03*
X3490000D02*
D03*
Y2730000D02*
D03*
Y2680000D02*
D03*
Y2630000D02*
D03*
X3440000D02*
D03*
Y2680000D02*
D03*
Y2730000D02*
D03*
Y2780000D02*
D03*
X3860000Y2400000D02*
D03*
X1700000Y3380000D02*
D03*
Y3700000D02*
D03*
Y3470000D02*
D03*
X1630000D02*
D03*
Y3540000D02*
D03*
X1885597Y3699965D02*
D03*
X2098333Y3950000D02*
D03*
X2495000Y3590000D02*
D03*
X1670000Y3540000D02*
D03*
X2495000Y3490000D02*
D03*
X2440000Y3970000D02*
D03*
X4860000Y3450000D02*
D03*
X4820000Y3485000D02*
D03*
X2080000Y2235000D02*
D03*
X3665000Y2260000D02*
D03*
X3485000D02*
D03*
X3400000D02*
D03*
X3760000Y2550000D02*
D03*
X4240000Y2420000D02*
D03*
X4175000D02*
D03*
X4110000D02*
D03*
X4050000D02*
D03*
X3990000D02*
D03*
X3985000Y2910000D02*
D03*
X4030000Y2845000D02*
D03*
X4013343Y2885000D02*
D03*
X3990000Y2965000D02*
D03*
X2925000Y3740000D02*
D03*
X4895000Y3935000D02*
D03*
X4350000Y3900000D02*
D03*
X2965000Y3690000D02*
D03*
X4966693Y3513307D02*
D03*
X5010000D02*
D03*
X4966693Y3470000D02*
D03*
X5010000D02*
D03*
D51*
X3392705Y1964915D02*
D03*
X3483636Y1962833D02*
D03*
X3570403Y1964221D02*
D03*
X3660640Y1963527D02*
D03*
X3748101Y1961445D02*
D03*
X2232377Y2747732D02*
D03*
X2208313Y2646412D02*
D03*
X2378736Y2572790D02*
D03*
X4443688Y3436819D02*
D03*
X4061271Y3571386D02*
D03*
X3900000Y3329885D02*
D03*
X3855272D02*
D03*
X3785976D02*
D03*
X3780000Y3158707D02*
D03*
X3725000Y2865000D02*
D03*
X4030399Y2916130D02*
D03*
X2650000Y2920000D02*
D03*
X2690000D02*
D03*
X4565323Y3545000D02*
D03*
X4230000Y3632500D02*
D03*
X4030000Y3352184D02*
D03*
X4030322Y3267896D02*
D03*
X4110000Y3510000D02*
D03*
X4030123Y3095348D02*
D03*
X4030000Y3190000D02*
D03*
Y3235000D02*
D03*
Y3150000D02*
D03*
X2895000Y3120000D02*
D03*
X2795000Y3115000D02*
D03*
X4121945Y3543055D02*
D03*
X4145883Y3349117D02*
D03*
X4108058Y3345000D02*
D03*
X2190000Y3950000D02*
D03*
X1920000D02*
D03*
X5025220Y3331518D02*
D03*
X4702155Y3668092D02*
D03*
X1460000Y3395000D02*
D03*
X2650000Y3060000D02*
D03*
X2795000Y3315000D02*
D03*
X3700000Y3040000D02*
D03*
X1494803Y2824803D02*
D03*
X1492913Y2942913D02*
D03*
X1519567Y3529548D02*
D03*
X2645000Y2730000D02*
D03*
X2690000Y3450000D02*
D03*
X4760000Y3665000D02*
D03*
X4855000Y3555000D02*
D03*
X3907343Y2990311D02*
D03*
X3915000Y2665000D02*
D03*
X3910000Y3085000D02*
D03*
X4030000Y2805000D02*
D03*
X2143446Y4108446D02*
D03*
X2335000Y4110000D02*
D03*
X2245000D02*
D03*
X1985000Y4110113D02*
D03*
X2650000Y3450000D02*
D03*
X2690000Y3390000D02*
D03*
X2650000D02*
D03*
X2690000Y3020000D02*
D03*
X2650000Y3110000D02*
D03*
Y3020000D02*
D03*
Y2985000D02*
D03*
X2690000D02*
D03*
X3335000Y3535000D02*
D03*
X5100000Y3575000D02*
D03*
X4630000Y3665000D02*
D03*
X4805000Y3380000D02*
D03*
X5000000Y3680000D02*
D03*
X4100000Y2825000D02*
D03*
X2677883Y2737769D02*
D03*
X4100000Y2855000D02*
D03*
X3430000Y3325000D02*
D03*
X4100000Y2735000D02*
D03*
X5145000Y3565000D02*
D03*
X2650000Y3345000D02*
D03*
X2690000D02*
D03*
Y3300000D02*
D03*
X2650000D02*
D03*
Y3250000D02*
D03*
X2690000D02*
D03*
Y3200000D02*
D03*
X2650000D02*
D03*
X2690000Y3155000D02*
D03*
X2650000D02*
D03*
X2690000Y3110000D02*
D03*
Y2870000D02*
D03*
X2650000D02*
D03*
X2690000Y2830000D02*
D03*
X2650000D02*
D03*
X2680000Y2775000D02*
D03*
X2645000D02*
D03*
X3912500Y3441945D02*
D03*
X4220000Y3510000D02*
D03*
X4175000Y3555000D02*
D03*
X4170000Y3510000D02*
D03*
Y3450000D02*
D03*
X4150000Y3390000D02*
D03*
X4110000Y3450000D02*
D03*
X4240000Y3555000D02*
D03*
X4270000Y3510000D02*
D03*
X4110000Y3390000D02*
D03*
X3910000Y2830000D02*
D03*
Y2930000D02*
D03*
X3977392Y3139177D02*
D03*
X4100000Y2685000D02*
D03*
Y2780000D02*
D03*
X1760000Y3190000D02*
D03*
X1625000Y3020000D02*
D03*
X3225000Y3325000D02*
D03*
X3870000Y3115000D02*
D03*
X4100000Y2895000D02*
D03*
D52*
X4299571Y3743264D02*
D03*
X4164867Y3264867D02*
D03*
X4043096Y3551569D02*
D03*
X3975473Y3255704D02*
D03*
X3860000Y3090000D02*
D03*
X3871230Y2555136D02*
D03*
X4012402Y2486505D02*
D03*
X4071848Y2487972D02*
D03*
X4010000Y2550000D02*
D03*
X4157173Y3291408D02*
D03*
X4134028Y3267262D02*
D03*
X4178006Y3305655D02*
D03*
X4259610Y3325717D02*
D03*
X4279361Y3352477D02*
D03*
X3736001Y3486068D02*
D03*
X4785916Y3467600D02*
D03*
X4844238Y3424841D02*
D03*
X4103375Y3264680D02*
D03*
X4109525Y3293185D02*
D03*
X4200000Y3290000D02*
D03*
X4230000Y3320000D02*
D03*
X4200000D02*
D03*
X4596922Y3404116D02*
D03*
X4389330Y3787450D02*
D03*
X4388481Y3835668D02*
D03*
D53*
X3696188Y3323812D02*
D03*
X3580000Y3370000D02*
D03*
X2925000Y3505000D02*
D03*
X3110000Y3330000D02*
D03*
D54*
X4060000Y3524528D02*
D03*
D55*
X4197510Y2482205D02*
X4364724D01*
%TF.MD5,46b461a30ec9cb5d7d50a9c8413ed80a*%
M02*
