M48
;Layer_Color=9474304
;FILE_FORMAT=2:5
INCH,LZ
;TYPE=PLATED
T01F00S00C0.00787
T02F00S00C0.01181
T03F00S00C0.01300
T04F00S00C0.02000
T05F00S00C0.03543
T06F00S00C0.04055
T07F00S00C0.04724
T08F00S00C0.05000
T09F00S00C0.06299
;TYPE=NON_PLATED
T10F00S00C0.02559
T11F00S00C0.11024
T12F00S00C0.14567
%
T01
X0387123Y0255514
X0401Y0255
X040124Y0248651
X0407185Y0248797
X0386Y0309
X0397547Y032557
X0410337Y0326468
X0413403Y0326726
X0416487Y0326487
X0415717Y0329141
X0417801Y0330566
X042Y0332
Y0329
X0423Y0332
X0425961Y0332572
X0427936Y0335248
X0410953Y0329318
X040431Y0355157
X03736Y0348607
X0429957Y0374326
X0438933Y0378745
X0438848Y0383567
X0459692Y0340412
X0478592Y034676
X0484424Y0342484
X0496669Y0347
Y0351331
X0501
Y0347
T02
X0504Y0184
X0512
X052
X0524Y0192
X0516
X0508
X05
X0496Y02
X05Y0208
X0496Y0216
X05Y0224
X0496Y0232
X05Y024
X0498Y0248
X0504
X0512
X052
X0524Y0256
X0516
X0508
X05
X0504Y0264
X0512
X052
X0524Y0272
X0516
X0508
X05
X0504Y028
X0512
X052
X0524Y0288
X0516
X0508
X05
X0504Y0296
X0512
X052
X0524Y0304
X0516
X0508
X0512Y0312
X052
X0496
Y0296
Y028
Y0264
X0524Y024
Y0232
Y0224
Y0216
Y0208
Y02
X0424
X0416
X042Y0208
X0412
X0416Y0216
X0424
X042Y0224
X0412
X0408Y0216
X0412Y0192
X042
X0408Y0184
X04
X0392
X0384
X0376
X0368
X036
X0352
X0344
X0336
X0328
X032
X0324Y0192
X0332
X034
X0348
X0356
X0364
X0372
X038
X0388
X0384Y02
X03755Y0226
X03665
X0359
X0356Y0224
X03485Y0226
X034
X0332Y0224
X033Y0226
X0328Y0216
Y02
X034Y0208
Y024
X0348
X0356
X0357Y0248
X0352
X0344
X0336
X0328
X0332Y024
X0366
X0376
Y0248
Y0255
X0372Y0256
X0364
X0356
X0354Y0263
Y0268
Y0273
Y0278
X0349
Y0273
Y0268
Y0263
X0344
Y0268
Y0273
Y0278
X0348Y0288
X0356
X036Y0296
X0364Y0304
X0356
X0352Y0312
X0344
X0336
X0332Y0304
X0328Y0296
X032
X0316Y0304
Y0288
X0332
X034
X0344Y0296
X0368Y0312
X0389Y03055
X0402019Y0306721
X0402516Y0300932
X0399Y02965
X03985Y0291
X0401334Y02885
X0403Y02845
X0388Y0288
X038
X0364Y0272
X032Y0264
X0316Y0192
X0386Y024
X0399Y0242
X0405
X0411
X04175
X0424
Y0248
X0410005Y0305983
X0312Y0312
X0304
X03Y0304
X0296Y0296
X0312Y028
X0308Y0272
Y0256
X03
X0304Y0248
X0297Y0246
X03Y024
X0308
Y0224
X0312Y0216
X0304
X0296
X0288
X028
X0284Y0208
X0292
X03
X0308
X0304Y02
X0296
X0288
X0292Y0192
X0284
X0252
X0244
Y0208
X0252
X0256Y0216
X0264
X0248
X024
X0232
X0236Y0224
X0244
X0256Y0232
X0232
X0236Y024
X024Y0248
X0232
X0228Y0256
X022
X0208Y0248
X02
X0192553Y02485
Y024535
Y0242201
Y0239051
Y0235902
Y0232752
Y0229602
X0189403
X0186254
X0183104
X0179955
Y0226453
Y0223303
X0183104
X0186254
Y0226453
X0183104
Y0220154
X0186254
X0189403
Y0223303
Y0226453
X0192553
Y0223303
Y0220154
X02Y0216
X0208
Y02235
X0204Y0224
X0208Y0232
X0216
Y0216
X0212Y0208
X0204
X0196
X0188
Y0192
X0196
X0204
X0212
X022
X0224Y0184
X0216
X0208
X02
X0192
X0184
X0176
X0168
X016
X018Y0192
X0179955Y0220154
X0176805
X0173655
X0170506
X0167356
Y0223303
X0170506
Y0226453
X0167356
Y0229602
X0170506
Y0232752
X0167356
Y0235902
X0170506
X0173655
X0176805
Y0232752
X0173655
Y0229602
X0176805
Y0226453
Y0223303
X0173655
Y0226453
X0164207
Y0223303
X0161057
X0157907
Y0226453
X0161057
Y0229602
X0157907
Y0232752
Y0235902
X0161057
Y0232752
X0164207
Y0235902
Y0239051
X0161057
X0157907
Y0242201
X0161057
Y024535
X0157907
Y02485
X0161057
Y025165
X0157907
Y0254799
X0161057
Y0257949
X0157907
X0164207
X0167356
X0170506
Y0254799
X0167356
Y025165
X0170506
Y02485
X0167356
Y024535
Y0242201
X0170506
Y024535
X0173655
Y0242201
X0176805
Y024535
X0179955
Y0242201
Y0239051
Y0235902
Y0232752
X0183104
Y0235902
X0186254
Y0232752
X0189403
Y0235902
Y0239051
X0186254
X0183104
Y0242201
X0186254
Y024535
X0183104
Y02485
X0186254
Y025165
X0183104
Y0254799
X0186254
Y0257949
X0183104
X0179955
Y0254799
Y025165
Y02485
X0176805
X0173655
Y025165
Y0254799
X0176805
Y025165
Y0257949
X0173655
X0168Y0264
X016
X0164207Y0254799
Y025165
Y02485
Y024535
Y0242201
X0167356Y0239051
X0170506
X0173655
X0176805
X0189403Y0242201
Y024535
Y02485
Y025165
Y0254799
Y0257949
X0192553
Y0254799
Y025165
X0192Y0264
X0204Y024
X02Y0232
X0164207Y0229602
Y0220154
X0161057
X0157907
X0208Y02
X0216
X0232
X0236Y0208
X0242558Y0256044
X0252Y0256
X0256Y028
X0248
X0252Y0288
X0256Y0296
X0252514Y0301806
X0256Y0312
X0232
X0224
X0216
X02
X0192
X0176
Y0309
X018Y0304
X0172
X0168Y0312
X0228Y0304
X0292Y024
Y0224
X0312Y0184
X0152
X0144
X0148Y0192
X0156
X0152Y02
X0144
X0136
X014Y0208
X0148
X0156
X0154758Y0220154
Y0223303
Y0226453
Y0229602
Y0232752
Y0235902
X0151608
X0148459
Y0232752
X0151608
Y0229602
X0148459
X0145309
X0142159
Y0232752
Y0235902
X0145309
Y0232752
X013901
Y0235902
X013586
Y0232752
Y0229602
Y0226453
Y0223303
Y0220154
X013901
Y0223303
Y0226453
Y0229602
X0142159Y0226453
Y0223303
X0145309
Y0226453
X0148459
Y0223303
X0151608
Y0226453
Y0220154
X0148459
X0145309
X0142159
Y0239051
X0145309
Y0242201
X0142159
Y024535
X0145309
Y02485
X0142159
Y025165
Y0254799
X0145309
Y025165
X0148459
X0151608
Y0254799
X0148459
Y0257949
X0151608
X0154758
Y0254799
Y025165
Y02485
Y024535
Y0242201
Y0239051
X0151608
X0148459
Y0242201
X0151608
Y024535
X0148459
Y02485
X0151608
X013901
X013586
Y025165
Y0254799
Y0257949
X013901
X0142159
X0145309
X0144Y0264
X0148Y0272
X0144Y028
X0136
X014Y0288
X0148
X0144Y0296
X0136
X0144Y0312
X013901Y0254799
Y025165
Y024535
Y0242201
X013586
Y024535
Y0239051
X013901
X014Y0192
Y032
X0148
X0144Y0328
X0148Y0336
X014
X0144Y0344
X0136
X014Y0352
X0136Y036
Y0376
X0144
X014Y0384
X0148Y0385
X0156Y0384
Y04
X0148
X014
X0136Y0392
X0168Y0376
X017Y037
X018856Y0369997
X0188Y0384
X0196
X02Y0392
X0197503Y0395003
X0209833Y0395
X0222167
X0244Y0397
X02495Y03755
Y037
X0252Y0368
X026
X0264Y036
X0256
X02495Y0359
X0252Y0352
X02495Y0349
X0248Y0344
X0256
X026Y0352
X0268
X0276
X028Y0344
X0296
X0304
X0312
X0308Y0352
X03
X0304Y036
X0312
X0308Y0368
X0306Y0366
X03Y0368
X02965Y0369
X02925Y0374
X0288Y0376
X028
X0272
X0284Y0384
X03
X0312Y0376
X0284Y0368
X0288Y036
X03Y0336
X0304Y0328
X0296
X0308Y032
X0252
X0242265Y0319366
X024Y0328
X0248
X0256
X0252Y0336
X0244
X0236
X0228
X022
X0224Y0328
X0232
X0228Y032
X022
X0216Y0328
X02
X0192
X0184
X0176Y0329
X0168Y0328
X0163Y0327
X016Y0328
X01575Y03195
X0164Y032
X0172
X017Y0338
Y0347
X0163
Y0354
X0167
X0196Y032
X0248265Y0313366
X0231Y0379
X0316Y0384
X0324
Y0389
X0332Y0384
X0328Y0376
X0332Y0368
X0324
X0316
Y0352
X032Y0328
X0328
X0332Y0336
Y032
X0348
X0352Y0328
X036
X0364Y032
X038
X0388
X0389786Y0315855
X0384
X0385Y0339
X0373349Y0345651
X0368Y0344
X0372Y0368
X038
Y0384
X0384Y0392
X038Y04
X0372
X0360177Y0381795
X036Y0376
X0352
X0356Y0384
Y0368
X0352Y036
X0392Y0357
X0395083Y0358448
X0398Y0359
X04Y0362
X0404Y0368
X041649Y0371083
X042Y0368
X0428
X0423Y0374
X0434
X043575Y0361105
X0446219Y0355774
X0432Y034
X0428595Y0338158
X0468Y0336
Y032
X0458Y0316
X0451Y0313
X0394499Y034849
X0416Y0392
X042Y04
X04235Y04035
X0412Y04
X0436
X0441Y04035
X0435Y039
X0316Y032
X0476
X047Y0313
X0492Y032
X05
X0516
X0524
X052Y0328
X0512
X0524Y0336
X0516Y0352
X0512Y0376
X0516Y0384
X0508
X0512Y0392
X0504
X0496
X04895Y03935
X0492Y04
X05
X0508
X04845Y04035
X049Y0376
X0497985Y0381661
X0488Y036
X0486Y0345
X0482Y03485
T03
X033927Y0196492
X0348364Y0196283
X035704Y0196422
X0366064Y0196353
X037481Y0196144
X03915Y02665
X0391Y0283
Y0293
X0390734Y0299031
X0391Y03085
X0387Y03115
X0403012Y0309535
X040304Y0291613
X041Y02895
Y02855
Y02825
Y0278
Y02735
Y02685
X0403Y02805
X03725Y02865
X037Y0304
X02895Y0312
X02795Y03115
X0269Y0311
X0265
Y0306
Y0302
Y02985
X0269
Y0302
Y0292
X0265
Y0287
X0269
Y0283
X0265
X02645Y02775
X0268
X0267788Y0273777
X02645Y0273
X0237874Y0257279
X0220831Y0264641
X0223238Y0274773
X01625Y0302
X0149291Y0294291
X014948Y028248
X0146Y03395
X0151957Y0352955
X0176Y0319
X0265Y032
X0269
Y03155
X0265
Y0325
X0269
Y033
X0265
Y03345
X0269
Y0339
X0265
Y0345
X0269
X02795Y03315
X0219Y0395
X0214345Y0410845
X02245Y0411
X02335
X01985Y0411011
X0192Y0395
X03335Y03535
X0343Y03325
X03225
X0378598Y0332989
X0385527
X039
X039125Y0344195
X0411Y0345
Y0351
X0412194Y0354306
X04175Y03555
X0417Y0351
X0422
X0427
X0424Y03555
X0423Y036325
X0406127Y0357139
X0417Y0345
X0415Y0339
X0411
X0410806Y03345
X0414588Y0334912
X0403Y0335218
X0403032Y032679
X0403Y03235
Y0319
Y0315
X0397739Y0313918
X0378Y0315871
X0444369Y0343682
X0456532Y03545
X0463Y03665
X0470216Y0366809
X0476Y03665
X04855Y03555
X04805Y0338
X0502522Y0333152
X051Y03575
X05145Y03565
X05Y0368
T04
X02925Y03505
X0311Y0333
X0358Y0337
X0369619Y0332381
X0406Y0352453
T05
X0480488Y024822
Y0253969
X0478461Y0282
X0470469
X0474465Y0292
X0482457
X0466472
X0462476Y0282
X0454484
X0446492
X04385
X0442496Y0292
X0434504
X0450488
X0436472Y0253969
Y024822
T06
X0472457Y0302
X0482456
X0444504
X0434504
T07
X02085Y0269
Y0279
Y0289
Y0299
Y0309
Y0319
Y0329
Y0339
Y0349
Y0359
Y0369
Y0379
T08
X024916Y0229154
Y0239154
Y0249154
T09
X0490232Y020948
X0426728
T10
X0151988Y0276024
Y029878
Y0335079
Y0357835
T11
X048348Y0222
X043348Y0222
T12
X03985Y02025
X0269
X0170153
Y03915
X0269
X03985
M30
