%TF.GenerationSoftware,Altium Limited,Altium Designer,23.9.2 (47)*%
G04 Layer_Color=16711935*
%FSLAX26Y26*%
%MOIN*%
%TF.SameCoordinates,9865C014-B1B1-49D6-8399-87C266C41E35*%
%TF.FilePolarity,Positive*%
%TF.FileFunction,Other,Mechanical_13*%
%TF.Part,Single*%
G01*
G75*
%TA.AperFunction,NonConductor*%
%ADD86C,0.005000*%
%ADD92C,0.003937*%
D86*
X4262795Y3698701D02*
X4662401D01*
X4262795D02*
Y4088858D01*
X4662401D01*
Y3698701D02*
Y4088858D01*
X4206693Y3669961D02*
Y3709331D01*
X4246063Y3689646D01*
X4206693Y3669961D02*
X4246063Y3689646D01*
X2002795Y2226299D02*
X2402401D01*
Y1836142D02*
Y2226299D01*
X2002795Y1836142D02*
X2402401D01*
X2002795D02*
Y2226299D01*
X2458504Y2215669D02*
Y2255039D01*
X2419134Y2235354D02*
X2458504Y2215669D01*
X2419134Y2235354D02*
X2458504Y2255039D01*
D92*
X4085394Y3915000D02*
G03*
X4085394Y3915000I-100394J0D01*
G01*
X2790394D02*
G03*
X2790394Y3915000I-100394J0D01*
G01*
Y2025000D02*
G03*
X2790394Y2025000I-100394J0D01*
G01*
X4085394D02*
G03*
X4085394Y2025000I-100394J0D01*
G01*
X1801929Y3915000D02*
G03*
X1801929Y3915000I-100394J0D01*
G01*
Y2025000D02*
G03*
X1801929Y2025000I-100394J0D01*
G01*
X5054291Y3445394D02*
G03*
X5054291Y3445394I-19685J0D01*
G01*
X4862283Y3653110D02*
Y3720039D01*
X4897717Y3653110D02*
Y3720039D01*
X4862283Y3653110D02*
X4897717D01*
X4862283Y3720039D02*
X4897717D01*
X5157717Y3606535D02*
Y3673465D01*
X5122283Y3606535D02*
Y3673465D01*
X5157717D01*
X5122283Y3606535D02*
X5157717D01*
X2359685Y2994567D02*
Y3065433D01*
X2320315Y2994567D02*
Y3065433D01*
X2359685D01*
X2320315Y2994567D02*
X2359685D01*
X2380315D02*
X2419685D01*
X2380315Y3065433D02*
X2419685D01*
X2380315Y2994567D02*
Y3065433D01*
X2419685Y2994567D02*
Y3065433D01*
X4906654Y3573347D02*
X5070039D01*
X4906654Y3409961D02*
X5070039D01*
X4906654D02*
Y3573347D01*
X5070039Y3409961D02*
Y3573347D01*
%TF.MD5,2234bf030b5de4ec04a6ae7125713911*%
M02*
