%TF.GenerationSoftware,Altium Limited,Altium Designer,23.9.2 (47)*%
G04 Layer_Color=32896*
%FSLAX26Y26*%
%MOIN*%
%TF.SameCoordinates,9865C014-B1B1-49D6-8399-87C266C41E35*%
%TF.FilePolarity,Positive*%
%TF.FileFunction,Other,Mechanical_4*%
%TF.Part,Single*%
G01*
G75*
%TA.AperFunction,NonConductor*%
%ADD81C,0.004724*%
%ADD82C,0.010000*%
%ADD83C,0.019685*%
%ADD84C,0.007874*%
%ADD92C,0.003937*%
D81*
X2595748Y3069173D02*
X2744567D01*
X2594961Y2620354D02*
X2743780D01*
X2594961Y3517992D02*
X2743780D01*
Y2620354D02*
Y3517992D01*
X2594961Y2620354D02*
Y3517992D01*
X4079213Y2620354D02*
Y3517992D01*
X3930394D02*
X4079213D01*
X3930394Y2620354D02*
Y3517992D01*
Y2620354D02*
X4079213D01*
X3930394Y3069173D02*
X4079213D01*
D82*
X3801899Y3955000D02*
G03*
X3801899Y3955000I-31741J0D01*
G01*
X3278032Y3797520D02*
X3711102D01*
X3278032D02*
Y4053425D01*
X3711102Y3797520D02*
Y4053425D01*
X3309528Y2970748D02*
X3364646D01*
X3337087Y2943189D02*
Y3002244D01*
D83*
X3986693Y2025866D02*
X4065433D01*
X3907953D02*
X3986693D01*
Y1947126D02*
Y2025866D01*
Y2104606D01*
X2687480Y2025866D02*
X2766220D01*
X2608740D02*
X2687480D01*
Y1947126D02*
Y2025866D01*
Y2104606D01*
Y3915630D02*
X2766220D01*
X2608740D02*
X2687480D01*
Y3836890D02*
Y3915630D01*
Y3994370D01*
X3986693Y3915630D02*
X4065433D01*
X3907953D02*
X3986693D01*
Y3836890D02*
Y3915630D01*
Y3994370D01*
D84*
X2683538Y3459586D02*
X2655988D01*
Y3445811D01*
X2660579Y3441220D01*
X2678946D01*
X2683538Y3445811D01*
Y3459586D01*
X2678946Y3413669D02*
X2683538Y3418261D01*
Y3427444D01*
X2678946Y3432036D01*
X2674354D01*
X2669763Y3427444D01*
Y3418261D01*
X2665171Y3413669D01*
X2660579D01*
X2655988Y3418261D01*
Y3427444D01*
X2660579Y3432036D01*
X2655988Y3404486D02*
Y3395302D01*
Y3399894D01*
X2683538D01*
X2678946Y3404486D01*
X2659258Y2975331D02*
X2663849Y2979923D01*
Y2989106D01*
X2659258Y2993698D01*
X2640891D01*
X2636299Y2989106D01*
Y2979923D01*
X2640891Y2975331D01*
X2636299Y2966147D02*
X2654666D01*
X2663849Y2956964D01*
X2654666Y2947781D01*
X2636299D01*
X2650074D01*
Y2966147D01*
X2636299Y2938597D02*
X2663849D01*
X2654666Y2929414D01*
X2663849Y2920230D01*
X2636299D01*
X2659258Y2911047D02*
X2663849Y2906455D01*
Y2897272D01*
X2659258Y2892680D01*
X2640891D01*
X2636299Y2897272D01*
Y2906455D01*
X2640891Y2911047D01*
X2659258D01*
X2659916Y3197439D02*
X2632366D01*
X2646141D01*
Y3179072D01*
X2659916D01*
X2632366D01*
X2659916Y3169889D02*
X2632366D01*
Y3156113D01*
X2636958Y3151522D01*
X2655324D01*
X2659916Y3156113D01*
Y3169889D01*
X2632366Y3142338D02*
X2659916D01*
X2650733Y3133155D01*
X2659916Y3123972D01*
X2632366D01*
X2659916Y3114788D02*
Y3105605D01*
Y3110196D01*
X2632366D01*
Y3114788D01*
Y3105605D01*
Y3091830D02*
Y3082646D01*
Y3087238D01*
X2659916D01*
X2655324Y3091830D01*
X4017525Y2969098D02*
X4022117Y2973689D01*
Y2982873D01*
X4017525Y2987465D01*
X3999159D01*
X3994567Y2982873D01*
Y2973689D01*
X3999159Y2969098D01*
X4008342D01*
Y2978281D01*
X3994567Y2959914D02*
X4022117D01*
Y2946139D01*
X4017525Y2941548D01*
X4008342D01*
X4003750Y2946139D01*
Y2959914D01*
X4022117Y2932364D02*
Y2923181D01*
Y2927773D01*
X3994567D01*
Y2932364D01*
Y2923181D01*
X4022117Y2895631D02*
Y2904814D01*
X4017525Y2909406D01*
X3999159D01*
X3994567Y2904814D01*
Y2895631D01*
X3999159Y2891039D01*
X4017525D01*
X4022117Y2895631D01*
X3989966Y3298820D02*
X3994558Y3294229D01*
Y3285045D01*
X3989966Y3280453D01*
X3985374D01*
X3980783Y3285045D01*
Y3289637D01*
Y3285045D01*
X3976191Y3280453D01*
X3971599D01*
X3967008Y3285045D01*
Y3294229D01*
X3971599Y3298820D01*
X3994558Y3271270D02*
X3976191D01*
X3967008Y3262087D01*
X3976191Y3252903D01*
X3994558D01*
X3989966Y3243720D02*
X3994558Y3239128D01*
Y3229945D01*
X3989966Y3225353D01*
X3985374D01*
X3980783Y3229945D01*
Y3234536D01*
Y3229945D01*
X3976191Y3225353D01*
X3971599D01*
X3967008Y3229945D01*
Y3239128D01*
X3971599Y3243720D01*
X4022117Y2745020D02*
Y2763387D01*
X3994567D01*
Y2745020D01*
X4008342Y2763387D02*
Y2754204D01*
X4022117Y2735837D02*
Y2717470D01*
Y2726653D01*
X3994567D01*
X4022117Y2708287D02*
X3994567D01*
X4008342D01*
Y2689920D01*
X4022117D01*
X3994567D01*
X2707160Y2751580D02*
X2684201D01*
X2679610Y2746988D01*
Y2737805D01*
X2684201Y2733213D01*
X2707160D01*
X2702568Y2705663D02*
X2707160Y2710254D01*
Y2719438D01*
X2702568Y2724029D01*
X2697977D01*
X2693385Y2719438D01*
Y2710254D01*
X2688793Y2705663D01*
X2684201D01*
X2679610Y2710254D01*
Y2719438D01*
X2684201Y2724029D01*
X2707160Y2696479D02*
X2679610D01*
Y2682704D01*
X2684201Y2678112D01*
X2688793D01*
X2693385Y2682704D01*
Y2696479D01*
Y2682704D01*
X2697977Y2678112D01*
X2702568D01*
X2707160Y2682704D01*
Y2696479D01*
X2703223Y2828355D02*
Y2809988D01*
Y2819172D01*
X2675673D01*
X2703223Y2800805D02*
X2684856D01*
X2675673Y2791622D01*
X2684856Y2782438D01*
X2703223D01*
X2702568Y2970743D02*
X2707160Y2975334D01*
Y2984518D01*
X2702568Y2989109D01*
X2684201D01*
X2679610Y2984518D01*
Y2975334D01*
X2684201Y2970743D01*
X2679610Y2961559D02*
X2697977D01*
X2707160Y2952376D01*
X2697977Y2943192D01*
X2679610D01*
X2693385D01*
Y2961559D01*
X2679610Y2934009D02*
X2707160D01*
X2697977Y2924826D01*
X2707160Y2915642D01*
X2679610D01*
Y2906459D02*
Y2897275D01*
Y2901867D01*
X2707160D01*
X2702568Y2906459D01*
X2707160Y3235500D02*
X2679610D01*
Y3221725D01*
X2684201Y3217133D01*
X2702568D01*
X2707160Y3221725D01*
Y3235500D01*
X2702568Y3189583D02*
X2707160Y3194175D01*
Y3203358D01*
X2702568Y3207950D01*
X2697976D01*
X2693385Y3203358D01*
Y3194175D01*
X2688793Y3189583D01*
X2684201D01*
X2679610Y3194175D01*
Y3203358D01*
X2684201Y3207950D01*
X2707160Y3180399D02*
Y3171216D01*
Y3175808D01*
X2679610D01*
Y3180399D01*
Y3171216D01*
X2702568Y3157441D02*
X2707160Y3152849D01*
Y3143666D01*
X2702568Y3139074D01*
X2684201D01*
X2679610Y3143666D01*
Y3152849D01*
X2684201Y3157441D01*
X2702568D01*
X4041802Y3316887D02*
Y3335254D01*
X4028027D01*
X4032619Y3326070D01*
Y3321479D01*
X4028027Y3316887D01*
X4018843D01*
X4014252Y3321479D01*
Y3330662D01*
X4018843Y3335254D01*
X4041802Y3307704D02*
X4023435D01*
X4014252Y3298520D01*
X4023435Y3289337D01*
X4041802D01*
X2636303Y2841799D02*
X2663853D01*
Y2828023D01*
X2659261Y2823432D01*
X2650078D01*
X2645486Y2828023D01*
Y2841799D01*
X2659261Y2795882D02*
X2663853Y2800473D01*
Y2809657D01*
X2659261Y2814248D01*
X2640895D01*
X2636303Y2809657D01*
Y2800473D01*
X2640895Y2795882D01*
X2663853Y2786698D02*
Y2777515D01*
Y2782106D01*
X2636303D01*
Y2786698D01*
Y2777515D01*
Y2749965D02*
Y2759148D01*
X2640895Y2763740D01*
X2650078D01*
X2654670Y2759148D01*
Y2749965D01*
X2650078Y2745373D01*
X2645486D01*
Y2763740D01*
X4013588Y3140694D02*
X4018180Y3145286D01*
Y3154469D01*
X4013588Y3159061D01*
X4008997D01*
X4004405Y3154469D01*
Y3145286D01*
X3999813Y3140694D01*
X3995221D01*
X3990630Y3145286D01*
Y3154469D01*
X3995221Y3159061D01*
X4018180Y3131511D02*
X3990630D01*
Y3117736D01*
X3995221Y3113144D01*
X4013588D01*
X4018180Y3117736D01*
Y3131511D01*
X2663853Y3371322D02*
X2636303D01*
X2650078D01*
Y3352955D01*
X2663853D01*
X2636303D01*
X2663853Y3343772D02*
X2636303D01*
Y3329997D01*
X2640894Y3325405D01*
X2659261D01*
X2663853Y3329997D01*
Y3343772D01*
X2636303Y3316222D02*
X2663853D01*
X2654669Y3307038D01*
X2663853Y3297855D01*
X2636303D01*
X2663853Y3288671D02*
Y3279488D01*
Y3284080D01*
X2636303D01*
Y3288671D01*
Y3279488D01*
X2659261Y3265713D02*
X2663853Y3261121D01*
Y3251938D01*
X2659261Y3247346D01*
X2640894D01*
X2636303Y3251938D01*
Y3261121D01*
X2640894Y3265713D01*
X2659261D01*
X3967008Y3398887D02*
Y3389703D01*
Y3394295D01*
X3994558D01*
X3989966Y3398887D01*
X3994558Y3375928D02*
X3976191D01*
X3967008Y3366745D01*
X3976191Y3357561D01*
X3994558D01*
X3989966Y3348378D02*
X3994558Y3343786D01*
Y3334603D01*
X3989966Y3330011D01*
X3985374D01*
X3980783Y3334603D01*
X3976191Y3330011D01*
X3971599D01*
X3967008Y3334603D01*
Y3343786D01*
X3971599Y3348378D01*
X3976191D01*
X3980783Y3343786D01*
X3985374Y3348378D01*
X3989966D01*
X3980783Y3343786D02*
Y3334603D01*
D92*
X3376499Y3971510D02*
Y3936088D01*
X3388306Y3947896D01*
X3400113Y3936088D01*
Y3971510D01*
X3411920Y3936088D02*
X3423727D01*
X3417824D01*
Y3959703D01*
X3411920D01*
X3441438D02*
Y3936088D01*
Y3947896D01*
X3447342Y3953799D01*
X3453245Y3959703D01*
X3459149D01*
X3494571Y3936088D02*
X3482764D01*
X3476860Y3941992D01*
Y3953799D01*
X3482764Y3959703D01*
X3494571D01*
X3500474Y3953799D01*
Y3947896D01*
X3476860D01*
X3512282Y3936088D02*
X3524089D01*
X3518185D01*
Y3971510D01*
X3512282D01*
X3559510Y3936088D02*
X3547703D01*
X3541800Y3941992D01*
Y3953799D01*
X3547703Y3959703D01*
X3559510D01*
X3565414Y3953799D01*
Y3947896D01*
X3541800D01*
X3577221Y3936088D02*
X3594932D01*
X3600836Y3941992D01*
X3594932Y3947896D01*
X3583125D01*
X3577221Y3953799D01*
X3583125Y3959703D01*
X3600836D01*
X3612643Y3936088D02*
X3630354D01*
X3636257Y3941992D01*
X3630354Y3947896D01*
X3618546D01*
X3612643Y3953799D01*
X3618546Y3959703D01*
X3636257D01*
X3438486Y3913652D02*
X3432583Y3919555D01*
X3420776D01*
X3414872Y3913652D01*
Y3890037D01*
X3420776Y3884134D01*
X3432583D01*
X3438486Y3890037D01*
X3450294Y3907748D02*
Y3890037D01*
X3456197Y3884134D01*
X3473908D01*
Y3907748D01*
X3491619Y3913652D02*
Y3907748D01*
X3485715D01*
X3497523D01*
X3491619D01*
Y3890037D01*
X3497523Y3884134D01*
X3521137D02*
X3532944D01*
X3538848Y3890037D01*
Y3901845D01*
X3532944Y3907748D01*
X3521137D01*
X3515233Y3901845D01*
Y3890037D01*
X3521137Y3884134D01*
X3550655Y3907748D02*
Y3890037D01*
X3556559Y3884134D01*
X3574269D01*
Y3907748D01*
X3591980Y3913652D02*
Y3907748D01*
X3586077D01*
X3597884D01*
X3591980D01*
Y3890037D01*
X3597884Y3884134D01*
%TF.MD5,95667349011cb60af6a951eab8f76007*%
M02*
