%TF.GenerationSoftware,Altium Limited,Altium Designer,23.9.2 (47)*%
G04 Layer_Color=128*
%FSLAX26Y26*%
%MOIN*%
%TF.SameCoordinates,9865C014-B1B1-49D6-8399-87C266C41E35*%
%TF.FilePolarity,Positive*%
%TF.FileFunction,Drillmap*%
%TF.Part,Single*%
G01*
G75*
%TA.AperFunction,NonConductor*%
%ADD86C,0.005000*%
D86*
X1507087Y2987795D02*
X1532677D01*
X1519882Y2975000D02*
Y3000590D01*
X1507087Y2760236D02*
X1532677D01*
X1519882Y2747441D02*
Y2773032D01*
X1507087Y3350787D02*
X1532677D01*
X1519882Y3337992D02*
Y3363583D01*
X1507087Y3578346D02*
X1532677D01*
X1519882Y3565551D02*
Y3591142D01*
X2061378Y3790000D02*
X2108622D01*
X2085000Y3766378D02*
Y3813622D01*
X2061378Y3690000D02*
X2108622D01*
X2085000Y3666378D02*
Y3713622D01*
X2061378Y3590000D02*
X2108622D01*
X2085000Y3566378D02*
Y3613622D01*
X2061378Y3490000D02*
X2108622D01*
X2085000Y3466378D02*
Y3513622D01*
X2061378Y3390000D02*
X2108622D01*
X2085000Y3366378D02*
Y3413622D01*
X2061378Y3290000D02*
X2108622D01*
X2085000Y3266378D02*
Y3313622D01*
X2061378Y3190000D02*
X2108622D01*
X2085000Y3166378D02*
Y3213622D01*
X2061378Y3090000D02*
X2108622D01*
X2085000Y3066378D02*
Y3113622D01*
X2061378Y2990000D02*
X2108622D01*
X2085000Y2966378D02*
Y3013622D01*
X2061378Y2890000D02*
X2108622D01*
X2085000Y2866378D02*
Y2913622D01*
X2061378Y2790000D02*
X2108622D01*
X2085000Y2766378D02*
Y2813622D01*
X2061378Y2690000D02*
X2108622D01*
X2085000Y2666378D02*
Y2713622D01*
X3912165Y3915000D02*
X4057834D01*
X3985000Y3842165D02*
Y3987835D01*
X2617165Y3915000D02*
X2762834D01*
X2690000Y3842165D02*
Y3987835D01*
X2617165Y2025000D02*
X2762834D01*
X2690000Y1952165D02*
Y2097835D01*
X3912165Y2025000D02*
X4057834D01*
X3985000Y1952165D02*
Y2097835D01*
X1628701Y3915000D02*
X1774370D01*
X1701535Y3842165D02*
Y3987835D01*
X1628701Y2025000D02*
X1774370D01*
X1701535Y1952165D02*
Y2097835D01*
X4870823Y2094803D02*
X4933815D01*
X4902319Y2063307D02*
Y2126299D01*
X4235784Y2094803D02*
X4298776D01*
X4267280Y2063307D02*
Y2126299D01*
X4779681Y2220000D02*
X4889918D01*
X4834800Y2164882D02*
Y2275118D01*
X4279681Y2220000D02*
X4389918D01*
X4334800Y2164882D02*
Y2275118D01*
X4424762Y3020000D02*
X4465313D01*
X4445038Y2999724D02*
Y3040276D01*
X4704289Y3020000D02*
X4744841D01*
X4724565Y2999724D02*
Y3040276D01*
X4324762Y3020000D02*
X4365313D01*
X4345038Y2999724D02*
Y3040276D01*
X4804289Y3020000D02*
X4844841D01*
X4824565Y2999724D02*
Y3040276D01*
X4367283Y2820000D02*
X4402717D01*
X4385000Y2802284D02*
Y2837716D01*
X4766890Y2820000D02*
X4802323D01*
X4784606Y2802284D02*
Y2837716D01*
X4686968Y2820000D02*
X4722401D01*
X4704685Y2802284D02*
Y2837716D01*
X4447205Y2820000D02*
X4482638D01*
X4464921Y2802284D02*
Y2837716D01*
X4527126Y2820000D02*
X4562559D01*
X4544842Y2802284D02*
Y2837716D01*
X4607047Y2820000D02*
X4642480D01*
X4624764Y2802284D02*
Y2837716D01*
X4327323Y2920000D02*
X4362756D01*
X4345039Y2902284D02*
Y2937716D01*
X4407244Y2920000D02*
X4442677D01*
X4424961Y2902284D02*
Y2937716D01*
X4487165Y2920000D02*
X4522598D01*
X4504882Y2902284D02*
Y2937716D01*
X4647008Y2920000D02*
X4682441D01*
X4664724Y2902284D02*
Y2937716D01*
X4726929Y2920000D02*
X4762362D01*
X4744646Y2902284D02*
Y2937716D01*
X4806850Y2920000D02*
X4842283D01*
X4824567Y2902284D02*
Y2937716D01*
X4347008Y2482205D02*
X4382441D01*
X4364724Y2464488D02*
Y2499921D01*
X4787165Y2482205D02*
X4822598D01*
X4804882Y2464488D02*
Y2499921D01*
X4347008Y2539685D02*
X4382441D01*
X4364724Y2521968D02*
Y2557401D01*
X4787165Y2539685D02*
X4822598D01*
X4804882Y2521968D02*
Y2557401D01*
X2466602Y2291536D02*
X2516602D01*
X2491602Y2266536D02*
Y2316536D01*
X2466602Y2391536D02*
X2516602D01*
X2491602Y2366536D02*
Y2416536D01*
X2466602Y2491536D02*
X2516602D01*
X2491602Y2466536D02*
Y2516536D01*
X4894095Y3760000D02*
X4905905D01*
X4900000Y3754095D02*
Y3765905D01*
X5234095Y3360000D02*
X5245905D01*
X5240000Y3354095D02*
Y3365905D01*
X5194095Y3280000D02*
X5205905D01*
X5200000Y3274095D02*
Y3285905D01*
X5234095Y3200000D02*
X5245905D01*
X5240000Y3194095D02*
Y3205905D01*
X5194095Y3120000D02*
X5205905D01*
X5200000Y3114095D02*
Y3125905D01*
X5234095Y3040000D02*
X5245905D01*
X5240000Y3034095D02*
Y3045905D01*
X5194095Y2960000D02*
X5205905D01*
X5200000Y2954095D02*
Y2965905D01*
X5234095Y2880000D02*
X5245905D01*
X5240000Y2874095D02*
Y2885905D01*
X5194095Y2800000D02*
X5205905D01*
X5200000Y2794095D02*
Y2805905D01*
X5234095Y2720000D02*
X5245905D01*
X5240000Y2714095D02*
Y2725905D01*
X5194095Y2640000D02*
X5205905D01*
X5200000Y2634095D02*
Y2645905D01*
X5234095Y2560000D02*
X5245905D01*
X5240000Y2554095D02*
Y2565905D01*
X5194095Y2480000D02*
X5205905D01*
X5200000Y2474095D02*
Y2485905D01*
X5234095Y1920000D02*
X5245905D01*
X5240000Y1914094D02*
Y1925906D01*
X5194095Y1840000D02*
X5205905D01*
X5200000Y1834094D02*
Y1845906D01*
X5114095Y3920000D02*
X5125905D01*
X5120000Y3914095D02*
Y3925905D01*
X5154095Y3840000D02*
X5165905D01*
X5160000Y3834095D02*
Y3845905D01*
X5114095Y3760000D02*
X5125905D01*
X5120000Y3754095D02*
Y3765905D01*
X5154095Y3520000D02*
X5165905D01*
X5160000Y3514095D02*
Y3525905D01*
X5114095Y3280000D02*
X5125905D01*
X5120000Y3274095D02*
Y3285905D01*
X5154095Y3200000D02*
X5165905D01*
X5160000Y3194095D02*
Y3205905D01*
X5114095Y3120000D02*
X5125905D01*
X5120000Y3114095D02*
Y3125905D01*
X5154095Y3040000D02*
X5165905D01*
X5160000Y3034095D02*
Y3045905D01*
X5114095Y2960000D02*
X5125905D01*
X5120000Y2954095D02*
Y2965905D01*
X5154095Y2880000D02*
X5165905D01*
X5160000Y2874095D02*
Y2885905D01*
X5114095Y2800000D02*
X5125905D01*
X5120000Y2794095D02*
Y2805905D01*
X5154095Y2720000D02*
X5165905D01*
X5160000Y2714095D02*
Y2725905D01*
X5114095Y2640000D02*
X5125905D01*
X5120000Y2634095D02*
Y2645905D01*
X5154095Y2560000D02*
X5165905D01*
X5160000Y2554095D02*
Y2565905D01*
X5114095Y2480000D02*
X5125905D01*
X5120000Y2474095D02*
Y2485905D01*
X5154095Y1920000D02*
X5165905D01*
X5160000Y1914094D02*
Y1925906D01*
X5114095Y1840000D02*
X5125905D01*
X5120000Y1834094D02*
Y1845906D01*
X5074095Y4000000D02*
X5085905D01*
X5080000Y3994095D02*
Y4005905D01*
X5034095Y3920000D02*
X5045905D01*
X5040000Y3914095D02*
Y3925905D01*
X5074095Y3840000D02*
X5085905D01*
X5080000Y3834095D02*
Y3845905D01*
X5074095Y3040000D02*
X5085905D01*
X5080000Y3034095D02*
Y3045905D01*
X5034095Y2960000D02*
X5045905D01*
X5040000Y2954095D02*
Y2965905D01*
X5074095Y2880000D02*
X5085905D01*
X5080000Y2874095D02*
Y2885905D01*
X5034095Y2800000D02*
X5045905D01*
X5040000Y2794095D02*
Y2805905D01*
X5074095Y2720000D02*
X5085905D01*
X5080000Y2714095D02*
Y2725905D01*
X5034095Y2640000D02*
X5045905D01*
X5040000Y2634095D02*
Y2645905D01*
X5074095Y2560000D02*
X5085905D01*
X5080000Y2554095D02*
Y2565905D01*
X5034095Y2480000D02*
X5045905D01*
X5040000Y2474095D02*
Y2485905D01*
X5074095Y1920000D02*
X5085905D01*
X5080000Y1914094D02*
Y1925906D01*
X5034095Y1840000D02*
X5045905D01*
X5040000Y1834094D02*
Y1845906D01*
X4994095Y4000000D02*
X5005905D01*
X5000000Y3994095D02*
Y4005905D01*
X4954095Y3920000D02*
X4965905D01*
X4960000Y3914095D02*
Y3925905D01*
X4994095Y3200000D02*
X5005905D01*
X5000000Y3194095D02*
Y3205905D01*
X4954095Y3120000D02*
X4965905D01*
X4960000Y3114095D02*
Y3125905D01*
X4954095Y2960000D02*
X4965905D01*
X4960000Y2954095D02*
Y2965905D01*
X4994095Y2880000D02*
X5005905D01*
X5000000Y2874095D02*
Y2885905D01*
X4954095Y2800000D02*
X4965905D01*
X4960000Y2794095D02*
Y2805905D01*
X4994095Y2720000D02*
X5005905D01*
X5000000Y2714095D02*
Y2725905D01*
X4954095Y2640000D02*
X4965905D01*
X4960000Y2634095D02*
Y2645905D01*
X4994095Y2560000D02*
X5005905D01*
X5000000Y2554095D02*
Y2565905D01*
X4994095Y2400000D02*
X5005905D01*
X5000000Y2394095D02*
Y2405905D01*
X4954095Y2320000D02*
X4965905D01*
X4960000Y2314095D02*
Y2325905D01*
X4994095Y2240000D02*
X5005905D01*
X5000000Y2234095D02*
Y2245905D01*
X4954095Y2160000D02*
X4965905D01*
X4960000Y2154095D02*
Y2165905D01*
X4994095Y2080000D02*
X5005905D01*
X5000000Y2074095D02*
Y2085905D01*
X4954095Y2000000D02*
X4965905D01*
X4960000Y1994094D02*
Y2005906D01*
X4994095Y1920000D02*
X5005905D01*
X5000000Y1914094D02*
Y1925906D01*
X4914095Y4000000D02*
X4925905D01*
X4920000Y3994095D02*
Y4005905D01*
X4874095Y3600000D02*
X4885905D01*
X4880000Y3594095D02*
Y3605905D01*
X4914095Y3200000D02*
X4925905D01*
X4920000Y3194095D02*
Y3205905D01*
X4754095Y3200000D02*
X4765905D01*
X4760000Y3194095D02*
Y3205905D01*
X4674095Y3360000D02*
X4685905D01*
X4680000Y3354095D02*
Y3365905D01*
X4674095Y3200000D02*
X4685905D01*
X4680000Y3194095D02*
Y3205905D01*
X4354095Y4000000D02*
X4365905D01*
X4360000Y3994095D02*
Y4005905D01*
X4274095Y3680000D02*
X4285905D01*
X4280000Y3674095D02*
Y3685905D01*
X4234095Y2480000D02*
X4245905D01*
X4240000Y2474095D02*
Y2485905D01*
X4234095Y2160000D02*
X4245905D01*
X4240000Y2154095D02*
Y2165905D01*
X4234095Y2000000D02*
X4245905D01*
X4240000Y1994094D02*
Y2005906D01*
X4194095Y4000000D02*
X4205905D01*
X4200000Y3994095D02*
Y4005905D01*
X4154095Y3920000D02*
X4165905D01*
X4160000Y3914095D02*
Y3925905D01*
X4194095Y3680000D02*
X4205905D01*
X4200000Y3674095D02*
Y3685905D01*
X4194095Y2240000D02*
X4205905D01*
X4200000Y2234095D02*
Y2245905D01*
X4154095Y2160000D02*
X4165905D01*
X4160000Y2154095D02*
Y2165905D01*
X4194095Y2080000D02*
X4205905D01*
X4200000Y2074095D02*
Y2085905D01*
X4154095Y2000000D02*
X4165905D01*
X4160000Y1994094D02*
Y2005906D01*
X4194095Y1920000D02*
X4205905D01*
X4200000Y1914094D02*
Y1925906D01*
X4114095Y4000000D02*
X4125905D01*
X4120000Y3994095D02*
Y4005905D01*
X4114095Y2240000D02*
X4125905D01*
X4120000Y2234095D02*
Y2245905D01*
X4074095Y2160000D02*
X4085905D01*
X4080000Y2154095D02*
Y2165905D01*
X4114095Y2080000D02*
X4125905D01*
X4120000Y2074095D02*
Y2085905D01*
X4114095Y1920000D02*
X4125905D01*
X4120000Y1914094D02*
Y1925906D01*
X4074095Y1840000D02*
X4085905D01*
X4080000Y1834094D02*
Y1845906D01*
X4034095Y3680000D02*
X4045905D01*
X4040000Y3674095D02*
Y3685905D01*
X3994095Y1840000D02*
X4005905D01*
X4000000Y1834094D02*
Y1845906D01*
X3914095Y1840000D02*
X3925905D01*
X3920000Y1834094D02*
Y1845906D01*
X3834095Y3920000D02*
X3845905D01*
X3840000Y3914095D02*
Y3925905D01*
X3874095Y3200000D02*
X3885905D01*
X3880000Y3194095D02*
Y3205905D01*
X3874095Y2880000D02*
X3885905D01*
X3880000Y2874095D02*
Y2885905D01*
X3834095Y2000000D02*
X3845905D01*
X3840000Y1994094D02*
Y2005906D01*
X3874095Y1920000D02*
X3885905D01*
X3880000Y1914094D02*
Y1925906D01*
X3834095Y1840000D02*
X3845905D01*
X3840000Y1834094D02*
Y1845906D01*
X3794095Y4000000D02*
X3805905D01*
X3800000Y3994095D02*
Y4005905D01*
X3794095Y3840000D02*
X3805905D01*
X3800000Y3834095D02*
Y3845905D01*
X3794095Y3680000D02*
X3805905D01*
X3800000Y3674095D02*
Y3685905D01*
X3794095Y3200000D02*
X3805905D01*
X3800000Y3194095D02*
Y3205905D01*
X3794095Y2880000D02*
X3805905D01*
X3800000Y2874095D02*
Y2885905D01*
X3754095Y2480000D02*
X3765905D01*
X3760000Y2474095D02*
Y2485905D01*
X3794095Y1920000D02*
X3805905D01*
X3800000Y1914094D02*
Y1925906D01*
X3754095Y1840000D02*
X3765905D01*
X3760000Y1834094D02*
Y1845906D01*
X3714095Y4000000D02*
X3725905D01*
X3720000Y3994095D02*
Y4005905D01*
X3714095Y3680000D02*
X3725905D01*
X3720000Y3674095D02*
Y3685905D01*
X3674095Y3440000D02*
X3685905D01*
X3680000Y3434095D02*
Y3445905D01*
X3674095Y3120000D02*
X3685905D01*
X3680000Y3114095D02*
Y3125905D01*
X3714095Y2560000D02*
X3725905D01*
X3720000Y2554095D02*
Y2565905D01*
X3714095Y1920000D02*
X3725905D01*
X3720000Y1914094D02*
Y1925906D01*
X3674095Y1840000D02*
X3685905D01*
X3680000Y1834094D02*
Y1845906D01*
X3594095Y3760000D02*
X3605905D01*
X3600000Y3754095D02*
Y3765905D01*
X3594095Y3280000D02*
X3605905D01*
X3600000Y3274095D02*
Y3285905D01*
X3634095Y3200000D02*
X3645905D01*
X3640000Y3194095D02*
Y3205905D01*
X3634095Y3040000D02*
X3645905D01*
X3640000Y3034095D02*
Y3045905D01*
X3594095Y2960000D02*
X3605905D01*
X3600000Y2954095D02*
Y2965905D01*
X3634095Y2720000D02*
X3645905D01*
X3640000Y2714095D02*
Y2725905D01*
X3634095Y2560000D02*
X3645905D01*
X3640000Y2554095D02*
Y2565905D01*
X3634095Y1920000D02*
X3645905D01*
X3640000Y1914094D02*
Y1925906D01*
X3594095Y1840000D02*
X3605905D01*
X3600000Y1834094D02*
Y1845906D01*
X3554095Y3840000D02*
X3565905D01*
X3560000Y3834095D02*
Y3845905D01*
X3514095Y3760000D02*
X3525905D01*
X3520000Y3754095D02*
Y3765905D01*
X3554095Y3680000D02*
X3565905D01*
X3560000Y3674095D02*
Y3685905D01*
X3514095Y3600000D02*
X3525905D01*
X3520000Y3594095D02*
Y3605905D01*
X3514095Y3280000D02*
X3525905D01*
X3520000Y3274095D02*
Y3285905D01*
X3514095Y3120000D02*
X3525905D01*
X3520000Y3114095D02*
Y3125905D01*
X3554095Y3040000D02*
X3565905D01*
X3560000Y3034095D02*
Y3045905D01*
X3554095Y2880000D02*
X3565905D01*
X3560000Y2874095D02*
Y2885905D01*
X3554095Y2560000D02*
X3565905D01*
X3560000Y2554095D02*
Y2565905D01*
X3514095Y2480000D02*
X3525905D01*
X3520000Y2474095D02*
Y2485905D01*
X3554095Y2400000D02*
X3565905D01*
X3560000Y2394095D02*
Y2405905D01*
X3554095Y2240000D02*
X3565905D01*
X3560000Y2234095D02*
Y2245905D01*
X3554095Y1920000D02*
X3565905D01*
X3560000Y1914094D02*
Y1925906D01*
X3514095Y1840000D02*
X3525905D01*
X3520000Y1834094D02*
Y1845906D01*
X3474095Y3200000D02*
X3485905D01*
X3480000Y3194095D02*
Y3205905D01*
X3434095Y3120000D02*
X3445905D01*
X3440000Y3114095D02*
Y3125905D01*
X3434095Y2960000D02*
X3445905D01*
X3440000Y2954095D02*
Y2965905D01*
X3474095Y2880000D02*
X3485905D01*
X3480000Y2874095D02*
Y2885905D01*
X3434095Y2480000D02*
X3445905D01*
X3440000Y2474095D02*
Y2485905D01*
X3474095Y2400000D02*
X3485905D01*
X3480000Y2394095D02*
Y2405905D01*
X3474095Y1920000D02*
X3485905D01*
X3480000Y1914094D02*
Y1925906D01*
X3434095Y1840000D02*
X3445905D01*
X3440000Y1834094D02*
Y1845906D01*
X3354095Y3120000D02*
X3365905D01*
X3360000Y3114095D02*
Y3125905D01*
X3394095Y2880000D02*
X3405905D01*
X3400000Y2874095D02*
Y2885905D01*
X3354095Y2480000D02*
X3365905D01*
X3360000Y2474095D02*
Y2485905D01*
X3394095Y2400000D02*
X3405905D01*
X3400000Y2394095D02*
Y2405905D01*
X3394095Y2080000D02*
X3405905D01*
X3400000Y2074095D02*
Y2085905D01*
X3394095Y1920000D02*
X3405905D01*
X3400000Y1914094D02*
Y1925906D01*
X3354095Y1840000D02*
X3365905D01*
X3360000Y1834094D02*
Y1845906D01*
X3314095Y3840000D02*
X3325905D01*
X3320000Y3834095D02*
Y3845905D01*
X3274095Y3760000D02*
X3285905D01*
X3280000Y3754095D02*
Y3765905D01*
X3314095Y3680000D02*
X3325905D01*
X3320000Y3674095D02*
Y3685905D01*
X3314095Y3360000D02*
X3325905D01*
X3320000Y3354095D02*
Y3365905D01*
X3274095Y3280000D02*
X3285905D01*
X3280000Y3274095D02*
Y3285905D01*
X3314095Y3200000D02*
X3325905D01*
X3320000Y3194095D02*
Y3205905D01*
X3314095Y3040000D02*
X3325905D01*
X3320000Y3034095D02*
Y3045905D01*
X3274095Y2960000D02*
X3285905D01*
X3280000Y2954095D02*
Y2965905D01*
X3314095Y2880000D02*
X3325905D01*
X3320000Y2874095D02*
Y2885905D01*
X3274095Y2480000D02*
X3285905D01*
X3280000Y2474095D02*
Y2485905D01*
X3314095Y2400000D02*
X3325905D01*
X3320000Y2394095D02*
Y2405905D01*
X3314095Y2240000D02*
X3325905D01*
X3320000Y2234095D02*
Y2245905D01*
X3274095Y2160000D02*
X3285905D01*
X3280000Y2154095D02*
Y2165905D01*
X3274095Y2000000D02*
X3285905D01*
X3280000Y1994094D02*
Y2005906D01*
X3314095Y1920000D02*
X3325905D01*
X3320000Y1914094D02*
Y1925906D01*
X3274095Y1840000D02*
X3285905D01*
X3280000Y1834094D02*
Y1845906D01*
X3234095Y3840000D02*
X3245905D01*
X3240000Y3834095D02*
Y3845905D01*
X3234095Y3680000D02*
X3245905D01*
X3240000Y3674095D02*
Y3685905D01*
X3194095Y3280000D02*
X3205905D01*
X3200000Y3274095D02*
Y3285905D01*
X3194095Y2960000D02*
X3205905D01*
X3200000Y2954095D02*
Y2965905D01*
X3194095Y2640000D02*
X3205905D01*
X3200000Y2634095D02*
Y2645905D01*
X3234095Y1920000D02*
X3245905D01*
X3240000Y1914094D02*
Y1925906D01*
X3194095Y1840000D02*
X3205905D01*
X3200000Y1834094D02*
Y1845906D01*
X3154095Y3840000D02*
X3165905D01*
X3160000Y3834095D02*
Y3845905D01*
X3114095Y3760000D02*
X3125905D01*
X3120000Y3754095D02*
Y3765905D01*
X3154095Y3680000D02*
X3165905D01*
X3160000Y3674095D02*
Y3685905D01*
X3114095Y3600000D02*
X3125905D01*
X3120000Y3594095D02*
Y3605905D01*
X3154095Y3520000D02*
X3165905D01*
X3160000Y3514095D02*
Y3525905D01*
X3114095Y3440000D02*
X3125905D01*
X3120000Y3434095D02*
Y3445905D01*
X3154095Y3200000D02*
X3165905D01*
X3160000Y3194095D02*
Y3205905D01*
X3114095Y3120000D02*
X3125905D01*
X3120000Y3114095D02*
Y3125905D01*
X3154095Y3040000D02*
X3165905D01*
X3160000Y3034095D02*
Y3045905D01*
X3154095Y2880000D02*
X3165905D01*
X3160000Y2874095D02*
Y2885905D01*
X3114095Y2800000D02*
X3125905D01*
X3120000Y2794095D02*
Y2805905D01*
X3114095Y2160000D02*
X3125905D01*
X3120000Y2154095D02*
Y2165905D01*
X3154095Y1920000D02*
X3165905D01*
X3160000Y1914094D02*
Y1925906D01*
X3114095Y1840000D02*
X3125905D01*
X3120000Y1834094D02*
Y1845906D01*
X3074095Y3680000D02*
X3085905D01*
X3080000Y3674095D02*
Y3685905D01*
X3034095Y3600000D02*
X3045905D01*
X3040000Y3594095D02*
Y3605905D01*
X3074095Y3520000D02*
X3085905D01*
X3080000Y3514095D02*
Y3525905D01*
X3034095Y3440000D02*
X3045905D01*
X3040000Y3434095D02*
Y3445905D01*
X3034095Y3280000D02*
X3045905D01*
X3040000Y3274095D02*
Y3285905D01*
X3074095Y3200000D02*
X3085905D01*
X3080000Y3194095D02*
Y3205905D01*
X3034095Y3120000D02*
X3045905D01*
X3040000Y3114095D02*
Y3125905D01*
X3074095Y2720000D02*
X3085905D01*
X3080000Y2714095D02*
Y2725905D01*
X3074095Y2560000D02*
X3085905D01*
X3080000Y2554095D02*
Y2565905D01*
X3034095Y2480000D02*
X3045905D01*
X3040000Y2474095D02*
Y2485905D01*
X3074095Y2400000D02*
X3085905D01*
X3080000Y2394095D02*
Y2405905D01*
X3074095Y2240000D02*
X3085905D01*
X3080000Y2234095D02*
Y2245905D01*
X3034095Y2160000D02*
X3045905D01*
X3040000Y2154095D02*
Y2165905D01*
X3074095Y2080000D02*
X3085905D01*
X3080000Y2074095D02*
Y2085905D01*
X3034095Y2000000D02*
X3045905D01*
X3040000Y1994094D02*
Y2005906D01*
X2994095Y3840000D02*
X3005905D01*
X3000000Y3834095D02*
Y3845905D01*
X2994095Y3680000D02*
X3005905D01*
X3000000Y3674095D02*
Y3685905D01*
X2994095Y3520000D02*
X3005905D01*
X3000000Y3514095D02*
Y3525905D01*
X2954095Y3440000D02*
X2965905D01*
X2960000Y3434095D02*
Y3445905D01*
X2994095Y3360000D02*
X3005905D01*
X3000000Y3354095D02*
Y3365905D01*
X2954095Y3280000D02*
X2965905D01*
X2960000Y3274095D02*
Y3285905D01*
X2994095Y3040000D02*
X3005905D01*
X3000000Y3034095D02*
Y3045905D01*
X2954095Y2960000D02*
X2965905D01*
X2960000Y2954095D02*
Y2965905D01*
X2994095Y2560000D02*
X3005905D01*
X3000000Y2554095D02*
Y2565905D01*
X2994095Y2400000D02*
X3005905D01*
X3000000Y2394095D02*
Y2405905D01*
X2954095Y2160000D02*
X2965905D01*
X2960000Y2154095D02*
Y2165905D01*
X2994095Y2080000D02*
X3005905D01*
X3000000Y2074095D02*
Y2085905D01*
X2954095Y2000000D02*
X2965905D01*
X2960000Y1994094D02*
Y2005906D01*
X2874095Y3760000D02*
X2885905D01*
X2880000Y3754095D02*
Y3765905D01*
X2874095Y3600000D02*
X2885905D01*
X2880000Y3594095D02*
Y3605905D01*
X2914095Y2400000D02*
X2925905D01*
X2920000Y2394095D02*
Y2405905D01*
X2914095Y2240000D02*
X2925905D01*
X2920000Y2234095D02*
Y2245905D01*
X2874095Y2160000D02*
X2885905D01*
X2880000Y2154095D02*
Y2165905D01*
X2914095Y2080000D02*
X2925905D01*
X2920000Y2074095D02*
Y2085905D01*
X2874095Y2000000D02*
X2885905D01*
X2880000Y1994094D02*
Y2005906D01*
X2914095Y1920000D02*
X2925905D01*
X2920000Y1914094D02*
Y1925906D01*
X2834095Y3840000D02*
X2845905D01*
X2840000Y3834095D02*
Y3845905D01*
X2794095Y3760000D02*
X2805905D01*
X2800000Y3754095D02*
Y3765905D01*
X2834095Y3680000D02*
X2845905D01*
X2840000Y3674095D02*
Y3685905D01*
X2794095Y3440000D02*
X2805905D01*
X2800000Y3434095D02*
Y3445905D01*
X2794095Y2160000D02*
X2805905D01*
X2800000Y2154095D02*
Y2165905D01*
X2834095Y2080000D02*
X2845905D01*
X2840000Y2074095D02*
Y2085905D01*
X2834095Y1920000D02*
X2845905D01*
X2840000Y1914094D02*
Y1925906D01*
X2714095Y3760000D02*
X2725905D01*
X2720000Y3754095D02*
Y3765905D01*
X2754095Y3520000D02*
X2765905D01*
X2760000Y3514095D02*
Y3525905D01*
X2634095Y3600000D02*
X2645905D01*
X2640000Y3594095D02*
Y3605905D01*
X2674095Y3520000D02*
X2685905D01*
X2680000Y3514095D02*
Y3525905D01*
X2634095Y2160000D02*
X2645905D01*
X2640000Y2154095D02*
Y2165905D01*
X2594095Y3680000D02*
X2605905D01*
X2600000Y3674095D02*
Y3685905D01*
X2554095Y3600000D02*
X2565905D01*
X2560000Y3594095D02*
Y3605905D01*
X2594095Y3520000D02*
X2605905D01*
X2600000Y3514095D02*
Y3525905D01*
X2554095Y3440000D02*
X2565905D01*
X2560000Y3434095D02*
Y3445905D01*
X2554095Y3280000D02*
X2565905D01*
X2560000Y3274095D02*
Y3285905D01*
X2554095Y3120000D02*
X2565905D01*
X2560000Y3114095D02*
Y3125905D01*
X2554095Y2960000D02*
X2565905D01*
X2560000Y2954095D02*
Y2965905D01*
X2554095Y2800000D02*
X2565905D01*
X2560000Y2794095D02*
Y2805905D01*
X2554095Y2320000D02*
X2565905D01*
X2560000Y2314095D02*
Y2325905D01*
X2554095Y2160000D02*
X2565905D01*
X2560000Y2154095D02*
Y2165905D01*
X2514095Y3680000D02*
X2525905D01*
X2520000Y3674095D02*
Y3685905D01*
X2514095Y3520000D02*
X2525905D01*
X2520000Y3514095D02*
Y3525905D01*
X2474095Y3440000D02*
X2485905D01*
X2480000Y3434095D02*
Y3445905D01*
X2514095Y3360000D02*
X2525905D01*
X2520000Y3354095D02*
Y3365905D01*
X2474095Y3280000D02*
X2485905D01*
X2480000Y3274095D02*
Y3285905D01*
X2514095Y3200000D02*
X2525905D01*
X2520000Y3194095D02*
Y3205905D01*
X2514095Y2880000D02*
X2525905D01*
X2520000Y2874095D02*
Y2885905D01*
X2474095Y2800000D02*
X2485905D01*
X2480000Y2794095D02*
Y2805905D01*
X2514095Y2560000D02*
X2525905D01*
X2520000Y2554095D02*
Y2565905D01*
X2474095Y2160000D02*
X2485905D01*
X2480000Y2154095D02*
Y2165905D01*
X2514095Y2080000D02*
X2525905D01*
X2520000Y2074095D02*
Y2085905D01*
X2514095Y1920000D02*
X2525905D01*
X2520000Y1914094D02*
Y1925906D01*
X2434095Y3360000D02*
X2445905D01*
X2440000Y3354095D02*
Y3365905D01*
X2394095Y3280000D02*
X2405905D01*
X2400000Y3274095D02*
Y3285905D01*
X2394095Y2480000D02*
X2405905D01*
X2400000Y2474095D02*
Y2485905D01*
X2434095Y2240000D02*
X2445905D01*
X2440000Y2234095D02*
Y2245905D01*
X2394095Y2160000D02*
X2405905D01*
X2400000Y2154095D02*
Y2165905D01*
X2434095Y2080000D02*
X2445905D01*
X2440000Y2074095D02*
Y2085905D01*
X2434095Y1920000D02*
X2445905D01*
X2440000Y1914094D02*
Y1925906D01*
X2354095Y3360000D02*
X2365905D01*
X2360000Y3354095D02*
Y3365905D01*
X2314095Y3280000D02*
X2325905D01*
X2320000Y3274095D02*
Y3285905D01*
X2314095Y3120000D02*
X2325905D01*
X2320000Y3114095D02*
Y3125905D01*
X2314095Y2480000D02*
X2325905D01*
X2320000Y2474095D02*
Y2485905D01*
X2354095Y2400000D02*
X2365905D01*
X2360000Y2394095D02*
Y2405905D01*
X2314095Y2320000D02*
X2325905D01*
X2320000Y2314095D02*
Y2325905D01*
X2354095Y2240000D02*
X2365905D01*
X2360000Y2234095D02*
Y2245905D01*
X2314095Y2160000D02*
X2325905D01*
X2320000Y2154095D02*
Y2165905D01*
X2354095Y2080000D02*
X2365905D01*
X2360000Y2074095D02*
Y2085905D01*
X2314095Y2000000D02*
X2325905D01*
X2320000Y1994094D02*
Y2005906D01*
X2274095Y3360000D02*
X2285905D01*
X2280000Y3354095D02*
Y3365905D01*
X2234095Y3280000D02*
X2245905D01*
X2240000Y3274095D02*
Y3285905D01*
X2274095Y3200000D02*
X2285905D01*
X2280000Y3194095D02*
Y3205905D01*
X2234095Y3120000D02*
X2245905D01*
X2240000Y3114095D02*
Y3125905D01*
X2274095Y3040000D02*
X2285905D01*
X2280000Y3034095D02*
Y3045905D01*
X2274095Y2560000D02*
X2285905D01*
X2280000Y2554095D02*
Y2565905D01*
X2234095Y1840000D02*
X2245905D01*
X2240000Y1834094D02*
Y1845906D01*
X2194095Y3360000D02*
X2205905D01*
X2200000Y3354095D02*
Y3365905D01*
X2154095Y3280000D02*
X2165905D01*
X2160000Y3274095D02*
Y3285905D01*
X2194095Y3200000D02*
X2205905D01*
X2200000Y3194095D02*
Y3205905D01*
X2154095Y3120000D02*
X2165905D01*
X2160000Y3114095D02*
Y3125905D01*
X2194095Y2560000D02*
X2205905D01*
X2200000Y2554095D02*
Y2565905D01*
X2154095Y2320000D02*
X2165905D01*
X2160000Y2314095D02*
Y2325905D01*
X2154095Y2160000D02*
X2165905D01*
X2160000Y2154095D02*
Y2165905D01*
X2154095Y2000000D02*
X2165905D01*
X2160000Y1994094D02*
Y2005906D01*
X2194095Y1920000D02*
X2205905D01*
X2200000Y1914094D02*
Y1925906D01*
X2154095Y1840000D02*
X2165905D01*
X2160000Y1834094D02*
Y1845906D01*
X2074095Y2480000D02*
X2085905D01*
X2080000Y2474095D02*
Y2485905D01*
X2074095Y2320000D02*
X2085905D01*
X2080000Y2314095D02*
Y2325905D01*
X2074095Y2160000D02*
X2085905D01*
X2080000Y2154095D02*
Y2165905D01*
X2114095Y2080000D02*
X2125905D01*
X2120000Y2074095D02*
Y2085905D01*
X2074095Y2000000D02*
X2085905D01*
X2080000Y1994094D02*
Y2005906D01*
X2114095Y1920000D02*
X2125905D01*
X2120000Y1914094D02*
Y1925906D01*
X2074095Y1840000D02*
X2085905D01*
X2080000Y1834094D02*
Y1845906D01*
X1994094Y3920000D02*
X2005906D01*
X2000000Y3914095D02*
Y3925905D01*
X1994094Y3280000D02*
X2005906D01*
X2000000Y3274095D02*
Y3285905D01*
X1994094Y3120000D02*
X2005906D01*
X2000000Y3114095D02*
Y3125905D01*
X1994094Y2480000D02*
X2005906D01*
X2000000Y2474095D02*
Y2485905D01*
X2034094Y2400000D02*
X2045906D01*
X2040000Y2394095D02*
Y2405905D01*
X1994094Y2320000D02*
X2005906D01*
X2000000Y2314095D02*
Y2325905D01*
X2034094Y2240000D02*
X2045906D01*
X2040000Y2234095D02*
Y2245905D01*
X1994094Y2160000D02*
X2005906D01*
X2000000Y2154095D02*
Y2165905D01*
X2034094Y2080000D02*
X2045906D01*
X2040000Y2074095D02*
Y2085905D01*
X2034094Y1920000D02*
X2045906D01*
X2040000Y1914094D02*
Y1925906D01*
X1994094Y1840000D02*
X2005906D01*
X2000000Y1834094D02*
Y1845906D01*
X1954094Y3840000D02*
X1965906D01*
X1960000Y3834095D02*
Y3845905D01*
X1914094Y3280000D02*
X1925906D01*
X1920000Y3274095D02*
Y3285905D01*
X1954094Y3200000D02*
X1965906D01*
X1960000Y3194095D02*
Y3205905D01*
X1914094Y3120000D02*
X1925906D01*
X1920000Y3114095D02*
Y3125905D01*
X1914094Y2640000D02*
X1925906D01*
X1920000Y2634095D02*
Y2645905D01*
X1954094Y2080000D02*
X1965906D01*
X1960000Y2074095D02*
Y2085905D01*
X1954094Y1920000D02*
X1965906D01*
X1960000Y1914094D02*
Y1925906D01*
X1914094Y1840000D02*
X1925906D01*
X1920000Y1834094D02*
Y1845906D01*
X1874094Y3840000D02*
X1885906D01*
X1880000Y3834095D02*
Y3845905D01*
X1834094Y3280000D02*
X1845906D01*
X1840000Y3274095D02*
Y3285905D01*
X1874094Y2080000D02*
X1885906D01*
X1880000Y2074095D02*
Y2085905D01*
X1874094Y1920000D02*
X1885906D01*
X1880000Y1914094D02*
Y1925906D01*
X1834094Y1840000D02*
X1845906D01*
X1840000Y1834094D02*
Y1845906D01*
X1754094Y3120000D02*
X1765906D01*
X1760000Y3114095D02*
Y3125905D01*
X1794094Y3040000D02*
X1805906D01*
X1800000Y3034095D02*
Y3045905D01*
X1794094Y1920000D02*
X1805906D01*
X1800000Y1914094D02*
Y1925906D01*
X1754094Y1840000D02*
X1765906D01*
X1760000Y1834094D02*
Y1845906D01*
X1674094Y3760000D02*
X1685906D01*
X1680000Y3754095D02*
Y3765905D01*
X1674094Y3280000D02*
X1685906D01*
X1680000Y3274095D02*
Y3285905D01*
X1714094Y3200000D02*
X1725906D01*
X1720000Y3194095D02*
Y3205905D01*
X1674094Y3120000D02*
X1685906D01*
X1680000Y3114095D02*
Y3125905D01*
X1714094Y3040000D02*
X1725906D01*
X1720000Y3034095D02*
Y3045905D01*
X1674094Y2640000D02*
X1685906D01*
X1680000Y2634095D02*
Y2645905D01*
X1674094Y1840000D02*
X1685906D01*
X1680000Y1834094D02*
Y1845906D01*
X1594094Y3280000D02*
X1605906D01*
X1600000Y3274095D02*
Y3285905D01*
X1634094Y3200000D02*
X1645906D01*
X1640000Y3194095D02*
Y3205905D01*
X1594094Y2640000D02*
X1605906D01*
X1600000Y2634095D02*
Y2645905D01*
X1594094Y1840000D02*
X1605906D01*
X1600000Y1834094D02*
Y1845906D01*
X1554094Y4000000D02*
X1565906D01*
X1560000Y3994095D02*
Y4005905D01*
X1554094Y3840000D02*
X1565906D01*
X1560000Y3834095D02*
Y3845905D01*
X1554094Y2080000D02*
X1565906D01*
X1560000Y2074095D02*
Y2085905D01*
X1514094Y2000000D02*
X1525906D01*
X1520000Y1994094D02*
Y2005906D01*
X1554094Y1920000D02*
X1565906D01*
X1560000Y1914094D02*
Y1925906D01*
X1514094Y1840000D02*
X1525906D01*
X1520000Y1834094D02*
Y1845906D01*
X1474094Y4000000D02*
X1485906D01*
X1480000Y3994095D02*
Y4005905D01*
X1434094Y3760000D02*
X1445906D01*
X1440000Y3754095D02*
Y3765905D01*
X1434094Y3440000D02*
X1445906D01*
X1440000Y3434095D02*
Y3445905D01*
X1474094Y3360000D02*
X1485906D01*
X1480000Y3354095D02*
Y3365905D01*
X1434094Y3280000D02*
X1445906D01*
X1440000Y3274095D02*
Y3285905D01*
X1474094Y3200000D02*
X1485906D01*
X1480000Y3194095D02*
Y3205905D01*
X1434094Y3120000D02*
X1445906D01*
X1440000Y3114095D02*
Y3125905D01*
X1434094Y2960000D02*
X1445906D01*
X1440000Y2954095D02*
Y2965905D01*
X1474094Y2880000D02*
X1485906D01*
X1480000Y2874095D02*
Y2885905D01*
X1434094Y2800000D02*
X1445906D01*
X1440000Y2794095D02*
Y2805905D01*
X1474094Y2720000D02*
X1485906D01*
X1480000Y2714095D02*
Y2725905D01*
X1434094Y2640000D02*
X1445906D01*
X1440000Y2634095D02*
Y2645905D01*
X1474094Y2080000D02*
X1485906D01*
X1480000Y2074095D02*
Y2085905D01*
X1434094Y2000000D02*
X1445906D01*
X1440000Y1994094D02*
Y2005906D01*
X1474094Y1920000D02*
X1485906D01*
X1480000Y1914094D02*
Y1925906D01*
X1434094Y1840000D02*
X1445906D01*
X1440000Y1834094D02*
Y1845906D01*
X1394094Y4000000D02*
X1405906D01*
X1400000Y3994095D02*
Y4005905D01*
X1354094Y3920000D02*
X1365906D01*
X1360000Y3914095D02*
Y3925905D01*
X1394094Y3840000D02*
X1405906D01*
X1400000Y3834095D02*
Y3845905D01*
X1354094Y3760000D02*
X1365906D01*
X1360000Y3754095D02*
Y3765905D01*
X1354094Y3600000D02*
X1365906D01*
X1360000Y3594095D02*
Y3605905D01*
X1394094Y3520000D02*
X1405906D01*
X1400000Y3514095D02*
Y3525905D01*
X1354094Y3440000D02*
X1365906D01*
X1360000Y3434095D02*
Y3445905D01*
X1394094Y3360000D02*
X1405906D01*
X1400000Y3354095D02*
Y3365905D01*
X1394094Y3200000D02*
X1405906D01*
X1400000Y3194095D02*
Y3205905D01*
X1354094Y2960000D02*
X1365906D01*
X1360000Y2954095D02*
Y2965905D01*
X1394094Y2880000D02*
X1405906D01*
X1400000Y2874095D02*
Y2885905D01*
X1354094Y2800000D02*
X1365906D01*
X1360000Y2794095D02*
Y2805905D01*
X1394094Y2080000D02*
X1405906D01*
X1400000Y2074095D02*
Y2085905D01*
X1354094Y2000000D02*
X1365906D01*
X1360000Y1994094D02*
Y2005906D01*
X1394094Y1920000D02*
X1405906D01*
X1400000Y1914094D02*
Y1925906D01*
X3386205Y1964915D02*
X3399205D01*
X3392705Y1958415D02*
Y1971415D01*
X3477136Y1962833D02*
X3490136D01*
X3483636Y1956333D02*
Y1969333D01*
X3563903Y1964221D02*
X3576903D01*
X3570403Y1957721D02*
Y1970721D01*
X3654140Y1963527D02*
X3667140D01*
X3660640Y1957027D02*
Y1970027D01*
X3741601Y1961445D02*
X3754601D01*
X3748101Y1954945D02*
Y1967945D01*
X3054095Y3660000D02*
X3065905D01*
X3060000Y3654095D02*
Y3665905D01*
X4351598Y3611052D02*
X4363409D01*
X4357503Y3605147D02*
Y3616958D01*
X4158995Y3710830D02*
X4170806D01*
X4164900Y3704924D02*
Y3716735D01*
X4224095Y3740000D02*
X4235905D01*
X4230000Y3734095D02*
Y3745905D01*
X4295634Y3743264D02*
X4303508D01*
X4299571Y3739327D02*
Y3747201D01*
X2225877Y2747732D02*
X2238877D01*
X2232377Y2741232D02*
Y2754232D01*
X2201813Y2646412D02*
X2214813D01*
X2208313Y2639912D02*
Y2652912D01*
X2519234Y3018061D02*
X2531045D01*
X2525140Y3012155D02*
Y3023966D01*
X2416740Y3193655D02*
X2428551D01*
X2422645Y3187750D02*
Y3199561D01*
X2476740Y3133655D02*
X2488551D01*
X2482645Y3127750D02*
Y3139561D01*
X2419678Y2560435D02*
X2431489D01*
X2425584Y2554529D02*
Y2566340D01*
X2372236Y2572790D02*
X2385236D01*
X2378736Y2566290D02*
Y2579290D01*
X4437188Y3436819D02*
X4450188D01*
X4443688Y3430319D02*
Y3443319D01*
X4456286Y3557737D02*
X4468097D01*
X4462191Y3551831D02*
Y3563642D01*
X4160930Y3264867D02*
X4168804D01*
X4164867Y3260930D02*
Y3268804D01*
X3974095Y3590000D02*
X3985905D01*
X3980000Y3584095D02*
Y3595905D01*
X3994095Y3620000D02*
X4005905D01*
X4000000Y3614095D02*
Y3625905D01*
X4039159Y3551569D02*
X4047033D01*
X4043096Y3547632D02*
Y3555506D01*
X3944928Y3584478D02*
X3956739D01*
X3950833Y3578573D02*
Y3590383D01*
X4054771Y3571386D02*
X4067771D01*
X4061271Y3564886D02*
Y3577886D01*
X3893500Y3329885D02*
X3906500D01*
X3900000Y3323385D02*
Y3336385D01*
X3848772Y3329885D02*
X3861772D01*
X3855272Y3323385D02*
Y3336385D01*
X3834095Y3158550D02*
X3845905D01*
X3840000Y3152644D02*
Y3164455D01*
X3891957Y3158550D02*
X3903768D01*
X3897863Y3152644D02*
Y3164455D01*
X3779476Y3329885D02*
X3792476D01*
X3785976Y3323385D02*
Y3336385D01*
X3884095Y3055000D02*
X3895905D01*
X3890000Y3049095D02*
Y3060905D01*
X3773500Y3158707D02*
X3786500D01*
X3780000Y3152207D02*
Y3165207D01*
X4094140Y3059833D02*
X4105952D01*
X4100046Y3053927D02*
Y3065738D01*
X3718500Y2865000D02*
X3731500D01*
X3725000Y2858500D02*
Y2871500D01*
X4019253Y3009321D02*
X4031064D01*
X4025159Y3003415D02*
Y3015226D01*
X4023899Y2916130D02*
X4036899D01*
X4030399Y2909630D02*
Y2922630D01*
X1636161Y2390512D02*
X1647973D01*
X1642067Y2384607D02*
Y2396418D01*
X1352697Y2579489D02*
X1364508D01*
X1358602Y2573583D02*
Y2585394D01*
X1352697Y2547992D02*
X1364508D01*
X1358602Y2542087D02*
Y2553898D01*
X1352697Y2516497D02*
X1364508D01*
X1358602Y2510591D02*
Y2522402D01*
X1352697Y2485000D02*
X1364508D01*
X1358602Y2479095D02*
Y2490906D01*
X1352697Y2453504D02*
X1364508D01*
X1358602Y2447599D02*
Y2459410D01*
X1352697Y2422008D02*
X1364508D01*
X1358602Y2416103D02*
Y2427914D01*
X1352697Y2390512D02*
X1364508D01*
X1358602Y2384607D02*
Y2396418D01*
X1352697Y2359016D02*
X1364508D01*
X1358602Y2353111D02*
Y2364922D01*
X1352697Y2327520D02*
X1364508D01*
X1358602Y2321615D02*
Y2333426D01*
X1352697Y2296024D02*
X1364508D01*
X1358602Y2290119D02*
Y2301930D01*
X1352697Y2264528D02*
X1364508D01*
X1358602Y2258622D02*
Y2270433D01*
X1352697Y2233032D02*
X1364508D01*
X1358602Y2227126D02*
Y2238937D01*
X1352697Y2201536D02*
X1364508D01*
X1358602Y2195630D02*
Y2207441D01*
X1384193Y2579489D02*
X1396004D01*
X1390099Y2573583D02*
Y2585394D01*
X1415689Y2579489D02*
X1427500D01*
X1421595Y2573583D02*
Y2585394D01*
X1384193Y2547992D02*
X1396004D01*
X1390099Y2542087D02*
Y2553898D01*
X1415689Y2547992D02*
X1427500D01*
X1421595Y2542087D02*
Y2553898D01*
X1384193Y2516497D02*
X1396004D01*
X1390099Y2510591D02*
Y2522402D01*
X1415689Y2516497D02*
X1427500D01*
X1421595Y2510591D02*
Y2522402D01*
X1384193Y2485000D02*
X1396004D01*
X1390099Y2479095D02*
Y2490906D01*
X1415689Y2485000D02*
X1427500D01*
X1421595Y2479095D02*
Y2490906D01*
X1384193Y2453504D02*
X1396004D01*
X1390099Y2447599D02*
Y2459410D01*
X1415689Y2453504D02*
X1427500D01*
X1421595Y2447599D02*
Y2459410D01*
X1384193Y2422008D02*
X1396004D01*
X1390099Y2416103D02*
Y2427914D01*
X1415689Y2422008D02*
X1427500D01*
X1421595Y2416103D02*
Y2427914D01*
X1384193Y2390512D02*
X1396004D01*
X1390099Y2384607D02*
Y2396418D01*
X1415689Y2390512D02*
X1427500D01*
X1421595Y2384607D02*
Y2396418D01*
X1384193Y2359016D02*
X1396004D01*
X1390099Y2353111D02*
Y2364922D01*
X1415689Y2359016D02*
X1427500D01*
X1421595Y2353111D02*
Y2364922D01*
X1384193Y2327520D02*
X1396004D01*
X1390099Y2321615D02*
Y2333426D01*
X1415689Y2327520D02*
X1427500D01*
X1421595Y2321615D02*
Y2333426D01*
X1384193Y2296024D02*
X1396004D01*
X1390099Y2290119D02*
Y2301930D01*
X1415689Y2296024D02*
X1427500D01*
X1421595Y2290119D02*
Y2301930D01*
X1384193Y2264528D02*
X1396004D01*
X1390099Y2258622D02*
Y2270433D01*
X1415689Y2264528D02*
X1427500D01*
X1421595Y2258622D02*
Y2270433D01*
X1384193Y2233032D02*
X1396004D01*
X1390099Y2227126D02*
Y2238937D01*
X1415689Y2233032D02*
X1427500D01*
X1421595Y2227126D02*
Y2238937D01*
X1384193Y2201536D02*
X1396004D01*
X1390099Y2195630D02*
Y2207441D01*
X1415689Y2201536D02*
X1427500D01*
X1421595Y2195630D02*
Y2207441D01*
X1447185Y2296024D02*
X1458996D01*
X1453091Y2290119D02*
Y2301930D01*
X1447185Y2390512D02*
X1458996D01*
X1453091Y2384607D02*
Y2396418D01*
X1447185Y2327520D02*
X1458996D01*
X1453091Y2321615D02*
Y2333426D01*
X1447185Y2359016D02*
X1458996D01*
X1453091Y2353111D02*
Y2364922D01*
X1447185Y2422008D02*
X1458996D01*
X1453091Y2416103D02*
Y2427914D01*
X1447185Y2453504D02*
X1458996D01*
X1453091Y2447599D02*
Y2459410D01*
X1447185Y2201536D02*
X1458996D01*
X1453091Y2195630D02*
Y2207441D01*
X1447185Y2233032D02*
X1458996D01*
X1453091Y2227126D02*
Y2238937D01*
X1447185Y2264528D02*
X1458996D01*
X1453091Y2258622D02*
Y2270433D01*
X1447185Y2516497D02*
X1458996D01*
X1453091Y2510591D02*
Y2522402D01*
X1447185Y2547992D02*
X1458996D01*
X1453091Y2542087D02*
Y2553898D01*
X1447185Y2579489D02*
X1458996D01*
X1453091Y2573583D02*
Y2585394D01*
X1447185Y2485000D02*
X1458996D01*
X1453091Y2479095D02*
Y2490906D01*
X1856634Y2233032D02*
X1868445D01*
X1862539Y2227126D02*
Y2238937D01*
X1825138Y2233032D02*
X1836949D01*
X1831043Y2227126D02*
Y2238937D01*
X1793642Y2233032D02*
X1805453D01*
X1799547Y2227126D02*
Y2238937D01*
X1762146Y2233032D02*
X1773957D01*
X1768051Y2227126D02*
Y2238937D01*
X1793642Y2264528D02*
X1805453D01*
X1799547Y2258622D02*
Y2270433D01*
X1762146Y2264528D02*
X1773957D01*
X1768051Y2258622D02*
Y2270433D01*
X1793642Y2296024D02*
X1805453D01*
X1799547Y2290119D02*
Y2301930D01*
X1762146Y2296024D02*
X1773957D01*
X1768051Y2290119D02*
Y2301930D01*
X1793642Y2327520D02*
X1805453D01*
X1799547Y2321615D02*
Y2333426D01*
X1762146Y2327520D02*
X1773957D01*
X1768051Y2321615D02*
Y2333426D01*
X1793642Y2359016D02*
X1805453D01*
X1799547Y2353111D02*
Y2364922D01*
X1762146Y2359016D02*
X1773957D01*
X1768051Y2353111D02*
Y2364922D01*
X1730650Y2359016D02*
X1742461D01*
X1736555Y2353111D02*
Y2364922D01*
X1793642Y2390512D02*
X1805453D01*
X1799547Y2384607D02*
Y2396418D01*
X1762146Y2390512D02*
X1773957D01*
X1768051Y2384607D02*
Y2396418D01*
X1730650Y2390512D02*
X1742461D01*
X1736555Y2384607D02*
Y2396418D01*
X1604665Y2516497D02*
X1616476D01*
X1610571Y2510591D02*
Y2522402D01*
X1573169Y2516497D02*
X1584980D01*
X1579075Y2510591D02*
Y2522402D01*
X1541673Y2516497D02*
X1553484D01*
X1547579Y2510591D02*
Y2522402D01*
X1510177Y2516497D02*
X1521988D01*
X1516083Y2510591D02*
Y2522402D01*
X1573169Y2547992D02*
X1584980D01*
X1579075Y2542087D02*
Y2553898D01*
X1541673Y2547992D02*
X1553484D01*
X1547579Y2542087D02*
Y2553898D01*
X1510177Y2547992D02*
X1521988D01*
X1516083Y2542087D02*
Y2553898D01*
X1604665Y2547992D02*
X1616476D01*
X1610571Y2542087D02*
Y2553898D01*
X1825138Y2547992D02*
X1836949D01*
X1831043Y2542087D02*
Y2553898D01*
X1793642Y2547992D02*
X1805453D01*
X1799547Y2542087D02*
Y2553898D01*
X1762146Y2547992D02*
X1773957D01*
X1768051Y2542087D02*
Y2553898D01*
X1730650Y2547992D02*
X1742461D01*
X1736555Y2542087D02*
Y2553898D01*
X1699154Y2547992D02*
X1710965D01*
X1705059Y2542087D02*
Y2553898D01*
X1667658Y2547992D02*
X1679469D01*
X1673563Y2542087D02*
Y2553898D01*
X1856634Y2579489D02*
X1868445D01*
X1862539Y2573583D02*
Y2585394D01*
X1825138Y2579489D02*
X1836949D01*
X1831043Y2573583D02*
Y2585394D01*
X1793642Y2579489D02*
X1805453D01*
X1799547Y2573583D02*
Y2585394D01*
X1762146Y2579489D02*
X1773957D01*
X1768051Y2573583D02*
Y2585394D01*
X1730650Y2579489D02*
X1742461D01*
X1736555Y2573583D02*
Y2585394D01*
X1699154Y2579489D02*
X1710965D01*
X1705059Y2573583D02*
Y2585394D01*
X1667658Y2579489D02*
X1679469D01*
X1673563Y2573583D02*
Y2585394D01*
X1604665Y2579489D02*
X1616476D01*
X1610571Y2573583D02*
Y2585394D01*
X1573169Y2579489D02*
X1584980D01*
X1579075Y2573583D02*
Y2585394D01*
X1541673Y2579489D02*
X1553484D01*
X1547579Y2573583D02*
Y2585394D01*
X1510177Y2579489D02*
X1521988D01*
X1516083Y2573583D02*
Y2585394D01*
X1636161Y2579489D02*
X1647973D01*
X1642067Y2573583D02*
Y2585394D01*
X1856634Y2201536D02*
X1868445D01*
X1862539Y2195630D02*
Y2207441D01*
X1825138Y2201536D02*
X1836949D01*
X1831043Y2195630D02*
Y2207441D01*
X1856634Y2264528D02*
X1868445D01*
X1862539Y2258622D02*
Y2270433D01*
X1825138Y2264528D02*
X1836949D01*
X1831043Y2258622D02*
Y2270433D01*
X1856634Y2296024D02*
X1868445D01*
X1862539Y2290119D02*
Y2301930D01*
X1825138Y2296024D02*
X1836949D01*
X1831043Y2290119D02*
Y2301930D01*
X1856634Y2359016D02*
X1868445D01*
X1862539Y2353111D02*
Y2364922D01*
X1825138Y2359016D02*
X1836949D01*
X1831043Y2353111D02*
Y2364922D01*
X1825138Y2390512D02*
X1836949D01*
X1831043Y2384607D02*
Y2396418D01*
X1856634Y2390512D02*
X1868445D01*
X1862539Y2384607D02*
Y2396418D01*
X1604665Y2390512D02*
X1616476D01*
X1610571Y2384607D02*
Y2396418D01*
X1573169Y2390512D02*
X1584980D01*
X1579075Y2384607D02*
Y2396418D01*
X1604665Y2422008D02*
X1616476D01*
X1610571Y2416103D02*
Y2427914D01*
X1573169Y2422008D02*
X1584980D01*
X1579075Y2416103D02*
Y2427914D01*
X1604665Y2453504D02*
X1616476D01*
X1610571Y2447599D02*
Y2459410D01*
X1573169Y2453504D02*
X1584980D01*
X1579075Y2447599D02*
Y2459410D01*
X1541673Y2453504D02*
X1553484D01*
X1547579Y2447599D02*
Y2459410D01*
X1604665Y2485000D02*
X1616476D01*
X1610571Y2479095D02*
Y2490906D01*
X1573169Y2485000D02*
X1584980D01*
X1579075Y2479095D02*
Y2490906D01*
X1541673Y2422008D02*
X1553484D01*
X1547579Y2416103D02*
Y2427914D01*
X1541673Y2485000D02*
X1553484D01*
X1547579Y2479095D02*
Y2490906D01*
X1856634Y2327520D02*
X1868445D01*
X1862539Y2321615D02*
Y2333426D01*
X1825138Y2327520D02*
X1836949D01*
X1831043Y2321615D02*
Y2333426D01*
X1825138Y2422008D02*
X1836949D01*
X1831043Y2416103D02*
Y2427914D01*
X1793642Y2422008D02*
X1805453D01*
X1799547Y2416103D02*
Y2427914D01*
X1856634Y2422008D02*
X1868445D01*
X1862539Y2416103D02*
Y2427914D01*
X1604665Y2359016D02*
X1616476D01*
X1610571Y2353111D02*
Y2364922D01*
X1573169Y2359016D02*
X1584980D01*
X1579075Y2353111D02*
Y2364922D01*
X1541673Y2359016D02*
X1553484D01*
X1547579Y2353111D02*
Y2364922D01*
X1510177Y2359016D02*
X1521988D01*
X1516083Y2353111D02*
Y2364922D01*
X1478681Y2359016D02*
X1490492D01*
X1484587Y2353111D02*
Y2364922D01*
X1478681Y2390512D02*
X1490492D01*
X1484587Y2384607D02*
Y2396418D01*
X1510177Y2390512D02*
X1521988D01*
X1516083Y2384607D02*
Y2396418D01*
X1762146Y2422008D02*
X1773957D01*
X1768051Y2416103D02*
Y2427914D01*
X1730650Y2422008D02*
X1742461D01*
X1736555Y2416103D02*
Y2427914D01*
X1699154Y2422008D02*
X1710965D01*
X1705059Y2416103D02*
Y2427914D01*
X1667658Y2422008D02*
X1679469D01*
X1673563Y2416103D02*
Y2427914D01*
X1856634Y2453504D02*
X1868445D01*
X1862539Y2447599D02*
Y2459410D01*
X1825138Y2453504D02*
X1836949D01*
X1831043Y2447599D02*
Y2459410D01*
X1793642Y2453504D02*
X1805453D01*
X1799547Y2447599D02*
Y2459410D01*
X1762146Y2453504D02*
X1773957D01*
X1768051Y2447599D02*
Y2459410D01*
X1730650Y2453504D02*
X1742461D01*
X1736555Y2447599D02*
Y2459410D01*
X1699154Y2453504D02*
X1710965D01*
X1705059Y2447599D02*
Y2459410D01*
X1667658Y2453504D02*
X1679469D01*
X1673563Y2447599D02*
Y2459410D01*
X1856634Y2485000D02*
X1868445D01*
X1862539Y2479095D02*
Y2490906D01*
X1825138Y2485000D02*
X1836949D01*
X1831043Y2479095D02*
Y2490906D01*
X1888130Y2516497D02*
X1899941D01*
X1894035Y2510591D02*
Y2522402D01*
X1888130Y2547992D02*
X1899941D01*
X1894035Y2542087D02*
Y2553898D01*
X1888130Y2579489D02*
X1899941D01*
X1894035Y2573583D02*
Y2585394D01*
X1919626Y2296024D02*
X1931437D01*
X1925532Y2290119D02*
Y2301930D01*
X1919626Y2327520D02*
X1931437D01*
X1925532Y2321615D02*
Y2333426D01*
X1919626Y2359016D02*
X1931437D01*
X1925532Y2353111D02*
Y2364922D01*
X1919626Y2390512D02*
X1931437D01*
X1925532Y2384607D02*
Y2396418D01*
X1919626Y2422008D02*
X1931437D01*
X1925532Y2416103D02*
Y2427914D01*
X1919626Y2453504D02*
X1931437D01*
X1925532Y2447599D02*
Y2459410D01*
X1919626Y2485000D02*
X1931437D01*
X1925532Y2479095D02*
Y2490906D01*
X1919626Y2516497D02*
X1931437D01*
X1925532Y2510591D02*
Y2522402D01*
X1919626Y2547992D02*
X1931437D01*
X1925532Y2542087D02*
Y2553898D01*
X1919626Y2579489D02*
X1931437D01*
X1925532Y2573583D02*
Y2585394D01*
X1793642Y2485000D02*
X1805453D01*
X1799547Y2479095D02*
Y2490906D01*
X1762146Y2485000D02*
X1773957D01*
X1768051Y2479095D02*
Y2490906D01*
X1730650Y2485000D02*
X1742461D01*
X1736555Y2479095D02*
Y2490906D01*
X1699154Y2485000D02*
X1710965D01*
X1705059Y2479095D02*
Y2490906D01*
X1667658Y2485000D02*
X1679469D01*
X1673563Y2479095D02*
Y2490906D01*
X1856634Y2516497D02*
X1868445D01*
X1862539Y2510591D02*
Y2522402D01*
X1825138Y2516497D02*
X1836949D01*
X1831043Y2510591D02*
Y2522402D01*
X1793642Y2516497D02*
X1805453D01*
X1799547Y2510591D02*
Y2522402D01*
X1762146Y2516497D02*
X1773957D01*
X1768051Y2510591D02*
Y2522402D01*
X1730650Y2516497D02*
X1742461D01*
X1736555Y2510591D02*
Y2522402D01*
X1699154Y2516497D02*
X1710965D01*
X1705059Y2510591D02*
Y2522402D01*
X1667658Y2516497D02*
X1679469D01*
X1673563Y2510591D02*
Y2522402D01*
X1856634Y2547992D02*
X1868445D01*
X1862539Y2542087D02*
Y2553898D01*
X1604665Y2201536D02*
X1616476D01*
X1610571Y2195630D02*
Y2207441D01*
X1573169Y2201536D02*
X1584980D01*
X1579075Y2195630D02*
Y2207441D01*
X1541673Y2201536D02*
X1553484D01*
X1547579Y2195630D02*
Y2207441D01*
X1604665Y2233032D02*
X1616476D01*
X1610571Y2227126D02*
Y2238937D01*
X1573169Y2233032D02*
X1584980D01*
X1579075Y2227126D02*
Y2238937D01*
X1541673Y2233032D02*
X1553484D01*
X1547579Y2227126D02*
Y2238937D01*
X1604665Y2264528D02*
X1616476D01*
X1610571Y2258622D02*
Y2270433D01*
X1573169Y2264528D02*
X1584980D01*
X1579075Y2258622D02*
Y2270433D01*
X1541673Y2264528D02*
X1553484D01*
X1547579Y2258622D02*
Y2270433D01*
X1604665Y2296024D02*
X1616476D01*
X1610571Y2290119D02*
Y2301930D01*
X1573169Y2296024D02*
X1584980D01*
X1579075Y2290119D02*
Y2301930D01*
X1604665Y2327520D02*
X1616476D01*
X1610571Y2321615D02*
Y2333426D01*
X1573169Y2327520D02*
X1584980D01*
X1579075Y2321615D02*
Y2333426D01*
X1541673Y2327520D02*
X1553484D01*
X1547579Y2321615D02*
Y2333426D01*
X1541673Y2390512D02*
X1553484D01*
X1547579Y2384607D02*
Y2396418D01*
X1541673Y2296024D02*
X1553484D01*
X1547579Y2290119D02*
Y2301930D01*
X1888130Y2201536D02*
X1899941D01*
X1894035Y2195630D02*
Y2207441D01*
X1888130Y2233032D02*
X1899941D01*
X1894035Y2227126D02*
Y2238937D01*
X1888130Y2264528D02*
X1899941D01*
X1894035Y2258622D02*
Y2270433D01*
X1888130Y2296024D02*
X1899941D01*
X1894035Y2290119D02*
Y2301930D01*
X1888130Y2327520D02*
X1899941D01*
X1894035Y2321615D02*
Y2333426D01*
X1888130Y2359016D02*
X1899941D01*
X1894035Y2353111D02*
Y2364922D01*
X1888130Y2390512D02*
X1899941D01*
X1894035Y2384607D02*
Y2396418D01*
X1888130Y2422008D02*
X1899941D01*
X1894035Y2416103D02*
Y2427914D01*
X1888130Y2453504D02*
X1899941D01*
X1894035Y2447599D02*
Y2459410D01*
X1888130Y2485000D02*
X1899941D01*
X1894035Y2479095D02*
Y2490906D01*
X1919626Y2264528D02*
X1931437D01*
X1925532Y2258622D02*
Y2270433D01*
X1919626Y2233032D02*
X1931437D01*
X1925532Y2227126D02*
Y2238937D01*
X1919626Y2201536D02*
X1931437D01*
X1925532Y2195630D02*
Y2207441D01*
X1667658Y2201536D02*
X1679469D01*
X1673563Y2195630D02*
Y2207441D01*
X1699154Y2233032D02*
X1710965D01*
X1705059Y2227126D02*
Y2238937D01*
X1667658Y2233032D02*
X1679469D01*
X1673563Y2227126D02*
Y2238937D01*
X1699154Y2264528D02*
X1710965D01*
X1705059Y2258622D02*
Y2270433D01*
X1667658Y2264528D02*
X1679469D01*
X1673563Y2258622D02*
Y2270433D01*
X1699154Y2296024D02*
X1710965D01*
X1705059Y2290119D02*
Y2301930D01*
X1667658Y2296024D02*
X1679469D01*
X1673563Y2290119D02*
Y2301930D01*
X1699154Y2327520D02*
X1710965D01*
X1705059Y2321615D02*
Y2333426D01*
X1667658Y2327520D02*
X1679469D01*
X1673563Y2321615D02*
Y2333426D01*
X1699154Y2359016D02*
X1710965D01*
X1705059Y2353111D02*
Y2364922D01*
X1667658Y2359016D02*
X1679469D01*
X1673563Y2353111D02*
Y2364922D01*
X1699154Y2390512D02*
X1710965D01*
X1705059Y2384607D02*
Y2396418D01*
X1667658Y2390512D02*
X1679469D01*
X1673563Y2384607D02*
Y2396418D01*
X1636161Y2201536D02*
X1647973D01*
X1642067Y2195630D02*
Y2207441D01*
X1699154Y2201536D02*
X1710965D01*
X1705059Y2195630D02*
Y2207441D01*
X1636161Y2264528D02*
X1647973D01*
X1642067Y2258622D02*
Y2270433D01*
X1636161Y2296024D02*
X1647973D01*
X1642067Y2290119D02*
Y2301930D01*
X1636161Y2327520D02*
X1647973D01*
X1642067Y2321615D02*
Y2333426D01*
X1636161Y2359016D02*
X1647973D01*
X1642067Y2353111D02*
Y2364922D01*
X1636161Y2422008D02*
X1647973D01*
X1642067Y2416103D02*
Y2427914D01*
X1636161Y2453504D02*
X1647973D01*
X1642067Y2447599D02*
Y2459410D01*
X1636161Y2485000D02*
X1647973D01*
X1642067Y2479095D02*
Y2490906D01*
X1636161Y2516497D02*
X1647973D01*
X1642067Y2510591D02*
Y2522402D01*
X1636161Y2547992D02*
X1647973D01*
X1642067Y2542087D02*
Y2553898D01*
X1636161Y2233032D02*
X1647973D01*
X1642067Y2227126D02*
Y2238937D01*
X1793642Y2201536D02*
X1805453D01*
X1799547Y2195630D02*
Y2207441D01*
X1762146Y2201536D02*
X1773957D01*
X1768051Y2195630D02*
Y2207441D01*
X1730650Y2201536D02*
X1742461D01*
X1736555Y2195630D02*
Y2207441D01*
X1730650Y2264528D02*
X1742461D01*
X1736555Y2258622D02*
Y2270433D01*
X1730650Y2296024D02*
X1742461D01*
X1736555Y2290119D02*
Y2301930D01*
X1730650Y2327520D02*
X1742461D01*
X1736555Y2321615D02*
Y2333426D01*
X1730650Y2233032D02*
X1742461D01*
X1736555Y2227126D02*
Y2238937D01*
X1510177Y2296024D02*
X1521988D01*
X1516083Y2290119D02*
Y2301930D01*
X1478681Y2296024D02*
X1490492D01*
X1484587Y2290119D02*
Y2301930D01*
X1510177Y2327520D02*
X1521988D01*
X1516083Y2321615D02*
Y2333426D01*
X1478681Y2327520D02*
X1490492D01*
X1484587Y2321615D02*
Y2333426D01*
X1510177Y2201536D02*
X1521988D01*
X1516083Y2195630D02*
Y2207441D01*
X1478681Y2201536D02*
X1490492D01*
X1484587Y2195630D02*
Y2207441D01*
X1510177Y2233032D02*
X1521988D01*
X1516083Y2227126D02*
Y2238937D01*
X1478681Y2233032D02*
X1490492D01*
X1484587Y2227126D02*
Y2238937D01*
X1510177Y2264528D02*
X1521988D01*
X1516083Y2258622D02*
Y2270433D01*
X1478681Y2264528D02*
X1490492D01*
X1484587Y2258622D02*
Y2270433D01*
X1510177Y2422008D02*
X1521988D01*
X1516083Y2416103D02*
Y2427914D01*
X1478681Y2422008D02*
X1490492D01*
X1484587Y2416103D02*
Y2427914D01*
X1510177Y2453504D02*
X1521988D01*
X1516083Y2447599D02*
Y2459410D01*
X1478681Y2453504D02*
X1490492D01*
X1484587Y2447599D02*
Y2459410D01*
X1510177Y2485000D02*
X1521988D01*
X1516083Y2479095D02*
Y2490906D01*
X1478681Y2485000D02*
X1490492D01*
X1484587Y2479095D02*
Y2490906D01*
X1478681Y2516497D02*
X1490492D01*
X1484587Y2510591D02*
Y2522402D01*
X1478681Y2547992D02*
X1490492D01*
X1484587Y2542087D02*
Y2553898D01*
X1478681Y2579489D02*
X1490492D01*
X1484587Y2573583D02*
Y2585394D01*
X2643500Y2920000D02*
X2656500D01*
X2650000Y2913500D02*
Y2926500D01*
X2683500Y2920000D02*
X2696500D01*
X2690000Y2913500D02*
Y2926500D01*
X4558823Y3545000D02*
X4571823D01*
X4565323Y3538500D02*
Y3551500D01*
X4223500Y3632500D02*
X4236500D01*
X4230000Y3626000D02*
Y3639000D01*
X5234095Y2000000D02*
X5245905D01*
X5240000Y1994094D02*
Y2005906D01*
X5234095Y2080000D02*
X5245905D01*
X5240000Y2074095D02*
Y2085905D01*
X5234095Y2160000D02*
X5245905D01*
X5240000Y2154095D02*
Y2165905D01*
X5234095Y2240000D02*
X5245905D01*
X5240000Y2234095D02*
Y2245905D01*
X5234095Y2320000D02*
X5245905D01*
X5240000Y2314095D02*
Y2325905D01*
X5234095Y2400000D02*
X5245905D01*
X5240000Y2394095D02*
Y2405905D01*
X3654095Y2400000D02*
X3665905D01*
X3660000Y2394095D02*
Y2405905D01*
X3754095Y2400000D02*
X3765905D01*
X3760000Y2394095D02*
Y2405905D01*
X3564095Y2480000D02*
X3575905D01*
X3570000Y2474095D02*
Y2485905D01*
X3595863Y3817952D02*
X3607673D01*
X3601768Y3812047D02*
Y3823858D01*
X3914095Y3570000D02*
X3925905D01*
X3920000Y3564095D02*
Y3575905D01*
X1474094Y3850000D02*
X1485906D01*
X1480000Y3844095D02*
Y3855905D01*
X4973940Y3816610D02*
X4985751D01*
X4979846Y3810705D02*
Y3822516D01*
X4023500Y3352184D02*
X4036500D01*
X4030000Y3345684D02*
Y3358684D01*
X3939086Y3484903D02*
X3950896D01*
X3944991Y3478998D02*
Y3490809D01*
X4023822Y3267896D02*
X4036822D01*
X4030322Y3261396D02*
Y3274396D01*
X4103500Y3510000D02*
X4116500D01*
X4110000Y3503500D02*
Y3516500D01*
X4014281Y3067208D02*
X4026092D01*
X4020186Y3061302D02*
Y3073113D01*
X4023623Y3095348D02*
X4036623D01*
X4030123Y3088848D02*
Y3101848D01*
X4023500Y3190000D02*
X4036500D01*
X4030000Y3183500D02*
Y3196500D01*
X4023500Y3235000D02*
X4036500D01*
X4030000Y3228500D02*
Y3241500D01*
X4023500Y3150000D02*
X4036500D01*
X4030000Y3143500D02*
Y3156500D01*
X3844095Y3390000D02*
X3855905D01*
X3850000Y3384095D02*
Y3395905D01*
X3727589Y3456506D02*
X3739400D01*
X3733494Y3450600D02*
Y3462411D01*
X3686188Y3323812D02*
X3706188D01*
X3696188Y3313812D02*
Y3333812D01*
X3971536Y3255704D02*
X3979410D01*
X3975473Y3251767D02*
Y3259641D01*
X4050000Y3524528D02*
X4070000D01*
X4060000Y3514528D02*
Y3534528D01*
X2304095Y3790000D02*
X2315905D01*
X2310000Y3784095D02*
Y3795905D01*
X4974095Y2480000D02*
X4985905D01*
X4980000Y2474095D02*
Y2485905D01*
X1624094Y3270000D02*
X1635906D01*
X1630000Y3264095D02*
Y3275905D01*
X2888500Y3120000D02*
X2901500D01*
X2895000Y3113500D02*
Y3126500D01*
X2788500Y3115000D02*
X2801500D01*
X2795000Y3108500D02*
Y3121500D01*
X3856063Y3090000D02*
X3863937D01*
X3860000Y3086063D02*
Y3093937D01*
X3867293Y2555136D02*
X3875167D01*
X3871230Y2551199D02*
Y2559073D01*
X4008465Y2486505D02*
X4016339D01*
X4012402Y2482568D02*
Y2490442D01*
X4067911Y2487972D02*
X4075785D01*
X4071848Y2484035D02*
Y2491909D01*
X4006063Y2550000D02*
X4013937D01*
X4010000Y2546063D02*
Y2553937D01*
X4153236Y3291408D02*
X4161110D01*
X4157173Y3287471D02*
Y3295345D01*
X4130091Y3267262D02*
X4137965D01*
X4134028Y3263325D02*
Y3271199D01*
X4174069Y3305655D02*
X4181943D01*
X4178006Y3301718D02*
Y3309592D01*
X4255673Y3325717D02*
X4263547D01*
X4259610Y3321780D02*
Y3329654D01*
X4280040Y3381583D02*
X4291851D01*
X4285946Y3375678D02*
Y3387489D01*
X4275424Y3352477D02*
X4283298D01*
X4279361Y3348539D02*
Y3356414D01*
X4115445Y3543055D02*
X4128445D01*
X4121945Y3536555D02*
Y3549555D01*
X3732064Y3486068D02*
X3739938D01*
X3736001Y3482131D02*
Y3490005D01*
X4781979Y3467600D02*
X4789853D01*
X4785916Y3463663D02*
Y3471537D01*
X4840301Y3424841D02*
X4848175D01*
X4844238Y3420904D02*
Y3428778D01*
X4099438Y3264680D02*
X4107312D01*
X4103375Y3260744D02*
Y3268617D01*
X4105588Y3293185D02*
X4113462D01*
X4109525Y3289248D02*
Y3297122D01*
X4139383Y3349117D02*
X4152383D01*
X4145883Y3342617D02*
Y3355617D01*
X4101558Y3345000D02*
X4114558D01*
X4108058Y3338500D02*
Y3351500D01*
X4196063Y3290000D02*
X4203937D01*
X4200000Y3286063D02*
Y3293937D01*
X4226063Y3320000D02*
X4233937D01*
X4230000Y3316063D02*
Y3323937D01*
X4196063Y3320000D02*
X4203937D01*
X4200000Y3316063D02*
Y3323937D01*
X3570000Y3370000D02*
X3590000D01*
X3580000Y3360000D02*
Y3380000D01*
X4404095Y4035000D02*
X4415905D01*
X4410000Y4029095D02*
Y4040905D01*
X4839095Y4035000D02*
X4850905D01*
X4845000Y4029095D02*
Y4040905D01*
X4229095Y4035000D02*
X4240905D01*
X4235000Y4029095D02*
Y4040905D01*
X2215761Y3950000D02*
X2227572D01*
X2221667Y3944095D02*
Y3955905D01*
X2183500Y3950000D02*
X2196500D01*
X2190000Y3943500D02*
Y3956500D01*
X1913500Y3950000D02*
X1926500D01*
X1920000Y3943500D02*
Y3956500D01*
X3584095Y2260000D02*
X3595905D01*
X3590000Y2254095D02*
Y2265905D01*
X3294095Y2260000D02*
X3305905D01*
X3300000Y2254095D02*
Y2265905D01*
X5018720Y3331518D02*
X5031720D01*
X5025220Y3325018D02*
Y3338018D01*
X4504095Y3130000D02*
X4515905D01*
X4510000Y3124095D02*
Y3135905D01*
X4592985Y3404116D02*
X4600859D01*
X4596922Y3400179D02*
Y3408053D01*
X4314095Y3400000D02*
X4325905D01*
X4320000Y3394095D02*
Y3405905D01*
X4574095Y3160000D02*
X4585905D01*
X4580000Y3154095D02*
Y3165905D01*
X4694095Y3130000D02*
X4705905D01*
X4700000Y3124095D02*
Y3135905D01*
X4695655Y3668092D02*
X4708655D01*
X4702155Y3661592D02*
Y3674592D01*
X4385393Y3787450D02*
X4393267D01*
X4389330Y3783513D02*
Y3791387D01*
X4334095Y3740000D02*
X4345905D01*
X4340000Y3734095D02*
Y3745905D01*
X4384544Y3835668D02*
X4392418D01*
X4388481Y3831731D02*
Y3839605D01*
X2964095Y2460000D02*
X2975905D01*
X2970000Y2454095D02*
Y2465905D01*
X1569094Y3195000D02*
X1580906D01*
X1575000Y3189095D02*
Y3200905D01*
X2489095Y3755000D02*
X2500905D01*
X2495000Y3749095D02*
Y3760905D01*
X1969127Y3950033D02*
X1980938D01*
X1975033Y3944127D02*
Y3955938D01*
X2489095Y3700000D02*
X2500905D01*
X2495000Y3694095D02*
Y3705905D01*
X1754094Y3090000D02*
X1765906D01*
X1760000Y3084095D02*
Y3095905D01*
X1754094Y3290000D02*
X1765906D01*
X1760000Y3284095D02*
Y3295905D01*
X1453500Y3395000D02*
X1466500D01*
X1460000Y3388500D02*
Y3401500D01*
X2643500Y3060000D02*
X2656500D01*
X2650000Y3053500D02*
Y3066500D01*
X2788500Y3315000D02*
X2801500D01*
X2795000Y3308500D02*
Y3321500D01*
X3749095Y2260000D02*
X3760905D01*
X3755000Y2254095D02*
Y2265905D01*
X3234095Y3890000D02*
X3245905D01*
X3240000Y3884095D02*
Y3895905D01*
X3534095Y2630000D02*
X3545905D01*
X3540000Y2624095D02*
Y2635905D01*
X3534095Y2680000D02*
X3545905D01*
X3540000Y2674095D02*
Y2685905D01*
X3534095Y2730000D02*
X3545905D01*
X3540000Y2724095D02*
Y2735905D01*
X3534095Y2780000D02*
X3545905D01*
X3540000Y2774095D02*
Y2785905D01*
X3484095Y2780000D02*
X3495905D01*
X3490000Y2774095D02*
Y2785905D01*
X3484095Y2730000D02*
X3495905D01*
X3490000Y2724095D02*
Y2735905D01*
X3484095Y2680000D02*
X3495905D01*
X3490000Y2674095D02*
Y2685905D01*
X3484095Y2630000D02*
X3495905D01*
X3490000Y2624095D02*
Y2635905D01*
X3434095Y2630000D02*
X3445905D01*
X3440000Y2624095D02*
Y2635905D01*
X3434095Y2680000D02*
X3445905D01*
X3440000Y2674095D02*
Y2685905D01*
X3434095Y2730000D02*
X3445905D01*
X3440000Y2724095D02*
Y2735905D01*
X3434095Y2780000D02*
X3445905D01*
X3440000Y2774095D02*
Y2785905D01*
X3693500Y3040000D02*
X3706500D01*
X3700000Y3033500D02*
Y3046500D01*
X3854095Y2400000D02*
X3865905D01*
X3860000Y2394095D02*
Y2405905D01*
X1694094Y3380000D02*
X1705906D01*
X1700000Y3374095D02*
Y3385905D01*
X1694094Y3700000D02*
X1705906D01*
X1700000Y3694095D02*
Y3705905D01*
X1694094Y3470000D02*
X1705906D01*
X1700000Y3464095D02*
Y3475905D01*
X1624094Y3470000D02*
X1635906D01*
X1630000Y3464095D02*
Y3475905D01*
X1624094Y3540000D02*
X1635906D01*
X1630000Y3534095D02*
Y3545905D01*
X1879691Y3699965D02*
X1891503D01*
X1885597Y3694060D02*
Y3705871D01*
X2092428Y3950000D02*
X2104239D01*
X2098333Y3944095D02*
Y3955905D01*
X1488303Y2824803D02*
X1501303D01*
X1494803Y2818303D02*
Y2831303D01*
X1486413Y2942913D02*
X1499413D01*
X1492913Y2936413D02*
Y2949413D01*
X1513067Y3529548D02*
X1526067D01*
X1519567Y3523048D02*
Y3536048D01*
X2489095Y3590000D02*
X2500905D01*
X2495000Y3584095D02*
Y3595905D01*
X1664094Y3540000D02*
X1675906D01*
X1670000Y3534095D02*
Y3545905D01*
X2489095Y3490000D02*
X2500905D01*
X2495000Y3484095D02*
Y3495905D01*
X2434095Y3970000D02*
X2445905D01*
X2440000Y3964095D02*
Y3975905D01*
X2638500Y2730000D02*
X2651500D01*
X2645000Y2723500D02*
Y2736500D01*
X2683500Y3450000D02*
X2696500D01*
X2690000Y3443500D02*
Y3456500D01*
X4854095Y3450000D02*
X4865905D01*
X4860000Y3444095D02*
Y3455905D01*
X4753500Y3665000D02*
X4766500D01*
X4760000Y3658500D02*
Y3671500D01*
X4814095Y3485000D02*
X4825905D01*
X4820000Y3479095D02*
Y3490905D01*
X4848500Y3555000D02*
X4861500D01*
X4855000Y3548500D02*
Y3561500D01*
X3900843Y2990311D02*
X3913843D01*
X3907343Y2983811D02*
Y2996811D01*
X2074095Y2235000D02*
X2085905D01*
X2080000Y2229095D02*
Y2240905D01*
X3659095Y2260000D02*
X3670905D01*
X3665000Y2254095D02*
Y2265905D01*
X3479095Y2260000D02*
X3490905D01*
X3485000Y2254095D02*
Y2265905D01*
X3394095Y2260000D02*
X3405905D01*
X3400000Y2254095D02*
Y2265905D01*
X3754095Y2550000D02*
X3765905D01*
X3760000Y2544095D02*
Y2555905D01*
X3908500Y2665000D02*
X3921500D01*
X3915000Y2658500D02*
Y2671500D01*
X3903500Y3085000D02*
X3916500D01*
X3910000Y3078500D02*
Y3091500D01*
X4234095Y2420000D02*
X4245905D01*
X4240000Y2414095D02*
Y2425905D01*
X4169095Y2420000D02*
X4180905D01*
X4175000Y2414095D02*
Y2425905D01*
X4104095Y2420000D02*
X4115905D01*
X4110000Y2414095D02*
Y2425905D01*
X4044095Y2420000D02*
X4055905D01*
X4050000Y2414095D02*
Y2425905D01*
X3984095Y2420000D02*
X3995905D01*
X3990000Y2414095D02*
Y2425905D01*
X3979095Y2910000D02*
X3990905D01*
X3985000Y2904095D02*
Y2915905D01*
X4023500Y2805000D02*
X4036500D01*
X4030000Y2798500D02*
Y2811500D01*
X4024095Y2845000D02*
X4035905D01*
X4030000Y2839095D02*
Y2850905D01*
X4007437Y2885000D02*
X4019248D01*
X4013343Y2879095D02*
Y2890905D01*
X3984095Y2965000D02*
X3995905D01*
X3990000Y2959095D02*
Y2970905D01*
X2136946Y4108446D02*
X2149946D01*
X2143446Y4101946D02*
Y4114946D01*
X2328500Y4110000D02*
X2341500D01*
X2335000Y4103500D02*
Y4116500D01*
X2238500Y4110000D02*
X2251500D01*
X2245000Y4103500D02*
Y4116500D01*
X1978500Y4110113D02*
X1991500D01*
X1985000Y4103613D02*
Y4116613D01*
X2919095Y3740000D02*
X2930905D01*
X2925000Y3734095D02*
Y3745905D01*
X2915000Y3505000D02*
X2935000D01*
X2925000Y3495000D02*
Y3515000D01*
X2643500Y3450000D02*
X2656500D01*
X2650000Y3443500D02*
Y3456500D01*
X2683500Y3390000D02*
X2696500D01*
X2690000Y3383500D02*
Y3396500D01*
X2643500Y3390000D02*
X2656500D01*
X2650000Y3383500D02*
Y3396500D01*
X2683500Y3020000D02*
X2696500D01*
X2690000Y3013500D02*
Y3026500D01*
X2643500Y3110000D02*
X2656500D01*
X2650000Y3103500D02*
Y3116500D01*
X2643500Y3020000D02*
X2656500D01*
X2650000Y3013500D02*
Y3026500D01*
X2643500Y2985000D02*
X2656500D01*
X2650000Y2978500D02*
Y2991500D01*
X2683500Y2985000D02*
X2696500D01*
X2690000Y2978500D02*
Y2991500D01*
X4889095Y3935000D02*
X4900905D01*
X4895000Y3929095D02*
Y3940905D01*
X3328500Y3535000D02*
X3341500D01*
X3335000Y3528500D02*
Y3541500D01*
X5093500Y3575000D02*
X5106500D01*
X5100000Y3568500D02*
Y3581500D01*
X4623500Y3665000D02*
X4636500D01*
X4630000Y3658500D02*
Y3671500D01*
X4798500Y3380000D02*
X4811500D01*
X4805000Y3373500D02*
Y3386500D01*
X4993500Y3680000D02*
X5006500D01*
X5000000Y3673500D02*
Y3686500D01*
X4093500Y2825000D02*
X4106500D01*
X4100000Y2818500D02*
Y2831500D01*
X4344095Y3900000D02*
X4355905D01*
X4350000Y3894095D02*
Y3905905D01*
X2671383Y2737769D02*
X2684383D01*
X2677883Y2731269D02*
Y2744269D01*
X4093500Y2855000D02*
X4106500D01*
X4100000Y2848500D02*
Y2861500D01*
X3423500Y3325000D02*
X3436500D01*
X3430000Y3318500D02*
Y3331500D01*
X2959095Y3690000D02*
X2970905D01*
X2965000Y3684095D02*
Y3695905D01*
X4093500Y2735000D02*
X4106500D01*
X4100000Y2728500D02*
Y2741500D01*
X5138500Y3565000D02*
X5151500D01*
X5145000Y3558500D02*
Y3571500D01*
X2643500Y3345000D02*
X2656500D01*
X2650000Y3338500D02*
Y3351500D01*
X2683500Y3345000D02*
X2696500D01*
X2690000Y3338500D02*
Y3351500D01*
X2683500Y3300000D02*
X2696500D01*
X2690000Y3293500D02*
Y3306500D01*
X2643500Y3300000D02*
X2656500D01*
X2650000Y3293500D02*
Y3306500D01*
X2643500Y3250000D02*
X2656500D01*
X2650000Y3243500D02*
Y3256500D01*
X2683500Y3250000D02*
X2696500D01*
X2690000Y3243500D02*
Y3256500D01*
X2683500Y3200000D02*
X2696500D01*
X2690000Y3193500D02*
Y3206500D01*
X2643500Y3200000D02*
X2656500D01*
X2650000Y3193500D02*
Y3206500D01*
X2683500Y3155000D02*
X2696500D01*
X2690000Y3148500D02*
Y3161500D01*
X2643500Y3155000D02*
X2656500D01*
X2650000Y3148500D02*
Y3161500D01*
X2683500Y3110000D02*
X2696500D01*
X2690000Y3103500D02*
Y3116500D01*
X2683500Y2870000D02*
X2696500D01*
X2690000Y2863500D02*
Y2876500D01*
X2643500Y2870000D02*
X2656500D01*
X2650000Y2863500D02*
Y2876500D01*
X2683500Y2830000D02*
X2696500D01*
X2690000Y2823500D02*
Y2836500D01*
X2643500Y2830000D02*
X2656500D01*
X2650000Y2823500D02*
Y2836500D01*
X2673500Y2775000D02*
X2686500D01*
X2680000Y2768500D02*
Y2781500D01*
X2638500Y2775000D02*
X2651500D01*
X2645000Y2768500D02*
Y2781500D01*
X3100000Y3330000D02*
X3120000D01*
X3110000Y3320000D02*
Y3340000D01*
X3906000Y3441945D02*
X3919000D01*
X3912500Y3435445D02*
Y3448445D01*
X4213500Y3510000D02*
X4226500D01*
X4220000Y3503500D02*
Y3516500D01*
X4168500Y3555000D02*
X4181500D01*
X4175000Y3548500D02*
Y3561500D01*
X4163500Y3510000D02*
X4176500D01*
X4170000Y3503500D02*
Y3516500D01*
X4163500Y3450000D02*
X4176500D01*
X4170000Y3443500D02*
Y3456500D01*
X4143500Y3390000D02*
X4156500D01*
X4150000Y3383500D02*
Y3396500D01*
X4103500Y3450000D02*
X4116500D01*
X4110000Y3443500D02*
Y3456500D01*
X4233500Y3555000D02*
X4246500D01*
X4240000Y3548500D02*
Y3561500D01*
X4263500Y3510000D02*
X4276500D01*
X4270000Y3503500D02*
Y3516500D01*
X4103500Y3390000D02*
X4116500D01*
X4110000Y3383500D02*
Y3396500D01*
X3903500Y2830000D02*
X3916500D01*
X3910000Y2823500D02*
Y2836500D01*
X3903500Y2930000D02*
X3916500D01*
X3910000Y2923500D02*
Y2936500D01*
X3970892Y3139177D02*
X3983892D01*
X3977392Y3132677D02*
Y3145677D01*
X4093500Y2685000D02*
X4106500D01*
X4100000Y2678500D02*
Y2691500D01*
X4093500Y2780000D02*
X4106500D01*
X4100000Y2773500D02*
Y2786500D01*
X1753500Y3190000D02*
X1766500D01*
X1760000Y3183500D02*
Y3196500D01*
X1618500Y3020000D02*
X1631500D01*
X1625000Y3013500D02*
Y3026500D01*
X3218500Y3325000D02*
X3231500D01*
X3225000Y3318500D02*
Y3331500D01*
X3863500Y3115000D02*
X3876500D01*
X3870000Y3108500D02*
Y3121500D01*
X4093500Y2895000D02*
X4106500D01*
X4100000Y2888500D02*
Y2901500D01*
X4962756Y3513307D02*
X4970630D01*
X4966693Y3509370D02*
Y3517244D01*
X5006063Y3513307D02*
X5013937D01*
X5010000Y3509370D02*
Y3517244D01*
X4962756Y3470000D02*
X4970630D01*
X4966693Y3466063D02*
Y3473937D01*
X5006063Y3470000D02*
X5013937D01*
X5010000Y3466063D02*
Y3473937D01*
%TF.MD5,dee56ec76855460a1b6e398a24fc0c41*%
M02*
