G04 EAGLE Gerber RS-274X export*
G75*
%MOMM*%
%FSLAX34Y34*%
%LPD*%
%INTop Copper*%
%IPPOS*%
%AMOC8*
5,1,8,0,0,1.08239X$1,22.5*%
G01*
%ADD10R,0.900000X0.900000*%
%ADD11R,0.800000X0.800000*%
%ADD12R,0.889000X0.711200*%
%ADD13R,0.900000X0.800000*%
%ADD14R,2.400000X4.230000*%
%ADD15R,0.800000X0.900000*%
%ADD16R,0.711200X0.889000*%
%ADD17R,4.230000X2.400000*%
%ADD18R,7.230000X6.650000*%
%ADD19R,6.650000X7.230000*%
%ADD20R,3.429000X1.651000*%
%ADD21R,1.270000X2.921000*%
%ADD22R,3.429000X1.778000*%
%ADD23R,1.778000X3.429000*%
%ADD24R,0.889000X0.305000*%
%ADD25R,1.651000X2.845000*%
%ADD26R,1.400000X0.950000*%
%ADD27R,1.800000X1.000000*%
%ADD28R,1.400000X3.500000*%
%ADD29C,1.000000*%
%ADD30R,1.651000X3.429000*%
%ADD31R,2.921000X1.270000*%
%ADD32R,1.020063X1.889759*%
%ADD33R,0.750000X0.400000*%
%ADD34R,0.250000X1.250000*%
%ADD35C,0.152400*%
%ADD36C,0.756400*%
%ADD37C,0.406400*%
%ADD38C,1.016000*%
%ADD39C,0.609600*%
%ADD40C,1.092200*%
%ADD41C,0.304800*%
%ADD42C,0.660400*%
%ADD43C,0.254000*%
%ADD44C,0.977900*%

G36*
X1877963Y-843287D02*
X1877963Y-843287D01*
X1877963Y-843286D01*
X1877963Y-803086D01*
X1877959Y-803081D01*
X1877958Y-803081D01*
X1862963Y-803081D01*
X1862963Y-738086D01*
X1862959Y-738081D01*
X1862958Y-738081D01*
X1782958Y-738081D01*
X1782953Y-738085D01*
X1782953Y-738086D01*
X1782953Y-803081D01*
X1767958Y-803081D01*
X1767953Y-803085D01*
X1767953Y-803086D01*
X1767953Y-843286D01*
X1767957Y-843291D01*
X1767958Y-843291D01*
X1877958Y-843291D01*
X1877963Y-843287D01*
G37*
G36*
X2023632Y-843287D02*
X2023632Y-843287D01*
X2023632Y-843286D01*
X2023632Y-803086D01*
X2023628Y-803081D01*
X2023627Y-803081D01*
X2008632Y-803081D01*
X2008632Y-738086D01*
X2008628Y-738081D01*
X2008627Y-738081D01*
X1928627Y-738081D01*
X1928622Y-738085D01*
X1928622Y-738086D01*
X1928622Y-803081D01*
X1913627Y-803081D01*
X1913622Y-803085D01*
X1913622Y-803086D01*
X1913622Y-843286D01*
X1913626Y-843291D01*
X1913627Y-843291D01*
X2023627Y-843291D01*
X2023632Y-843287D01*
G37*
G36*
X829705Y-839477D02*
X829705Y-839477D01*
X829705Y-839476D01*
X829705Y-799276D01*
X829701Y-799271D01*
X829700Y-799271D01*
X814705Y-799271D01*
X814705Y-734276D01*
X814701Y-734271D01*
X814700Y-734271D01*
X734700Y-734271D01*
X734695Y-734275D01*
X734695Y-734276D01*
X734695Y-799271D01*
X719700Y-799271D01*
X719695Y-799275D01*
X719695Y-799276D01*
X719695Y-839476D01*
X719699Y-839481D01*
X719700Y-839481D01*
X829700Y-839481D01*
X829705Y-839477D01*
G37*
G36*
X2349133Y-661677D02*
X2349133Y-661677D01*
X2349133Y-661676D01*
X2349133Y-621476D01*
X2349129Y-621471D01*
X2349128Y-621471D01*
X2334133Y-621471D01*
X2334133Y-556476D01*
X2334129Y-556471D01*
X2334128Y-556471D01*
X2254128Y-556471D01*
X2254123Y-556475D01*
X2254123Y-556476D01*
X2254123Y-621471D01*
X2239128Y-621471D01*
X2239123Y-621475D01*
X2239123Y-621476D01*
X2239123Y-661676D01*
X2239127Y-661681D01*
X2239128Y-661681D01*
X2349128Y-661681D01*
X2349133Y-661677D01*
G37*
G36*
X2512963Y-661677D02*
X2512963Y-661677D01*
X2512963Y-661676D01*
X2512963Y-621476D01*
X2512959Y-621471D01*
X2512958Y-621471D01*
X2497963Y-621471D01*
X2497963Y-556476D01*
X2497959Y-556471D01*
X2497958Y-556471D01*
X2417958Y-556471D01*
X2417953Y-556475D01*
X2417953Y-556476D01*
X2417953Y-621471D01*
X2402958Y-621471D01*
X2402953Y-621475D01*
X2402953Y-621476D01*
X2402953Y-661676D01*
X2402957Y-661681D01*
X2402958Y-661681D01*
X2512958Y-661681D01*
X2512963Y-661677D01*
G37*
G36*
X346597Y-661169D02*
X346597Y-661169D01*
X346597Y-661168D01*
X346597Y-620968D01*
X346593Y-620963D01*
X346592Y-620963D01*
X331597Y-620963D01*
X331597Y-555968D01*
X331593Y-555963D01*
X331592Y-555963D01*
X251592Y-555963D01*
X251587Y-555967D01*
X251587Y-555968D01*
X251587Y-620963D01*
X236592Y-620963D01*
X236587Y-620967D01*
X236587Y-620968D01*
X236587Y-661168D01*
X236591Y-661173D01*
X236592Y-661173D01*
X346592Y-661173D01*
X346597Y-661169D01*
G37*
G36*
X2184795Y-661169D02*
X2184795Y-661169D01*
X2184795Y-661168D01*
X2184795Y-620968D01*
X2184791Y-620963D01*
X2184790Y-620963D01*
X2169795Y-620963D01*
X2169795Y-555968D01*
X2169791Y-555963D01*
X2169790Y-555963D01*
X2089790Y-555963D01*
X2089785Y-555967D01*
X2089785Y-555968D01*
X2089785Y-620963D01*
X2074790Y-620963D01*
X2074785Y-620967D01*
X2074785Y-620968D01*
X2074785Y-661168D01*
X2074789Y-661173D01*
X2074790Y-661173D01*
X2184790Y-661173D01*
X2184795Y-661169D01*
G37*
G36*
X513475Y-661169D02*
X513475Y-661169D01*
X513475Y-661168D01*
X513475Y-620968D01*
X513471Y-620963D01*
X513470Y-620963D01*
X498475Y-620963D01*
X498475Y-555968D01*
X498471Y-555963D01*
X498470Y-555963D01*
X418470Y-555963D01*
X418465Y-555967D01*
X418465Y-555968D01*
X418465Y-620963D01*
X403470Y-620963D01*
X403465Y-620967D01*
X403465Y-620968D01*
X403465Y-661168D01*
X403469Y-661173D01*
X403470Y-661173D01*
X513470Y-661173D01*
X513475Y-661169D01*
G37*
G36*
X679337Y-659899D02*
X679337Y-659899D01*
X679337Y-659898D01*
X679337Y-619698D01*
X679333Y-619693D01*
X679332Y-619693D01*
X664337Y-619693D01*
X664337Y-554698D01*
X664333Y-554693D01*
X664332Y-554693D01*
X584332Y-554693D01*
X584327Y-554697D01*
X584327Y-554698D01*
X584327Y-619693D01*
X569332Y-619693D01*
X569327Y-619697D01*
X569327Y-619698D01*
X569327Y-659898D01*
X569331Y-659903D01*
X569332Y-659903D01*
X679332Y-659903D01*
X679337Y-659899D01*
G37*
G36*
X1817381Y-418983D02*
X1817381Y-418983D01*
X1817381Y-418982D01*
X1817381Y-308982D01*
X1817377Y-308977D01*
X1817376Y-308977D01*
X1777176Y-308977D01*
X1777171Y-308981D01*
X1777171Y-308982D01*
X1777171Y-323977D01*
X1712176Y-323977D01*
X1712171Y-323981D01*
X1712171Y-323982D01*
X1712171Y-403982D01*
X1712175Y-403987D01*
X1712176Y-403987D01*
X1777171Y-403987D01*
X1777171Y-418982D01*
X1777175Y-418987D01*
X1777176Y-418987D01*
X1817376Y-418987D01*
X1817381Y-418983D01*
G37*
G36*
X2537587Y-404915D02*
X2537587Y-404915D01*
X2537587Y-404914D01*
X2537587Y-339919D01*
X2552582Y-339919D01*
X2552587Y-339915D01*
X2552587Y-339914D01*
X2552587Y-299714D01*
X2552583Y-299709D01*
X2552582Y-299709D01*
X2442582Y-299709D01*
X2442577Y-299713D01*
X2442577Y-299714D01*
X2442577Y-339914D01*
X2442581Y-339919D01*
X2442582Y-339919D01*
X2457577Y-339919D01*
X2457577Y-404914D01*
X2457581Y-404919D01*
X2457582Y-404919D01*
X2537582Y-404919D01*
X2537587Y-404915D01*
G37*
G36*
X823087Y-298235D02*
X823087Y-298235D01*
X823087Y-298234D01*
X823087Y-233239D01*
X838082Y-233239D01*
X838087Y-233235D01*
X838087Y-233234D01*
X838087Y-193034D01*
X838083Y-193029D01*
X838082Y-193029D01*
X728082Y-193029D01*
X728077Y-193033D01*
X728077Y-193034D01*
X728077Y-233234D01*
X728081Y-233239D01*
X728082Y-233239D01*
X743077Y-233239D01*
X743077Y-298234D01*
X743081Y-298239D01*
X743082Y-298239D01*
X823082Y-298239D01*
X823087Y-298235D01*
G37*
G36*
X1703959Y-550457D02*
X1703959Y-550457D01*
X1703959Y-550456D01*
X1703959Y-485461D01*
X1718954Y-485461D01*
X1718959Y-485457D01*
X1718959Y-485456D01*
X1718959Y-445256D01*
X1718955Y-445251D01*
X1718954Y-445251D01*
X1608954Y-445251D01*
X1608949Y-445255D01*
X1608949Y-445256D01*
X1608949Y-485456D01*
X1608953Y-485461D01*
X1608954Y-485461D01*
X1623949Y-485461D01*
X1623949Y-550456D01*
X1623953Y-550461D01*
X1623954Y-550461D01*
X1703954Y-550461D01*
X1703959Y-550457D01*
G37*
G36*
X1831975Y-550203D02*
X1831975Y-550203D01*
X1831975Y-550202D01*
X1831975Y-485207D01*
X1846970Y-485207D01*
X1846975Y-485203D01*
X1846975Y-485202D01*
X1846975Y-445002D01*
X1846971Y-444997D01*
X1846970Y-444997D01*
X1736970Y-444997D01*
X1736965Y-445001D01*
X1736965Y-445002D01*
X1736965Y-485202D01*
X1736969Y-485207D01*
X1736970Y-485207D01*
X1751965Y-485207D01*
X1751965Y-550202D01*
X1751969Y-550207D01*
X1751970Y-550207D01*
X1831970Y-550207D01*
X1831975Y-550203D01*
G37*
G36*
X2231517Y-374435D02*
X2231517Y-374435D01*
X2231517Y-374434D01*
X2231517Y-309439D01*
X2246512Y-309439D01*
X2246517Y-309435D01*
X2246517Y-309434D01*
X2246517Y-269234D01*
X2246513Y-269229D01*
X2246512Y-269229D01*
X2136512Y-269229D01*
X2136507Y-269233D01*
X2136507Y-269234D01*
X2136507Y-309434D01*
X2136511Y-309439D01*
X2136512Y-309439D01*
X2151507Y-309439D01*
X2151507Y-374434D01*
X2151511Y-374439D01*
X2151512Y-374439D01*
X2231512Y-374439D01*
X2231517Y-374435D01*
G37*
G36*
X692785Y-373673D02*
X692785Y-373673D01*
X692785Y-373672D01*
X692785Y-308677D01*
X707780Y-308677D01*
X707785Y-308673D01*
X707785Y-308672D01*
X707785Y-268472D01*
X707781Y-268467D01*
X707780Y-268467D01*
X597780Y-268467D01*
X597775Y-268471D01*
X597775Y-268472D01*
X597775Y-308672D01*
X597779Y-308677D01*
X597780Y-308677D01*
X612775Y-308677D01*
X612775Y-373672D01*
X612779Y-373677D01*
X612780Y-373677D01*
X692780Y-373677D01*
X692785Y-373673D01*
G37*
G36*
X2386965Y-297473D02*
X2386965Y-297473D01*
X2386965Y-297472D01*
X2386965Y-232477D01*
X2401960Y-232477D01*
X2401965Y-232473D01*
X2401965Y-232472D01*
X2401965Y-192272D01*
X2401961Y-192267D01*
X2401960Y-192267D01*
X2291960Y-192267D01*
X2291955Y-192271D01*
X2291955Y-192272D01*
X2291955Y-232472D01*
X2291959Y-232477D01*
X2291960Y-232477D01*
X2306955Y-232477D01*
X2306955Y-297472D01*
X2306959Y-297477D01*
X2306960Y-297477D01*
X2386960Y-297477D01*
X2386965Y-297473D01*
G37*
G36*
X2099437Y-296965D02*
X2099437Y-296965D01*
X2099437Y-296964D01*
X2099437Y-231969D01*
X2114432Y-231969D01*
X2114437Y-231965D01*
X2114437Y-231964D01*
X2114437Y-191764D01*
X2114433Y-191759D01*
X2114432Y-191759D01*
X2004432Y-191759D01*
X2004427Y-191763D01*
X2004427Y-191764D01*
X2004427Y-231964D01*
X2004431Y-231969D01*
X2004432Y-231969D01*
X2019427Y-231969D01*
X2019427Y-296964D01*
X2019431Y-296969D01*
X2019432Y-296969D01*
X2099432Y-296969D01*
X2099437Y-296965D01*
G37*
G36*
X150495Y-297473D02*
X150495Y-297473D01*
X150495Y-297472D01*
X150495Y-232477D01*
X165490Y-232477D01*
X165495Y-232473D01*
X165495Y-232472D01*
X165495Y-192272D01*
X165491Y-192267D01*
X165490Y-192267D01*
X55490Y-192267D01*
X55485Y-192271D01*
X55485Y-192272D01*
X55485Y-232472D01*
X55489Y-232477D01*
X55490Y-232477D01*
X70485Y-232477D01*
X70485Y-297472D01*
X70489Y-297477D01*
X70490Y-297477D01*
X150490Y-297477D01*
X150495Y-297473D01*
G37*
G36*
X332867Y-387135D02*
X332867Y-387135D01*
X332867Y-387134D01*
X332867Y-322139D01*
X347862Y-322139D01*
X347867Y-322135D01*
X347867Y-322134D01*
X347867Y-281934D01*
X347863Y-281929D01*
X347862Y-281929D01*
X237862Y-281929D01*
X237857Y-281933D01*
X237857Y-281934D01*
X237857Y-322134D01*
X237861Y-322139D01*
X237862Y-322139D01*
X252857Y-322139D01*
X252857Y-387134D01*
X252861Y-387139D01*
X252862Y-387139D01*
X332862Y-387139D01*
X332867Y-387135D01*
G37*
G36*
X527177Y-309665D02*
X527177Y-309665D01*
X527177Y-309664D01*
X527177Y-244669D01*
X542172Y-244669D01*
X542177Y-244665D01*
X542177Y-244664D01*
X542177Y-204464D01*
X542173Y-204459D01*
X542172Y-204459D01*
X432172Y-204459D01*
X432167Y-204463D01*
X432167Y-204464D01*
X432167Y-244664D01*
X432171Y-244669D01*
X432172Y-244669D01*
X447167Y-244669D01*
X447167Y-309664D01*
X447171Y-309669D01*
X447172Y-309669D01*
X527172Y-309669D01*
X527177Y-309665D01*
G37*
G36*
X922046Y-407920D02*
X922046Y-407920D01*
X922072Y-407922D01*
X922219Y-407900D01*
X922366Y-407883D01*
X922391Y-407875D01*
X922417Y-407871D01*
X922555Y-407816D01*
X922694Y-407766D01*
X922716Y-407752D01*
X922741Y-407742D01*
X922862Y-407657D01*
X922987Y-407577D01*
X923005Y-407558D01*
X923027Y-407543D01*
X923126Y-407433D01*
X923229Y-407326D01*
X923243Y-407304D01*
X923260Y-407284D01*
X923332Y-407154D01*
X923408Y-407027D01*
X923416Y-407002D01*
X923429Y-406979D01*
X923469Y-406836D01*
X923514Y-406695D01*
X923516Y-406669D01*
X923524Y-406644D01*
X923543Y-406400D01*
X923543Y-358140D01*
X923540Y-358114D01*
X923542Y-358088D01*
X923520Y-357941D01*
X923503Y-357794D01*
X923495Y-357769D01*
X923491Y-357743D01*
X923436Y-357605D01*
X923386Y-357466D01*
X923372Y-357444D01*
X923362Y-357419D01*
X923277Y-357298D01*
X923197Y-357173D01*
X923178Y-357155D01*
X923163Y-357133D01*
X923053Y-357034D01*
X922946Y-356931D01*
X922924Y-356917D01*
X922904Y-356900D01*
X922774Y-356828D01*
X922647Y-356752D01*
X922622Y-356744D01*
X922599Y-356731D01*
X922456Y-356691D01*
X922315Y-356646D01*
X922289Y-356644D01*
X922264Y-356636D01*
X922020Y-356617D01*
X858520Y-356617D01*
X858494Y-356620D01*
X858468Y-356618D01*
X858321Y-356640D01*
X858174Y-356657D01*
X858149Y-356665D01*
X858123Y-356669D01*
X857985Y-356724D01*
X857846Y-356774D01*
X857824Y-356788D01*
X857799Y-356798D01*
X857678Y-356883D01*
X857553Y-356963D01*
X857535Y-356982D01*
X857513Y-356997D01*
X857414Y-357107D01*
X857311Y-357214D01*
X857297Y-357236D01*
X857280Y-357256D01*
X857208Y-357386D01*
X857132Y-357513D01*
X857124Y-357538D01*
X857111Y-357561D01*
X857071Y-357704D01*
X857026Y-357845D01*
X857024Y-357871D01*
X857016Y-357896D01*
X856997Y-358140D01*
X856997Y-406400D01*
X857000Y-406426D01*
X856998Y-406452D01*
X857020Y-406599D01*
X857037Y-406746D01*
X857045Y-406771D01*
X857049Y-406797D01*
X857104Y-406935D01*
X857154Y-407074D01*
X857168Y-407096D01*
X857178Y-407121D01*
X857263Y-407242D01*
X857343Y-407367D01*
X857362Y-407385D01*
X857377Y-407407D01*
X857487Y-407506D01*
X857594Y-407609D01*
X857616Y-407623D01*
X857636Y-407640D01*
X857766Y-407712D01*
X857893Y-407788D01*
X857918Y-407796D01*
X857941Y-407809D01*
X858084Y-407849D01*
X858225Y-407894D01*
X858251Y-407896D01*
X858276Y-407904D01*
X858520Y-407923D01*
X922020Y-407923D01*
X922046Y-407920D01*
G37*
G36*
X1976238Y-336534D02*
X1976238Y-336534D01*
X1976357Y-336527D01*
X1976395Y-336514D01*
X1976436Y-336509D01*
X1976546Y-336466D01*
X1976659Y-336429D01*
X1976694Y-336407D01*
X1976731Y-336392D01*
X1976827Y-336323D01*
X1976928Y-336259D01*
X1976956Y-336229D01*
X1976989Y-336206D01*
X1977065Y-336114D01*
X1977146Y-336027D01*
X1977166Y-335992D01*
X1977191Y-335961D01*
X1977242Y-335853D01*
X1977300Y-335749D01*
X1977310Y-335709D01*
X1977327Y-335673D01*
X1977349Y-335556D01*
X1977379Y-335441D01*
X1977383Y-335381D01*
X1977387Y-335361D01*
X1977385Y-335340D01*
X1977389Y-335280D01*
X1977389Y-287020D01*
X1977374Y-286902D01*
X1977367Y-286783D01*
X1977354Y-286745D01*
X1977349Y-286704D01*
X1977306Y-286594D01*
X1977269Y-286481D01*
X1977247Y-286446D01*
X1977232Y-286409D01*
X1977163Y-286313D01*
X1977099Y-286212D01*
X1977069Y-286184D01*
X1977046Y-286151D01*
X1976954Y-286076D01*
X1976867Y-285994D01*
X1976832Y-285974D01*
X1976801Y-285949D01*
X1976693Y-285898D01*
X1976589Y-285840D01*
X1976549Y-285830D01*
X1976513Y-285813D01*
X1976396Y-285791D01*
X1976281Y-285761D01*
X1976221Y-285757D01*
X1976201Y-285753D01*
X1976180Y-285755D01*
X1976120Y-285751D01*
X1922780Y-285751D01*
X1922662Y-285766D01*
X1922543Y-285773D01*
X1922505Y-285786D01*
X1922464Y-285791D01*
X1922354Y-285834D01*
X1922241Y-285871D01*
X1922206Y-285893D01*
X1922169Y-285908D01*
X1922073Y-285978D01*
X1921972Y-286041D01*
X1921944Y-286071D01*
X1921911Y-286094D01*
X1921836Y-286186D01*
X1921754Y-286273D01*
X1921734Y-286308D01*
X1921709Y-286339D01*
X1921658Y-286447D01*
X1921600Y-286551D01*
X1921590Y-286591D01*
X1921573Y-286627D01*
X1921551Y-286744D01*
X1921521Y-286859D01*
X1921517Y-286920D01*
X1921513Y-286940D01*
X1921515Y-286960D01*
X1921514Y-286962D01*
X1921513Y-286968D01*
X1921514Y-286974D01*
X1921511Y-287020D01*
X1921511Y-335280D01*
X1921526Y-335398D01*
X1921533Y-335517D01*
X1921546Y-335555D01*
X1921551Y-335596D01*
X1921594Y-335706D01*
X1921631Y-335819D01*
X1921653Y-335854D01*
X1921668Y-335891D01*
X1921738Y-335987D01*
X1921801Y-336088D01*
X1921831Y-336116D01*
X1921854Y-336149D01*
X1921946Y-336225D01*
X1922033Y-336306D01*
X1922068Y-336326D01*
X1922099Y-336351D01*
X1922207Y-336402D01*
X1922311Y-336460D01*
X1922351Y-336470D01*
X1922387Y-336487D01*
X1922504Y-336509D01*
X1922619Y-336539D01*
X1922680Y-336543D01*
X1922700Y-336547D01*
X1922720Y-336545D01*
X1922780Y-336549D01*
X1976120Y-336549D01*
X1976238Y-336534D01*
G37*
G36*
X1873052Y-364477D02*
X1873052Y-364477D01*
X1873151Y-364474D01*
X1873209Y-364457D01*
X1873269Y-364449D01*
X1873361Y-364413D01*
X1873456Y-364385D01*
X1873509Y-364355D01*
X1873565Y-364332D01*
X1873645Y-364274D01*
X1873730Y-364224D01*
X1873780Y-364180D01*
X1883982Y-364180D01*
X1883999Y-364195D01*
X1884018Y-364204D01*
X1884034Y-364216D01*
X1884162Y-364272D01*
X1884287Y-364331D01*
X1884307Y-364334D01*
X1884326Y-364342D01*
X1884464Y-364364D01*
X1884600Y-364390D01*
X1884620Y-364389D01*
X1884640Y-364392D01*
X1884779Y-364379D01*
X1884917Y-364371D01*
X1884936Y-364364D01*
X1884956Y-364363D01*
X1885088Y-364315D01*
X1885219Y-364273D01*
X1885237Y-364262D01*
X1885256Y-364255D01*
X1885371Y-364177D01*
X1885488Y-364102D01*
X1885502Y-364088D01*
X1885519Y-364076D01*
X1885611Y-363972D01*
X1885706Y-363871D01*
X1885716Y-363853D01*
X1885729Y-363838D01*
X1885793Y-363714D01*
X1885860Y-363592D01*
X1885865Y-363573D01*
X1885874Y-363555D01*
X1885904Y-363419D01*
X1885939Y-363284D01*
X1885941Y-363256D01*
X1885944Y-363244D01*
X1885943Y-363224D01*
X1885949Y-363124D01*
X1885949Y-292100D01*
X1885934Y-291982D01*
X1885927Y-291863D01*
X1885914Y-291825D01*
X1885909Y-291784D01*
X1885866Y-291674D01*
X1885829Y-291561D01*
X1885807Y-291526D01*
X1885792Y-291489D01*
X1885723Y-291393D01*
X1885659Y-291292D01*
X1885629Y-291264D01*
X1885606Y-291231D01*
X1885514Y-291156D01*
X1885427Y-291074D01*
X1885392Y-291054D01*
X1885361Y-291029D01*
X1885253Y-290978D01*
X1885149Y-290920D01*
X1885109Y-290910D01*
X1885073Y-290893D01*
X1884956Y-290871D01*
X1884841Y-290841D01*
X1884781Y-290837D01*
X1884761Y-290833D01*
X1884740Y-290835D01*
X1884680Y-290831D01*
X1851660Y-290831D01*
X1851542Y-290846D01*
X1851423Y-290853D01*
X1851385Y-290866D01*
X1851344Y-290871D01*
X1851234Y-290914D01*
X1851121Y-290951D01*
X1851086Y-290973D01*
X1851049Y-290988D01*
X1850953Y-291058D01*
X1850852Y-291121D01*
X1850824Y-291151D01*
X1850791Y-291174D01*
X1850716Y-291266D01*
X1850634Y-291353D01*
X1850614Y-291388D01*
X1850589Y-291419D01*
X1850538Y-291527D01*
X1850480Y-291631D01*
X1850470Y-291671D01*
X1850453Y-291707D01*
X1850431Y-291824D01*
X1850401Y-291939D01*
X1850397Y-292000D01*
X1850393Y-292020D01*
X1850395Y-292040D01*
X1850391Y-292100D01*
X1850391Y-363220D01*
X1850406Y-363338D01*
X1850413Y-363457D01*
X1850426Y-363495D01*
X1850431Y-363536D01*
X1850474Y-363646D01*
X1850511Y-363759D01*
X1850533Y-363794D01*
X1850548Y-363831D01*
X1850618Y-363927D01*
X1850681Y-364028D01*
X1850711Y-364056D01*
X1850734Y-364089D01*
X1850826Y-364165D01*
X1850913Y-364246D01*
X1850948Y-364266D01*
X1850979Y-364291D01*
X1851087Y-364342D01*
X1851191Y-364400D01*
X1851231Y-364410D01*
X1851267Y-364427D01*
X1851384Y-364449D01*
X1851499Y-364479D01*
X1851560Y-364483D01*
X1851580Y-364487D01*
X1851600Y-364485D01*
X1851660Y-364489D01*
X1872954Y-364489D01*
X1873052Y-364477D01*
G37*
G36*
X1901470Y-377440D02*
X1901470Y-377440D01*
X1901496Y-377442D01*
X1901643Y-377420D01*
X1901790Y-377403D01*
X1901815Y-377395D01*
X1901841Y-377391D01*
X1901979Y-377336D01*
X1902118Y-377286D01*
X1902140Y-377272D01*
X1902165Y-377262D01*
X1902286Y-377177D01*
X1902411Y-377097D01*
X1902429Y-377078D01*
X1902451Y-377063D01*
X1902550Y-376953D01*
X1902653Y-376846D01*
X1902667Y-376824D01*
X1902684Y-376804D01*
X1902756Y-376674D01*
X1902832Y-376547D01*
X1902840Y-376522D01*
X1902853Y-376499D01*
X1902893Y-376356D01*
X1902938Y-376215D01*
X1902940Y-376189D01*
X1902948Y-376164D01*
X1902967Y-375920D01*
X1902967Y-364743D01*
X1914705Y-364743D01*
X1914830Y-364729D01*
X1914956Y-364722D01*
X1915003Y-364709D01*
X1915051Y-364703D01*
X1915170Y-364661D01*
X1915291Y-364626D01*
X1915333Y-364602D01*
X1915379Y-364586D01*
X1915485Y-364517D01*
X1915595Y-364456D01*
X1915642Y-364416D01*
X1915672Y-364397D01*
X1915705Y-364362D01*
X1915782Y-364297D01*
X1915898Y-364180D01*
X1926052Y-364180D01*
X1926168Y-364297D01*
X1926267Y-364376D01*
X1926361Y-364460D01*
X1926404Y-364484D01*
X1926441Y-364514D01*
X1926556Y-364568D01*
X1926666Y-364629D01*
X1926713Y-364642D01*
X1926756Y-364663D01*
X1926880Y-364689D01*
X1927002Y-364724D01*
X1927062Y-364729D01*
X1927097Y-364736D01*
X1927145Y-364735D01*
X1927245Y-364743D01*
X1931417Y-364743D01*
X1931417Y-370840D01*
X1931420Y-370866D01*
X1931418Y-370892D01*
X1931440Y-371039D01*
X1931457Y-371186D01*
X1931465Y-371211D01*
X1931469Y-371237D01*
X1931524Y-371375D01*
X1931574Y-371514D01*
X1931588Y-371536D01*
X1931598Y-371561D01*
X1931683Y-371682D01*
X1931763Y-371807D01*
X1931782Y-371825D01*
X1931797Y-371847D01*
X1931907Y-371946D01*
X1932014Y-372049D01*
X1932036Y-372063D01*
X1932056Y-372080D01*
X1932186Y-372152D01*
X1932313Y-372228D01*
X1932338Y-372236D01*
X1932361Y-372249D01*
X1932504Y-372289D01*
X1932645Y-372334D01*
X1932671Y-372336D01*
X1932696Y-372344D01*
X1932940Y-372363D01*
X1981200Y-372363D01*
X1981226Y-372360D01*
X1981252Y-372362D01*
X1981399Y-372340D01*
X1981546Y-372323D01*
X1981571Y-372315D01*
X1981597Y-372311D01*
X1981735Y-372256D01*
X1981874Y-372206D01*
X1981896Y-372192D01*
X1981921Y-372182D01*
X1982042Y-372097D01*
X1982167Y-372017D01*
X1982185Y-371998D01*
X1982207Y-371983D01*
X1982306Y-371873D01*
X1982409Y-371766D01*
X1982423Y-371744D01*
X1982440Y-371724D01*
X1982512Y-371594D01*
X1982588Y-371467D01*
X1982596Y-371442D01*
X1982609Y-371419D01*
X1982649Y-371276D01*
X1982694Y-371135D01*
X1982696Y-371109D01*
X1982704Y-371084D01*
X1982723Y-370840D01*
X1982723Y-342900D01*
X1982720Y-342874D01*
X1982722Y-342848D01*
X1982700Y-342701D01*
X1982683Y-342554D01*
X1982675Y-342529D01*
X1982671Y-342503D01*
X1982616Y-342365D01*
X1982566Y-342226D01*
X1982552Y-342204D01*
X1982542Y-342179D01*
X1982457Y-342058D01*
X1982377Y-341933D01*
X1982358Y-341915D01*
X1982343Y-341893D01*
X1982233Y-341794D01*
X1982126Y-341691D01*
X1982104Y-341677D01*
X1982084Y-341660D01*
X1981954Y-341588D01*
X1981827Y-341512D01*
X1981802Y-341504D01*
X1981779Y-341491D01*
X1981636Y-341451D01*
X1981495Y-341406D01*
X1981469Y-341404D01*
X1981444Y-341396D01*
X1981200Y-341377D01*
X1897380Y-341377D01*
X1897354Y-341380D01*
X1897328Y-341378D01*
X1897181Y-341400D01*
X1897034Y-341417D01*
X1897009Y-341425D01*
X1896983Y-341429D01*
X1896845Y-341484D01*
X1896706Y-341534D01*
X1896684Y-341548D01*
X1896659Y-341558D01*
X1896538Y-341643D01*
X1896413Y-341723D01*
X1896395Y-341742D01*
X1896373Y-341757D01*
X1896274Y-341867D01*
X1896171Y-341974D01*
X1896157Y-341996D01*
X1896140Y-342016D01*
X1896068Y-342146D01*
X1895992Y-342273D01*
X1895984Y-342298D01*
X1895971Y-342321D01*
X1895931Y-342464D01*
X1895886Y-342605D01*
X1895884Y-342631D01*
X1895876Y-342656D01*
X1895857Y-342900D01*
X1895857Y-363220D01*
X1895860Y-363246D01*
X1895858Y-363272D01*
X1895880Y-363419D01*
X1895897Y-363566D01*
X1895905Y-363591D01*
X1895909Y-363617D01*
X1895964Y-363755D01*
X1896014Y-363894D01*
X1896028Y-363916D01*
X1896038Y-363941D01*
X1896123Y-364062D01*
X1896203Y-364187D01*
X1896222Y-364205D01*
X1896237Y-364227D01*
X1896347Y-364326D01*
X1896454Y-364429D01*
X1896476Y-364443D01*
X1896496Y-364460D01*
X1896626Y-364532D01*
X1896753Y-364608D01*
X1896778Y-364616D01*
X1896801Y-364629D01*
X1896873Y-364649D01*
X1896873Y-375920D01*
X1896876Y-375946D01*
X1896874Y-375972D01*
X1896896Y-376119D01*
X1896913Y-376266D01*
X1896921Y-376291D01*
X1896925Y-376317D01*
X1896980Y-376455D01*
X1897030Y-376594D01*
X1897044Y-376616D01*
X1897054Y-376641D01*
X1897139Y-376762D01*
X1897219Y-376887D01*
X1897238Y-376905D01*
X1897253Y-376927D01*
X1897363Y-377026D01*
X1897470Y-377129D01*
X1897492Y-377143D01*
X1897512Y-377160D01*
X1897642Y-377232D01*
X1897769Y-377308D01*
X1897794Y-377316D01*
X1897817Y-377329D01*
X1897960Y-377369D01*
X1898101Y-377414D01*
X1898127Y-377416D01*
X1898152Y-377424D01*
X1898396Y-377443D01*
X1901444Y-377443D01*
X1901470Y-377440D01*
G37*
G36*
X947440Y-353818D02*
X947440Y-353818D01*
X947459Y-353820D01*
X947561Y-353798D01*
X947663Y-353782D01*
X947680Y-353772D01*
X947700Y-353768D01*
X947789Y-353715D01*
X947880Y-353666D01*
X947894Y-353652D01*
X947911Y-353642D01*
X947978Y-353563D01*
X948050Y-353488D01*
X948058Y-353470D01*
X948071Y-353455D01*
X948110Y-353359D01*
X948153Y-353265D01*
X948155Y-353245D01*
X948163Y-353227D01*
X948181Y-353060D01*
X948181Y-322580D01*
X948180Y-322572D01*
X948180Y-322571D01*
X948178Y-322561D01*
X948178Y-322560D01*
X948180Y-322541D01*
X948158Y-322439D01*
X948142Y-322337D01*
X948132Y-322320D01*
X948128Y-322300D01*
X948075Y-322211D01*
X948026Y-322120D01*
X948012Y-322106D01*
X948002Y-322089D01*
X947923Y-322022D01*
X947848Y-321951D01*
X947830Y-321942D01*
X947815Y-321929D01*
X947719Y-321890D01*
X947625Y-321847D01*
X947605Y-321845D01*
X947587Y-321837D01*
X947420Y-321819D01*
X929640Y-321819D01*
X929620Y-321822D01*
X929601Y-321820D01*
X929499Y-321842D01*
X929397Y-321859D01*
X929380Y-321868D01*
X929360Y-321872D01*
X929271Y-321925D01*
X929180Y-321974D01*
X929166Y-321988D01*
X929149Y-321998D01*
X929082Y-322077D01*
X929011Y-322152D01*
X929002Y-322170D01*
X928989Y-322185D01*
X928950Y-322281D01*
X928907Y-322375D01*
X928905Y-322395D01*
X928897Y-322413D01*
X928879Y-322580D01*
X928879Y-331979D01*
X858520Y-331979D01*
X858500Y-331982D01*
X858481Y-331980D01*
X858379Y-332002D01*
X858277Y-332019D01*
X858260Y-332028D01*
X858240Y-332032D01*
X858151Y-332085D01*
X858060Y-332134D01*
X858046Y-332148D01*
X858029Y-332158D01*
X857962Y-332237D01*
X857891Y-332312D01*
X857882Y-332330D01*
X857869Y-332345D01*
X857830Y-332441D01*
X857787Y-332535D01*
X857785Y-332555D01*
X857777Y-332573D01*
X857759Y-332740D01*
X857759Y-353060D01*
X857762Y-353080D01*
X857760Y-353099D01*
X857782Y-353201D01*
X857799Y-353303D01*
X857808Y-353320D01*
X857812Y-353340D01*
X857865Y-353429D01*
X857914Y-353520D01*
X857928Y-353534D01*
X857938Y-353551D01*
X858017Y-353618D01*
X858092Y-353690D01*
X858110Y-353698D01*
X858125Y-353711D01*
X858221Y-353750D01*
X858315Y-353793D01*
X858335Y-353795D01*
X858353Y-353803D01*
X858520Y-353821D01*
X947420Y-353821D01*
X947440Y-353818D01*
G37*
G36*
X2702398Y-414016D02*
X2702398Y-414016D01*
X2702417Y-414018D01*
X2702519Y-413996D01*
X2702621Y-413980D01*
X2702638Y-413970D01*
X2702658Y-413966D01*
X2702747Y-413913D01*
X2702838Y-413864D01*
X2702852Y-413850D01*
X2702869Y-413840D01*
X2702936Y-413761D01*
X2703008Y-413686D01*
X2703016Y-413668D01*
X2703029Y-413653D01*
X2703068Y-413557D01*
X2703111Y-413463D01*
X2703113Y-413443D01*
X2703121Y-413425D01*
X2703139Y-413258D01*
X2703139Y-410343D01*
X2709418Y-410343D01*
X2709438Y-410340D01*
X2709457Y-410342D01*
X2709559Y-410320D01*
X2709661Y-410303D01*
X2709678Y-410294D01*
X2709698Y-410290D01*
X2709787Y-410237D01*
X2709878Y-410188D01*
X2709892Y-410174D01*
X2709909Y-410164D01*
X2709976Y-410085D01*
X2710047Y-410010D01*
X2710056Y-409992D01*
X2710069Y-409977D01*
X2710108Y-409881D01*
X2710151Y-409787D01*
X2710153Y-409767D01*
X2710161Y-409749D01*
X2710179Y-409582D01*
X2710179Y-408058D01*
X2710176Y-408038D01*
X2710178Y-408019D01*
X2710156Y-407917D01*
X2710139Y-407815D01*
X2710130Y-407798D01*
X2710126Y-407778D01*
X2710073Y-407689D01*
X2710024Y-407598D01*
X2710010Y-407584D01*
X2710000Y-407567D01*
X2709921Y-407500D01*
X2709846Y-407429D01*
X2709828Y-407420D01*
X2709813Y-407407D01*
X2709717Y-407368D01*
X2709623Y-407325D01*
X2709603Y-407323D01*
X2709585Y-407315D01*
X2709418Y-407297D01*
X2703139Y-407297D01*
X2703139Y-403986D01*
X2703312Y-403339D01*
X2703647Y-402760D01*
X2704120Y-402287D01*
X2704653Y-401979D01*
X2704690Y-401949D01*
X2704732Y-401926D01*
X2704785Y-401872D01*
X2704843Y-401824D01*
X2704869Y-401783D01*
X2704902Y-401748D01*
X2704934Y-401679D01*
X2704974Y-401615D01*
X2704985Y-401569D01*
X2705005Y-401525D01*
X2705014Y-401450D01*
X2705031Y-401376D01*
X2705027Y-401328D01*
X2705032Y-401281D01*
X2705016Y-401206D01*
X2705010Y-401131D01*
X2704990Y-401087D01*
X2704980Y-401040D01*
X2704941Y-400975D01*
X2704911Y-400906D01*
X2704879Y-400870D01*
X2704854Y-400829D01*
X2704796Y-400780D01*
X2704745Y-400724D01*
X2704704Y-400700D01*
X2704667Y-400669D01*
X2704597Y-400641D01*
X2704531Y-400604D01*
X2704483Y-400595D01*
X2704439Y-400577D01*
X2704311Y-400563D01*
X2704289Y-400559D01*
X2704282Y-400560D01*
X2704272Y-400559D01*
X2695701Y-400559D01*
X2695701Y-391160D01*
X2695699Y-391149D01*
X2695700Y-391142D01*
X2695699Y-391135D01*
X2695700Y-391121D01*
X2695678Y-391019D01*
X2695662Y-390917D01*
X2695652Y-390900D01*
X2695648Y-390880D01*
X2695595Y-390791D01*
X2695546Y-390700D01*
X2695532Y-390686D01*
X2695522Y-390669D01*
X2695443Y-390602D01*
X2695368Y-390531D01*
X2695350Y-390522D01*
X2695335Y-390509D01*
X2695239Y-390470D01*
X2695145Y-390427D01*
X2695125Y-390425D01*
X2695107Y-390417D01*
X2694940Y-390399D01*
X2687121Y-390399D01*
X2687073Y-390407D01*
X2687025Y-390405D01*
X2686953Y-390426D01*
X2686878Y-390439D01*
X2686835Y-390461D01*
X2686789Y-390475D01*
X2686727Y-390518D01*
X2686661Y-390554D01*
X2686628Y-390588D01*
X2686588Y-390616D01*
X2686543Y-390677D01*
X2686491Y-390732D01*
X2686471Y-390775D01*
X2686443Y-390814D01*
X2686419Y-390886D01*
X2686388Y-390955D01*
X2686382Y-391003D01*
X2686368Y-391048D01*
X2686369Y-391124D01*
X2686360Y-391199D01*
X2686371Y-391246D01*
X2686371Y-391294D01*
X2686397Y-391366D01*
X2686413Y-391440D01*
X2686437Y-391481D01*
X2686453Y-391526D01*
X2686500Y-391586D01*
X2686539Y-391651D01*
X2686575Y-391682D01*
X2686605Y-391720D01*
X2686709Y-391796D01*
X2686726Y-391811D01*
X2686732Y-391813D01*
X2686740Y-391819D01*
X2687356Y-392175D01*
X2687829Y-392648D01*
X2688164Y-393227D01*
X2688337Y-393874D01*
X2688337Y-397130D01*
X2683002Y-397130D01*
X2682982Y-397133D01*
X2682963Y-397131D01*
X2682861Y-397153D01*
X2682759Y-397170D01*
X2682742Y-397179D01*
X2682722Y-397183D01*
X2682633Y-397236D01*
X2682542Y-397285D01*
X2682528Y-397299D01*
X2682511Y-397309D01*
X2682444Y-397388D01*
X2682373Y-397463D01*
X2682364Y-397481D01*
X2682351Y-397496D01*
X2682312Y-397592D01*
X2682269Y-397686D01*
X2682267Y-397706D01*
X2682259Y-397724D01*
X2682241Y-397891D01*
X2682241Y-398654D01*
X2682239Y-398654D01*
X2682239Y-397891D01*
X2682236Y-397871D01*
X2682238Y-397852D01*
X2682216Y-397750D01*
X2682199Y-397648D01*
X2682190Y-397631D01*
X2682186Y-397611D01*
X2682133Y-397522D01*
X2682084Y-397431D01*
X2682070Y-397417D01*
X2682060Y-397400D01*
X2681981Y-397333D01*
X2681906Y-397262D01*
X2681888Y-397253D01*
X2681873Y-397240D01*
X2681777Y-397201D01*
X2681683Y-397158D01*
X2681663Y-397156D01*
X2681645Y-397148D01*
X2681478Y-397130D01*
X2676143Y-397130D01*
X2676143Y-393874D01*
X2676316Y-393227D01*
X2676651Y-392648D01*
X2677124Y-392175D01*
X2677740Y-391819D01*
X2677771Y-391794D01*
X2677782Y-391788D01*
X2677785Y-391785D01*
X2677819Y-391766D01*
X2677872Y-391712D01*
X2677930Y-391664D01*
X2677956Y-391623D01*
X2677989Y-391588D01*
X2678021Y-391519D01*
X2678061Y-391455D01*
X2678072Y-391409D01*
X2678092Y-391365D01*
X2678101Y-391290D01*
X2678119Y-391216D01*
X2678114Y-391168D01*
X2678120Y-391121D01*
X2678103Y-391046D01*
X2678097Y-390971D01*
X2678078Y-390927D01*
X2678067Y-390880D01*
X2678028Y-390815D01*
X2677998Y-390746D01*
X2677966Y-390710D01*
X2677941Y-390669D01*
X2677884Y-390620D01*
X2677833Y-390564D01*
X2677791Y-390540D01*
X2677754Y-390509D01*
X2677684Y-390481D01*
X2677618Y-390444D01*
X2677571Y-390435D01*
X2677526Y-390417D01*
X2677398Y-390403D01*
X2677376Y-390399D01*
X2677369Y-390400D01*
X2677359Y-390399D01*
X2661270Y-390399D01*
X2661176Y-390414D01*
X2661081Y-390423D01*
X2661055Y-390434D01*
X2661027Y-390439D01*
X2660943Y-390483D01*
X2660856Y-390521D01*
X2660835Y-390540D01*
X2660810Y-390554D01*
X2660744Y-390623D01*
X2660674Y-390687D01*
X2660660Y-390711D01*
X2660640Y-390732D01*
X2660600Y-390818D01*
X2660554Y-390902D01*
X2660549Y-390929D01*
X2660537Y-390955D01*
X2660526Y-391050D01*
X2660509Y-391144D01*
X2660513Y-391171D01*
X2660510Y-391199D01*
X2660530Y-391293D01*
X2660543Y-391387D01*
X2660557Y-391419D01*
X2660562Y-391440D01*
X2660574Y-391460D01*
X2660574Y-391462D01*
X2660580Y-391471D01*
X2660611Y-391541D01*
X2660668Y-391639D01*
X2660841Y-392286D01*
X2660841Y-395597D01*
X2655062Y-395597D01*
X2655042Y-395600D01*
X2655023Y-395598D01*
X2654921Y-395620D01*
X2654819Y-395637D01*
X2654802Y-395646D01*
X2654782Y-395650D01*
X2654693Y-395703D01*
X2654602Y-395752D01*
X2654588Y-395766D01*
X2654571Y-395776D01*
X2654504Y-395855D01*
X2654433Y-395930D01*
X2654424Y-395948D01*
X2654411Y-395963D01*
X2654372Y-396059D01*
X2654329Y-396153D01*
X2654327Y-396173D01*
X2654319Y-396191D01*
X2654301Y-396358D01*
X2654301Y-397121D01*
X2653538Y-397121D01*
X2653518Y-397124D01*
X2653499Y-397122D01*
X2653397Y-397144D01*
X2653295Y-397161D01*
X2653278Y-397170D01*
X2653258Y-397174D01*
X2653169Y-397227D01*
X2653078Y-397276D01*
X2653064Y-397290D01*
X2653047Y-397300D01*
X2652980Y-397379D01*
X2652909Y-397454D01*
X2652900Y-397472D01*
X2652887Y-397487D01*
X2652848Y-397583D01*
X2652805Y-397677D01*
X2652803Y-397697D01*
X2652795Y-397715D01*
X2652777Y-397882D01*
X2652777Y-404161D01*
X2649966Y-404161D01*
X2649417Y-404014D01*
X2649298Y-404002D01*
X2649181Y-403989D01*
X2649176Y-403990D01*
X2649172Y-403989D01*
X2649057Y-404016D01*
X2648940Y-404041D01*
X2648937Y-404043D01*
X2648933Y-404044D01*
X2648832Y-404106D01*
X2648729Y-404167D01*
X2648726Y-404170D01*
X2648723Y-404173D01*
X2648646Y-404264D01*
X2648569Y-404354D01*
X2648568Y-404358D01*
X2648565Y-404361D01*
X2648522Y-404472D01*
X2648477Y-404582D01*
X2648477Y-404587D01*
X2648475Y-404590D01*
X2648475Y-404604D01*
X2648459Y-404749D01*
X2648459Y-413258D01*
X2648462Y-413278D01*
X2648460Y-413297D01*
X2648482Y-413399D01*
X2648499Y-413501D01*
X2648508Y-413518D01*
X2648512Y-413538D01*
X2648565Y-413627D01*
X2648614Y-413718D01*
X2648628Y-413732D01*
X2648638Y-413749D01*
X2648717Y-413816D01*
X2648792Y-413888D01*
X2648810Y-413896D01*
X2648825Y-413909D01*
X2648921Y-413948D01*
X2649015Y-413991D01*
X2649035Y-413993D01*
X2649053Y-414001D01*
X2649220Y-414019D01*
X2702378Y-414019D01*
X2702398Y-414016D01*
G37*
G36*
X906800Y-328418D02*
X906800Y-328418D01*
X906819Y-328420D01*
X906921Y-328398D01*
X907023Y-328382D01*
X907040Y-328372D01*
X907060Y-328368D01*
X907149Y-328315D01*
X907240Y-328266D01*
X907254Y-328252D01*
X907271Y-328242D01*
X907338Y-328163D01*
X907410Y-328088D01*
X907418Y-328070D01*
X907431Y-328055D01*
X907470Y-327959D01*
X907513Y-327865D01*
X907515Y-327845D01*
X907523Y-327827D01*
X907541Y-327660D01*
X907541Y-309150D01*
X907527Y-309060D01*
X907519Y-308969D01*
X907507Y-308940D01*
X907502Y-308908D01*
X907459Y-308827D01*
X907423Y-308743D01*
X907397Y-308711D01*
X907386Y-308690D01*
X907363Y-308668D01*
X907318Y-308612D01*
X905508Y-306802D01*
X905434Y-306749D01*
X905364Y-306689D01*
X905334Y-306677D01*
X905308Y-306658D01*
X905221Y-306631D01*
X905136Y-306597D01*
X905095Y-306593D01*
X905073Y-306586D01*
X905041Y-306587D01*
X904970Y-306579D01*
X863600Y-306579D01*
X863580Y-306582D01*
X863561Y-306580D01*
X863459Y-306602D01*
X863357Y-306619D01*
X863340Y-306628D01*
X863320Y-306632D01*
X863231Y-306685D01*
X863140Y-306734D01*
X863126Y-306748D01*
X863109Y-306758D01*
X863042Y-306837D01*
X862971Y-306912D01*
X862962Y-306930D01*
X862949Y-306945D01*
X862910Y-307041D01*
X862867Y-307135D01*
X862865Y-307155D01*
X862857Y-307173D01*
X862839Y-307340D01*
X862839Y-327660D01*
X862842Y-327680D01*
X862840Y-327699D01*
X862862Y-327801D01*
X862879Y-327903D01*
X862888Y-327920D01*
X862892Y-327940D01*
X862945Y-328029D01*
X862994Y-328120D01*
X863008Y-328134D01*
X863018Y-328151D01*
X863097Y-328218D01*
X863172Y-328290D01*
X863190Y-328298D01*
X863205Y-328311D01*
X863301Y-328350D01*
X863395Y-328393D01*
X863415Y-328395D01*
X863433Y-328403D01*
X863600Y-328421D01*
X906780Y-328421D01*
X906800Y-328418D01*
G37*
G36*
X1971098Y-401905D02*
X1971098Y-401905D01*
X1971156Y-401907D01*
X1971238Y-401886D01*
X1971322Y-401874D01*
X1971375Y-401850D01*
X1971431Y-401835D01*
X1971504Y-401792D01*
X1971581Y-401758D01*
X1971626Y-401720D01*
X1971676Y-401690D01*
X1971734Y-401628D01*
X1971798Y-401574D01*
X1971830Y-401525D01*
X1971870Y-401483D01*
X1971909Y-401408D01*
X1971956Y-401337D01*
X1971973Y-401281D01*
X1972000Y-401229D01*
X1972011Y-401161D01*
X1972041Y-401066D01*
X1972044Y-400966D01*
X1972055Y-400898D01*
X1972055Y-388620D01*
X1972047Y-388562D01*
X1972049Y-388504D01*
X1972027Y-388422D01*
X1972015Y-388339D01*
X1971992Y-388285D01*
X1971977Y-388229D01*
X1971934Y-388156D01*
X1971899Y-388079D01*
X1971861Y-388034D01*
X1971832Y-387984D01*
X1971770Y-387926D01*
X1971716Y-387862D01*
X1971667Y-387830D01*
X1971624Y-387790D01*
X1971549Y-387751D01*
X1971479Y-387705D01*
X1971423Y-387687D01*
X1971371Y-387660D01*
X1971303Y-387649D01*
X1971208Y-387619D01*
X1971108Y-387616D01*
X1971040Y-387605D01*
X1936648Y-387605D01*
X1936646Y-387605D01*
X1936645Y-387605D01*
X1936505Y-387625D01*
X1936366Y-387645D01*
X1936365Y-387645D01*
X1936363Y-387645D01*
X1936237Y-387702D01*
X1936107Y-387761D01*
X1936106Y-387762D01*
X1936104Y-387763D01*
X1935994Y-387856D01*
X1935890Y-387945D01*
X1935889Y-387946D01*
X1935888Y-387947D01*
X1935880Y-387960D01*
X1935732Y-388181D01*
X1935723Y-388210D01*
X1935710Y-388231D01*
X1935225Y-389402D01*
X1934762Y-389865D01*
X1934710Y-389935D01*
X1934650Y-389999D01*
X1934624Y-390048D01*
X1934591Y-390092D01*
X1934560Y-390174D01*
X1934520Y-390252D01*
X1934512Y-390299D01*
X1934490Y-390358D01*
X1934478Y-390505D01*
X1934465Y-390583D01*
X1934465Y-400898D01*
X1934473Y-400956D01*
X1934471Y-401015D01*
X1934493Y-401096D01*
X1934505Y-401180D01*
X1934529Y-401233D01*
X1934543Y-401290D01*
X1934586Y-401362D01*
X1934621Y-401439D01*
X1934659Y-401484D01*
X1934689Y-401534D01*
X1934750Y-401592D01*
X1934805Y-401656D01*
X1934853Y-401689D01*
X1934896Y-401729D01*
X1934971Y-401767D01*
X1935041Y-401814D01*
X1935097Y-401832D01*
X1935149Y-401858D01*
X1935217Y-401870D01*
X1935312Y-401900D01*
X1935412Y-401902D01*
X1935480Y-401914D01*
X1971040Y-401914D01*
X1971098Y-401905D01*
G37*
G36*
X541764Y-450326D02*
X541764Y-450326D01*
X541859Y-450317D01*
X541885Y-450306D01*
X541913Y-450302D01*
X541997Y-450257D01*
X542084Y-450219D01*
X542105Y-450200D01*
X542130Y-450186D01*
X542196Y-450117D01*
X542266Y-450053D01*
X542280Y-450029D01*
X542300Y-450008D01*
X542340Y-449922D01*
X542386Y-449838D01*
X542391Y-449811D01*
X542403Y-449785D01*
X542414Y-449690D01*
X542431Y-449597D01*
X542427Y-449569D01*
X542430Y-449541D01*
X542410Y-449447D01*
X542397Y-449353D01*
X542383Y-449321D01*
X542378Y-449300D01*
X542361Y-449272D01*
X542329Y-449199D01*
X542272Y-449101D01*
X542099Y-448454D01*
X542099Y-445143D01*
X547878Y-445143D01*
X547898Y-445140D01*
X547917Y-445142D01*
X548019Y-445120D01*
X548121Y-445103D01*
X548138Y-445094D01*
X548158Y-445090D01*
X548247Y-445037D01*
X548338Y-444988D01*
X548352Y-444974D01*
X548369Y-444964D01*
X548436Y-444885D01*
X548507Y-444810D01*
X548516Y-444792D01*
X548529Y-444777D01*
X548568Y-444681D01*
X548611Y-444587D01*
X548613Y-444567D01*
X548621Y-444549D01*
X548639Y-444382D01*
X548639Y-442858D01*
X548636Y-442838D01*
X548638Y-442819D01*
X548616Y-442717D01*
X548599Y-442615D01*
X548590Y-442598D01*
X548586Y-442578D01*
X548533Y-442489D01*
X548484Y-442398D01*
X548470Y-442384D01*
X548460Y-442367D01*
X548381Y-442300D01*
X548306Y-442229D01*
X548288Y-442220D01*
X548273Y-442207D01*
X548177Y-442168D01*
X548083Y-442125D01*
X548063Y-442123D01*
X548045Y-442115D01*
X547878Y-442097D01*
X542099Y-442097D01*
X542099Y-438786D01*
X542272Y-438139D01*
X542607Y-437560D01*
X542749Y-437418D01*
X542790Y-437360D01*
X542840Y-437308D01*
X542862Y-437261D01*
X542892Y-437219D01*
X542913Y-437150D01*
X542943Y-437085D01*
X542949Y-437033D01*
X542964Y-436984D01*
X542963Y-436912D01*
X542971Y-436841D01*
X542959Y-436790D01*
X542958Y-436738D01*
X542934Y-436670D01*
X542918Y-436600D01*
X542892Y-436555D01*
X542874Y-436507D01*
X542829Y-436451D01*
X542792Y-436389D01*
X542753Y-436355D01*
X542720Y-436315D01*
X542660Y-436276D01*
X542605Y-436229D01*
X542557Y-436210D01*
X542513Y-436182D01*
X542444Y-436164D01*
X542377Y-436137D01*
X542306Y-436129D01*
X542275Y-436121D01*
X542251Y-436123D01*
X542210Y-436119D01*
X527470Y-436119D01*
X527353Y-436138D01*
X527235Y-436156D01*
X527232Y-436158D01*
X527228Y-436159D01*
X527122Y-436214D01*
X527017Y-436269D01*
X527014Y-436272D01*
X527010Y-436274D01*
X526928Y-436360D01*
X526845Y-436445D01*
X526844Y-436449D01*
X526841Y-436452D01*
X526791Y-436560D01*
X526739Y-436667D01*
X526739Y-436671D01*
X526737Y-436675D01*
X526724Y-436792D01*
X526710Y-436911D01*
X526710Y-436916D01*
X526710Y-436919D01*
X526713Y-436933D01*
X526735Y-437077D01*
X526797Y-437307D01*
X526797Y-440564D01*
X521462Y-440564D01*
X521442Y-440567D01*
X521423Y-440565D01*
X521321Y-440587D01*
X521219Y-440604D01*
X521202Y-440613D01*
X521182Y-440617D01*
X521093Y-440670D01*
X521002Y-440719D01*
X520988Y-440733D01*
X520971Y-440743D01*
X520904Y-440822D01*
X520833Y-440897D01*
X520824Y-440915D01*
X520811Y-440930D01*
X520772Y-441026D01*
X520729Y-441120D01*
X520727Y-441140D01*
X520719Y-441158D01*
X520701Y-441325D01*
X520701Y-442849D01*
X520704Y-442869D01*
X520702Y-442888D01*
X520724Y-442990D01*
X520741Y-443092D01*
X520750Y-443109D01*
X520754Y-443129D01*
X520807Y-443218D01*
X520856Y-443309D01*
X520870Y-443323D01*
X520880Y-443340D01*
X520959Y-443407D01*
X521034Y-443478D01*
X521052Y-443487D01*
X521067Y-443500D01*
X521163Y-443539D01*
X521257Y-443582D01*
X521277Y-443584D01*
X521295Y-443592D01*
X521462Y-443610D01*
X526797Y-443610D01*
X526797Y-446866D01*
X526624Y-447513D01*
X526289Y-448092D01*
X525816Y-448565D01*
X525200Y-448921D01*
X525163Y-448951D01*
X525121Y-448974D01*
X525068Y-449029D01*
X525010Y-449077D01*
X524984Y-449117D01*
X524951Y-449152D01*
X524919Y-449221D01*
X524879Y-449285D01*
X524868Y-449332D01*
X524848Y-449375D01*
X524839Y-449450D01*
X524821Y-449524D01*
X524826Y-449572D01*
X524820Y-449619D01*
X524837Y-449694D01*
X524843Y-449769D01*
X524862Y-449813D01*
X524873Y-449860D01*
X524912Y-449925D01*
X524942Y-449994D01*
X524974Y-450030D01*
X524999Y-450071D01*
X525056Y-450120D01*
X525107Y-450176D01*
X525149Y-450200D01*
X525186Y-450231D01*
X525256Y-450259D01*
X525322Y-450296D01*
X525369Y-450305D01*
X525414Y-450323D01*
X525542Y-450337D01*
X525564Y-450341D01*
X525571Y-450340D01*
X525581Y-450341D01*
X541670Y-450341D01*
X541764Y-450326D01*
G37*
G36*
X515867Y-450334D02*
X515867Y-450334D01*
X515915Y-450335D01*
X515987Y-450314D01*
X516062Y-450302D01*
X516104Y-450279D01*
X516150Y-450265D01*
X516213Y-450222D01*
X516279Y-450186D01*
X516312Y-450152D01*
X516352Y-450124D01*
X516397Y-450063D01*
X516449Y-450008D01*
X516469Y-449965D01*
X516497Y-449926D01*
X516521Y-449854D01*
X516552Y-449785D01*
X516558Y-449737D01*
X516572Y-449692D01*
X516571Y-449616D01*
X516580Y-449541D01*
X516569Y-449494D01*
X516569Y-449446D01*
X516543Y-449374D01*
X516527Y-449300D01*
X516503Y-449259D01*
X516487Y-449214D01*
X516440Y-449154D01*
X516401Y-449089D01*
X516365Y-449058D01*
X516335Y-449020D01*
X516231Y-448944D01*
X516214Y-448929D01*
X516208Y-448927D01*
X516200Y-448921D01*
X515584Y-448565D01*
X515111Y-448092D01*
X514776Y-447513D01*
X514603Y-446866D01*
X514603Y-443610D01*
X519938Y-443610D01*
X519958Y-443607D01*
X519977Y-443609D01*
X520079Y-443587D01*
X520181Y-443570D01*
X520198Y-443561D01*
X520218Y-443557D01*
X520307Y-443504D01*
X520398Y-443455D01*
X520412Y-443441D01*
X520429Y-443431D01*
X520496Y-443352D01*
X520567Y-443277D01*
X520576Y-443259D01*
X520589Y-443244D01*
X520628Y-443148D01*
X520671Y-443054D01*
X520673Y-443034D01*
X520681Y-443016D01*
X520699Y-442849D01*
X520699Y-441325D01*
X520696Y-441305D01*
X520698Y-441286D01*
X520676Y-441184D01*
X520659Y-441082D01*
X520650Y-441065D01*
X520646Y-441045D01*
X520593Y-440956D01*
X520544Y-440865D01*
X520530Y-440851D01*
X520520Y-440834D01*
X520441Y-440767D01*
X520366Y-440696D01*
X520348Y-440687D01*
X520333Y-440674D01*
X520237Y-440635D01*
X520143Y-440592D01*
X520123Y-440590D01*
X520105Y-440582D01*
X519938Y-440564D01*
X514603Y-440564D01*
X514603Y-437307D01*
X514665Y-437077D01*
X514677Y-436959D01*
X514690Y-436841D01*
X514689Y-436836D01*
X514689Y-436832D01*
X514663Y-436717D01*
X514638Y-436600D01*
X514636Y-436597D01*
X514635Y-436593D01*
X514573Y-436492D01*
X514512Y-436389D01*
X514508Y-436386D01*
X514506Y-436383D01*
X514415Y-436307D01*
X514325Y-436229D01*
X514321Y-436228D01*
X514318Y-436225D01*
X514207Y-436182D01*
X514096Y-436137D01*
X514092Y-436137D01*
X514088Y-436135D01*
X514075Y-436135D01*
X513930Y-436119D01*
X497926Y-436119D01*
X497902Y-436123D01*
X497878Y-436120D01*
X497781Y-436142D01*
X497683Y-436159D01*
X497662Y-436170D01*
X497638Y-436175D01*
X497553Y-436227D01*
X497466Y-436274D01*
X497449Y-436291D01*
X497429Y-436304D01*
X497365Y-436380D01*
X497296Y-436452D01*
X497286Y-436474D01*
X497271Y-436492D01*
X497235Y-436585D01*
X497193Y-436675D01*
X497190Y-436699D01*
X497181Y-436721D01*
X497177Y-436821D01*
X497166Y-436919D01*
X497171Y-436943D01*
X497170Y-436967D01*
X497197Y-437063D01*
X497218Y-437160D01*
X497230Y-437181D01*
X497237Y-437204D01*
X497293Y-437286D01*
X497344Y-437371D01*
X497362Y-437387D01*
X497376Y-437406D01*
X497455Y-437466D01*
X497531Y-437531D01*
X497554Y-437540D01*
X497573Y-437554D01*
X497729Y-437615D01*
X498241Y-437752D01*
X498820Y-438087D01*
X499293Y-438560D01*
X499628Y-439139D01*
X499801Y-439786D01*
X499801Y-443097D01*
X493522Y-443097D01*
X493502Y-443100D01*
X493483Y-443098D01*
X493381Y-443120D01*
X493279Y-443137D01*
X493262Y-443146D01*
X493242Y-443150D01*
X493153Y-443203D01*
X493062Y-443252D01*
X493048Y-443266D01*
X493031Y-443276D01*
X492964Y-443355D01*
X492893Y-443430D01*
X492884Y-443448D01*
X492871Y-443463D01*
X492832Y-443559D01*
X492789Y-443653D01*
X492787Y-443673D01*
X492779Y-443691D01*
X492761Y-443858D01*
X492761Y-445382D01*
X492764Y-445402D01*
X492762Y-445421D01*
X492784Y-445523D01*
X492801Y-445625D01*
X492810Y-445642D01*
X492814Y-445662D01*
X492867Y-445751D01*
X492916Y-445842D01*
X492930Y-445856D01*
X492940Y-445873D01*
X493019Y-445940D01*
X493094Y-446011D01*
X493112Y-446020D01*
X493127Y-446033D01*
X493223Y-446072D01*
X493317Y-446115D01*
X493337Y-446117D01*
X493355Y-446125D01*
X493522Y-446143D01*
X499801Y-446143D01*
X499801Y-449555D01*
X499802Y-449560D01*
X499795Y-449619D01*
X499796Y-449624D01*
X499795Y-449628D01*
X499822Y-449742D01*
X499847Y-449860D01*
X499849Y-449863D01*
X499850Y-449867D01*
X499912Y-449968D01*
X499973Y-450071D01*
X499977Y-450074D01*
X499979Y-450077D01*
X500069Y-450153D01*
X500160Y-450231D01*
X500164Y-450232D01*
X500167Y-450235D01*
X500277Y-450278D01*
X500388Y-450323D01*
X500393Y-450323D01*
X500396Y-450325D01*
X500410Y-450325D01*
X500555Y-450341D01*
X515819Y-450341D01*
X515867Y-450334D01*
G37*
%LPC*%
G36*
X2655823Y-404161D02*
X2655823Y-404161D01*
X2655823Y-398643D01*
X2660841Y-398643D01*
X2660841Y-401954D01*
X2660668Y-402601D01*
X2660333Y-403180D01*
X2659860Y-403653D01*
X2659281Y-403988D01*
X2658634Y-404161D01*
X2655823Y-404161D01*
G37*
%LPD*%
%LPC*%
G36*
X2683763Y-405639D02*
X2683763Y-405639D01*
X2683763Y-400176D01*
X2688337Y-400176D01*
X2688337Y-403432D01*
X2688164Y-404079D01*
X2687829Y-404658D01*
X2687356Y-405131D01*
X2686777Y-405466D01*
X2686130Y-405639D01*
X2683763Y-405639D01*
G37*
%LPD*%
%LPC*%
G36*
X2678350Y-405639D02*
X2678350Y-405639D01*
X2677703Y-405466D01*
X2677124Y-405131D01*
X2676651Y-404658D01*
X2676316Y-404079D01*
X2676143Y-403432D01*
X2676143Y-400176D01*
X2680717Y-400176D01*
X2680717Y-405639D01*
X2678350Y-405639D01*
G37*
%LPD*%
D10*
X1999234Y-476257D03*
X1999234Y-461257D03*
X1947418Y-605416D03*
X1947418Y-590416D03*
X734018Y-588130D03*
X734018Y-603130D03*
X363982Y-73780D03*
X363982Y-88780D03*
X732409Y-72651D03*
X732409Y-57651D03*
X1022865Y-260350D03*
X1007865Y-260350D03*
X1254245Y-260985D03*
X1269245Y-260985D03*
X1982597Y-473717D03*
X1982597Y-458717D03*
X1594605Y-261620D03*
X1609605Y-261620D03*
X1844795Y-260350D03*
X1859795Y-260350D03*
X2121535Y-87764D03*
X2121535Y-72764D03*
X2482088Y-73018D03*
X2482088Y-88018D03*
X804164Y-485528D03*
X804164Y-470528D03*
X753449Y-588130D03*
X753449Y-603130D03*
X2033016Y-461003D03*
X2033016Y-476003D03*
X770255Y-588130D03*
X770255Y-603130D03*
X1885696Y-635882D03*
X1885696Y-650882D03*
D11*
X1784096Y-636402D03*
X1784096Y-652902D03*
D12*
X1837817Y-633730D03*
X1837817Y-652526D03*
X1817751Y-643128D03*
D13*
X1852812Y-633984D03*
X1869812Y-633984D03*
X1852812Y-653034D03*
X1869812Y-653034D03*
D14*
X1848358Y-694436D03*
X1797558Y-694436D03*
D15*
X1766824Y-652898D03*
X1766824Y-635898D03*
D10*
X1622178Y-422656D03*
X1607178Y-422656D03*
D11*
X1621658Y-321056D03*
X1605158Y-321056D03*
D16*
X1624330Y-372237D03*
X1605534Y-372237D03*
X1614932Y-352171D03*
D15*
X1624076Y-389772D03*
X1624076Y-406772D03*
X1605026Y-389772D03*
X1605026Y-406772D03*
D17*
X1668526Y-338582D03*
X1668526Y-389382D03*
D13*
X1605162Y-305054D03*
X1622162Y-305054D03*
D10*
X1732026Y-635882D03*
X1732026Y-650882D03*
D11*
X1629156Y-636402D03*
X1629156Y-652902D03*
D12*
X1682877Y-633730D03*
X1682877Y-652526D03*
X1662811Y-643128D03*
D13*
X1699142Y-633984D03*
X1716142Y-633984D03*
X1699142Y-653034D03*
X1716142Y-653034D03*
D14*
X1638554Y-594106D03*
X1689354Y-594106D03*
D15*
X1611884Y-652898D03*
X1611884Y-635898D03*
D10*
X914788Y-597408D03*
X899788Y-597408D03*
D11*
X871088Y-495046D03*
X854588Y-495046D03*
D16*
X916940Y-541147D03*
X898144Y-541147D03*
X907542Y-521081D03*
D15*
X916686Y-562492D03*
X916686Y-579492D03*
X897636Y-562492D03*
X897636Y-579492D03*
D14*
X757682Y-341884D03*
X808482Y-341884D03*
D13*
X854592Y-479044D03*
X871592Y-479044D03*
D10*
X822706Y-633342D03*
X822706Y-648342D03*
D11*
X721106Y-632592D03*
X721106Y-649092D03*
D12*
X773557Y-629920D03*
X773557Y-648716D03*
X753491Y-639318D03*
D13*
X789822Y-631444D03*
X806822Y-631444D03*
X789822Y-650494D03*
X806822Y-650494D03*
D14*
X800100Y-690626D03*
X749300Y-690626D03*
D15*
X703834Y-649088D03*
X703834Y-632088D03*
D10*
X576968Y-391414D03*
X561968Y-391414D03*
D11*
X576448Y-288036D03*
X559948Y-288036D03*
D16*
X579120Y-341757D03*
X560324Y-341757D03*
X569722Y-321691D03*
D15*
X578866Y-358022D03*
X578866Y-375022D03*
X559816Y-358022D03*
X559816Y-375022D03*
D14*
X627380Y-417322D03*
X678180Y-417322D03*
D13*
X559952Y-270764D03*
X576952Y-270764D03*
D10*
X533012Y-543814D03*
X548012Y-543814D03*
D11*
X533532Y-644144D03*
X550032Y-644144D03*
D16*
X530860Y-591693D03*
X549656Y-591693D03*
X540258Y-611759D03*
D15*
X531114Y-576698D03*
X531114Y-559698D03*
X550164Y-576698D03*
X550164Y-559698D03*
D14*
X649732Y-511048D03*
X598932Y-511048D03*
D13*
X550028Y-661416D03*
X533028Y-661416D03*
D10*
X411868Y-326136D03*
X396868Y-326136D03*
D11*
X411348Y-228092D03*
X394848Y-228092D03*
D16*
X414020Y-276987D03*
X395224Y-276987D03*
X404622Y-256921D03*
D15*
X413766Y-293252D03*
X413766Y-310252D03*
X393192Y-293252D03*
X393192Y-310252D03*
D14*
X461772Y-353314D03*
X512572Y-353314D03*
D13*
X394852Y-204724D03*
X411852Y-204724D03*
D10*
X366642Y-542544D03*
X381642Y-542544D03*
D11*
X368432Y-644144D03*
X384932Y-644144D03*
D16*
X365760Y-590423D03*
X384556Y-590423D03*
X375158Y-610489D03*
D15*
X364744Y-575428D03*
X364744Y-558428D03*
X383794Y-575428D03*
X383794Y-558428D03*
D14*
X483870Y-512318D03*
X433070Y-512318D03*
D13*
X384928Y-661416D03*
X367928Y-661416D03*
D10*
X218828Y-404876D03*
X203828Y-404876D03*
D11*
X218308Y-300736D03*
X201808Y-300736D03*
D16*
X220980Y-353695D03*
X202184Y-353695D03*
X211582Y-333629D03*
D15*
X220726Y-374024D03*
X220726Y-391024D03*
X201676Y-374024D03*
X201676Y-391024D03*
D14*
X267462Y-430784D03*
X318262Y-430784D03*
D13*
X200542Y-283464D03*
X217542Y-283464D03*
D10*
X2643886Y-326002D03*
X2643886Y-341002D03*
D11*
X2573152Y-303784D03*
X2589652Y-303784D03*
D12*
X2594737Y-323850D03*
X2594737Y-342646D03*
X2574671Y-333248D03*
D13*
X2611002Y-324104D03*
X2628002Y-324104D03*
X2611002Y-343154D03*
X2628002Y-343154D03*
D14*
X2472182Y-448564D03*
X2522982Y-448564D03*
D13*
X2589648Y-362966D03*
X2572648Y-362966D03*
D10*
X201542Y-542544D03*
X216542Y-542544D03*
D11*
X202062Y-644144D03*
X218562Y-644144D03*
D16*
X199390Y-590423D03*
X218186Y-590423D03*
X208788Y-610489D03*
D15*
X199644Y-575428D03*
X199644Y-558428D03*
X218694Y-575428D03*
X218694Y-558428D03*
D14*
X316992Y-512318D03*
X266192Y-512318D03*
D13*
X218558Y-661416D03*
X201558Y-661416D03*
D10*
X19932Y-143764D03*
X34932Y-143764D03*
D11*
X20452Y-246634D03*
X36952Y-246634D03*
D16*
X17780Y-192913D03*
X36576Y-192913D03*
X27178Y-212979D03*
D15*
X18034Y-176648D03*
X18034Y-159648D03*
X37084Y-176648D03*
X37084Y-159648D03*
D14*
X85090Y-341122D03*
X135890Y-341122D03*
D13*
X36948Y-263906D03*
X19948Y-263906D03*
D10*
X2546738Y-658876D03*
X2531738Y-658876D03*
D11*
X2546218Y-559816D03*
X2529718Y-559816D03*
D16*
X2548890Y-612267D03*
X2530094Y-612267D03*
X2539492Y-592201D03*
D15*
X2548636Y-627262D03*
X2548636Y-644262D03*
X2529586Y-627262D03*
X2529586Y-644262D03*
D14*
X2483358Y-512826D03*
X2432558Y-512826D03*
D13*
X2529722Y-542544D03*
X2546722Y-542544D03*
D10*
X2431662Y-205994D03*
X2446662Y-205994D03*
D11*
X2418334Y-313558D03*
X2418334Y-297058D03*
D16*
X2429510Y-255143D03*
X2448306Y-255143D03*
X2438908Y-275209D03*
D15*
X2429764Y-238878D03*
X2429764Y-221878D03*
X2448814Y-238878D03*
X2448814Y-221878D03*
D14*
X2321560Y-341122D03*
X2372360Y-341122D03*
D15*
X2418334Y-344288D03*
X2418334Y-327288D03*
D10*
X2383924Y-661416D03*
X2368924Y-661416D03*
D11*
X2382388Y-557276D03*
X2365888Y-557276D03*
D16*
X2385060Y-610997D03*
X2366264Y-610997D03*
X2375662Y-590931D03*
D15*
X2384806Y-625992D03*
X2384806Y-642992D03*
X2365756Y-625992D03*
X2365756Y-642992D03*
D14*
X2319528Y-512826D03*
X2268728Y-512826D03*
D13*
X2365892Y-540004D03*
X2382892Y-540004D03*
D10*
X2309876Y-376802D03*
X2309876Y-391802D03*
D11*
X2283328Y-458216D03*
X2266828Y-458216D03*
D16*
X2265680Y-412623D03*
X2284476Y-412623D03*
X2275078Y-432689D03*
D15*
X2265934Y-395088D03*
X2265934Y-378088D03*
X2284984Y-395088D03*
X2284984Y-378088D03*
D14*
X2166112Y-418084D03*
X2216912Y-418084D03*
D13*
X2266832Y-473964D03*
X2283832Y-473964D03*
D10*
X2219078Y-658876D03*
X2204078Y-658876D03*
D11*
X2218558Y-557276D03*
X2202058Y-557276D03*
D16*
X2221230Y-610997D03*
X2202434Y-610997D03*
X2211832Y-590931D03*
D15*
X2220976Y-625992D03*
X2220976Y-642992D03*
X2201926Y-625992D03*
X2201926Y-642992D03*
D14*
X2155190Y-512318D03*
X2104390Y-512318D03*
D13*
X2202062Y-540004D03*
X2219062Y-540004D03*
D10*
X2050034Y-414408D03*
X2050034Y-399408D03*
D11*
X2121276Y-437896D03*
X2104776Y-437896D03*
D12*
X2099183Y-416560D03*
X2099183Y-397764D03*
X2119249Y-407162D03*
D13*
X2082918Y-416306D03*
X2065918Y-416306D03*
X2082918Y-397256D03*
X2065918Y-397256D03*
D14*
X2034032Y-340614D03*
X2084832Y-340614D03*
D13*
X2100462Y-377444D03*
X2117462Y-377444D03*
D10*
X1917954Y-650628D03*
X1917954Y-635628D03*
D11*
X2019554Y-650108D03*
X2019554Y-633608D03*
D12*
X1965833Y-652780D03*
X1965833Y-633984D03*
X1985899Y-643382D03*
D13*
X1950838Y-652526D03*
X1933838Y-652526D03*
X1950838Y-633476D03*
X1933838Y-633476D03*
D14*
X1994027Y-694436D03*
X1943227Y-694436D03*
D15*
X2036826Y-633612D03*
X2036826Y-650612D03*
D10*
X1893958Y-595376D03*
X1878958Y-595376D03*
D11*
X1878884Y-465328D03*
X1862384Y-465328D03*
D16*
X1888490Y-546227D03*
X1869694Y-546227D03*
X1879092Y-526161D03*
D15*
X1889506Y-562492D03*
X1889506Y-579492D03*
X1869186Y-562492D03*
X1869186Y-579492D03*
D14*
X1766570Y-593852D03*
X1817370Y-593852D03*
D13*
X1862210Y-449682D03*
X1879210Y-449682D03*
D18*
X2688336Y-156712D03*
X2688336Y-251212D03*
X2422144Y-47365D03*
X2422144Y-141865D03*
X2082489Y-807091D03*
X2082489Y-712591D03*
X1382624Y-46349D03*
X1382624Y-140849D03*
X907034Y-807091D03*
X907034Y-712591D03*
X1138174Y-48635D03*
X1138174Y-143135D03*
X565827Y-807091D03*
X565827Y-712591D03*
X825754Y-46095D03*
X825754Y-140595D03*
X472440Y-807091D03*
X472440Y-712591D03*
X518592Y-48635D03*
X518592Y-143135D03*
X307340Y-807091D03*
X307340Y-712591D03*
X430276Y-48635D03*
X430276Y-143135D03*
X2527554Y-807091D03*
X2527554Y-712591D03*
X214630Y-807091D03*
X214630Y-712591D03*
X97536Y-44952D03*
X97536Y-139452D03*
D19*
X1370197Y-318318D03*
X1464697Y-318318D03*
D18*
X2329434Y-47365D03*
X2329434Y-141865D03*
X2434703Y-807091D03*
X2434703Y-712591D03*
X2038096Y-46095D03*
X2038096Y-140595D03*
X2266922Y-807091D03*
X2266922Y-712591D03*
X1722349Y-47416D03*
X1722349Y-141916D03*
X2175341Y-807091D03*
X2175341Y-712591D03*
X1471168Y-46120D03*
X1471168Y-140620D03*
D20*
X243713Y-176530D03*
X351155Y-176530D03*
D21*
X282448Y-231267D03*
X312420Y-231267D03*
D20*
X586010Y-176530D03*
X693452Y-176530D03*
D21*
X624745Y-231267D03*
X654717Y-231267D03*
D20*
X961009Y-176213D03*
X1068451Y-176213D03*
D21*
X999744Y-230950D03*
X1029716Y-230950D03*
D20*
X1207643Y-176213D03*
X1315085Y-176213D03*
D21*
X1246378Y-230950D03*
X1276350Y-230950D03*
D20*
X1548511Y-176213D03*
X1655953Y-176213D03*
D21*
X1587246Y-230950D03*
X1617218Y-230950D03*
D20*
X1795399Y-176213D03*
X1902841Y-176213D03*
D21*
X1834134Y-230950D03*
X1864106Y-230950D03*
D20*
X2148808Y-175260D03*
X2256250Y-175260D03*
D21*
X2187543Y-229997D03*
X2217515Y-229997D03*
D20*
X2492121Y-175260D03*
X2599563Y-175260D03*
D21*
X2530856Y-229997D03*
X2560828Y-229997D03*
D15*
X1931162Y-605400D03*
X1931162Y-588400D03*
X363982Y-43570D03*
X363982Y-60570D03*
X732409Y-27568D03*
X732409Y-44568D03*
D13*
X832984Y-610718D03*
X815984Y-610718D03*
X846007Y-610667D03*
X863007Y-610667D03*
D15*
X717982Y-604765D03*
X717982Y-587765D03*
D13*
X977782Y-260350D03*
X994782Y-260350D03*
X1299328Y-260985D03*
X1282328Y-260985D03*
X1639688Y-261620D03*
X1622688Y-261620D03*
X1889878Y-260350D03*
X1872878Y-260350D03*
D15*
X2121535Y-59554D03*
X2121535Y-42554D03*
X2482088Y-59808D03*
X2482088Y-42808D03*
X2482088Y-100720D03*
X2482088Y-117720D03*
X2121535Y-117974D03*
X2121535Y-100974D03*
D13*
X1814712Y-260350D03*
X1831712Y-260350D03*
X1564522Y-261620D03*
X1581522Y-261620D03*
D15*
X820166Y-468512D03*
X820166Y-485512D03*
D13*
X1224162Y-260985D03*
X1241162Y-260985D03*
X1052948Y-260350D03*
X1035948Y-260350D03*
D15*
X732409Y-102734D03*
X732409Y-85734D03*
X363982Y-101990D03*
X363982Y-118990D03*
X2015744Y-477003D03*
X2015744Y-460003D03*
D22*
X785368Y-448056D03*
X869442Y-226695D03*
D23*
X2053336Y-600202D03*
D22*
X1972818Y-225425D03*
X1975866Y-601726D03*
X1972818Y-198755D03*
D23*
X723646Y-470662D03*
D22*
X869442Y-200025D03*
D24*
X918745Y-297460D03*
X918745Y-302460D03*
X918745Y-307460D03*
X918745Y-312460D03*
X918745Y-317460D03*
X918745Y-322460D03*
X918745Y-327460D03*
X918745Y-332460D03*
X960855Y-297460D03*
X960855Y-302460D03*
X960855Y-307460D03*
X960855Y-312460D03*
X960855Y-317460D03*
X960855Y-322460D03*
X960855Y-327460D03*
X960855Y-332460D03*
D25*
X939800Y-314960D03*
D26*
X981710Y-319680D03*
X981710Y-338180D03*
D27*
X890270Y-316470D03*
X890270Y-346470D03*
D13*
X942730Y-273050D03*
X959730Y-273050D03*
D28*
X957910Y-387350D03*
X903910Y-387350D03*
D13*
X854160Y-314706D03*
X871160Y-314706D03*
D24*
X1920975Y-397230D03*
X1920975Y-392230D03*
X1920975Y-387230D03*
X1920975Y-382230D03*
X1920975Y-377230D03*
X1920975Y-372230D03*
X1920975Y-367230D03*
X1920975Y-362230D03*
X1878865Y-397230D03*
X1878865Y-392230D03*
X1878865Y-387230D03*
X1878865Y-382230D03*
X1878865Y-377230D03*
X1878865Y-372230D03*
X1878865Y-367230D03*
X1878865Y-362230D03*
D25*
X1899920Y-379730D03*
D26*
X1860550Y-373029D03*
X1860550Y-354529D03*
D27*
X1959610Y-396000D03*
X1959610Y-366000D03*
D13*
X1895568Y-412039D03*
X1878568Y-412039D03*
D28*
X1876730Y-309880D03*
X1930730Y-309880D03*
D15*
X1938960Y-411496D03*
X1938960Y-394496D03*
D10*
X1960880Y-332860D03*
X1960880Y-347860D03*
X868680Y-363100D03*
X868680Y-348100D03*
X1966976Y-473590D03*
X1966976Y-458590D03*
X785876Y-587876D03*
X785876Y-602876D03*
D13*
X1944760Y-269240D03*
X1961760Y-269240D03*
X929250Y-227330D03*
X912250Y-227330D03*
D11*
X912500Y-201930D03*
X929000Y-201930D03*
X1913260Y-269240D03*
X1929760Y-269240D03*
D13*
X1160390Y-840740D03*
X1143390Y-840740D03*
D11*
X1190620Y-840740D03*
X1174120Y-840740D03*
D13*
X1579000Y-840740D03*
X1596000Y-840740D03*
D11*
X1547500Y-840740D03*
X1564000Y-840740D03*
D29*
X200660Y-101600D03*
X2616200Y-99060D03*
X660400Y-800100D03*
D30*
X1249680Y-833501D03*
X1249680Y-726059D03*
D31*
X1304417Y-794766D03*
X1304417Y-764794D03*
D10*
X1421054Y-483761D03*
X1421054Y-498761D03*
D30*
X1485900Y-726059D03*
X1485900Y-833501D03*
D31*
X1431163Y-764794D03*
X1431163Y-794766D03*
D13*
X1372480Y-683260D03*
X1355480Y-683260D03*
D32*
X1344125Y-517830D03*
X1363022Y-517830D03*
X1381920Y-517830D03*
X1401920Y-517830D03*
X1420818Y-517830D03*
X1439715Y-517830D03*
X1344125Y-660730D03*
X1363022Y-660730D03*
X1381920Y-660730D03*
X1401920Y-660730D03*
X1420665Y-660730D03*
X1439715Y-660730D03*
D13*
X1919766Y-478942D03*
X1936766Y-478942D03*
X1936360Y-463144D03*
X1919360Y-463144D03*
X1919284Y-447497D03*
X1936284Y-447497D03*
X1936284Y-431825D03*
X1919284Y-431825D03*
D10*
X1864709Y-430428D03*
X1879709Y-430428D03*
X1362786Y-483863D03*
X1362786Y-498863D03*
D13*
X861991Y-576097D03*
X844991Y-576097D03*
X845143Y-592150D03*
X862143Y-592150D03*
D10*
X876224Y-570604D03*
X876224Y-585604D03*
D13*
X862067Y-555396D03*
X845067Y-555396D03*
X844940Y-534289D03*
X861940Y-534289D03*
X1428360Y-683260D03*
X1411360Y-683260D03*
D33*
X1241471Y-323914D03*
X1259971Y-331914D03*
X1241471Y-331914D03*
X1259971Y-323914D03*
D34*
X788945Y-503053D03*
X783945Y-503053D03*
X778945Y-503053D03*
X773945Y-503053D03*
X768945Y-503053D03*
X763945Y-503053D03*
X758945Y-503053D03*
X753945Y-503053D03*
X748945Y-503053D03*
X743945Y-503053D03*
X738945Y-503053D03*
X733945Y-503053D03*
X728945Y-503053D03*
X723945Y-503053D03*
X718945Y-503053D03*
X713945Y-503053D03*
X708945Y-503053D03*
X793945Y-503053D03*
X798945Y-503053D03*
X803945Y-503053D03*
X808945Y-503053D03*
X813945Y-503053D03*
X818945Y-503053D03*
X823945Y-503053D03*
X708945Y-570553D03*
X713945Y-570553D03*
X718945Y-570553D03*
X723945Y-570553D03*
X728945Y-570553D03*
X733945Y-570553D03*
X738945Y-570553D03*
X743945Y-570553D03*
X748945Y-570553D03*
X753945Y-570553D03*
X758945Y-570553D03*
X763945Y-570553D03*
X768945Y-570553D03*
X773945Y-570553D03*
X778945Y-570553D03*
X783945Y-570553D03*
X788945Y-570553D03*
X793945Y-570553D03*
X798945Y-570553D03*
X803945Y-570553D03*
X808945Y-570553D03*
X813945Y-570553D03*
X818945Y-570553D03*
X823945Y-570553D03*
X1973762Y-566744D03*
X1978762Y-566744D03*
X1983762Y-566744D03*
X1988762Y-566744D03*
X1993762Y-566744D03*
X1998762Y-566744D03*
X2003762Y-566744D03*
X2008762Y-566744D03*
X2013762Y-566744D03*
X2018762Y-566744D03*
X2023762Y-566744D03*
X2028762Y-566744D03*
X2033762Y-566744D03*
X2038762Y-566744D03*
X2043762Y-566744D03*
X2048762Y-566744D03*
X2053762Y-566744D03*
X1968762Y-566744D03*
X1963762Y-566744D03*
X1958762Y-566744D03*
X1953762Y-566744D03*
X1948762Y-566744D03*
X1943762Y-566744D03*
X1938762Y-566744D03*
X2053762Y-499244D03*
X2048762Y-499244D03*
X2043762Y-499244D03*
X2038762Y-499244D03*
X2033762Y-499244D03*
X2028762Y-499244D03*
X2023762Y-499244D03*
X2018762Y-499244D03*
X2013762Y-499244D03*
X2008762Y-499244D03*
X2003762Y-499244D03*
X1998762Y-499244D03*
X1993762Y-499244D03*
X1988762Y-499244D03*
X1983762Y-499244D03*
X1978762Y-499244D03*
X1973762Y-499244D03*
X1968762Y-499244D03*
X1963762Y-499244D03*
X1958762Y-499244D03*
X1953762Y-499244D03*
X1948762Y-499244D03*
X1943762Y-499244D03*
X1938762Y-499244D03*
D15*
X1915363Y-561120D03*
X1915363Y-578120D03*
X1915363Y-548428D03*
X1915363Y-531428D03*
X1285240Y-319160D03*
X1285240Y-336160D03*
X1225575Y-319338D03*
X1225575Y-336338D03*
D10*
X1209530Y-335991D03*
X1194530Y-335991D03*
X1209555Y-320015D03*
X1194555Y-320015D03*
X1905000Y-467480D03*
X1905000Y-482480D03*
X876224Y-542816D03*
X876224Y-557816D03*
D16*
X530098Y-462153D03*
X511302Y-462153D03*
X520700Y-442087D03*
X2672842Y-378587D03*
X2691638Y-378587D03*
X2682240Y-398653D03*
D15*
X474980Y-460620D03*
X474980Y-443620D03*
D13*
X2709300Y-378460D03*
X2726300Y-378460D03*
D10*
X492760Y-459620D03*
X492760Y-444620D03*
X2710180Y-393820D03*
X2710180Y-408820D03*
D15*
X548640Y-443620D03*
X548640Y-460620D03*
X2654300Y-397120D03*
X2654300Y-380120D03*
D13*
X582540Y-459740D03*
X565540Y-459740D03*
X2620400Y-378460D03*
X2637400Y-378460D03*
D35*
X818945Y-570553D02*
X818945Y-582391D01*
X821993Y-585439D01*
X839938Y-585439D01*
D36*
X853537Y-600310D03*
D35*
X1381920Y-517830D02*
X1381920Y-505333D01*
X1374652Y-498065D01*
D36*
X1367566Y-457200D03*
D35*
X1374652Y-476131D02*
X1374652Y-498065D01*
X1374652Y-476131D02*
X1367566Y-469045D01*
X1367566Y-457200D01*
X853537Y-600310D02*
X853303Y-600310D01*
X845316Y-592324D01*
X845143Y-592150D01*
X845316Y-590817D02*
X839938Y-585439D01*
X845316Y-590817D02*
X845316Y-592324D01*
D37*
X365760Y-590423D02*
X365189Y-589852D01*
X233870Y-397192D02*
X233870Y-349237D01*
X227533Y-342900D01*
X200711Y-342900D01*
X193040Y-335229D01*
X193040Y-290966D02*
X200542Y-283464D01*
X193040Y-290966D02*
X193040Y-335229D01*
X353695Y-564379D02*
X364744Y-575428D01*
X353695Y-564379D02*
X353695Y-504825D01*
X315468Y-478790D02*
X267462Y-430784D01*
X327660Y-478790D02*
X353695Y-504825D01*
X327660Y-478790D02*
X315468Y-478790D01*
X364744Y-575428D02*
X365189Y-575873D01*
X365189Y-589852D01*
X365760Y-590423D02*
X365760Y-633787D01*
X355796Y-643751D01*
X355796Y-690127D01*
X267462Y-430784D02*
X233870Y-397192D01*
X355796Y-690127D02*
X343892Y-702032D01*
X333332Y-712591D02*
X307340Y-712591D01*
X333332Y-712591D02*
X343892Y-702032D01*
X531114Y-591439D02*
X531114Y-576698D01*
X531114Y-591439D02*
X530860Y-591693D01*
X530860Y-591820D01*
D38*
X519938Y-544832D03*
X476250Y-384810D03*
X403517Y-215989D03*
D37*
X461772Y-353314D02*
X461772Y-370332D01*
X476250Y-384810D01*
X403517Y-213389D02*
X394852Y-204724D01*
X403517Y-213389D02*
X403517Y-215989D01*
X519938Y-565522D02*
X531114Y-576698D01*
X519938Y-565522D02*
X519938Y-544832D01*
X531114Y-576698D02*
X531114Y-591566D01*
X530860Y-591820D01*
X531114Y-591566D02*
X531114Y-621341D01*
X522166Y-630289D01*
X522166Y-685565D01*
X495140Y-712591D02*
X472440Y-712591D01*
X495140Y-712591D02*
X522166Y-685565D01*
X649732Y-511810D02*
X649732Y-511048D01*
X621830Y-539712D02*
X594289Y-539712D01*
X564506Y-658466D02*
X561556Y-661416D01*
X550028Y-661416D01*
X564506Y-658466D02*
X564506Y-609600D01*
X573351Y-560651D02*
X594289Y-539712D01*
X588200Y-366340D02*
X579882Y-358022D01*
X578866Y-358022D01*
X588200Y-366340D02*
X588200Y-429196D01*
X578866Y-358022D02*
X578866Y-342011D01*
X579120Y-341757D01*
X575488Y-341757D01*
X546816Y-313085D01*
X546816Y-266561D01*
X555567Y-257810D01*
X663548Y-257810D01*
X649732Y-511810D02*
X621830Y-539712D01*
X649732Y-511048D02*
X649732Y-490728D01*
X588200Y-429196D01*
X573351Y-600756D02*
X564506Y-609600D01*
X573351Y-600756D02*
X573351Y-560651D01*
X663548Y-257810D02*
X709004Y-212355D01*
X709004Y-207083D01*
X772297Y-143790D01*
X803379Y-143790D01*
X825754Y-121414D01*
X825754Y-140595D01*
X568892Y-279704D02*
X559952Y-270764D01*
X568892Y-279704D02*
X568892Y-293509D01*
X601726Y-326343D02*
X601726Y-406146D01*
X601726Y-326343D02*
X568892Y-293509D01*
X601726Y-406146D02*
X612902Y-417322D01*
X664707Y-392616D02*
X691653Y-392616D01*
X680974Y-560581D02*
X680974Y-610111D01*
X680974Y-560581D02*
X667004Y-546611D01*
X680974Y-610111D02*
X695449Y-624586D01*
X696330Y-397293D02*
X691653Y-392616D01*
X696330Y-397293D02*
X696330Y-440441D01*
X664707Y-392616D02*
X640001Y-417322D01*
X667004Y-469767D02*
X696330Y-440441D01*
X667004Y-469767D02*
X667004Y-546611D01*
X695449Y-624586D02*
X689238Y-630797D01*
X689238Y-660355D01*
X641490Y-708103D01*
X695449Y-624586D02*
X697807Y-624586D01*
X698361Y-624032D01*
X731463Y-629920D02*
X773557Y-629920D01*
X725575Y-624032D02*
X698361Y-624032D01*
X725575Y-624032D02*
X731463Y-629920D01*
X773557Y-629920D02*
X788298Y-629920D01*
X789822Y-631444D01*
X627380Y-417322D02*
X612902Y-417322D01*
X627380Y-417322D02*
X640001Y-417322D01*
X604520Y-708103D02*
X593015Y-708103D01*
X604520Y-708103D02*
X641490Y-708103D01*
X570315Y-708103D02*
X565827Y-712591D01*
X570315Y-708103D02*
X593015Y-708103D01*
X703834Y-649088D02*
X730188Y-675442D01*
X730188Y-714773D01*
X735065Y-719650D01*
X766329Y-719650D01*
X795353Y-690626D02*
X800100Y-690626D01*
X795353Y-690626D02*
X766329Y-719650D01*
X924242Y-605793D02*
X924242Y-573519D01*
X839409Y-690626D02*
X800100Y-690626D01*
X839409Y-690626D02*
X924242Y-605793D01*
X916686Y-565963D02*
X916686Y-562492D01*
X916686Y-565963D02*
X924242Y-573519D01*
X916686Y-562492D02*
X916686Y-541401D01*
X916940Y-541147D01*
X916940Y-534797D01*
X1138174Y-313563D02*
X1138174Y-143135D01*
X1138174Y-313563D02*
X916940Y-534797D01*
X1624076Y-389772D02*
X1624330Y-389518D01*
X1638554Y-594106D02*
X1638554Y-601980D01*
X1624330Y-374650D02*
X1624330Y-372237D01*
X1624330Y-389518D01*
X1631961Y-434268D02*
X1612972Y-434268D01*
X1595120Y-452120D01*
X1624076Y-389772D02*
X1627971Y-389772D01*
X1635188Y-396989D01*
X1635188Y-431041D01*
X1631961Y-434268D01*
X1595120Y-452120D02*
X1595120Y-561086D01*
X1604328Y-629925D02*
X1604328Y-641871D01*
X1604328Y-629925D02*
X1606411Y-627842D01*
X1612692Y-627842D01*
X1611884Y-649427D02*
X1611884Y-652898D01*
X1611884Y-649427D02*
X1604328Y-641871D01*
X1612692Y-627842D02*
X1638554Y-601980D01*
X1638554Y-594106D02*
X1628140Y-594106D01*
X1595120Y-561086D01*
X1382624Y-140849D02*
X1382624Y-132944D01*
X1624330Y-374650D01*
D38*
X1857756Y-665480D03*
X1736090Y-545340D03*
X1869440Y-609346D03*
D37*
X1614102Y-313994D02*
X1605162Y-305054D01*
X1614102Y-313994D02*
X1614102Y-326529D01*
X1626155Y-338582D01*
X1668526Y-338582D01*
X1703032Y-373088D01*
X1726048Y-422883D02*
X1726048Y-534790D01*
X1736090Y-544832D02*
X1736090Y-545340D01*
X1736090Y-544832D02*
X1726048Y-534790D01*
X1703032Y-399867D02*
X1703032Y-373088D01*
X1703032Y-399867D02*
X1726048Y-422883D01*
X1857756Y-665480D02*
X1867202Y-665480D01*
X1921626Y-719904D01*
X1857756Y-665480D02*
X1857756Y-663143D01*
X1861376Y-659523D01*
X1861376Y-642548D01*
X1869440Y-614816D02*
X1869440Y-609346D01*
X1852558Y-633730D02*
X1837817Y-633730D01*
X1852558Y-633730D02*
X1852812Y-633984D01*
X1861376Y-642548D01*
X1852812Y-631444D02*
X1869440Y-614816D01*
X1852812Y-631444D02*
X1852812Y-633984D01*
X1921626Y-719904D02*
X2059940Y-719904D01*
D39*
X2075176Y-719904D02*
X2082489Y-712591D01*
X2075176Y-719904D02*
X2059940Y-719904D01*
D38*
X1874520Y-481762D03*
X1541778Y-138940D03*
D37*
X1766824Y-652898D02*
X1766824Y-703580D01*
X1784604Y-721360D01*
X1821434Y-721360D01*
X1848358Y-694436D01*
X1880562Y-571436D02*
X1889506Y-562492D01*
X1880562Y-571436D02*
X1863713Y-571436D01*
X1850706Y-584443D01*
X1850706Y-616475D01*
X1840563Y-626618D01*
X1831899Y-626618D01*
X1826260Y-632257D01*
X1826260Y-672338D02*
X1848358Y-694436D01*
X1826260Y-672338D02*
X1826260Y-632257D01*
X1889506Y-547243D02*
X1888490Y-546227D01*
X1889506Y-547243D02*
X1889506Y-562492D01*
X1888490Y-495732D02*
X1874520Y-481762D01*
X1888490Y-495732D02*
X1888490Y-546227D01*
X1541778Y-138940D02*
X1536698Y-133860D01*
X1477928Y-133860D02*
X1471168Y-140620D01*
X1477928Y-133860D02*
X1536698Y-133860D01*
X1950838Y-652526D02*
X1951092Y-652780D01*
D38*
X1895985Y-724154D03*
X1926427Y-664373D03*
D37*
X1840230Y-560108D02*
X1851152Y-549186D01*
X1861640Y-449682D02*
X1862210Y-449682D01*
X1861640Y-449682D02*
X1851152Y-460170D01*
X1851152Y-549186D01*
X1840230Y-560108D02*
X1800314Y-560108D01*
X1766570Y-593852D01*
X1766570Y-622623D01*
X1759268Y-629925D01*
X1893191Y-726948D02*
X1895985Y-724154D01*
X1926427Y-664373D02*
X1928657Y-662143D01*
X1950838Y-657742D02*
X1950838Y-652526D01*
X1950838Y-657742D02*
X1946437Y-662143D01*
X1928657Y-662143D01*
X1951092Y-652780D02*
X1965833Y-652780D01*
X1781019Y-726948D02*
X1759268Y-705197D01*
X1759268Y-629925D01*
X1781019Y-726948D02*
X1893191Y-726948D01*
D40*
X2128520Y-718820D03*
D39*
X2134749Y-712591D02*
X2175341Y-712591D01*
X2134749Y-712591D02*
X2128520Y-718820D01*
D38*
X2128232Y-702598D03*
X2083562Y-518160D03*
X1794510Y-138940D03*
D37*
X2042160Y-633612D02*
X2051050Y-642502D01*
X2042160Y-633612D02*
X2036826Y-633612D01*
X2119884Y-674370D02*
X2128520Y-683006D01*
X2128520Y-702310D01*
X2128232Y-702598D01*
X2024634Y-694436D02*
X1994027Y-694436D01*
X2024634Y-694436D02*
X2044700Y-674370D01*
X2057400Y-674370D01*
X2119884Y-674370D01*
X2083562Y-518160D02*
X2082918Y-517516D01*
X2082918Y-457200D02*
X2082918Y-416306D01*
X2098929Y-416306D01*
X2099183Y-416560D01*
X2029460Y-426720D02*
X2026920Y-424180D01*
X2026920Y-379982D01*
X2027172Y-379730D01*
D38*
X2027172Y-379730D03*
D37*
X2082918Y-457200D02*
X2082918Y-517516D01*
X2082918Y-457200D02*
X2052438Y-426720D01*
X2029460Y-426720D01*
X2051050Y-668020D02*
X2057400Y-674370D01*
X2051050Y-668020D02*
X2051050Y-642502D01*
X1794510Y-138940D02*
X1755140Y-138940D01*
D41*
X1752164Y-141916D02*
X1722349Y-141916D01*
X1752164Y-141916D02*
X1755140Y-138940D01*
D37*
X2067549Y-367860D02*
X2090878Y-367860D01*
X2100462Y-377444D01*
X2040303Y-340614D02*
X2034032Y-340614D01*
X2040303Y-340614D02*
X2067549Y-367860D01*
X2090556Y-387350D02*
X2100462Y-377444D01*
X2090556Y-387350D02*
X2077720Y-387350D01*
X2074862Y-390208D02*
X2074862Y-404812D01*
X2074862Y-390208D02*
X2077720Y-387350D01*
X2074862Y-404812D02*
X2077720Y-407670D01*
X2093214Y-459994D02*
X2134840Y-501620D01*
X2106625Y-407670D02*
X2077720Y-407670D01*
X2221230Y-572977D02*
X2221230Y-610997D01*
X2221230Y-572977D02*
X2211002Y-562749D01*
X2211002Y-553191D01*
X2134840Y-533957D02*
X2134840Y-501620D01*
X2221230Y-610997D02*
X2221230Y-625738D01*
X2220976Y-625992D01*
X2220976Y-629463D01*
X2228532Y-637019D01*
X2228532Y-669078D01*
X2205371Y-547560D02*
X2182333Y-547560D01*
X2179095Y-544322D01*
X2145205Y-544322D02*
X2134840Y-533957D01*
X2205371Y-547560D02*
X2211002Y-553191D01*
X2179095Y-544322D02*
X2145205Y-544322D01*
X2110740Y-411785D02*
X2106625Y-407670D01*
X2110740Y-422402D02*
X2106422Y-426720D01*
X2094230Y-426720D02*
X2093214Y-427736D01*
X2093214Y-459994D01*
X2110740Y-422402D02*
X2110740Y-411785D01*
X2106422Y-426720D02*
X2094230Y-426720D01*
X2266922Y-707468D02*
X2266922Y-712591D01*
X2266922Y-707468D02*
X2228532Y-669078D01*
X2174376Y-512318D02*
X2155190Y-512318D01*
X2174376Y-512318D02*
X2202062Y-540004D01*
X2202062Y-504072D01*
X2150556Y-452566D01*
X2150556Y-395461D01*
X2153549Y-392468D01*
X2225358Y-392468D02*
X2228266Y-389560D01*
X2255063Y-362763D01*
X2225358Y-392468D02*
X2153549Y-392468D01*
X2084599Y-141480D02*
X2077720Y-141480D01*
X2228266Y-389560D02*
X2236715Y-398009D01*
X2263013Y-398009D01*
X2265934Y-395088D01*
X2265934Y-412369D01*
X2265680Y-412623D01*
X2133619Y-190500D02*
X2084599Y-141480D01*
X2133619Y-190500D02*
X2179618Y-190500D01*
X2202529Y-213411D01*
X2202529Y-248869D01*
X2214004Y-260344D01*
X2242651Y-260344D01*
X2255063Y-272756D01*
X2255063Y-362763D01*
D41*
X2076835Y-140595D02*
X2038096Y-140595D01*
X2076835Y-140595D02*
X2077720Y-141480D01*
D37*
X2166112Y-418084D02*
X2221992Y-473964D01*
X2383104Y-610997D02*
X2385060Y-610997D01*
X2383104Y-610997D02*
X2373325Y-601218D01*
X2358898Y-601218D01*
X2341880Y-584200D02*
X2341880Y-556260D01*
X2332990Y-547370D01*
X2260600Y-547370D01*
X2249170Y-535940D01*
X2249170Y-490220D01*
X2341880Y-584200D02*
X2358898Y-601218D01*
X2385060Y-610997D02*
X2385060Y-625738D01*
X2384806Y-625992D01*
X2375852Y-634946D01*
X2375852Y-651251D02*
X2374505Y-652598D01*
X2363652Y-652598D01*
X2359660Y-656590D01*
X2359660Y-681990D01*
X2385138Y-707468D01*
X2424416Y-707468D01*
X2375852Y-651251D02*
X2375852Y-634946D01*
X2266832Y-473964D02*
X2221992Y-473964D01*
X2249170Y-490220D02*
X2265426Y-473964D01*
X2266832Y-473964D01*
X2424416Y-707468D02*
X2434703Y-717755D01*
X2434703Y-712591D01*
X2429510Y-255143D02*
X2429764Y-254889D01*
X2320290Y-512826D02*
X2319528Y-512826D01*
X2347468Y-540004D02*
X2365892Y-540004D01*
X2347468Y-540004D02*
X2320290Y-512826D01*
X2319528Y-372425D02*
X2314133Y-367030D01*
X2307590Y-367030D01*
X2304796Y-364236D01*
X2319528Y-372425D02*
X2319528Y-512826D01*
X2304796Y-364236D02*
X2304796Y-317500D01*
X2314956Y-307340D01*
X2388471Y-307340D02*
X2429764Y-266047D01*
X2429764Y-254889D01*
X2388471Y-307340D02*
X2314956Y-307340D01*
X2429510Y-255143D02*
X2429510Y-239132D01*
X2429764Y-238878D01*
X2406786Y-215900D01*
X2406786Y-190636D01*
X2400300Y-184150D01*
X2371719Y-184150D02*
X2329434Y-141865D01*
X2371719Y-184150D02*
X2400300Y-184150D01*
X2321560Y-341122D02*
X2352548Y-372110D01*
X2382638Y-372110D02*
X2410460Y-344288D01*
X2382638Y-372110D02*
X2352548Y-372110D01*
X2410460Y-344288D02*
X2418334Y-344288D01*
X2418334Y-344397D01*
X2429926Y-355989D01*
X2429926Y-449699D01*
X2533031Y-550100D02*
X2538662Y-555731D01*
X2533031Y-550100D02*
X2518237Y-550100D01*
X2505669Y-537532D02*
X2468723Y-537532D01*
X2457450Y-477223D02*
X2429926Y-449699D01*
X2538662Y-555731D02*
X2538662Y-565289D01*
X2518237Y-550100D02*
X2505669Y-537532D01*
X2468723Y-537532D02*
X2457450Y-526259D01*
X2457450Y-477223D01*
X2551515Y-627262D02*
X2559494Y-635241D01*
X2551515Y-627262D02*
X2548636Y-627262D01*
X2548890Y-612267D02*
X2548890Y-575517D01*
X2538662Y-565289D01*
X2548890Y-612267D02*
X2548890Y-627008D01*
X2548636Y-627262D01*
X2559494Y-635241D02*
X2559494Y-663653D01*
X2527554Y-695593D01*
X2527554Y-712591D01*
D39*
X2735580Y-140970D02*
X2727960Y-133350D01*
X2705829Y-133350D01*
D40*
X2735580Y-140970D03*
D39*
X2688336Y-150843D02*
X2688336Y-156712D01*
X2688336Y-150843D02*
X2705829Y-133350D01*
X2527554Y-807091D02*
X2527554Y-848233D01*
X2527300Y-848487D01*
D40*
X2527300Y-848487D03*
X2284730Y-11303D03*
D39*
X2320792Y-47365D02*
X2329434Y-47365D01*
X2320792Y-47365D02*
X2284730Y-11303D01*
X2434703Y-807091D02*
X2434703Y-848374D01*
X2434590Y-848487D01*
D40*
X2434590Y-848487D03*
D39*
X2085340Y-49403D02*
X2079332Y-43395D01*
X2068576Y-43395D01*
D40*
X2085340Y-49403D03*
D39*
X2040796Y-43395D02*
X2038096Y-46095D01*
X2040796Y-43395D02*
X2068576Y-43395D01*
D40*
X2266950Y-848487D03*
D39*
X2266950Y-815340D01*
X2266922Y-815312D01*
X2266922Y-807091D01*
D40*
X1767332Y-34417D03*
D39*
X1754333Y-47416D01*
X1722349Y-47416D01*
X2175341Y-807091D02*
X2175341Y-848318D01*
X2175510Y-848487D01*
D40*
X2175510Y-848487D03*
D39*
X1471168Y-66763D02*
X1471168Y-46120D01*
X1517599Y-20332D02*
X1517599Y-12395D01*
X1517599Y-20332D02*
X1471168Y-66763D01*
D40*
X1517599Y-12395D03*
D39*
X2082489Y-807091D02*
X2082489Y-848487D01*
X2082800Y-848487D01*
D40*
X2082800Y-848487D03*
D39*
X1382624Y-54673D02*
X1382624Y-46349D01*
X1382624Y-54673D02*
X1372274Y-44323D01*
X1351280Y-44323D01*
X1338580Y-57023D01*
D40*
X1338580Y-57023D03*
X1093470Y-53950D03*
D39*
X1098945Y-48475D01*
X1104900Y-48475D01*
X1135634Y-51175D02*
X1138174Y-48635D01*
X1135634Y-51175D02*
X1107600Y-51175D01*
X1104900Y-48475D01*
D40*
X565658Y-848487D03*
D39*
X565827Y-848318D02*
X565827Y-807091D01*
X565827Y-848318D02*
X565658Y-848487D01*
X778510Y-51943D02*
X784518Y-45935D01*
D40*
X778510Y-51943D03*
D39*
X784518Y-45935D02*
X789940Y-45935D01*
X790100Y-46095D02*
X825754Y-46095D01*
X790100Y-46095D02*
X789940Y-45935D01*
X472440Y-807091D02*
X472440Y-848487D01*
D40*
X472440Y-848487D03*
D39*
X562434Y-47117D02*
X562283Y-46966D01*
X521946Y-46966D01*
X562434Y-47117D02*
X563880Y-47117D01*
D40*
X563880Y-47117D03*
D39*
X521946Y-46966D02*
X518592Y-50319D01*
X518592Y-48635D01*
X307340Y-807091D02*
X307340Y-848487D01*
D40*
X307340Y-848487D03*
D39*
X2422144Y-59905D02*
X2466340Y-15709D01*
X2422144Y-47365D02*
X2422144Y-59905D01*
D40*
X2466340Y-11303D03*
D39*
X2466340Y-15709D01*
D37*
X2594991Y-324104D02*
X2597150Y-324104D01*
X2594991Y-324104D02*
X2594737Y-323850D01*
X2504254Y-517076D02*
X2504889Y-517711D01*
X2529722Y-542544D01*
X2504254Y-517076D02*
X2487608Y-517076D01*
X2483358Y-512826D01*
X2509774Y-486410D01*
X2531110Y-486410D01*
X2543810Y-473710D01*
X2607945Y-376555D02*
X2607945Y-356997D01*
X2604008Y-353060D02*
X2590800Y-353060D01*
X2584450Y-346710D01*
X2584450Y-334645D02*
X2594991Y-324104D01*
X2543810Y-440690D02*
X2543810Y-473710D01*
X2543810Y-440690D02*
X2607945Y-376555D01*
X2607945Y-356997D02*
X2604008Y-353060D01*
X2584450Y-346710D02*
X2584450Y-334645D01*
X2597150Y-324104D02*
X2611002Y-324104D01*
X2611002Y-304918D01*
X2611120Y-304800D01*
X2570480Y-264160D02*
X2530856Y-264160D01*
X2422144Y-155448D01*
X2422144Y-141865D01*
X2570480Y-264160D02*
X2611120Y-304800D01*
D35*
X1943762Y-470546D02*
X1936360Y-463144D01*
X1943762Y-470546D02*
X1943762Y-499244D01*
X1936360Y-463144D02*
X1928812Y-463144D01*
X1926146Y-465810D01*
X1926146Y-468090D01*
X1925967Y-468269D01*
X1925967Y-473410D01*
X1926552Y-473996D01*
X1926552Y-483889D01*
X1925967Y-484474D01*
X1925967Y-516060D01*
X1922043Y-519984D01*
D36*
X1922043Y-519984D03*
X1315720Y-324132D03*
D35*
X1287280Y-319160D02*
X1285240Y-319160D01*
X1287280Y-319160D02*
X1294819Y-326699D01*
X1313153Y-326699D01*
X1315720Y-324132D01*
X1285240Y-319232D02*
X1285240Y-319160D01*
X1285240Y-319232D02*
X1279225Y-325247D01*
X1261304Y-325247D02*
X1259971Y-323914D01*
X1261304Y-325247D02*
X1279225Y-325247D01*
D40*
X46914Y-13691D03*
D39*
X94996Y-47492D02*
X97536Y-44952D01*
X94996Y-47492D02*
X93415Y-47492D01*
X91666Y-45742D01*
X78966Y-45742D01*
X46914Y-13691D01*
D40*
X214376Y-848487D03*
D39*
X214630Y-848233D02*
X214630Y-807091D01*
X214630Y-848233D02*
X214376Y-848487D01*
X378460Y-12827D02*
X393700Y-12827D01*
D40*
X378460Y-12827D03*
D39*
X429508Y-48635D02*
X430276Y-48635D01*
X429508Y-48635D02*
X393700Y-12827D01*
D37*
X36948Y-263906D02*
X36948Y-292980D01*
X187207Y-562991D02*
X199644Y-575428D01*
X199644Y-590169D01*
X199390Y-590423D01*
X199390Y-629977D01*
X189692Y-639675D01*
X85090Y-341122D02*
X36948Y-292980D01*
X85090Y-341122D02*
X187207Y-443239D01*
X187207Y-562991D01*
X189692Y-639675D02*
X189692Y-687653D01*
X214630Y-712591D01*
D38*
X211328Y-363474D03*
X422910Y-184150D03*
D37*
X220980Y-353695D02*
X220980Y-371738D01*
X220794Y-371924D01*
X220794Y-373956D02*
X220726Y-374024D01*
X220669Y-661416D02*
X218558Y-661416D01*
X220669Y-661416D02*
X231330Y-650755D01*
X231330Y-569764D01*
X256264Y-544830D02*
X295910Y-544830D01*
X316992Y-523748D01*
X316992Y-512318D01*
X256264Y-544830D02*
X231330Y-569764D01*
X316992Y-512318D02*
X266954Y-462280D01*
X255270Y-462280D01*
X220794Y-375531D02*
X220794Y-373956D01*
X220794Y-371924D01*
X220794Y-375531D02*
X228282Y-383019D01*
X228282Y-435292D02*
X255270Y-462280D01*
X228282Y-435292D02*
X228282Y-383019D01*
X220726Y-374024D02*
X220726Y-353949D01*
X220980Y-353695D01*
X220980Y-353822D01*
X211328Y-363474D01*
X422910Y-150501D02*
X430276Y-143135D01*
X422910Y-150501D02*
X422910Y-184150D01*
X397510Y-652644D02*
X388738Y-661416D01*
X384928Y-661416D01*
X412750Y-600710D02*
X412750Y-553720D01*
X417830Y-548640D01*
X457200Y-548640D01*
X484886Y-520954D01*
X397510Y-615950D02*
X397510Y-652644D01*
X397510Y-615950D02*
X412750Y-600710D01*
X454568Y-403487D02*
X444051Y-392970D01*
X444051Y-323029D01*
X454568Y-483016D02*
X483870Y-512318D01*
X454568Y-483016D02*
X454568Y-403487D01*
X443543Y-323029D02*
X413766Y-293252D01*
X443543Y-323029D02*
X444051Y-323029D01*
X413766Y-293252D02*
X413766Y-277241D01*
X414020Y-276987D01*
X386796Y-199251D02*
X391419Y-194628D01*
X469123Y-194628D01*
X414020Y-276987D02*
X409067Y-276987D01*
X386796Y-254716D02*
X386796Y-199251D01*
X386796Y-254716D02*
X409067Y-276987D01*
X483870Y-512318D02*
X484886Y-513334D01*
X484886Y-520954D01*
X469123Y-194628D02*
X518592Y-145159D01*
X518592Y-143135D01*
D35*
X2629900Y-326002D02*
X2643886Y-326002D01*
X2629900Y-326002D02*
X2628002Y-324104D01*
D42*
X2615946Y-364490D03*
D35*
X2628002Y-331421D02*
X2628002Y-324104D01*
X2628002Y-331421D02*
X2621216Y-338207D01*
X2621216Y-359220D02*
X2615946Y-364490D01*
X2621216Y-359220D02*
X2621216Y-338207D01*
D42*
X2067658Y-515569D03*
D35*
X2065118Y-550842D02*
X2053762Y-562198D01*
X2053762Y-566744D01*
X2065118Y-518109D02*
X2067658Y-515569D01*
X2065118Y-518109D02*
X2065118Y-550842D01*
X2628002Y-364118D02*
X2628002Y-343154D01*
X2628002Y-364118D02*
X2627630Y-364490D01*
D42*
X2627630Y-364490D03*
X2053590Y-519176D03*
D35*
X2053590Y-499417D01*
X2053762Y-499244D01*
D42*
X1969516Y-534670D03*
X2034540Y-414020D03*
D35*
X2034928Y-414408D01*
X2050034Y-414408D01*
X2051932Y-416306D01*
X2065918Y-416306D01*
X1975612Y-541020D02*
X1973580Y-541020D01*
X1969516Y-536956D01*
X1969516Y-534670D01*
X1993762Y-559170D02*
X1993762Y-566744D01*
X1993762Y-559170D02*
X1975612Y-541020D01*
X1933838Y-652526D02*
X1919852Y-652526D01*
X1917954Y-650628D01*
X1926590Y-645278D02*
X1933838Y-652526D01*
X1926590Y-626959D02*
X1927439Y-626110D01*
X2007489Y-620453D02*
X2007489Y-586555D01*
X1999292Y-578358D01*
X1987301Y-578358D01*
X2007489Y-620453D02*
X2001832Y-626110D01*
X1926590Y-626959D02*
X1926590Y-645278D01*
X1927439Y-626110D02*
X2001832Y-626110D01*
X1987301Y-578358D02*
X1983762Y-574820D01*
X1983762Y-566744D01*
X1893958Y-595376D02*
X1889506Y-590924D01*
X1889506Y-579492D01*
X1998469Y-619044D02*
X2001393Y-616120D01*
X2001393Y-589110D02*
X1996737Y-584454D01*
X2001393Y-589110D02*
X2001393Y-616120D01*
X1900302Y-619044D02*
X1897254Y-622092D01*
D42*
X1897254Y-622092D03*
X1896364Y-605790D03*
D35*
X1896364Y-597782D02*
X1893958Y-595376D01*
X1896364Y-597782D02*
X1896364Y-605790D01*
X1900302Y-619044D02*
X1998469Y-619044D01*
X1996737Y-584454D02*
X1977627Y-584454D01*
X1973698Y-580525D01*
X1973698Y-566808D02*
X1973762Y-566744D01*
X1973698Y-566808D02*
X1973698Y-580525D01*
X1871710Y-635882D02*
X1869812Y-633984D01*
X1871710Y-635882D02*
X1885696Y-635882D01*
X1885696Y-618102D02*
X1890850Y-612948D01*
X1885696Y-618102D02*
X1885696Y-635882D01*
X1995297Y-612325D02*
X1995297Y-591889D01*
X1994674Y-612948D02*
X1890850Y-612948D01*
X1994674Y-612948D02*
X1995297Y-612325D01*
X1995297Y-591889D02*
X1993958Y-590550D01*
X1975102Y-590550D01*
X1963778Y-566761D02*
X1963762Y-566744D01*
X1963778Y-579226D02*
X1975102Y-590550D01*
X1963778Y-579226D02*
X1963778Y-566761D01*
D42*
X1953144Y-524002D03*
D35*
X1624076Y-420758D02*
X1624076Y-406772D01*
X1624076Y-420758D02*
X1622178Y-422656D01*
D42*
X1576324Y-431546D03*
D35*
X1590382Y-399152D02*
X1616456Y-399152D01*
X1624076Y-406772D01*
X1953762Y-524620D02*
X1953762Y-566744D01*
X1953762Y-524620D02*
X1953144Y-524002D01*
X1590382Y-399152D02*
X1576324Y-413210D01*
X1576324Y-431546D01*
X1987550Y-542798D02*
X1998762Y-554010D01*
X1987550Y-542798D02*
X1986026Y-542798D01*
D42*
X1986026Y-542798D03*
D35*
X2065918Y-397256D02*
X2065918Y-383912D01*
X2066290Y-383540D01*
D42*
X2066290Y-383540D03*
D35*
X1998762Y-554010D02*
X1998762Y-566744D01*
X2010537Y-585293D02*
X2010537Y-621715D01*
X2010537Y-585293D02*
X2000554Y-575310D01*
X2010537Y-621715D02*
X2001692Y-630560D01*
X2000554Y-575310D02*
X1991103Y-575310D01*
X1933838Y-636337D02*
X1939105Y-641604D01*
X1933838Y-636337D02*
X1933838Y-633476D01*
X1971871Y-641604D02*
X1982915Y-630560D01*
X2001692Y-630560D01*
X1971871Y-641604D02*
X1939105Y-641604D01*
X1988762Y-572969D02*
X1988762Y-566744D01*
X1988762Y-572969D02*
X1991103Y-575310D01*
X1981430Y-581406D02*
X1978575Y-578551D01*
X1998000Y-581406D02*
X2004441Y-587847D01*
X2004441Y-617383D01*
X1998000Y-581406D02*
X1981430Y-581406D01*
X2004441Y-617383D02*
X1999524Y-622300D01*
X1913890Y-622300D02*
X1905508Y-630682D01*
D42*
X1905508Y-630682D03*
X1879410Y-580390D03*
D35*
X1878512Y-579492D01*
X1869186Y-579492D01*
X1913890Y-622300D02*
X1999524Y-622300D01*
X1978575Y-578551D02*
X1978575Y-566931D01*
X1978762Y-566744D01*
X1879670Y-643176D02*
X1869812Y-653034D01*
X1879670Y-643176D02*
X1893937Y-643176D01*
X1893383Y-615996D02*
X1995936Y-615996D01*
X1998345Y-613587D02*
X1998345Y-590627D01*
X1998345Y-613587D02*
X1995936Y-615996D01*
X1998345Y-590627D02*
X1995220Y-587502D01*
X1893383Y-615996D02*
X1889689Y-619689D01*
X1895022Y-629165D02*
X1895022Y-642091D01*
X1893937Y-643176D01*
X1889689Y-623832D02*
X1889689Y-619689D01*
X1889689Y-623832D02*
X1895022Y-629165D01*
X1968762Y-566744D02*
X1968829Y-566811D01*
X1976365Y-587502D02*
X1995220Y-587502D01*
X1976365Y-587502D02*
X1968829Y-579967D01*
X1968829Y-566811D01*
D42*
X1963304Y-546608D03*
X1588008Y-437642D03*
D35*
X1584706Y-434340D02*
X1584706Y-427092D01*
X1584706Y-434340D02*
X1588008Y-437642D01*
X1584706Y-427092D02*
X1605026Y-406772D01*
X1958762Y-551150D02*
X1958762Y-566744D01*
X1958762Y-551150D02*
X1963304Y-546608D01*
D42*
X1936736Y-541122D03*
D35*
X1936736Y-552953D01*
X1732026Y-635882D02*
X1718040Y-635882D01*
X1716142Y-633984D01*
X1709166Y-543562D02*
X1713230Y-539498D01*
X1709166Y-543562D02*
X1709166Y-613022D01*
X1732026Y-635882D01*
D42*
X1713230Y-539498D03*
D35*
X1943762Y-559979D02*
X1943762Y-566744D01*
X1943762Y-559979D02*
X1936736Y-552953D01*
D42*
X1942857Y-547624D03*
X1720088Y-546864D03*
D35*
X1740590Y-657678D02*
X1737360Y-660908D01*
X1740590Y-571430D02*
X1720088Y-550928D01*
X1720088Y-546864D01*
X1740590Y-571430D02*
X1740590Y-657678D01*
X1737360Y-660908D02*
X1724016Y-660908D01*
X1716142Y-653034D01*
X1948762Y-566744D02*
X1948762Y-552613D01*
X1943773Y-547624D01*
X1942857Y-547624D01*
D42*
X1992122Y-532638D03*
X2074111Y-526237D03*
D35*
X2086989Y-539115D01*
X2086989Y-566549D01*
X2053336Y-600202D01*
X1921097Y-382352D02*
X1920975Y-382230D01*
X2074111Y-455034D02*
X2074111Y-526237D01*
X2074111Y-455034D02*
X2050115Y-431038D01*
X2027471Y-431038D02*
X2000907Y-404473D01*
X2027471Y-431038D02*
X2050115Y-431038D01*
X1988312Y-528828D02*
X1992122Y-532638D01*
X1988762Y-511331D02*
X1988762Y-499244D01*
X1988762Y-511331D02*
X1988312Y-511781D01*
X1988312Y-528828D01*
X1998679Y-404473D02*
X2000907Y-404473D01*
X1998679Y-404473D02*
X1998504Y-404298D01*
D36*
X1998504Y-404298D03*
X1930726Y-386396D03*
D35*
X1926682Y-382352D01*
X1921097Y-382352D01*
X1982597Y-473717D02*
X1995940Y-487060D01*
X2002476Y-490177D02*
X2002476Y-498450D01*
X1999359Y-487060D02*
X1995940Y-487060D01*
X1999359Y-487060D02*
X2002476Y-490177D01*
X2002968Y-498450D02*
X2003762Y-499244D01*
X2002968Y-498450D02*
X2002476Y-498450D01*
X366642Y-542544D02*
X366642Y-556530D01*
X364744Y-558428D01*
X366642Y-542544D02*
X366642Y-529978D01*
X367030Y-529590D01*
D42*
X367030Y-529590D03*
X760991Y-538480D03*
D35*
X760991Y-527050D01*
X758945Y-525004D02*
X758945Y-503053D01*
X758945Y-525004D02*
X760991Y-527050D01*
X394598Y-558428D02*
X383794Y-558428D01*
X394598Y-558428D02*
X394970Y-558800D01*
D42*
X394970Y-558800D03*
X753872Y-528320D03*
D35*
X753872Y-503126D01*
X753945Y-503053D01*
X576968Y-391414D02*
X576968Y-376920D01*
X578866Y-375022D01*
D42*
X721868Y-538480D03*
D35*
X721868Y-519241D01*
X729132Y-511977D01*
D42*
X576580Y-403860D03*
D35*
X576580Y-391802D01*
X576968Y-391414D01*
X729132Y-503240D02*
X729132Y-511977D01*
X729132Y-503240D02*
X728945Y-503053D01*
D42*
X714502Y-528320D03*
X569468Y-381762D03*
D35*
X566556Y-381762D01*
X559816Y-375022D01*
X723945Y-503053D02*
X723945Y-510894D01*
X714502Y-520337D02*
X714502Y-528320D01*
X714502Y-520337D02*
X723945Y-510894D01*
X413766Y-324238D02*
X413766Y-310252D01*
X413766Y-324238D02*
X412182Y-325822D01*
D42*
X747776Y-538480D03*
D35*
X412182Y-325822D02*
X411868Y-326136D01*
D42*
X412182Y-336550D03*
D35*
X412182Y-325822D01*
X747776Y-525272D02*
X749072Y-523976D01*
X747776Y-525272D02*
X747776Y-538480D01*
X749072Y-503180D02*
X748945Y-503053D01*
X749072Y-503180D02*
X749072Y-523976D01*
D42*
X740410Y-528320D03*
D35*
X740410Y-519509D01*
X402518Y-310252D02*
X393192Y-310252D01*
X402518Y-310252D02*
X403416Y-311150D01*
D42*
X403416Y-311150D03*
D35*
X743945Y-503053D02*
X743945Y-515974D01*
X740410Y-519509D01*
X700793Y-618998D02*
X794258Y-618998D01*
X806822Y-646987D02*
X806822Y-650494D01*
X798766Y-638931D02*
X798766Y-623506D01*
X798766Y-638931D02*
X806822Y-646987D01*
X798766Y-623506D02*
X794258Y-618998D01*
X711018Y-515199D02*
X688761Y-515199D01*
X711018Y-515199D02*
X714072Y-512146D01*
X671322Y-532638D02*
X671322Y-544823D01*
X685292Y-558793D02*
X685292Y-603497D01*
X700793Y-618998D01*
X671322Y-532638D02*
X688761Y-515199D01*
X671322Y-544823D02*
X685292Y-558793D01*
X714072Y-503180D02*
X713945Y-503053D01*
X714072Y-503180D02*
X714072Y-512146D01*
X363982Y-118990D02*
X363982Y-113723D01*
X312420Y-170552D02*
X312420Y-231267D01*
X312420Y-170552D02*
X363982Y-118990D01*
X363982Y-48837D02*
X363982Y-43570D01*
X363982Y-48837D02*
X357196Y-55623D01*
X357196Y-106937D01*
X363982Y-113723D01*
X363982Y-101990D02*
X363982Y-88780D01*
X363982Y-101990D02*
X374650Y-112658D01*
X374650Y-142494D01*
D42*
X374650Y-142494D03*
X682385Y-538480D03*
D35*
X682385Y-538545D01*
X715643Y-557022D02*
X719132Y-560511D01*
X715643Y-557022D02*
X700862Y-557022D01*
X682385Y-538545D01*
X719132Y-560511D02*
X719132Y-570366D01*
X718945Y-570553D01*
X654717Y-231267D02*
X654717Y-180426D01*
X732409Y-102734D01*
X732409Y-32835D02*
X732409Y-27568D01*
X732409Y-97467D02*
X732409Y-102734D01*
X725623Y-39621D02*
X732409Y-32835D01*
X725623Y-90681D02*
X732409Y-97467D01*
X725623Y-90681D02*
X725623Y-39621D01*
D42*
X695339Y-538480D03*
D35*
X695339Y-541559D02*
X704705Y-550926D01*
X695339Y-541559D02*
X695339Y-538480D01*
X704705Y-550926D02*
X719547Y-550926D01*
D42*
X689164Y-458009D03*
D35*
X689164Y-454598D02*
X705855Y-437907D01*
X689164Y-454598D02*
X689164Y-458009D01*
X705855Y-437907D02*
X705855Y-430287D01*
D42*
X705855Y-430287D03*
X985520Y-285750D03*
D35*
X1022865Y-263933D02*
X1022865Y-260350D01*
X1022865Y-263933D02*
X1013566Y-273232D01*
X1004263Y-273232D01*
X1022865Y-260350D02*
X1035948Y-260350D01*
X726930Y-558310D02*
X719547Y-550926D01*
X991745Y-285750D02*
X1004263Y-273232D01*
X991745Y-285750D02*
X985520Y-285750D01*
X726930Y-558310D02*
X728945Y-560324D01*
X728945Y-570553D01*
X987298Y-217938D02*
X992447Y-212789D01*
X1012121Y-212789D01*
X987298Y-246008D02*
X977782Y-255524D01*
X977782Y-260350D01*
X987298Y-246008D02*
X987298Y-217938D01*
X1029716Y-230384D02*
X1029716Y-230950D01*
X1029716Y-230384D02*
X1012121Y-212789D01*
X1029716Y-230950D02*
X1052948Y-254182D01*
X1052948Y-260350D01*
D42*
X701802Y-528320D03*
D35*
X707238Y-547878D02*
X732769Y-547878D01*
X707238Y-547878D02*
X701726Y-542366D01*
D42*
X838454Y-512405D03*
X880110Y-455952D03*
D35*
X838454Y-478267D02*
X838454Y-512405D01*
X860769Y-455952D02*
X880110Y-455952D01*
X860769Y-455952D02*
X838454Y-478267D01*
D42*
X1234315Y-281940D03*
D35*
X1241162Y-275093D01*
X1241162Y-260985D01*
X1254245Y-260985D01*
X743945Y-559054D02*
X732769Y-547878D01*
X701726Y-542366D02*
X701726Y-528396D01*
X701802Y-528320D01*
X743945Y-559054D02*
X743945Y-570553D01*
X1224162Y-260985D02*
X1234767Y-250381D01*
X1274376Y-230950D02*
X1276350Y-230950D01*
X1254945Y-250381D02*
X1234767Y-250381D01*
X1254945Y-250381D02*
X1274376Y-230950D01*
X1276350Y-230950D02*
X1299328Y-253928D01*
X1299328Y-260985D01*
X547107Y-462153D02*
X530098Y-462153D01*
X547107Y-462153D02*
X548640Y-460620D01*
X564660Y-460620D02*
X565540Y-459740D01*
X564660Y-460620D02*
X548640Y-460620D01*
X732409Y-85734D02*
X732409Y-84836D01*
X732409Y-72651D01*
D42*
X689979Y-527050D03*
X744474Y-79756D03*
D35*
X739394Y-84836D01*
X732409Y-84836D01*
X688735Y-540584D02*
X702124Y-553974D01*
X717595Y-553974D02*
X723878Y-560257D01*
X717595Y-553974D02*
X702124Y-553974D01*
X688735Y-528294D02*
X689979Y-527050D01*
X688735Y-528294D02*
X688735Y-540584D01*
D42*
X702056Y-455930D03*
X703820Y-418832D03*
D35*
X704842Y-418832D02*
X711443Y-425433D01*
X704842Y-418832D02*
X703820Y-418832D01*
X711443Y-446790D02*
X702303Y-455930D01*
X702056Y-455930D01*
X711443Y-446790D02*
X711443Y-425433D01*
X723878Y-570486D02*
X723945Y-570553D01*
X723878Y-570486D02*
X723878Y-560257D01*
X1564522Y-261620D02*
X1575762Y-250381D01*
X1598353Y-250381D01*
X1639688Y-253420D02*
X1639688Y-261620D01*
X1617218Y-231515D02*
X1617218Y-230950D01*
X1617218Y-231515D02*
X1598353Y-250381D01*
X1617218Y-230950D02*
X1639688Y-253420D01*
D42*
X2040752Y-519176D03*
D35*
X1594605Y-261620D02*
X1581522Y-261620D01*
D42*
X2049272Y-462026D03*
D35*
X1989430Y-423266D02*
X1869542Y-423266D01*
X1620005Y-287020D02*
X1594605Y-261620D01*
X1828292Y-382016D02*
X1869542Y-423266D01*
X1828292Y-316665D02*
X1798647Y-287020D01*
X1828292Y-316665D02*
X1828292Y-382016D01*
X1798647Y-287020D02*
X1620005Y-287020D01*
X2049094Y-462026D02*
X2049272Y-462026D01*
X2049094Y-462026D02*
X2029244Y-442176D01*
X2043762Y-499244D02*
X2043762Y-516166D01*
X2040752Y-519176D01*
X2008340Y-442176D02*
X1989430Y-423266D01*
X2008340Y-442176D02*
X2029244Y-442176D01*
X1889878Y-260350D02*
X1864106Y-234578D01*
X1864106Y-230950D01*
X1841492Y-253564D01*
X1819979Y-260350D02*
X1814712Y-260350D01*
X1826765Y-253564D02*
X1841492Y-253564D01*
X1826765Y-253564D02*
X1819979Y-260350D01*
D42*
X2028560Y-523240D03*
D35*
X2028560Y-518567D01*
D42*
X2045970Y-447040D03*
D35*
X2036064Y-437134D01*
X2009394Y-437134D01*
X1874368Y-420218D02*
X1831340Y-377190D01*
X1831340Y-260722D01*
X1831712Y-260350D01*
X1844795Y-260350D01*
X2038762Y-499244D02*
X2038762Y-508365D01*
X2028560Y-518567D01*
X1992478Y-420218D02*
X1874368Y-420218D01*
X1992478Y-420218D02*
X2009394Y-437134D01*
X2123473Y-119912D02*
X2121535Y-117974D01*
X2129823Y-113562D02*
X2217515Y-201254D01*
X2217515Y-229997D01*
X2130099Y-64562D02*
X2125091Y-59554D01*
X2121535Y-59554D01*
X2130099Y-113287D02*
X2129823Y-113562D01*
X2123473Y-119912D01*
X2130099Y-113287D02*
X2130099Y-64562D01*
D42*
X2021702Y-513726D03*
D35*
X2028401Y-513726D01*
D42*
X2047396Y-438328D03*
X2011680Y-424180D03*
X2115566Y-131064D03*
D35*
X2116709Y-87764D02*
X2121535Y-87764D01*
X2116709Y-87764D02*
X2103755Y-100718D01*
X2103755Y-118999D01*
X2115566Y-130810D02*
X2115566Y-131064D01*
X2115566Y-130810D02*
X2103755Y-118999D01*
X2121535Y-100974D02*
X2121535Y-87764D01*
X2037327Y-434086D02*
X2041569Y-438328D01*
X2019046Y-434086D02*
X2011680Y-426720D01*
X2011680Y-424180D01*
X2019046Y-434086D02*
X2037327Y-434086D01*
X2041569Y-438328D02*
X2047396Y-438328D01*
X2033762Y-499244D02*
X2033762Y-508365D01*
X2028401Y-513726D01*
X2511552Y-180721D02*
X2560828Y-229997D01*
X2475302Y-49594D02*
X2482088Y-42808D01*
X2487535Y-81232D02*
X2488874Y-82571D01*
X2488874Y-93465D01*
X2475302Y-78465D02*
X2475302Y-49594D01*
X2475302Y-78465D02*
X2478069Y-81232D01*
X2487535Y-81232D01*
X2482088Y-100251D02*
X2482088Y-100720D01*
X2482088Y-100251D02*
X2488874Y-93465D01*
X2511552Y-139700D02*
X2511552Y-180721D01*
X2511552Y-139700D02*
X2511552Y-130946D01*
X2511552Y-130184D02*
X2482088Y-100720D01*
X2511552Y-130184D02*
X2511552Y-130946D01*
X2655833Y-378587D02*
X2672842Y-378587D01*
X2655833Y-378587D02*
X2654300Y-380120D01*
X2639060Y-380120D01*
X2637400Y-378460D01*
X201676Y-391024D02*
X193040Y-399660D01*
X193040Y-401320D01*
D42*
X193040Y-401320D03*
X767334Y-528320D03*
D35*
X767334Y-527050D01*
X765302Y-525018D01*
X764072Y-523788D01*
X763945Y-523661D02*
X763945Y-503053D01*
X763945Y-523661D02*
X764072Y-523788D01*
X797560Y-615950D02*
X702818Y-615950D01*
X797560Y-615950D02*
X806822Y-625212D01*
X806822Y-631190D01*
X806822Y-631444D01*
X808974Y-633342D02*
X822706Y-633342D01*
X808974Y-633342D02*
X806822Y-631190D01*
X712281Y-518247D02*
X690023Y-518247D01*
X712281Y-518247D02*
X719072Y-511456D01*
X688340Y-601472D02*
X702818Y-615950D01*
X688340Y-601472D02*
X688340Y-557530D01*
X674370Y-543560D01*
X674370Y-533901D01*
X690023Y-518247D01*
X718945Y-503053D02*
X719072Y-503180D01*
X719072Y-511456D01*
D42*
X700873Y-509103D03*
D35*
X914788Y-581390D02*
X914788Y-597408D01*
X914788Y-581390D02*
X916686Y-579492D01*
D42*
X906970Y-538480D03*
D35*
X906970Y-569776D02*
X916686Y-579492D01*
X906970Y-569776D02*
X906970Y-538480D01*
X706924Y-503053D02*
X700873Y-509103D01*
X706924Y-503053D02*
X708945Y-503053D01*
X708945Y-577919D02*
X695835Y-591029D01*
X695835Y-603279D01*
X798823Y-612902D02*
X808221Y-622300D01*
X705458Y-612902D02*
X695835Y-603279D01*
X705458Y-612902D02*
X798823Y-612902D01*
X887129Y-622300D02*
X906574Y-602855D01*
X887129Y-622300D02*
X808221Y-622300D01*
X897636Y-579492D02*
X906574Y-588430D01*
X906574Y-602855D01*
X708945Y-577919D02*
X708945Y-570553D01*
X18034Y-159648D02*
X18034Y-145662D01*
X19932Y-143764D01*
D42*
X140970Y-176530D03*
D35*
X42031Y-152862D02*
X32137Y-152862D01*
X59100Y-176189D02*
X60439Y-177528D01*
X25351Y-159648D02*
X18034Y-159648D01*
X59100Y-169931D02*
X59100Y-176189D01*
X139972Y-177528D02*
X140970Y-176530D01*
X32137Y-152862D02*
X25351Y-159648D01*
X42031Y-152862D02*
X59100Y-169931D01*
X60439Y-177528D02*
X139972Y-177528D01*
D42*
X808990Y-528320D03*
D35*
X808990Y-518831D01*
X791820Y-513740D02*
X789072Y-510993D01*
X789072Y-503180D02*
X788945Y-503053D01*
X789072Y-503180D02*
X789072Y-510993D01*
X818903Y-503094D02*
X818945Y-503053D01*
X818903Y-503094D02*
X818903Y-508827D01*
X808990Y-518741D02*
X808990Y-528320D01*
X808990Y-518741D02*
X818903Y-508827D01*
X798945Y-503053D02*
X798885Y-503113D01*
X798885Y-508726D01*
X804210Y-514050D01*
X808990Y-518831D01*
X808990Y-503098D02*
X808945Y-503053D01*
X808990Y-503098D02*
X808990Y-528320D01*
X792130Y-514050D02*
X791820Y-513740D01*
X792130Y-514050D02*
X804210Y-514050D01*
D42*
X148844Y-185420D03*
D35*
X135872Y-180576D02*
X59177Y-180576D01*
X135872Y-180576D02*
X140716Y-185420D01*
X148844Y-185420D01*
X38249Y-159648D02*
X37084Y-159648D01*
X38249Y-159648D02*
X59177Y-180576D01*
D42*
X796290Y-528320D03*
D35*
X796290Y-525018D01*
X784606Y-513334D01*
X783945Y-512673D01*
X783945Y-503053D01*
X201542Y-542544D02*
X201542Y-556530D01*
X199644Y-558428D01*
X201542Y-542544D02*
X201542Y-531248D01*
X201930Y-530860D01*
D42*
X201930Y-530860D03*
X789178Y-538480D03*
D35*
X789178Y-522239D02*
X779072Y-512133D01*
X789178Y-522239D02*
X789178Y-538480D01*
X779072Y-503180D02*
X778945Y-503053D01*
X779072Y-503180D02*
X779072Y-512133D01*
X230512Y-546610D02*
X218694Y-558428D01*
X230512Y-546610D02*
X231140Y-546610D01*
D42*
X231140Y-546610D03*
X782066Y-528320D03*
D35*
X774446Y-512064D02*
X774446Y-502868D01*
X782066Y-519684D02*
X782066Y-528320D01*
X782066Y-519684D02*
X774446Y-512064D01*
X773945Y-503053D02*
X774130Y-502868D01*
X774446Y-502868D01*
X220726Y-402978D02*
X220726Y-391024D01*
X220726Y-402978D02*
X218828Y-404876D01*
X218828Y-416172D01*
X218440Y-416560D01*
D42*
X218440Y-416560D03*
X774700Y-538480D03*
D35*
X774700Y-517652D01*
X769072Y-512024D01*
X769072Y-503180D02*
X768945Y-503053D01*
X769072Y-503180D02*
X769072Y-512024D01*
X533012Y-543814D02*
X533012Y-557800D01*
X531114Y-559698D01*
D42*
X734060Y-538480D03*
D35*
X734060Y-519589D01*
X738584Y-515064D01*
D42*
X533400Y-532130D03*
D35*
X533400Y-543426D01*
X533012Y-543814D01*
X738878Y-502986D02*
X738945Y-503053D01*
X738878Y-514771D02*
X738584Y-515064D01*
X738878Y-514771D02*
X738878Y-502986D01*
D42*
X727964Y-528320D03*
D35*
X733878Y-513501D02*
X733878Y-502986D01*
X727964Y-519415D02*
X727964Y-528320D01*
X727964Y-519415D02*
X733878Y-513501D01*
D42*
X558800Y-546610D03*
D35*
X558800Y-551062D01*
X550164Y-559698D01*
X733878Y-502986D02*
X733945Y-503053D01*
X759072Y-576947D02*
X770255Y-588130D01*
X759072Y-570680D02*
X758945Y-570553D01*
X759072Y-570680D02*
X759072Y-576947D01*
D42*
X808782Y-540410D03*
D35*
X778263Y-558800D02*
X773834Y-563229D01*
X914400Y-312460D02*
X918745Y-312460D01*
X793609Y-553466D02*
X788275Y-558800D01*
X793609Y-553466D02*
X796489Y-553466D01*
X808782Y-541172D02*
X808782Y-540410D01*
X808782Y-541172D02*
X796489Y-553466D01*
X788275Y-558800D02*
X778263Y-558800D01*
D42*
X822669Y-519619D03*
D35*
X825113Y-478726D02*
X818647Y-478726D01*
X810950Y-471029D01*
X810950Y-465081D01*
X825113Y-478726D02*
X828294Y-481907D01*
X810950Y-465081D02*
X793925Y-448056D01*
X828294Y-481907D02*
X828294Y-513994D01*
X822669Y-519619D01*
X793925Y-448056D02*
X785368Y-448056D01*
X799119Y-303484D02*
X905424Y-303484D01*
X914400Y-312460D01*
X784352Y-447040D02*
X785368Y-448056D01*
X784352Y-447040D02*
X784352Y-318251D01*
X799119Y-303484D01*
X773834Y-570442D02*
X773945Y-570553D01*
X773834Y-570442D02*
X773834Y-563229D01*
X2016744Y-461003D02*
X2033016Y-461003D01*
X2016744Y-461003D02*
X2015744Y-460003D01*
X2047216Y-473329D02*
X2050669Y-476782D01*
X2045342Y-473329D02*
X2033016Y-461003D01*
X2045342Y-473329D02*
X2047216Y-473329D01*
X2050669Y-488137D02*
X2048739Y-490068D01*
X2048739Y-499221D01*
X2048762Y-499244D01*
X2050669Y-488137D02*
X2050669Y-476782D01*
X734018Y-588130D02*
X718347Y-588130D01*
X717982Y-587765D01*
X713910Y-583694D01*
X713945Y-583659D02*
X713945Y-570553D01*
X713945Y-583659D02*
X713910Y-583694D01*
D38*
X2688615Y-316685D03*
D35*
X2643886Y-341002D02*
X2643886Y-351536D01*
X2644140Y-351790D01*
D42*
X2644140Y-351790D03*
D35*
X2598928Y-362966D02*
X2589648Y-362966D01*
X2598928Y-362966D02*
X2600452Y-364490D01*
D42*
X2600452Y-364490D03*
D38*
X2446274Y-448564D03*
D35*
X2482088Y-73018D02*
X2482088Y-59808D01*
X2521531Y-658876D02*
X2531738Y-658876D01*
X2370675Y-661416D02*
X2368924Y-661416D01*
X2370675Y-661416D02*
X2378731Y-669472D01*
X2510935Y-669472D02*
X2521531Y-658876D01*
X2510935Y-669472D02*
X2378731Y-669472D01*
X2370421Y-662913D02*
X2368924Y-661416D01*
X2370421Y-662913D02*
X2370421Y-679865D01*
D42*
X2370421Y-679865D03*
D35*
X2446662Y-205994D02*
X2446662Y-193668D01*
X2447290Y-193040D01*
D42*
X2447290Y-193040D03*
D35*
X2309876Y-391802D02*
X2309876Y-404876D01*
X2310130Y-405130D01*
D42*
X2310130Y-405130D03*
D35*
X2204078Y-658876D02*
X2204078Y-665997D01*
X2196721Y-673354D01*
X2177671Y-673354D01*
D42*
X2177671Y-673354D03*
X1916100Y-604190D03*
D35*
X1894198Y-650882D02*
X1885696Y-650882D01*
X1894198Y-650882D02*
X1902297Y-642783D01*
D42*
X1902297Y-642783D03*
D35*
X1878958Y-605670D02*
X1878958Y-595376D01*
X1878958Y-605670D02*
X1878838Y-605790D01*
D42*
X1878838Y-605790D03*
D35*
X1982597Y-458717D02*
X1996694Y-458717D01*
X1999234Y-461257D01*
X1982597Y-458717D02*
X1967103Y-458717D01*
X1966976Y-458590D01*
X1982597Y-458717D02*
X1982597Y-441833D01*
X1985010Y-439420D01*
D42*
X1985010Y-439420D03*
D35*
X2015744Y-477003D02*
X2032016Y-477003D01*
X2033016Y-476003D01*
X2037581Y-480568D01*
X2044192Y-480568D01*
D42*
X2044192Y-480568D03*
D35*
X1917954Y-635628D02*
X1909452Y-635628D01*
X1902297Y-642783D01*
X2050034Y-399408D02*
X2050034Y-395224D01*
X2042160Y-387350D01*
D42*
X2042160Y-387350D03*
D35*
X1872878Y-260350D02*
X1859795Y-260350D01*
X1872878Y-260350D02*
X1872878Y-267473D01*
X1879725Y-274320D01*
D42*
X1879725Y-274320D03*
D35*
X1622688Y-261620D02*
X1609605Y-261620D01*
X1622688Y-261620D02*
X1634490Y-273422D01*
X1634490Y-280670D01*
D42*
X1634490Y-280670D03*
D35*
X1972818Y-198755D02*
X1972818Y-182247D01*
X1973455Y-181610D01*
D42*
X1973455Y-181610D03*
D35*
X2117464Y-72764D02*
X2121535Y-72764D01*
X2117464Y-72764D02*
X2110486Y-65786D01*
D42*
X2110486Y-65786D03*
D35*
X1974596Y-436880D02*
X1966976Y-444500D01*
X1966976Y-458590D01*
D42*
X1974596Y-436880D03*
D35*
X1999234Y-444500D02*
X1999234Y-461257D01*
X1999234Y-444500D02*
X1996694Y-441960D01*
D42*
X1996694Y-441960D03*
X1899920Y-359410D03*
D35*
X1899920Y-379730D01*
X1607178Y-422656D02*
X1600708Y-422656D01*
X1597406Y-425958D01*
D42*
X1597406Y-425958D03*
D35*
X1710949Y-645224D02*
X1721081Y-645224D01*
X1726739Y-650882D02*
X1732026Y-650882D01*
X1708214Y-647959D02*
X1708214Y-656711D01*
X1721081Y-645224D02*
X1726739Y-650882D01*
X1710949Y-645224D02*
X1708214Y-647959D01*
X1939220Y-598614D02*
X1947418Y-590416D01*
X1920639Y-604190D02*
X1916100Y-604190D01*
X1926215Y-598614D02*
X1939220Y-598614D01*
X1926215Y-598614D02*
X1920639Y-604190D01*
X1547500Y-840740D02*
X1534160Y-840740D01*
D42*
X1534160Y-840740D03*
D35*
X1908180Y-274320D02*
X1913260Y-269240D01*
X1908180Y-274320D02*
X1879725Y-274320D01*
D37*
X2446274Y-448564D02*
X2472182Y-448564D01*
D42*
X2495520Y-95024D03*
D35*
X2495520Y-82908D01*
X2485630Y-73018D01*
X2482088Y-73018D01*
X2110486Y-65786D02*
X2110486Y-53603D01*
X2121535Y-42554D01*
X1708214Y-656711D02*
X1699631Y-665294D01*
X1684020Y-665294D01*
D42*
X1684020Y-665294D03*
D35*
X2028762Y-480257D02*
X2033016Y-476003D01*
X2028762Y-480257D02*
X2028762Y-499244D01*
X2023762Y-499244D01*
D41*
X1425651Y-479164D02*
X1421054Y-483761D01*
X1425651Y-479164D02*
X1425651Y-473075D01*
X1425473Y-472897D01*
D36*
X1425473Y-472897D03*
D41*
X1905000Y-482480D02*
X1907540Y-485020D01*
X1907540Y-500380D01*
D36*
X1907540Y-500380D03*
D41*
X1864709Y-430428D02*
X1855368Y-430428D01*
X1854200Y-429260D01*
D36*
X1854200Y-429260D03*
D41*
X1907540Y-523605D02*
X1915363Y-531428D01*
X1907540Y-523605D02*
X1907540Y-500380D01*
X1895568Y-412039D02*
X1887235Y-403706D01*
X1886991Y-403706D01*
D36*
X1886991Y-403706D03*
D39*
X2688615Y-316685D02*
X2688615Y-251491D01*
X2688336Y-251212D01*
D41*
X1960880Y-347860D02*
X1953140Y-355600D01*
X1943100Y-355600D01*
D36*
X1943100Y-355600D03*
D41*
X1960880Y-347860D02*
X1968620Y-355600D01*
X1973580Y-355600D01*
D36*
X1973580Y-355600D03*
D41*
X1963180Y-366000D01*
X1959610Y-366000D01*
X1953500Y-366000D01*
X1943100Y-355600D01*
D35*
X2654300Y-397120D02*
X2665340Y-397120D01*
X2667000Y-398780D01*
D36*
X2667000Y-398780D03*
D35*
X2694820Y-408820D02*
X2710180Y-408820D01*
X2694820Y-408820D02*
X2692400Y-406400D01*
D36*
X2692400Y-406400D03*
D35*
X2219078Y-644890D02*
X2219078Y-658876D01*
X2219078Y-644890D02*
X2220976Y-642992D01*
X2198631Y-652090D02*
X2197292Y-653429D01*
X2211878Y-652090D02*
X2220976Y-642992D01*
X2211878Y-652090D02*
X2198631Y-652090D01*
X2197292Y-653429D02*
X2197292Y-661224D01*
X2191258Y-667258D01*
X2066916Y-647360D02*
X2039112Y-619556D01*
X2066916Y-647360D02*
X2066916Y-664648D01*
X2039112Y-619556D02*
X2039112Y-609335D01*
X2069527Y-667258D02*
X2191258Y-667258D01*
X2069527Y-667258D02*
X2066916Y-664648D01*
X2002864Y-573087D02*
X2002864Y-568960D01*
X2002864Y-573087D02*
X2039112Y-609335D01*
X2003762Y-568062D02*
X2003762Y-566744D01*
X2003762Y-568062D02*
X2002864Y-568960D01*
X2187261Y-663962D02*
X2188346Y-662877D01*
X2188346Y-656572D02*
X2201926Y-642992D01*
X2188346Y-656572D02*
X2188346Y-662877D01*
X2042160Y-618294D02*
X2042160Y-607891D01*
X2069964Y-646098D02*
X2069964Y-663385D01*
X2069964Y-646098D02*
X2042160Y-618294D01*
X2069964Y-663385D02*
X2070541Y-663962D01*
X2187261Y-663962D01*
X2007864Y-573595D02*
X2007864Y-568960D01*
X2007864Y-573595D02*
X2042160Y-607891D01*
X2008762Y-568062D02*
X2008762Y-566744D01*
X2008762Y-568062D02*
X2007864Y-568960D01*
X2276227Y-369270D02*
X2294757Y-369270D01*
X2267409Y-378088D02*
X2265934Y-378088D01*
X2267409Y-378088D02*
X2276227Y-369270D01*
X2294757Y-369270D02*
X2302289Y-376802D01*
X2309876Y-376802D01*
D42*
X1993900Y-514096D03*
X2251964Y-377190D03*
D35*
X2265036Y-377190D02*
X2265934Y-378088D01*
X2265036Y-377190D02*
X2251964Y-377190D01*
X1993900Y-514096D02*
X1993011Y-514985D01*
X1993011Y-524740D01*
X2000123Y-531852D02*
X2000123Y-544298D01*
X2013762Y-557937D01*
X2000123Y-531852D02*
X1993011Y-524740D01*
X2013762Y-557937D02*
X2013762Y-566744D01*
D42*
X2011680Y-531368D03*
X2243582Y-389500D03*
D35*
X2259789Y-389500D01*
X2260987Y-388302D01*
X2274770Y-388302D02*
X2284984Y-378088D01*
X2274770Y-388302D02*
X2260987Y-388302D01*
X2018762Y-538450D02*
X2018762Y-566744D01*
X2018762Y-538450D02*
X2011680Y-531368D01*
X2384806Y-642992D02*
X2384806Y-660534D01*
X2383924Y-661416D01*
X2395220Y-646430D02*
X2391782Y-642992D01*
X2384806Y-642992D01*
D42*
X2395220Y-646430D03*
X2081094Y-554711D03*
D35*
X2058183Y-579120D02*
X2029460Y-579120D01*
X2081094Y-556209D02*
X2081094Y-554711D01*
X2081094Y-556209D02*
X2058183Y-579120D01*
X2029460Y-579120D02*
X2023762Y-573422D01*
X2023762Y-566744D01*
X2358111Y-635347D02*
X2365756Y-642992D01*
X2358111Y-635347D02*
X2356773Y-635347D01*
D42*
X2356773Y-635347D03*
X2078910Y-545592D03*
D35*
X2073068Y-551434D01*
X2073068Y-558724D01*
X2055770Y-576021D01*
X2031416Y-576021D01*
X2028762Y-573368D01*
X2028762Y-566744D01*
X2431662Y-219980D02*
X2431662Y-205994D01*
X2431662Y-219980D02*
X2429764Y-221878D01*
X2418706Y-210820D01*
X2414152Y-210820D01*
D42*
X2414152Y-210820D03*
X2035730Y-532638D03*
D35*
X2035730Y-539830D01*
X2033762Y-541798D02*
X2033762Y-566744D01*
X2033762Y-541798D02*
X2035730Y-539830D01*
D42*
X2422026Y-202946D03*
D35*
X2437109Y-199208D02*
X2438448Y-200547D01*
X2438448Y-211512D02*
X2448814Y-221878D01*
X2437109Y-199208D02*
X2425764Y-199208D01*
X2422026Y-202946D01*
X2438448Y-200547D02*
X2438448Y-211512D01*
D42*
X2043292Y-529336D03*
D35*
X2043292Y-549619D01*
X2039622Y-553289D01*
X2039622Y-565885D02*
X2038762Y-566744D01*
X2039622Y-565885D02*
X2039622Y-553289D01*
X2546738Y-646160D02*
X2546738Y-658876D01*
X2546738Y-646160D02*
X2548636Y-644262D01*
X2536190Y-631816D01*
X2536190Y-604443D01*
X2515790Y-584043D02*
X2515790Y-563694D01*
X2515790Y-584043D02*
X2536190Y-604443D01*
D42*
X2053510Y-531368D03*
D35*
X2053510Y-543711D01*
X2500042Y-547946D02*
X2515790Y-563694D01*
X2439820Y-539691D02*
X2434788Y-539691D01*
X2448075Y-547946D02*
X2500042Y-547946D01*
X2427803Y-546676D02*
X2423080Y-546676D01*
X2427803Y-546676D02*
X2434788Y-539691D01*
X2439820Y-539691D02*
X2448075Y-547946D01*
D42*
X2423080Y-546676D03*
D35*
X2053510Y-543711D02*
X2043762Y-553459D01*
X2043762Y-566744D01*
X2528757Y-644262D02*
X2529586Y-644262D01*
X2528757Y-644262D02*
X2523300Y-638805D01*
X2523300Y-595864D01*
X2512742Y-585306D02*
X2512742Y-565203D01*
D42*
X2436796Y-546676D03*
D35*
X2512742Y-585306D02*
X2523300Y-595864D01*
D42*
X2068438Y-504698D03*
D35*
X2061638Y-511498D01*
X2061638Y-543589D01*
X2436796Y-546676D02*
X2441300Y-551180D01*
X2498719Y-551180D02*
X2512742Y-565203D01*
X2498719Y-551180D02*
X2441300Y-551180D01*
X2048728Y-556500D02*
X2048728Y-566710D01*
X2048762Y-566744D01*
X2048728Y-556500D02*
X2061638Y-543589D01*
X753449Y-571049D02*
X753449Y-588130D01*
X753449Y-571049D02*
X753945Y-570553D01*
X35946Y-142750D02*
X34932Y-143764D01*
X35946Y-142750D02*
X46990Y-142750D01*
D42*
X46990Y-142750D03*
D35*
X203828Y-404876D02*
X203200Y-405504D01*
X203200Y-416560D01*
D42*
X203200Y-416560D03*
D35*
X216542Y-531488D02*
X216542Y-542544D01*
X216542Y-531488D02*
X217170Y-530860D01*
D42*
X217170Y-530860D03*
X374394Y-86527D03*
D35*
X396868Y-326136D02*
X396868Y-335922D01*
X396240Y-336550D01*
D42*
X396240Y-336550D03*
D35*
X551434Y-391414D02*
X561968Y-391414D01*
X551434Y-391414D02*
X551180Y-391160D01*
D42*
X551180Y-391160D03*
D35*
X381642Y-530232D02*
X381642Y-542544D01*
X381642Y-530232D02*
X381000Y-529590D01*
D42*
X381000Y-529590D03*
D35*
X548012Y-532758D02*
X548012Y-543814D01*
X548012Y-532758D02*
X548640Y-532130D01*
D42*
X548640Y-532130D03*
X701423Y-600964D03*
D35*
X753449Y-603130D02*
X770255Y-603130D01*
X787534Y-470528D02*
X804164Y-470528D01*
X787534Y-470528D02*
X784606Y-473456D01*
D42*
X784606Y-473456D03*
D35*
X732409Y-57651D02*
X732409Y-44568D01*
X717982Y-604765D02*
X705224Y-604765D01*
X717982Y-604765D02*
X732383Y-604765D01*
X734018Y-603130D01*
X753449Y-603130D01*
X744220Y-583415D02*
X739072Y-578267D01*
X939800Y-320688D02*
X939800Y-314960D01*
X939800Y-320688D02*
X928028Y-332460D01*
X918745Y-332460D01*
D42*
X985774Y-274066D03*
D35*
X994782Y-260350D02*
X1007865Y-260350D01*
X899033Y-200025D02*
X869442Y-200025D01*
X899033Y-200025D02*
X902208Y-203200D01*
D42*
X902208Y-203200D03*
D35*
X737226Y-44568D02*
X732409Y-44568D01*
X737226Y-44568D02*
X743712Y-51054D01*
D42*
X743712Y-51054D03*
D35*
X1269245Y-260985D02*
X1282328Y-260985D01*
X705224Y-604765D02*
X701423Y-600964D01*
D38*
X907034Y-670560D03*
D42*
X1128268Y-367790D03*
D35*
X1208022Y-288036D01*
X1269245Y-267108D02*
X1269245Y-260985D01*
X1269245Y-267108D02*
X1248317Y-288036D01*
X1208022Y-288036D01*
X994782Y-265820D02*
X994782Y-260350D01*
X994782Y-265820D02*
X986536Y-274066D01*
X985774Y-274066D01*
X899788Y-597408D02*
X899788Y-597459D01*
X888499Y-608748D01*
X878840Y-608748D01*
X1190620Y-840740D02*
X1202690Y-840740D01*
D42*
X1202690Y-840740D03*
D35*
X911230Y-203200D02*
X912500Y-201930D01*
X911230Y-203200D02*
X902208Y-203200D01*
X854592Y-479044D02*
X845820Y-487816D01*
X845820Y-497840D01*
X856742Y-508762D01*
D42*
X856742Y-508762D03*
D35*
X363982Y-73780D02*
X363982Y-60570D01*
X363982Y-76115D02*
X374394Y-86527D01*
X363982Y-76115D02*
X363982Y-73780D01*
D37*
X736600Y-341884D02*
X757682Y-341884D01*
D38*
X736600Y-341884D03*
D35*
X840112Y-630936D02*
X822706Y-648342D01*
X840112Y-630936D02*
X857375Y-630936D01*
D42*
X857375Y-630936D03*
D37*
X907034Y-670560D02*
X907034Y-712591D01*
D43*
X785876Y-602876D02*
X785622Y-603130D01*
D35*
X770255Y-603130D01*
X744220Y-591820D02*
X744220Y-583415D01*
X753449Y-601049D02*
X753449Y-603130D01*
X753449Y-601049D02*
X744220Y-591820D01*
X904280Y-332460D02*
X918745Y-332460D01*
X904280Y-332460D02*
X890270Y-346470D01*
X738945Y-570553D02*
X739072Y-570680D01*
X739072Y-578267D01*
X733945Y-573140D01*
X733945Y-570553D01*
X863007Y-610667D02*
X864926Y-608748D01*
D41*
X876224Y-570604D02*
X880447Y-570604D01*
X886511Y-564540D01*
D36*
X886511Y-564540D03*
D41*
X879787Y-557816D02*
X876224Y-557816D01*
X879787Y-557816D02*
X886511Y-564540D01*
X1362786Y-483863D02*
X1362786Y-473151D01*
X1362939Y-472999D01*
D36*
X1362939Y-472999D03*
X878840Y-608748D03*
D35*
X864926Y-608748D01*
D41*
X930732Y-273050D02*
X942730Y-273050D01*
X930732Y-273050D02*
X930681Y-273101D01*
D36*
X930681Y-273101D03*
D41*
X891300Y-345440D02*
X890270Y-346470D01*
X891300Y-345440D02*
X909320Y-345440D01*
D36*
X909320Y-345440D03*
D41*
X939800Y-337820D02*
X939800Y-314960D01*
D36*
X939800Y-337820D03*
D41*
X868680Y-337820D02*
X868680Y-348100D01*
D36*
X868680Y-337820D03*
D35*
X502800Y-444620D02*
X492760Y-444620D01*
X502800Y-444620D02*
X508000Y-439420D01*
D36*
X508000Y-439420D03*
D35*
X544440Y-439420D02*
X548640Y-443620D01*
X544440Y-439420D02*
X535940Y-439420D01*
D36*
X535940Y-439420D03*
D42*
X2013066Y-519430D03*
D35*
X2013066Y-512537D01*
D42*
X2136140Y-396104D03*
X2237740Y-368300D03*
D35*
X2151714Y-380530D02*
X2136140Y-396104D01*
X2151714Y-380530D02*
X2231189Y-380530D01*
X2237740Y-373979D02*
X2237740Y-368300D01*
X2237740Y-373979D02*
X2231189Y-380530D01*
D42*
X2467610Y-145542D03*
D35*
X2467610Y-132960D01*
X2482088Y-118482D01*
X2482088Y-113215D02*
X2475802Y-106929D01*
X2475802Y-94304D02*
X2482088Y-88018D01*
X2475802Y-94304D02*
X2475802Y-106929D01*
X2482088Y-113215D02*
X2482088Y-117720D01*
X2482088Y-118482D01*
X2018762Y-499244D02*
X2018762Y-506841D01*
X2013066Y-512537D01*
X823945Y-570553D02*
X823945Y-582391D01*
X844923Y-576097D02*
X844991Y-576097D01*
X844923Y-576097D02*
X838629Y-582391D01*
X823945Y-582391D01*
X844991Y-576097D02*
X845987Y-576097D01*
X853537Y-583647D01*
D36*
X853537Y-583647D03*
D35*
X1344125Y-517830D02*
X1344125Y-505333D01*
X1350920Y-498538D01*
X1350920Y-476436D01*
X1358478Y-468878D02*
X1358478Y-457200D01*
D36*
X1358478Y-457200D03*
D35*
X1358478Y-468878D02*
X1350920Y-476436D01*
X1938762Y-480802D02*
X1938762Y-499244D01*
X1936766Y-478942D02*
X1929600Y-478942D01*
X1929600Y-485152D01*
X1929015Y-485737D01*
X1929015Y-508000D01*
X1930400Y-509385D01*
X1930400Y-525780D01*
D36*
X1930400Y-525780D03*
X1315720Y-333220D03*
D35*
X1312247Y-329747D02*
X1295400Y-329747D01*
X1288987Y-336160D02*
X1286447Y-336160D01*
X1290094Y-335054D02*
X1295400Y-329747D01*
X1312247Y-329747D02*
X1315720Y-333220D01*
X1286447Y-336160D02*
X1281021Y-330733D01*
X1261152Y-330733D01*
X1936766Y-478942D02*
X1938626Y-480802D01*
X1938762Y-480802D01*
X1261152Y-330733D02*
X1259971Y-331914D01*
X1288987Y-336160D02*
X1290094Y-335054D01*
X1286447Y-336160D02*
X1285240Y-336160D01*
X2530856Y-229997D02*
X2534100Y-229997D01*
X2553531Y-249428D02*
X2581148Y-249428D01*
X2553531Y-249428D02*
X2534100Y-229997D01*
D44*
X1765300Y-741680D03*
X1980348Y-516774D03*
D35*
X1628325Y-210249D02*
X1608651Y-210249D01*
X1587950Y-230950D02*
X1587246Y-230950D01*
X1649026Y-230950D02*
X1834134Y-230950D01*
X1608651Y-210249D02*
X1587950Y-230950D01*
X1628325Y-210249D02*
X1649026Y-230950D01*
X1855539Y-211519D02*
X1875213Y-211519D01*
X1836108Y-230950D02*
X1834134Y-230950D01*
X1836108Y-230950D02*
X1855539Y-211519D01*
X1875213Y-211519D02*
X1892294Y-228600D01*
X1972310Y-228600D01*
X1977390Y-228600D01*
X1974215Y-225425D01*
X1972818Y-225425D01*
X1972818Y-269240D01*
X2002146Y-190817D02*
X2003485Y-189478D01*
X2115379Y-189478D01*
X2186940Y-229997D02*
X2187543Y-229997D01*
X2186940Y-229997D02*
X2155898Y-229997D01*
X2115379Y-189478D01*
X2002146Y-190817D02*
X2002146Y-198764D01*
X1972310Y-228600D01*
X1889379Y-397442D02*
X1890718Y-398781D01*
X1884338Y-382230D02*
X1878865Y-382230D01*
X1884338Y-382230D02*
X1889379Y-387271D01*
X1889379Y-377189D01*
X1889379Y-387271D02*
X1889379Y-397442D01*
X1890718Y-398781D02*
X1919424Y-398781D01*
D44*
X1981200Y-411480D03*
X1958340Y-440690D03*
X2465350Y-157760D03*
D35*
X2508061Y-229997D02*
X2530856Y-229997D01*
X2508061Y-229997D02*
X2465350Y-187285D01*
X2465350Y-157760D01*
D44*
X2186940Y-252730D03*
D35*
X2186940Y-229997D01*
X1980348Y-512024D02*
X1980348Y-516774D01*
X1754886Y-827024D02*
X1741170Y-840740D01*
X1596000Y-840740D01*
X1961760Y-269240D02*
X1972818Y-269240D01*
X1765300Y-741680D02*
X1754886Y-752094D01*
X1754886Y-827024D01*
X1978762Y-510439D02*
X1978762Y-499244D01*
X1978762Y-510439D02*
X1980348Y-512024D01*
X1978762Y-499244D02*
X1977670Y-498152D01*
X1977670Y-492760D01*
X1977670Y-484284D01*
X1966976Y-473590D01*
X1961076Y-467690D02*
X1961076Y-464923D01*
X1961076Y-467690D02*
X1966976Y-473590D01*
X1961076Y-464923D02*
X1960190Y-464037D01*
X1960190Y-442540D01*
X1992298Y-497780D02*
X1993762Y-499244D01*
X1992298Y-497780D02*
X1992298Y-492780D01*
X1979514Y-492760D02*
X1977670Y-492760D01*
X1981565Y-490708D02*
X1990959Y-490708D01*
X1981565Y-490708D02*
X1979514Y-492760D01*
X1992298Y-492780D02*
X1998762Y-499244D01*
X1992298Y-492780D02*
X1992298Y-492048D01*
X1990959Y-490708D01*
X1960190Y-442540D02*
X1958340Y-440690D01*
D41*
X1963420Y-270900D02*
X1961760Y-269240D01*
X1963420Y-270900D02*
X1963420Y-294640D01*
D35*
X1902460Y-330200D02*
X1889379Y-343281D01*
X1889379Y-377189D02*
X1884338Y-382230D01*
X1889379Y-377189D02*
X1889379Y-343281D01*
X1902460Y-330200D02*
X1932940Y-330200D01*
D41*
X1932940Y-312090D02*
X1930730Y-309880D01*
X1932940Y-312090D02*
X1932940Y-330200D01*
D35*
X1920975Y-397230D02*
X1919424Y-398781D01*
X1920975Y-397230D02*
X1920975Y-392230D01*
X1920975Y-397230D02*
X1924881Y-397230D01*
X1931851Y-404200D01*
X1973920Y-404200D01*
D41*
X1988820Y-340360D02*
X1981320Y-332860D01*
X1988820Y-340360D02*
X1988820Y-403860D01*
X1981200Y-411480D01*
X1981320Y-332860D02*
X1960880Y-332860D01*
D35*
X1973920Y-404200D02*
X1981200Y-411480D01*
X2726300Y-378460D02*
X2726300Y-370783D01*
X2695829Y-340312D01*
X2672032Y-340312D02*
X2581148Y-249428D01*
X2672032Y-340312D02*
X2695829Y-340312D01*
D44*
X529264Y-387604D03*
X646555Y-201930D03*
X243715Y-231140D03*
D35*
X282321Y-231140D01*
X282448Y-231267D01*
D44*
X965708Y-775462D03*
X832104Y-529338D03*
D35*
X918745Y-302260D02*
X918745Y-297460D01*
X918745Y-302260D02*
X918745Y-302460D01*
X930598Y-298449D02*
X951531Y-298449D01*
X926587Y-302460D02*
X918745Y-302460D01*
X926587Y-302460D02*
X930598Y-298449D01*
X783878Y-578461D02*
X782539Y-579800D01*
X771875Y-579800D02*
X769266Y-577191D01*
X769266Y-570910D01*
X771875Y-579800D02*
X782539Y-579800D01*
X795244Y-543545D02*
X804149Y-534640D01*
X795244Y-543545D02*
X795244Y-545644D01*
X785136Y-555752D02*
X773771Y-555752D01*
X768945Y-560578D01*
X785136Y-555752D02*
X795244Y-545644D01*
X968856Y-304800D02*
X968856Y-282279D01*
X968856Y-304800D02*
X968856Y-308662D01*
X968856Y-282279D02*
X986218Y-264917D01*
X918745Y-297460D02*
X901701Y-280416D01*
X869442Y-228600D02*
X869442Y-226695D01*
X833503Y-527939D02*
X913315Y-527939D01*
X647166Y-248158D02*
X644811Y-245803D01*
X644811Y-203674D02*
X646555Y-201930D01*
X644811Y-203674D02*
X644811Y-245803D01*
X624745Y-231267D02*
X624745Y-223740D01*
X646555Y-201930D01*
X832104Y-529338D02*
X826802Y-534640D01*
X804149Y-534640D01*
X965058Y-312460D02*
X968856Y-308662D01*
X965058Y-312460D02*
X960855Y-312460D01*
X960774Y-312541D01*
X952923Y-312541D01*
X952923Y-299841D02*
X951531Y-298449D01*
X952923Y-299841D02*
X952923Y-312541D01*
X986218Y-264917D02*
X986218Y-257181D01*
X999744Y-243655D02*
X999744Y-230950D01*
X999744Y-243655D02*
X986218Y-257181D01*
X965708Y-775462D02*
X965708Y-813308D01*
X993140Y-840740D01*
X1143390Y-840740D01*
X910980Y-228600D02*
X912250Y-227330D01*
X910980Y-228600D02*
X901700Y-228600D01*
X869442Y-228600D01*
X968856Y-304800D02*
X1066800Y-304800D01*
X1079500Y-317500D01*
D44*
X1079500Y-317500D03*
X1193546Y-231140D03*
D35*
X1246188Y-231140D02*
X1246378Y-230950D01*
X1246188Y-231140D02*
X1193546Y-231140D01*
D44*
X681736Y-220218D03*
D35*
X662109Y-248158D02*
X647166Y-248158D01*
X681736Y-228531D02*
X681736Y-220218D01*
X681736Y-228531D02*
X662109Y-248158D01*
D44*
X901700Y-241300D03*
D35*
X901701Y-241301D01*
X901701Y-280416D01*
X901700Y-241300D02*
X901700Y-228600D01*
X529264Y-387604D02*
X529264Y-389336D01*
X474980Y-443620D01*
X783878Y-578461D02*
X783945Y-578528D01*
X785876Y-580459D01*
X785876Y-587876D01*
X768945Y-570553D02*
X768945Y-560578D01*
X764540Y-570553D02*
X763945Y-570553D01*
X764540Y-570553D02*
X768909Y-570553D01*
X769266Y-570910D01*
X764540Y-564983D02*
X768945Y-560578D01*
X764540Y-564983D02*
X764540Y-570553D01*
X913315Y-527939D02*
X919150Y-522104D01*
X919150Y-402590D01*
X903910Y-387350D01*
X783945Y-570553D02*
X783945Y-578528D01*
X832104Y-529338D02*
X833503Y-527939D01*
D41*
X872490Y-387350D02*
X903910Y-387350D01*
X872490Y-387350D02*
X848360Y-363220D01*
D36*
X848360Y-363220D03*
X904240Y-297180D03*
D41*
X918465Y-297180D01*
X918745Y-297460D01*
X913665Y-297180D02*
X904240Y-297180D01*
X913665Y-297180D02*
X918745Y-302260D01*
D40*
X908050Y-848487D03*
X1316990Y-374650D03*
D39*
X1316990Y-366275D01*
X1364947Y-318318D01*
X1370197Y-318318D01*
X907034Y-807091D02*
X908050Y-808107D01*
X908050Y-848487D01*
D35*
X2594737Y-342646D02*
X2610494Y-342646D01*
X2611002Y-343154D01*
X2530094Y-612267D02*
X2530094Y-626754D01*
X2529586Y-627262D01*
X2448814Y-254635D02*
X2448814Y-238878D01*
X2448814Y-254635D02*
X2448306Y-255143D01*
X2366264Y-610997D02*
X2366264Y-625484D01*
X2365756Y-625992D01*
X2284984Y-412115D02*
X2284984Y-395088D01*
X2284984Y-412115D02*
X2284476Y-412623D01*
X2202434Y-610997D02*
X2202434Y-625484D01*
X2201926Y-625992D01*
X2082986Y-397324D02*
X2082918Y-397256D01*
X2083426Y-397764D02*
X2099183Y-397764D01*
X2083426Y-397764D02*
X2082986Y-397324D01*
X1965325Y-633476D02*
X1950838Y-633476D01*
X1965325Y-633476D02*
X1965833Y-633984D01*
X1869694Y-561984D02*
X1869694Y-546227D01*
X1869694Y-561984D02*
X1869186Y-562492D01*
X1852304Y-652526D02*
X1837817Y-652526D01*
X1852304Y-652526D02*
X1852812Y-653034D01*
X1605534Y-389264D02*
X1605534Y-372237D01*
X1605534Y-389264D02*
X1605026Y-389772D01*
X1682877Y-652526D02*
X1698634Y-652526D01*
X1699142Y-653034D01*
X898144Y-561984D02*
X898144Y-541147D01*
X898144Y-561984D02*
X897636Y-562492D01*
X788044Y-648716D02*
X773557Y-648716D01*
X788044Y-648716D02*
X789822Y-650494D01*
X560324Y-357514D02*
X560324Y-341757D01*
X560324Y-357514D02*
X559816Y-358022D01*
X549720Y-591630D02*
X549656Y-591693D01*
X550164Y-591185D02*
X550164Y-576698D01*
X550164Y-591185D02*
X549720Y-591630D01*
X393192Y-293252D02*
X395224Y-291220D01*
X395224Y-276987D01*
X383794Y-575428D02*
X383794Y-589661D01*
X384556Y-590423D01*
X202184Y-373516D02*
X202184Y-353695D01*
X202184Y-373516D02*
X201676Y-374024D01*
X218694Y-575428D02*
X218694Y-589915D01*
X218186Y-590423D01*
X37084Y-192405D02*
X37084Y-176648D01*
X37084Y-192405D02*
X36576Y-192913D01*
D37*
X2574671Y-333248D02*
X2574671Y-351460D01*
X2580704Y-357493D01*
X2580704Y-390842D01*
X2522982Y-448564D01*
X2574671Y-333248D02*
X2574671Y-318765D01*
X2589652Y-303784D01*
X2432558Y-512826D02*
X2463360Y-543628D01*
X2519035Y-559816D02*
X2529718Y-559816D01*
X2502847Y-543628D02*
X2463360Y-543628D01*
X2502847Y-543628D02*
X2519035Y-559816D01*
X2529718Y-582427D02*
X2539492Y-592201D01*
X2529718Y-582427D02*
X2529718Y-559816D01*
X2438908Y-276484D02*
X2438908Y-275209D01*
X2438908Y-276484D02*
X2418334Y-297058D01*
X2374270Y-341122D01*
X2372360Y-341122D01*
X2335305Y-541782D02*
X2297684Y-541782D01*
X2350799Y-557276D02*
X2365888Y-557276D01*
X2350799Y-557276D02*
X2335305Y-541782D01*
X2297684Y-541782D02*
X2268728Y-512826D01*
X2365888Y-557276D02*
X2375662Y-567050D01*
X2375662Y-590931D01*
X2275078Y-432689D02*
X2231517Y-432689D01*
X2216912Y-418084D01*
X2275078Y-432689D02*
X2275078Y-449966D01*
X2266828Y-458216D01*
X2202058Y-581157D02*
X2211832Y-590931D01*
X2202058Y-581157D02*
X2202058Y-557276D01*
X2141982Y-549910D02*
X2104390Y-512318D01*
X2184146Y-557276D02*
X2202058Y-557276D01*
X2176780Y-549910D02*
X2141982Y-549910D01*
X2176780Y-549910D02*
X2184146Y-557276D01*
D35*
X2084832Y-346202D02*
X2084832Y-340614D01*
X2084832Y-346202D02*
X2085975Y-347345D01*
D37*
X2108518Y-369888D01*
X2108518Y-396431D02*
X2119249Y-407162D01*
X2108518Y-396431D02*
X2108518Y-369888D01*
X2119249Y-407162D02*
X2119249Y-423423D01*
X2104776Y-437896D01*
X1985899Y-651764D02*
X1943227Y-694436D01*
X1985899Y-651764D02*
X1985899Y-643382D01*
X1994403Y-634878D01*
X2003481Y-634878D01*
X2004751Y-633608D01*
X2019554Y-633608D01*
X1859280Y-551942D02*
X1817370Y-593852D01*
X1859280Y-551942D02*
X1859280Y-543560D01*
X1876679Y-526161D02*
X1879092Y-526161D01*
X1876679Y-526161D02*
X1859280Y-543560D01*
X1879092Y-526161D02*
X1879092Y-503301D01*
X1862384Y-486593D01*
X1862384Y-465328D01*
D35*
X1817751Y-643128D02*
X1817180Y-643700D01*
D37*
X1797558Y-666364D02*
X1797558Y-694436D01*
X1797558Y-666364D02*
X1784096Y-652902D01*
X1793299Y-643700D01*
X1817180Y-643700D01*
X1668526Y-389382D02*
X1631315Y-352171D01*
X1614932Y-352171D01*
X1605158Y-342397D01*
X1605158Y-321056D01*
X1629156Y-652902D02*
X1653037Y-652902D01*
X1662811Y-643128D01*
X1662811Y-620649D01*
X1689354Y-594106D01*
D35*
X808990Y-341884D02*
X808482Y-341884D01*
D37*
X808990Y-341884D02*
X808990Y-368724D01*
X888365Y-448099D01*
X854588Y-495051D02*
X880618Y-521081D01*
X907542Y-521081D01*
X862902Y-473138D02*
X871220Y-464820D01*
X885190Y-464820D01*
X888365Y-461645D01*
X888365Y-448099D01*
X854588Y-495046D02*
X854588Y-495051D01*
X854588Y-495046D02*
X854588Y-492577D01*
X862902Y-484263D01*
X862902Y-473138D01*
D35*
X721360Y-649092D02*
X721106Y-649092D01*
X721360Y-649092D02*
X743717Y-649092D01*
X749300Y-677032D02*
X749300Y-690626D01*
X749300Y-677032D02*
X721360Y-649092D01*
D37*
X743717Y-649092D02*
X753491Y-639318D01*
X743717Y-649092D02*
X721106Y-649092D01*
X749300Y-677286D01*
X749300Y-690626D01*
X569722Y-321691D02*
X559948Y-311917D01*
X559948Y-288036D01*
X577342Y-321691D02*
X594550Y-338899D01*
X577342Y-321691D02*
X569722Y-321691D01*
X594550Y-424957D02*
X613145Y-443552D01*
X594550Y-424957D02*
X594550Y-338899D01*
X678180Y-417322D02*
X651950Y-443552D01*
X613145Y-443552D01*
X540258Y-634370D02*
X550032Y-644144D01*
X540258Y-634370D02*
X540258Y-611759D01*
X550240Y-611759D02*
X563744Y-598255D01*
X550240Y-611759D02*
X540258Y-611759D01*
X598932Y-520598D02*
X598932Y-511048D01*
X598932Y-520598D02*
X563744Y-555786D01*
X563744Y-598255D01*
X404622Y-237866D02*
X394848Y-228092D01*
X409524Y-256921D02*
X422910Y-270307D01*
X422910Y-294493D01*
X508333Y-353314D02*
X512572Y-353314D01*
X472460Y-317441D02*
X445858Y-317441D01*
X472460Y-317441D02*
X508333Y-353314D01*
X445858Y-317441D02*
X422910Y-294493D01*
X409524Y-256921D02*
X404622Y-256921D01*
X404622Y-237866D01*
X375158Y-634370D02*
X384932Y-644144D01*
X375158Y-634370D02*
X375158Y-610489D01*
X403860Y-541528D02*
X433070Y-512318D01*
X403860Y-541528D02*
X403860Y-593852D01*
X387223Y-610489D01*
X375158Y-610489D01*
X211582Y-310510D02*
X201808Y-300736D01*
X211582Y-310510D02*
X211582Y-333629D01*
X213741Y-335788D01*
X229594Y-335788D01*
X239458Y-345652D01*
X239458Y-388620D01*
X256916Y-406078D01*
X280935Y-406078D01*
X305641Y-430784D02*
X318262Y-430784D01*
X305641Y-430784D02*
X280935Y-406078D01*
X208788Y-634370D02*
X218562Y-644144D01*
X208788Y-634370D02*
X208788Y-610489D01*
X208534Y-610235D02*
X208534Y-572059D01*
X208534Y-610235D02*
X208788Y-610489D01*
X208534Y-572059D02*
X213221Y-567372D01*
X225819Y-567372D01*
X266192Y-526999D01*
X266192Y-512318D01*
X27178Y-236860D02*
X27178Y-212979D01*
X27178Y-236860D02*
X36952Y-246634D01*
X50165Y-259847D01*
X50165Y-286120D01*
X75635Y-311590D01*
X98817Y-311590D01*
X128349Y-341122D02*
X135890Y-341122D01*
X128349Y-341122D02*
X98817Y-311590D01*
D35*
X2572648Y-362674D02*
X2572648Y-362966D01*
X2572648Y-362674D02*
X2563876Y-353902D01*
X2563876Y-313060D02*
X2573152Y-303784D01*
X2563876Y-313060D02*
X2563876Y-353902D01*
X2546218Y-543048D02*
X2546218Y-559816D01*
X2546218Y-543048D02*
X2546722Y-542544D01*
X2418334Y-327288D02*
X2418334Y-313558D01*
X2382388Y-540508D02*
X2382388Y-557276D01*
X2382388Y-540508D02*
X2382892Y-540004D01*
X2283328Y-473460D02*
X2283328Y-458216D01*
X2283328Y-473460D02*
X2283832Y-473964D01*
X2218558Y-540508D02*
X2218558Y-557276D01*
X2218558Y-540508D02*
X2219062Y-540004D01*
X2121276Y-437896D02*
X2121276Y-432601D01*
X2128774Y-388756D02*
X2117462Y-377444D01*
X2128774Y-425103D02*
X2121276Y-432601D01*
X2128774Y-425103D02*
X2128774Y-388756D01*
X2036322Y-650108D02*
X2019554Y-650108D01*
X2036322Y-650108D02*
X2036826Y-650612D01*
X1878884Y-465328D02*
X1878884Y-450008D01*
X1879210Y-449682D01*
X1784096Y-636402D02*
X1767328Y-636402D01*
X1766824Y-635898D01*
X1622162Y-320552D02*
X1622162Y-305054D01*
X1622162Y-320552D02*
X1621658Y-321056D01*
X1629156Y-636402D02*
X1612388Y-636402D01*
X1611884Y-635898D01*
X871592Y-494542D02*
X871088Y-495046D01*
X871592Y-494542D02*
X871592Y-479044D01*
X720602Y-632088D02*
X703834Y-632088D01*
X720602Y-632088D02*
X721106Y-632592D01*
X576952Y-287532D02*
X576952Y-270764D01*
X576952Y-287532D02*
X576448Y-288036D01*
X533532Y-644144D02*
X533532Y-660912D01*
X533028Y-661416D01*
X413376Y-206248D02*
X411852Y-204724D01*
X413376Y-206248D02*
X413376Y-212364D01*
X415455Y-214444D01*
X415455Y-223985D01*
X411348Y-228092D01*
X368432Y-644144D02*
X368432Y-660912D01*
X367928Y-661416D01*
X218308Y-284230D02*
X217542Y-283464D01*
X218308Y-284230D02*
X218308Y-300736D01*
X201558Y-644648D02*
X201558Y-661416D01*
X201558Y-644648D02*
X202062Y-644144D01*
X19948Y-263906D02*
X19948Y-247138D01*
X20452Y-246634D01*
X1931162Y-605400D02*
X1947402Y-605400D01*
X1947418Y-605416D01*
X1972176Y-605416D01*
X1975866Y-601726D01*
X1957770Y-583630D01*
X1945640Y-583630D01*
X1938762Y-576752D01*
X1938762Y-566744D01*
X769112Y-470662D02*
X723646Y-470662D01*
X783978Y-485528D02*
X804164Y-485528D01*
X783978Y-485528D02*
X769112Y-470662D01*
X804164Y-485528D02*
X820150Y-485528D01*
X820166Y-485512D01*
X823945Y-489323D02*
X823945Y-503053D01*
X823945Y-489323D02*
X820150Y-485528D01*
D38*
X821690Y-448310D03*
X146050Y-147320D03*
D37*
X8954Y-136903D02*
X8954Y-164097D01*
X18034Y-173177D02*
X18034Y-176648D01*
X18034Y-173177D02*
X8954Y-164097D01*
X18034Y-176648D02*
X18034Y-192659D01*
X17780Y-192913D01*
X820166Y-468512D02*
X821690Y-466988D01*
X821690Y-448310D01*
X822960Y-447040D01*
X822960Y-396240D01*
X788670Y-361950D02*
X788670Y-322580D01*
X788670Y-361950D02*
X822960Y-396240D01*
X13865Y-131992D02*
X8954Y-136903D01*
X13865Y-131992D02*
X90076Y-131992D01*
X121920Y-147320D02*
X146050Y-147320D01*
X788670Y-322580D02*
X796544Y-314706D01*
X854160Y-314706D01*
X97536Y-139452D02*
X90076Y-131992D01*
X97536Y-139452D02*
X114052Y-139452D01*
X121920Y-147320D01*
D38*
X1906270Y-589966D03*
X1924050Y-410600D03*
X1664208Y-659638D03*
X1891411Y-452120D03*
D37*
X1699142Y-633984D02*
X1683131Y-633984D01*
X1682877Y-633730D01*
X1682877Y-638048D01*
X1664208Y-656717D01*
X1664208Y-659638D01*
X1605903Y-660954D02*
X1585087Y-640138D01*
X1664208Y-659638D02*
X1664208Y-659892D01*
X1663146Y-660954D01*
X1605903Y-660954D01*
X1585087Y-451492D02*
X1451913Y-318318D01*
X1585087Y-451492D02*
X1585087Y-640138D01*
X1897634Y-581330D02*
X1906270Y-589966D01*
X1891411Y-487045D02*
X1891411Y-452120D01*
X1891411Y-487045D02*
X1897634Y-493268D01*
X1897634Y-581330D01*
X1906270Y-589966D02*
X1907836Y-588400D01*
X1931162Y-588400D01*
X1464697Y-318318D02*
X1451913Y-318318D01*
D41*
X1924946Y-411496D02*
X1938960Y-411496D01*
X1924946Y-411496D02*
X1924050Y-410600D01*
D35*
X1999234Y-476257D02*
X2008762Y-485785D01*
X2008762Y-499244D01*
D41*
X960855Y-297460D02*
X959730Y-296335D01*
X959730Y-273050D01*
D35*
X958380Y-386880D02*
X957910Y-387350D01*
D41*
X960855Y-359035D02*
X960855Y-332460D01*
X960855Y-384405D02*
X958380Y-386880D01*
X960855Y-359035D02*
X981710Y-338180D01*
X960855Y-359035D02*
X960855Y-384405D01*
X960855Y-332460D02*
X975990Y-332460D01*
X981710Y-338180D01*
D35*
X978930Y-322460D02*
X981710Y-319680D01*
D41*
X978930Y-322460D02*
X960855Y-322460D01*
D35*
X895852Y-316470D02*
X890270Y-316470D01*
X895852Y-316470D02*
X901842Y-322460D01*
X918745Y-322460D01*
D41*
X888506Y-314706D02*
X871160Y-314706D01*
X888506Y-314706D02*
X890270Y-316470D01*
X1878865Y-397230D02*
X1878865Y-411741D01*
X1878568Y-412039D01*
D35*
X1875625Y-310985D02*
X1876730Y-309880D01*
D37*
X1875625Y-310985D02*
X1878865Y-314225D01*
X1878865Y-336214D02*
X1860550Y-354529D01*
X1878865Y-336214D02*
X1878865Y-314225D01*
D41*
X1878865Y-372230D02*
X1861349Y-372230D01*
X1860550Y-373029D01*
X1921031Y-372174D02*
X1926200Y-372174D01*
X1921031Y-372174D02*
X1920975Y-372230D01*
X1926200Y-372174D02*
X1938960Y-384934D01*
X1938960Y-394496D01*
D35*
X1944760Y-269240D02*
X1929760Y-269240D01*
X929000Y-227080D02*
X929000Y-201930D01*
X929000Y-227080D02*
X929250Y-227330D01*
X1160390Y-840740D02*
X1174120Y-840740D01*
X1564000Y-840740D02*
X1579000Y-840740D01*
D41*
X1421054Y-517416D02*
X1421054Y-498761D01*
X1420818Y-517652D02*
X1420818Y-517830D01*
X1420818Y-517652D02*
X1421054Y-517416D01*
D35*
X1428360Y-676434D02*
X1428360Y-683260D01*
X1428360Y-676434D02*
X1439715Y-665079D01*
X1439715Y-660730D01*
X1421384Y-685600D02*
X1421384Y-739387D01*
X1421384Y-685600D02*
X1423724Y-683260D01*
X1428360Y-683260D01*
X1421384Y-739387D02*
X1407160Y-753611D01*
X1407160Y-777240D01*
X1418082Y-777240D01*
X1430528Y-764794D02*
X1431163Y-764794D01*
X1430528Y-764794D02*
X1418082Y-777240D01*
X1411360Y-683260D02*
X1411360Y-674519D01*
X1401920Y-665079D01*
X1401920Y-660730D01*
X1418336Y-685948D02*
X1418336Y-738124D01*
X1418336Y-685948D02*
X1415648Y-683260D01*
X1411360Y-683260D01*
X1418336Y-738124D02*
X1404112Y-752348D01*
X1404112Y-778503D02*
X1405897Y-780288D01*
X1418590Y-780288D01*
X1431163Y-792861D02*
X1431163Y-794766D01*
X1431163Y-792861D02*
X1418590Y-780288D01*
X1404112Y-778503D02*
X1404112Y-752348D01*
X844940Y-534548D02*
X833845Y-545643D01*
X844940Y-534548D02*
X844940Y-534289D01*
X833845Y-545643D02*
X820266Y-545643D01*
X808831Y-557078D01*
X794307Y-557078D01*
X788945Y-562440D01*
X788945Y-570553D01*
X844940Y-534289D02*
X845225Y-534289D01*
X853556Y-542620D01*
X853556Y-545160D01*
D36*
X853556Y-545160D03*
X1183640Y-323459D03*
D35*
X1191111Y-323459D02*
X1194555Y-320015D01*
X1191111Y-323459D02*
X1183640Y-323459D01*
X811525Y-560126D02*
X796647Y-560126D01*
X793945Y-562829D01*
X793945Y-570553D01*
X822960Y-548691D02*
X838361Y-548691D01*
X822960Y-548691D02*
X811525Y-560126D01*
D36*
X854801Y-565582D03*
X1183640Y-332547D03*
D35*
X1191085Y-332547D01*
X1194530Y-335991D01*
X854801Y-565582D02*
X845067Y-555848D01*
X845067Y-555396D01*
X838361Y-548691D01*
D41*
X1362786Y-498863D02*
X1363022Y-499099D01*
X1363022Y-517830D01*
X1908304Y-467480D02*
X1919766Y-478942D01*
X1908304Y-467480D02*
X1905000Y-467480D01*
X1915024Y-467480D02*
X1919360Y-463144D01*
X1915024Y-467480D02*
X1905000Y-467480D01*
D35*
X1936284Y-447497D02*
X1936784Y-447497D01*
X1940219Y-444062D01*
X1946078Y-444062D02*
X1948336Y-446320D01*
X1948336Y-472196D01*
X1968762Y-492622D01*
X1968762Y-499244D01*
X1946078Y-444062D02*
X1940219Y-444062D01*
X1936284Y-447497D02*
X1929118Y-447497D01*
X1929118Y-453707D01*
X1925993Y-456831D01*
X1908243Y-456831D01*
X1907540Y-456128D01*
D36*
X1907540Y-456128D03*
X1470660Y-408940D03*
D35*
X1470660Y-419100D01*
X1401920Y-487840D02*
X1401920Y-517830D01*
X1401920Y-487840D02*
X1470660Y-419100D01*
X1936284Y-431825D02*
X1938153Y-431825D01*
X1951384Y-445057D01*
X1951384Y-470789D01*
X1973762Y-493167D01*
X1973762Y-499244D01*
X1926070Y-452444D02*
X1924731Y-453783D01*
X1913837Y-453783D01*
X1926070Y-442039D02*
X1936284Y-431825D01*
X1926070Y-442039D02*
X1926070Y-452444D01*
X1913837Y-453783D02*
X1907094Y-447040D01*
X1905000Y-447040D01*
D36*
X1905000Y-447040D03*
X1480820Y-402392D03*
D35*
X1479271Y-403941D01*
X1479271Y-414800D01*
X1439715Y-454355D02*
X1439715Y-517830D01*
X1439715Y-454355D02*
X1479271Y-414800D01*
X1355480Y-683260D02*
X1354980Y-683260D01*
X1344125Y-672405D01*
X1344125Y-660730D01*
X1312672Y-764794D02*
X1304417Y-764794D01*
X1312672Y-764794D02*
X1316547Y-768669D01*
X1316547Y-775050D01*
X1319753Y-778256D01*
X1322963Y-778256D01*
X1362456Y-738763D01*
X1362456Y-685948D01*
X1359768Y-683260D01*
X1355480Y-683260D01*
X1372480Y-683260D02*
X1372980Y-683260D01*
X1381920Y-674320D01*
X1381920Y-660730D01*
X1312672Y-794766D02*
X1304417Y-794766D01*
X1312672Y-794766D02*
X1317814Y-789624D01*
X1317814Y-783876D01*
X1320387Y-781304D01*
X1324225Y-781304D01*
X1365504Y-740025D01*
X1365504Y-685600D01*
X1367844Y-683260D01*
X1372480Y-683260D01*
X808945Y-603679D02*
X808945Y-570553D01*
X808945Y-603679D02*
X815984Y-610718D01*
X1917716Y-578120D02*
X1929269Y-566567D01*
X1917716Y-578120D02*
X1915363Y-578120D01*
X1953898Y-499381D02*
X1953762Y-499244D01*
X1953898Y-499381D02*
X1953898Y-515174D01*
X1929269Y-539803D02*
X1929269Y-566567D01*
X1929269Y-539803D02*
X1953898Y-515174D01*
D41*
X1919284Y-447497D02*
X1918157Y-447497D01*
X1912620Y-441960D01*
X1919284Y-435296D02*
X1919284Y-431825D01*
X1919284Y-435296D02*
X1912620Y-441960D01*
X1910080Y-439420D02*
X1894840Y-439420D01*
X1885848Y-430428D01*
X1879709Y-430428D01*
X1910080Y-439420D02*
X1912620Y-441960D01*
X876224Y-585604D02*
X866717Y-576097D01*
X869678Y-592150D02*
X862143Y-592150D01*
X869678Y-592150D02*
X876224Y-585604D01*
X866717Y-576097D02*
X861991Y-576097D01*
D35*
X814037Y-570645D02*
X813945Y-570553D01*
X814037Y-570645D02*
X814037Y-592279D01*
X832477Y-610718D02*
X832984Y-610718D01*
X832477Y-610718D02*
X814037Y-592279D01*
X833035Y-610667D02*
X846007Y-610667D01*
X833035Y-610667D02*
X832984Y-610718D01*
X1931943Y-531848D02*
X1932914Y-531848D01*
X1931943Y-531848D02*
X1915363Y-548428D01*
X1948762Y-515999D02*
X1948762Y-499244D01*
X1948762Y-515999D02*
X1932914Y-531848D01*
X1915363Y-548428D02*
X1915363Y-561120D01*
D41*
X868434Y-545863D02*
X861940Y-539369D01*
X861940Y-534289D01*
X873423Y-545617D02*
X876224Y-542816D01*
X862067Y-552230D02*
X862067Y-555396D01*
X862067Y-552230D02*
X868434Y-545863D01*
X873177Y-545863D01*
X873423Y-545617D01*
D35*
X1229999Y-331914D02*
X1241471Y-331914D01*
X1229999Y-331914D02*
X1226727Y-335187D01*
X1225575Y-336338D01*
X1212959Y-332562D02*
X1209530Y-335991D01*
X1224102Y-332562D02*
X1226727Y-335187D01*
X1224102Y-332562D02*
X1212959Y-332562D01*
X1230152Y-323914D02*
X1241471Y-323914D01*
X1230152Y-323914D02*
X1226244Y-320006D01*
X1225575Y-319338D01*
X1212120Y-322580D02*
X1209555Y-320015D01*
X1223670Y-322580D02*
X1226244Y-320006D01*
X1223670Y-322580D02*
X1212120Y-322580D01*
D36*
X708434Y-538480D03*
D35*
X714784Y-544830D01*
X734031Y-544830D01*
X747481Y-569089D02*
X748945Y-570553D01*
X747481Y-569089D02*
X747481Y-558280D01*
X734031Y-544830D01*
D36*
X598397Y-460783D03*
D35*
X583583Y-460783D01*
X582540Y-459740D01*
X2013762Y-499244D02*
X2013762Y-506407D01*
X2000648Y-519522D01*
D36*
X2000648Y-519522D03*
X2327965Y-380774D03*
D35*
X2379754Y-380774D01*
X2379980Y-381000D01*
D36*
X2379980Y-381000D03*
X2608689Y-388729D03*
D35*
X2620400Y-381000D02*
X2620400Y-378460D01*
X2620400Y-381000D02*
X2612671Y-388729D01*
X2608689Y-388729D01*
X475980Y-459620D02*
X474980Y-460620D01*
X475980Y-459620D02*
X492760Y-459620D01*
X508769Y-459620D01*
X511302Y-462153D01*
X2709173Y-378587D02*
X2709300Y-378460D01*
X2709173Y-378587D02*
X2692400Y-378587D01*
X2691638Y-378587D01*
X2709300Y-378460D02*
X2709300Y-392940D01*
X2710180Y-393820D01*
X2707633Y-393820D01*
X2692400Y-378587D01*
M02*
