G04 EAGLE Gerber RS-274X export*
G75*
%MOMM*%
%FSLAX34Y34*%
%LPD*%
%INCopper Layer 15*%
%IPPOS*%
%AMOC8*
5,1,8,0,0,1.08239X$1,22.5*%
G01*
%ADD10C,0.756400*%
%ADD11C,0.152400*%
%ADD12C,1.016000*%
%ADD13C,0.609600*%
%ADD14C,1.092200*%
%ADD15C,0.660400*%
%ADD16C,0.977900*%
%ADD17C,0.381000*%
%ADD18C,0.304800*%


D10*
X853537Y-600310D03*
X1367566Y-457200D03*
D11*
X1356898Y-467868D01*
X1320292Y-467868D01*
X1195832Y-592328D02*
X863600Y-592328D01*
X1195832Y-592328D02*
X1320292Y-467868D01*
X863600Y-592328D02*
X855618Y-600310D01*
X853537Y-600310D01*
D12*
X519938Y-544832D03*
X476250Y-384810D03*
X403517Y-215989D03*
D13*
X476250Y-288721D01*
X476250Y-384810D01*
X476250Y-501144D01*
X519938Y-544832D01*
D12*
X1857756Y-665480D03*
X1736090Y-545340D03*
X1869440Y-609346D03*
D13*
X1748790Y-558040D02*
X1736090Y-545340D01*
X1748790Y-558040D02*
X1818134Y-558040D01*
X1869440Y-609346D01*
D12*
X1874520Y-481762D03*
X1541778Y-138940D03*
D13*
X1871980Y-481762D02*
X1874520Y-481762D01*
X1871980Y-481762D02*
X1866900Y-476682D01*
X1856740Y-476682D01*
X1541778Y-161720D01*
X1541778Y-138940D01*
D12*
X1895985Y-724154D03*
X1926427Y-664373D03*
D13*
X1980873Y-718820D01*
X1901319Y-718820D01*
X1895985Y-724154D01*
D14*
X2128520Y-718820D03*
D13*
X1980873Y-718820D01*
D12*
X2128232Y-702598D03*
X2083562Y-518160D03*
X1794510Y-138940D03*
X2027172Y-379730D03*
D13*
X2027172Y-310642D01*
X1852930Y-136400D01*
X1797050Y-136400D01*
X1794510Y-138940D01*
X2083562Y-518160D02*
X2083562Y-528574D01*
X2070100Y-542036D01*
X2070100Y-644466D02*
X2128232Y-702598D01*
X2070100Y-644466D02*
X2070100Y-542036D01*
D14*
X2735580Y-140970D03*
X2527300Y-848487D03*
X2284730Y-11303D03*
X2434590Y-848487D03*
X2085340Y-49403D03*
X2266950Y-848487D03*
X1767332Y-34417D03*
X2175510Y-848487D03*
X1517599Y-12395D03*
X2082800Y-848487D03*
X1338580Y-57023D03*
X1093470Y-53950D03*
X565658Y-848487D03*
X778510Y-51943D03*
X472440Y-848487D03*
X563880Y-47117D03*
X307340Y-848487D03*
X2466340Y-11303D03*
D10*
X1922043Y-519984D03*
D11*
X1917517Y-524510D01*
X1563370Y-524510D01*
X1366012Y-327152D02*
X1318260Y-327152D01*
X1366012Y-327152D02*
X1563370Y-524510D01*
X1318260Y-327152D02*
X1315720Y-324612D01*
X1315720Y-324132D01*
D10*
X1315720Y-324132D03*
D14*
X46914Y-13691D03*
X214376Y-848487D03*
X378460Y-12827D03*
D12*
X211328Y-363474D03*
X422910Y-184150D03*
D13*
X410591Y-196469D01*
X262255Y-196469D01*
X211328Y-247396D02*
X211328Y-363474D01*
X211328Y-247396D02*
X262255Y-196469D01*
D15*
X2615946Y-364490D03*
X2067658Y-515569D03*
D11*
X2060956Y-508868D01*
X2060956Y-502158D02*
X2151008Y-412106D01*
X2243465Y-412106D01*
X2259585Y-395986D01*
X2060956Y-502158D02*
X2060956Y-508868D01*
X2609596Y-370840D02*
X2615946Y-364490D01*
X2609596Y-370840D02*
X2366264Y-370840D01*
X2341118Y-395986D01*
X2259585Y-395986D01*
D15*
X2627630Y-364490D03*
X2053590Y-519176D03*
D11*
X2055114Y-517652D02*
X2055114Y-502913D01*
X2055114Y-517652D02*
X2053590Y-519176D01*
X2148969Y-409058D02*
X2242203Y-409058D01*
X2258323Y-392938D01*
X2337308Y-392938D01*
X2148969Y-409058D02*
X2055114Y-502913D01*
X2337308Y-392938D02*
X2374646Y-355600D01*
X2616200Y-355600D01*
X2625090Y-364490D02*
X2627630Y-364490D01*
X2625090Y-364490D02*
X2616200Y-355600D01*
D15*
X1969516Y-534670D03*
X2034540Y-414020D03*
D11*
X2034540Y-416560D01*
X1982470Y-468630D01*
X1969516Y-531542D02*
X1969516Y-534670D01*
X1982470Y-504504D02*
X1982470Y-468630D01*
X1982470Y-504504D02*
X1973172Y-513802D01*
X1973172Y-527886D01*
X1969516Y-531542D01*
D15*
X1897254Y-622092D03*
D11*
X1892174Y-617012D01*
X1892174Y-609980D01*
X1896364Y-605790D01*
D15*
X1896364Y-605790D03*
X1953144Y-524002D03*
X1576324Y-431546D03*
D11*
X1576324Y-434594D02*
X1661922Y-520192D01*
X1911234Y-520192D02*
X1920124Y-511302D01*
X1940444Y-511302D02*
X1953144Y-524002D01*
X1940444Y-511302D02*
X1920124Y-511302D01*
X1911234Y-520192D02*
X1661922Y-520192D01*
X1576324Y-434594D02*
X1576324Y-431546D01*
D15*
X1986026Y-542798D03*
X2066290Y-383540D03*
D11*
X2066290Y-391160D01*
X1987550Y-469900D01*
X1987550Y-528320D01*
X1983486Y-532384D01*
X1983486Y-540258D01*
X1986026Y-542798D01*
D15*
X1905508Y-630682D03*
D11*
X1929130Y-607060D01*
X1929130Y-589280D01*
X1920240Y-580390D01*
X1879410Y-580390D01*
D15*
X1879410Y-580390D03*
X1963304Y-546608D03*
D11*
X1968892Y-526586D02*
X1968892Y-519663D01*
X1956606Y-507376D02*
X1917425Y-507376D01*
X1956606Y-507376D02*
X1968892Y-519663D01*
X1667434Y-517068D02*
X1588008Y-437642D01*
D15*
X1588008Y-437642D03*
D11*
X1907733Y-517068D02*
X1917425Y-507376D01*
X1907733Y-517068D02*
X1667434Y-517068D01*
X1963304Y-532174D02*
X1963304Y-546608D01*
X1963304Y-532174D02*
X1968892Y-526586D01*
D15*
X1936736Y-541122D03*
X1713230Y-539498D03*
D11*
X1929499Y-533885D02*
X1936736Y-541122D01*
X1929499Y-533885D02*
X1721104Y-533885D01*
X1715491Y-539498D02*
X1713230Y-539498D01*
X1715491Y-539498D02*
X1721104Y-533885D01*
D15*
X1942857Y-547624D03*
X1720088Y-546864D03*
D11*
X1720088Y-546356D01*
X1926001Y-547624D02*
X1942857Y-547624D01*
X1915589Y-537212D02*
X1729232Y-537212D01*
X1915589Y-537212D02*
X1926001Y-547624D01*
X1729232Y-537212D02*
X1720088Y-546356D01*
D15*
X1992122Y-532638D03*
D11*
X1996694Y-538988D02*
X2061360Y-538988D01*
X1996694Y-538988D02*
X1992122Y-534416D01*
X1992122Y-532638D01*
X2061360Y-538988D02*
X2074111Y-526237D01*
D15*
X2074111Y-526237D03*
D10*
X1998504Y-404298D03*
D11*
X1948628Y-404298D01*
X1930726Y-386396D01*
D10*
X1930726Y-386396D03*
D15*
X367030Y-529590D03*
D11*
X367030Y-539242D02*
X399796Y-572008D01*
X367030Y-539242D02*
X367030Y-529590D01*
X760991Y-538480D02*
X760991Y-551441D01*
X740425Y-572008D01*
X399796Y-572008D01*
D15*
X760991Y-538480D03*
X394970Y-558800D03*
D11*
X405130Y-568960D01*
X737870Y-568960D02*
X753872Y-552958D01*
X753872Y-528320D01*
D15*
X753872Y-528320D03*
D11*
X737870Y-568960D02*
X405130Y-568960D01*
D15*
X721868Y-538480D03*
D11*
X721868Y-549402D01*
X719328Y-551942D02*
X674370Y-551942D01*
X579120Y-456692D01*
X579120Y-406400D01*
X576580Y-403860D01*
D15*
X576580Y-403860D03*
D11*
X721868Y-549402D02*
X719328Y-551942D01*
D15*
X714502Y-528320D03*
D11*
X714502Y-545592D01*
X711200Y-548894D01*
X677926Y-548894D01*
X582930Y-453898D02*
X582930Y-387350D01*
X577342Y-381762D01*
X569468Y-381762D01*
D15*
X569468Y-381762D03*
D11*
X582930Y-453898D02*
X677926Y-548894D01*
D15*
X747776Y-538480D03*
D11*
X747776Y-550665D01*
D15*
X412182Y-336550D03*
D11*
X462026Y-501648D02*
X525278Y-564900D01*
X733541Y-564900D01*
X462026Y-501648D02*
X462026Y-386394D01*
X733541Y-564900D02*
X747776Y-550665D01*
X462026Y-386394D02*
X412182Y-336550D01*
D15*
X740410Y-528320D03*
X403416Y-311150D03*
D11*
X403416Y-311309D01*
X740410Y-528320D02*
X740410Y-550411D01*
X465582Y-373475D02*
X403416Y-311309D01*
X526537Y-561848D02*
X728973Y-561848D01*
X465582Y-500893D02*
X465582Y-373475D01*
X465582Y-500893D02*
X526537Y-561848D01*
X728973Y-561848D02*
X740410Y-550411D01*
D15*
X374650Y-142494D03*
D11*
X609346Y-142494D01*
X658622Y-191770D01*
X658622Y-514717D01*
X682385Y-538480D01*
D15*
X682385Y-538480D03*
X695339Y-538480D03*
D11*
X692150Y-538480D01*
X684276Y-530606D01*
X684276Y-462897D01*
X689164Y-458009D01*
D15*
X689164Y-458009D03*
X705855Y-430287D03*
D11*
X850392Y-285750D01*
X985520Y-285750D01*
D15*
X985520Y-285750D03*
X701802Y-528320D03*
X838454Y-512405D03*
X880110Y-455952D03*
D11*
X942193Y-455952D01*
X1145415Y-332740D02*
X1196215Y-281940D01*
X1234315Y-281940D01*
X1145415Y-332740D02*
X1065405Y-332740D01*
X942193Y-455952D01*
D15*
X1234315Y-281940D03*
D11*
X717717Y-512405D02*
X701802Y-528320D01*
X717717Y-512405D02*
X838454Y-512405D01*
D15*
X689979Y-527050D03*
D11*
X689979Y-468007D01*
X702056Y-455930D01*
X744474Y-107696D02*
X744474Y-79756D01*
X744474Y-107696D02*
X670306Y-181864D01*
D15*
X744474Y-79756D03*
D11*
X670306Y-181864D02*
X670306Y-387865D01*
D15*
X702056Y-455930D03*
X703820Y-418832D03*
D11*
X702546Y-420105D01*
X670306Y-387865D01*
D15*
X2040752Y-519176D03*
D11*
X2038096Y-516520D02*
X2038096Y-473710D01*
X2038096Y-516520D02*
X2040752Y-519176D01*
D15*
X2049272Y-462026D03*
D11*
X2049272Y-462534D01*
X2038096Y-473710D01*
D15*
X2028560Y-523240D03*
D11*
X2028560Y-464450D01*
X2045970Y-447040D01*
D15*
X2045970Y-447040D03*
X2021702Y-513726D03*
X2047396Y-438328D03*
D11*
X2044871Y-438328D02*
X2021702Y-461497D01*
X2044871Y-438328D02*
X2047396Y-438328D01*
X2021702Y-461497D02*
X2021702Y-513726D01*
D15*
X2011680Y-424180D03*
D11*
X2011680Y-408940D02*
X2115566Y-305054D01*
X2011680Y-408940D02*
X2011680Y-424180D01*
X2115566Y-305054D02*
X2115566Y-131064D01*
D15*
X2115566Y-131064D03*
X193040Y-401320D03*
D11*
X217170Y-401320D01*
X767334Y-528320D02*
X767334Y-549910D01*
X741172Y-576072D01*
D15*
X767334Y-528320D03*
D11*
X391922Y-576072D02*
X217170Y-401320D01*
X391922Y-576072D02*
X741172Y-576072D01*
D15*
X700873Y-509103D03*
D11*
X707427Y-502550D02*
X867447Y-502550D01*
X707427Y-502550D02*
X700873Y-509103D01*
X903376Y-538480D02*
X906970Y-538480D01*
X903376Y-538480D02*
X867447Y-502550D01*
D15*
X906970Y-538480D03*
X140970Y-176530D03*
X808990Y-528320D03*
D11*
X141478Y-177038D02*
X140970Y-176530D01*
X141478Y-177038D02*
X141478Y-362959D01*
X191262Y-412743D02*
X191262Y-534663D01*
X248165Y-591566D01*
X808990Y-531839D02*
X808990Y-528320D01*
X808990Y-531839D02*
X749263Y-591566D01*
X191262Y-412743D02*
X141478Y-362959D01*
X248165Y-591566D02*
X749263Y-591566D01*
D15*
X148844Y-185420D03*
X796290Y-528320D03*
D11*
X796290Y-540228D01*
X748000Y-588518D01*
X148844Y-366014D02*
X148844Y-185420D01*
X249428Y-588518D02*
X748000Y-588518D01*
X249428Y-588518D02*
X194310Y-533400D01*
X194310Y-411480D01*
X148844Y-366014D01*
D15*
X201930Y-530860D03*
D11*
X256540Y-585470D01*
D15*
X789178Y-538480D03*
D11*
X789178Y-543030D01*
X746738Y-585470D01*
X256540Y-585470D01*
D15*
X231140Y-546610D03*
D11*
X266700Y-582170D02*
X744726Y-582170D01*
X266700Y-582170D02*
X231140Y-546610D01*
X744726Y-582170D02*
X782066Y-544830D01*
X782066Y-528320D01*
D15*
X782066Y-528320D03*
X218440Y-416560D03*
D11*
X381000Y-579120D01*
X742950Y-579120D01*
X774700Y-547370D02*
X774700Y-538480D01*
X774700Y-547370D02*
X742950Y-579120D01*
D15*
X774700Y-538480D03*
X734060Y-538480D03*
D11*
X734060Y-552450D01*
X727710Y-558800D01*
X560578Y-558800D01*
X533908Y-532130D01*
X533400Y-532130D01*
D15*
X533400Y-532130D03*
X727964Y-528320D03*
D11*
X727964Y-552196D01*
X725170Y-554990D01*
X567180Y-554990D01*
X558800Y-546610D01*
D15*
X558800Y-546610D03*
X808782Y-540410D03*
D11*
X808782Y-537866D02*
X822669Y-523979D01*
X808782Y-537866D02*
X808782Y-540410D01*
D15*
X822669Y-519619D03*
D11*
X822669Y-523979D01*
D12*
X2688615Y-316685D03*
D15*
X2644140Y-351790D03*
X2600452Y-364490D03*
D12*
X2446274Y-448564D03*
D15*
X2370421Y-679865D03*
X2447290Y-193040D03*
X2310130Y-405130D03*
X2177671Y-673354D03*
X1916100Y-604190D03*
X1902297Y-642783D03*
X1878838Y-605790D03*
X1985010Y-439420D03*
X2044192Y-480568D03*
X2042160Y-387350D03*
X1879725Y-274320D03*
X1634490Y-280670D03*
X1973455Y-181610D03*
X2110486Y-65786D03*
X1974596Y-436880D03*
X1996694Y-441960D03*
X1899920Y-359410D03*
X1597406Y-425958D03*
X1534160Y-840740D03*
X2495520Y-95024D03*
X1684020Y-665294D03*
D10*
X1425473Y-472897D03*
X1907540Y-500380D03*
X1854200Y-429260D03*
X1886991Y-403706D03*
X1943100Y-355600D03*
X1973580Y-355600D03*
X2667000Y-398780D03*
X2692400Y-406400D03*
D15*
X1993900Y-514096D03*
D11*
X1993900Y-468630D01*
X2085340Y-377190D01*
X2251964Y-377190D01*
D15*
X2251964Y-377190D03*
X2011680Y-531368D03*
X2243582Y-389500D03*
D11*
X2006716Y-465307D02*
X2006716Y-526404D01*
X2011680Y-531368D01*
X2006716Y-465307D02*
X2082523Y-389500D01*
X2243582Y-389500D01*
D15*
X2395220Y-646430D03*
X2081094Y-554711D03*
D11*
X2387786Y-646430D02*
X2395220Y-646430D01*
X2387786Y-646430D02*
X2387693Y-646523D01*
X2175343Y-639993D02*
X2090060Y-554711D01*
X2081094Y-554711D01*
X2175343Y-639993D02*
X2346764Y-639993D01*
X2353294Y-646523D01*
X2387693Y-646523D01*
D15*
X2356773Y-635347D03*
X2078910Y-545592D03*
D11*
X2180452Y-635347D02*
X2356773Y-635347D01*
X2180452Y-635347D02*
X2090697Y-545592D01*
X2078910Y-545592D01*
D15*
X2414152Y-210820D03*
X2035730Y-532638D03*
D11*
X2034656Y-467658D02*
X2099351Y-402962D01*
X2239677Y-402962D01*
X2255797Y-386842D01*
X2035730Y-532638D02*
X2034656Y-531564D01*
X2034656Y-467658D01*
X2414152Y-303169D02*
X2414152Y-210820D01*
X2414152Y-303169D02*
X2330479Y-386842D01*
X2255797Y-386842D01*
D15*
X2422026Y-202946D03*
X2043292Y-529336D03*
D11*
X2043292Y-528479D02*
X2047494Y-524277D01*
X2043292Y-528479D02*
X2043292Y-529336D01*
X2240940Y-406010D02*
X2257060Y-389890D01*
X2146793Y-406010D02*
X2047494Y-505309D01*
X2146793Y-406010D02*
X2240940Y-406010D01*
X2419740Y-205232D02*
X2422026Y-202946D01*
X2047494Y-505309D02*
X2047494Y-524277D01*
X2419740Y-303161D02*
X2419740Y-205232D01*
X2419740Y-303161D02*
X2333011Y-389890D01*
X2257060Y-389890D01*
D15*
X2053510Y-531368D03*
D11*
X2062400Y-522478D01*
D15*
X2423080Y-546676D03*
D11*
X2207233Y-546676D01*
X2080511Y-510794D02*
X2068827Y-522478D01*
X2080511Y-510794D02*
X2171351Y-510794D01*
X2207233Y-546676D01*
X2068827Y-522478D02*
X2062400Y-522478D01*
D15*
X2436796Y-546676D03*
X2068438Y-504698D03*
D11*
X2169566Y-504698D01*
X2436645Y-546676D02*
X2436796Y-546676D01*
X2436645Y-546676D02*
X2429660Y-539691D01*
X2204559Y-539691D01*
X2169566Y-504698D01*
D15*
X46990Y-142750D03*
X203200Y-416560D03*
X217170Y-530860D03*
X374394Y-86527D03*
X396240Y-336550D03*
X551180Y-391160D03*
X381000Y-529590D03*
X548640Y-532130D03*
X701423Y-600964D03*
X784606Y-473456D03*
X985774Y-274066D03*
X902208Y-203200D03*
X743712Y-51054D03*
D12*
X907034Y-670560D03*
D15*
X1128268Y-367790D03*
X1202690Y-840740D03*
X856742Y-508762D03*
D12*
X736600Y-341884D03*
D15*
X857375Y-630936D03*
D10*
X886511Y-564540D03*
X1362939Y-472999D03*
X878840Y-608748D03*
X930681Y-273101D03*
X909320Y-345440D03*
X939800Y-337820D03*
X868680Y-337820D03*
X508000Y-439420D03*
X535940Y-439420D03*
D15*
X2013066Y-519430D03*
D11*
X2013066Y-464037D01*
X2078967Y-398136D01*
D15*
X2136140Y-396104D03*
X2237740Y-368300D03*
D11*
X2136140Y-396104D02*
X2134108Y-398136D01*
X2078967Y-398136D01*
D15*
X2467610Y-145542D03*
D11*
X2237740Y-367645D02*
X2237740Y-368300D01*
X2237740Y-367645D02*
X2437237Y-168148D01*
X2472525Y-160732D02*
X2472525Y-154787D01*
X2467610Y-149872D01*
X2467610Y-145542D01*
X2472525Y-160732D02*
X2465109Y-168148D01*
X2437237Y-168148D01*
D10*
X853537Y-583647D03*
X1358478Y-457200D03*
D11*
X1350858Y-464820D01*
X1319029Y-464820D01*
X1194569Y-589280D01*
X859170Y-589280D02*
X853537Y-583647D01*
X859170Y-589280D02*
X1194569Y-589280D01*
D10*
X1930400Y-525780D03*
D11*
X1927860Y-528320D01*
X1562869Y-528320D01*
X1364749Y-330200D02*
X1320800Y-330200D01*
X1364749Y-330200D02*
X1562869Y-528320D01*
X1320800Y-330200D02*
X1317780Y-333220D01*
X1315720Y-333220D01*
D10*
X1315720Y-333220D03*
D16*
X1765300Y-741680D03*
X1980348Y-516774D03*
X1981200Y-411480D03*
X1958340Y-440690D03*
X2465350Y-157760D03*
X2186940Y-252730D03*
D17*
X2332143Y-252730D01*
X1981200Y-411480D02*
X1958340Y-434340D01*
X1958340Y-440690D01*
X1980348Y-516774D02*
X1980348Y-528159D01*
X1977263Y-531243D01*
X1824186Y-747522D02*
X1771142Y-747522D01*
X1765300Y-741680D01*
X2465350Y-157760D02*
X2465350Y-156972D01*
X1977263Y-594445D02*
X1824186Y-747522D01*
X1977263Y-594445D02*
X1977263Y-531243D01*
X2427901Y-156972D02*
X2465350Y-156972D01*
X2427901Y-156972D02*
X2332143Y-252730D01*
D16*
X529264Y-387604D03*
X646555Y-201930D03*
X243715Y-231140D03*
X965708Y-775462D03*
X832104Y-529338D03*
D17*
X271401Y-203454D02*
X243715Y-231140D01*
X645031Y-203454D02*
X646555Y-201930D01*
X645031Y-203454D02*
X271401Y-203454D01*
X965708Y-774785D02*
X965708Y-775462D01*
X965708Y-774785D02*
X832104Y-641181D01*
X832104Y-529338D01*
D16*
X1079500Y-317500D03*
D17*
X1165860Y-231140D02*
X1193546Y-231140D01*
D16*
X1193546Y-231140D03*
D17*
X1165860Y-231140D02*
X1079500Y-317500D01*
D16*
X681736Y-220218D03*
D17*
X880618Y-220218D01*
X901700Y-241300D01*
D16*
X901700Y-241300D03*
D17*
X529264Y-319221D02*
X529264Y-387604D01*
X529264Y-319221D02*
X645031Y-203454D01*
D10*
X848360Y-363220D03*
D18*
X848360Y-309880D01*
X861060Y-297180D02*
X904240Y-297180D01*
D10*
X904240Y-297180D03*
D18*
X861060Y-297180D02*
X848360Y-309880D01*
D14*
X908050Y-848487D03*
X1316990Y-374650D03*
D12*
X821690Y-448310D03*
X146050Y-147320D03*
D13*
X158750Y-134620D01*
X610119Y-134620D02*
X664210Y-188711D01*
X610119Y-134620D02*
X158750Y-134620D01*
X664210Y-188711D02*
X664210Y-402590D01*
X805561Y-464439D02*
X821690Y-448310D01*
X805561Y-464439D02*
X726059Y-464439D01*
X664210Y-402590D01*
D12*
X1906270Y-589966D03*
X1924050Y-410600D03*
X1664208Y-659638D03*
X1891411Y-452120D03*
D13*
X1906270Y-589966D02*
X1900301Y-595935D01*
X1886839Y-600970D02*
X1886839Y-616960D01*
X1874387Y-629412D01*
X1694434Y-629412D01*
X1664208Y-659638D01*
X1891874Y-595935D02*
X1900301Y-595935D01*
X1891874Y-595935D02*
X1886839Y-600970D01*
X1891411Y-452120D02*
X1891411Y-418262D01*
X1899073Y-410600D02*
X1924050Y-410600D01*
X1899073Y-410600D02*
X1891411Y-418262D01*
D10*
X853556Y-545160D03*
D11*
X861383Y-552987D02*
X918443Y-552987D01*
X861383Y-552987D02*
X853556Y-545160D01*
D10*
X1183640Y-323459D03*
D11*
X1159007Y-323459D01*
X1146678Y-335788D01*
X1135641Y-335788D01*
X918443Y-552987D01*
D10*
X854801Y-565582D03*
X1183640Y-332547D03*
D11*
X1154229Y-332547D01*
X1147940Y-338836D01*
X1136904Y-338836D01*
X919705Y-556035D02*
X864348Y-556035D01*
X919705Y-556035D02*
X1136904Y-338836D01*
X864348Y-556035D02*
X854801Y-565582D01*
D10*
X1907540Y-456128D03*
D11*
X1897380Y-466288D01*
X1897380Y-496563D02*
X1890515Y-503428D01*
X1897380Y-496563D02*
X1897380Y-466288D01*
X1890515Y-503428D02*
X1662437Y-503428D01*
X1567949Y-408940D02*
X1470660Y-408940D01*
D10*
X1470660Y-408940D03*
D11*
X1567949Y-408940D02*
X1662437Y-503428D01*
D10*
X1905000Y-447040D03*
D11*
X1902460Y-449580D01*
X1902460Y-451488D01*
X1894462Y-459486D01*
X1894332Y-459486D01*
X1894332Y-495300D01*
X1889252Y-500380D01*
X1663700Y-500380D01*
X1568862Y-405542D02*
X1492225Y-405542D01*
X1489075Y-402392D01*
X1480820Y-402392D01*
D10*
X1480820Y-402392D03*
D11*
X1568862Y-405542D02*
X1663700Y-500380D01*
D10*
X708434Y-538480D03*
X598397Y-460783D03*
D11*
X676797Y-540795D02*
X680070Y-544068D01*
X703241Y-538480D02*
X708434Y-538480D01*
X676797Y-539183D02*
X676797Y-540795D01*
X697653Y-544068D02*
X703241Y-538480D01*
X676797Y-539183D02*
X598397Y-460783D01*
X680070Y-544068D02*
X697653Y-544068D01*
D10*
X2000648Y-519522D03*
X2327965Y-380774D03*
D11*
X2003668Y-516502D02*
X2000648Y-519522D01*
X2003668Y-516502D02*
X2003668Y-464044D01*
X2254279Y-382778D02*
X2256283Y-380774D01*
X2327965Y-380774D01*
X2084934Y-382778D02*
X2003668Y-464044D01*
X2084934Y-382778D02*
X2254279Y-382778D01*
D10*
X2379980Y-381000D03*
D11*
X2600960Y-381000D01*
X2608689Y-388729D01*
D10*
X2608689Y-388729D03*
M02*
