G04 EAGLE Gerber RS-274X export*
G75*
%MOMM*%
%FSLAX34Y34*%
%LPD*%
%INBottom Copper*%
%IPPOS*%
%AMOC8*
5,1,8,0,0,1.08239X$1,22.5*%
G01*
%ADD10R,11.303000X13.208000*%
%ADD11C,1.000000*%
%ADD12C,0.756400*%
%ADD13C,1.016000*%
%ADD14C,1.092200*%
%ADD15C,0.609600*%
%ADD16C,0.660400*%
%ADD17C,0.977900*%


D10*
X2684780Y-228600D03*
X2542540Y-228600D03*
X1516380Y-632460D03*
X1310640Y-228600D03*
X1270000Y-632460D03*
X1061720Y-228600D03*
X1023620Y-632460D03*
X815340Y-228600D03*
X777240Y-632460D03*
X568960Y-228600D03*
X530860Y-632460D03*
X2491740Y-632460D03*
X322580Y-228600D03*
X2296160Y-228600D03*
X284480Y-632460D03*
X58420Y-228600D03*
X2255520Y-632460D03*
X2049780Y-228600D03*
X2009140Y-632460D03*
X1803400Y-228600D03*
X1762760Y-632460D03*
X1557020Y-228600D03*
D11*
X205740Y-101600D03*
X629920Y-800100D03*
X2623820Y-99060D03*
D12*
X853537Y-600310D03*
X1367566Y-457200D03*
D13*
X519938Y-544832D03*
X476250Y-384810D03*
X403517Y-215989D03*
X1857756Y-665480D03*
X1736090Y-545340D03*
X1869440Y-609346D03*
X1874520Y-481762D03*
X1541778Y-138940D03*
X1895985Y-724154D03*
X1926427Y-664373D03*
D14*
X2128520Y-718820D03*
D13*
X2128232Y-702598D03*
X2083562Y-518160D03*
X1794510Y-138940D03*
X2027172Y-379730D03*
D14*
X2735580Y-140970D03*
D15*
X2735580Y-177800D01*
X2684780Y-228600D01*
D14*
X2527300Y-848487D03*
D15*
X2527300Y-668020D01*
X2491740Y-632460D01*
D14*
X2284730Y-11303D03*
D15*
X2284730Y-217170D01*
X2296160Y-228600D01*
D14*
X2434590Y-848487D03*
D15*
X2434590Y-834390D01*
X2255520Y-655320D02*
X2255520Y-632460D01*
X2255520Y-655320D02*
X2434590Y-834390D01*
D14*
X2085340Y-49403D03*
D15*
X2085340Y-193040D01*
X2049780Y-228600D01*
D14*
X2266950Y-848487D03*
D15*
X2009140Y-636016D02*
X2009140Y-632460D01*
X2221611Y-848487D02*
X2266950Y-848487D01*
X2221611Y-848487D02*
X2009140Y-636016D01*
D14*
X1767332Y-34417D03*
D15*
X1767332Y-192532D01*
X1803400Y-228600D01*
D14*
X2175510Y-848487D03*
D15*
X2044571Y-717548D01*
X1944735Y-717548D01*
X1859647Y-632460D01*
X1762760Y-632460D01*
D14*
X1517599Y-12395D03*
D15*
X1517599Y-189179D02*
X1557020Y-228600D01*
X1517599Y-189179D02*
X1517599Y-12395D01*
D14*
X2082800Y-848487D03*
D15*
X2022217Y-787904D01*
X1874623Y-787904D01*
X1623425Y-717548D02*
X1538337Y-632460D01*
X1804267Y-717548D02*
X1874623Y-787904D01*
X1804267Y-717548D02*
X1623425Y-717548D01*
X1538337Y-632460D02*
X1516380Y-632460D01*
D14*
X1338580Y-57023D03*
D15*
X1338580Y-200660D02*
X1310640Y-228600D01*
X1338580Y-200660D02*
X1338580Y-57023D01*
D14*
X1093470Y-53950D03*
D15*
X1093470Y-196850D02*
X1061720Y-228600D01*
X1093470Y-196850D02*
X1093470Y-53950D01*
D14*
X565658Y-848487D03*
D15*
X895350Y-720090D02*
X982980Y-632460D01*
X1023620Y-632460D01*
X752475Y-720090D02*
X624078Y-848487D01*
X565658Y-848487D01*
X752475Y-720090D02*
X895350Y-720090D01*
D14*
X778510Y-51943D03*
D15*
X778510Y-191770D01*
X815340Y-228600D01*
D14*
X472440Y-848487D03*
D15*
X472440Y-847993D01*
X687973Y-632460D01*
X688483Y-631950D01*
X776730Y-631950D02*
X777240Y-632460D01*
X776730Y-631950D02*
X688483Y-631950D01*
D14*
X563880Y-47117D03*
D15*
X574040Y-57277D02*
X574040Y-223520D01*
X568960Y-228600D01*
X574040Y-57277D02*
X563880Y-47117D01*
D14*
X307340Y-848487D03*
D15*
X307340Y-834517D02*
X505587Y-636270D01*
X307340Y-834517D02*
X307340Y-848487D01*
X527050Y-636270D02*
X530860Y-632460D01*
X527050Y-636270D02*
X505587Y-636270D01*
D14*
X2466340Y-11303D03*
D15*
X2490978Y-174498D02*
X2495550Y-179070D01*
X2495550Y-181610D01*
X2542540Y-228600D01*
X2466873Y-11836D02*
X2466340Y-11303D01*
X2466873Y-11836D02*
X2466873Y-98971D01*
X2490978Y-123076D02*
X2490978Y-174498D01*
X2490978Y-123076D02*
X2466873Y-98971D01*
D12*
X1922043Y-519984D03*
X1315720Y-324132D03*
D14*
X46914Y-13691D03*
D15*
X71120Y-37897D01*
X71120Y-228600D01*
X58420Y-228600D02*
X58420Y-236220D01*
X63500Y-236220D01*
X71120Y-228600D01*
D14*
X214376Y-848487D03*
D15*
X214376Y-702564D02*
X284480Y-632460D01*
X214376Y-702564D02*
X214376Y-848487D01*
D14*
X378460Y-12827D03*
D15*
X350520Y-40767D01*
X350520Y-191770D02*
X345440Y-196850D01*
X350520Y-191770D02*
X350520Y-40767D01*
X345440Y-205740D02*
X322580Y-228600D01*
X345440Y-205740D02*
X345440Y-196850D01*
D13*
X211328Y-363474D03*
X422910Y-184150D03*
D16*
X2615946Y-364490D03*
X2067658Y-515569D03*
X2627630Y-364490D03*
X2053590Y-519176D03*
X1969516Y-534670D03*
X2034540Y-414020D03*
X1897254Y-622092D03*
X1896364Y-605790D03*
X1953144Y-524002D03*
X1576324Y-431546D03*
X1986026Y-542798D03*
X2066290Y-383540D03*
X1905508Y-630682D03*
X1879410Y-580390D03*
X1963304Y-546608D03*
X1588008Y-437642D03*
X1936736Y-541122D03*
X1713230Y-539498D03*
X1942857Y-547624D03*
X1720088Y-546864D03*
X1992122Y-532638D03*
X2074111Y-526237D03*
D12*
X1998504Y-404298D03*
X1930726Y-386396D03*
D16*
X367030Y-529590D03*
X760991Y-538480D03*
X394970Y-558800D03*
X753872Y-528320D03*
X721868Y-538480D03*
X576580Y-403860D03*
X714502Y-528320D03*
X569468Y-381762D03*
X747776Y-538480D03*
X412182Y-336550D03*
X740410Y-528320D03*
X403416Y-311150D03*
X374650Y-142494D03*
X682385Y-538480D03*
X695339Y-538480D03*
X689164Y-458009D03*
X705855Y-430287D03*
X985520Y-285750D03*
X701802Y-528320D03*
X838454Y-512405D03*
X880110Y-455952D03*
X1234315Y-281940D03*
X689979Y-527050D03*
X744474Y-79756D03*
X702056Y-455930D03*
X703820Y-418832D03*
X2040752Y-519176D03*
X2049272Y-462026D03*
X2028560Y-523240D03*
X2045970Y-447040D03*
X2021702Y-513726D03*
X2047396Y-438328D03*
X2011680Y-424180D03*
X2115566Y-131064D03*
X193040Y-401320D03*
X767334Y-528320D03*
X700873Y-509103D03*
X906970Y-538480D03*
X140970Y-176530D03*
X808990Y-528320D03*
X148844Y-185420D03*
X796290Y-528320D03*
X201930Y-530860D03*
X789178Y-538480D03*
X231140Y-546610D03*
X782066Y-528320D03*
X218440Y-416560D03*
X774700Y-538480D03*
X734060Y-538480D03*
X533400Y-532130D03*
X727964Y-528320D03*
X558800Y-546610D03*
X808782Y-540410D03*
X822669Y-519619D03*
D13*
X2688615Y-316685D03*
D16*
X2644140Y-351790D03*
X2600452Y-364490D03*
D13*
X2446274Y-448564D03*
D16*
X2370421Y-679865D03*
X2447290Y-193040D03*
X2310130Y-405130D03*
X2177671Y-673354D03*
X1916100Y-604190D03*
X1902297Y-642783D03*
X1878838Y-605790D03*
X1985010Y-439420D03*
X2044192Y-480568D03*
X2042160Y-387350D03*
X1879725Y-274320D03*
X1634490Y-280670D03*
X1973455Y-181610D03*
X2110486Y-65786D03*
X1974596Y-436880D03*
X1996694Y-441960D03*
X1899920Y-359410D03*
X1597406Y-425958D03*
X1534160Y-840740D03*
X2495520Y-95024D03*
X1684020Y-665294D03*
D12*
X1425473Y-472897D03*
X1907540Y-500380D03*
X1854200Y-429260D03*
X1886991Y-403706D03*
X1943100Y-355600D03*
X1973580Y-355600D03*
X2667000Y-398780D03*
X2692400Y-406400D03*
D16*
X1993900Y-514096D03*
X2251964Y-377190D03*
X2011680Y-531368D03*
X2243582Y-389500D03*
X2395220Y-646430D03*
X2081094Y-554711D03*
X2356773Y-635347D03*
X2078910Y-545592D03*
X2414152Y-210820D03*
X2035730Y-532638D03*
X2422026Y-202946D03*
X2043292Y-529336D03*
X2053510Y-531368D03*
X2423080Y-546676D03*
X2436796Y-546676D03*
X2068438Y-504698D03*
X46990Y-142750D03*
X203200Y-416560D03*
X217170Y-530860D03*
X374394Y-86527D03*
X396240Y-336550D03*
X551180Y-391160D03*
X381000Y-529590D03*
X548640Y-532130D03*
X701423Y-600964D03*
X784606Y-473456D03*
X985774Y-274066D03*
X902208Y-203200D03*
X743712Y-51054D03*
D13*
X907034Y-670560D03*
D16*
X1128268Y-367790D03*
X1202690Y-840740D03*
X856742Y-508762D03*
D13*
X736600Y-341884D03*
D16*
X857375Y-630936D03*
D12*
X886511Y-564540D03*
X1362939Y-472999D03*
X878840Y-608748D03*
X930681Y-273101D03*
X909320Y-345440D03*
X939800Y-337820D03*
X868680Y-337820D03*
X508000Y-439420D03*
X535940Y-439420D03*
D16*
X2013066Y-519430D03*
X2136140Y-396104D03*
X2237740Y-368300D03*
X2467610Y-145542D03*
D12*
X853537Y-583647D03*
X1358478Y-457200D03*
X1930400Y-525780D03*
X1315720Y-333220D03*
D17*
X1765300Y-741680D03*
X1980348Y-516774D03*
X1981200Y-411480D03*
X1958340Y-440690D03*
X2465350Y-157760D03*
X2186940Y-252730D03*
X529264Y-387604D03*
X646555Y-201930D03*
X243715Y-231140D03*
X965708Y-775462D03*
X832104Y-529338D03*
X1079500Y-317500D03*
X1193546Y-231140D03*
X681736Y-220218D03*
X901700Y-241300D03*
D12*
X848360Y-363220D03*
X904240Y-297180D03*
D14*
X908050Y-848487D03*
D15*
X1088025Y-717548D02*
X1171843Y-633730D01*
X1268730Y-633730D02*
X1270000Y-632460D01*
X1268730Y-633730D02*
X1171843Y-633730D01*
D14*
X1316990Y-374650D03*
D15*
X1316990Y-456455D01*
X1270000Y-503445D01*
X1270000Y-632460D01*
X908050Y-770778D02*
X908050Y-848487D01*
X908050Y-770778D02*
X961280Y-717548D01*
X1088025Y-717548D01*
D13*
X821690Y-448310D03*
X146050Y-147320D03*
X1906270Y-589966D03*
X1924050Y-410600D03*
X1664208Y-659638D03*
X1891411Y-452120D03*
D12*
X853556Y-545160D03*
X1183640Y-323459D03*
X854801Y-565582D03*
X1183640Y-332547D03*
X1907540Y-456128D03*
X1470660Y-408940D03*
X1905000Y-447040D03*
X1480820Y-402392D03*
X708434Y-538480D03*
X598397Y-460783D03*
X2000648Y-519522D03*
X2327965Y-380774D03*
X2379980Y-381000D03*
X2608689Y-388729D03*
M02*
