G04 EAGLE Gerber RS-274X export*
G75*
%MOMM*%
%FSLAX34Y34*%
%LPD*%
%INSolderpaste Top*%
%IPPOS*%
%AMOC8*
5,1,8,0,0,1.08239X$1,22.5*%
G01*
%ADD10R,0.900000X0.900000*%
%ADD11R,0.800000X0.800000*%
%ADD12R,0.889000X0.711200*%
%ADD13R,0.900000X0.800000*%
%ADD14R,2.400000X4.230000*%
%ADD15R,11.000000X4.020000*%
%ADD16R,8.000000X6.500000*%
%ADD17R,0.800000X0.900000*%
%ADD18R,0.711200X0.889000*%
%ADD19R,4.230000X2.400000*%
%ADD20R,4.020000X11.000000*%
%ADD21R,6.500000X8.000000*%
%ADD22R,7.230000X6.650000*%
%ADD23R,6.650000X7.230000*%
%ADD24R,3.429000X1.651000*%
%ADD25R,1.270000X2.921000*%
%ADD26R,3.429000X1.778000*%
%ADD27R,1.778000X3.429000*%
%ADD28R,0.889000X0.305000*%
%ADD29R,1.651000X2.845000*%
%ADD30R,1.400000X0.950000*%
%ADD31R,1.800000X1.000000*%
%ADD32R,1.400000X3.500000*%
%ADD33R,1.651000X3.429000*%
%ADD34R,2.921000X1.270000*%
%ADD35R,1.020063X1.889759*%
%ADD36R,0.750000X0.400000*%
%ADD37R,0.250000X1.250000*%


D10*
X1999234Y-476257D03*
X1999234Y-461257D03*
X1947418Y-605416D03*
X1947418Y-590416D03*
X734018Y-588130D03*
X734018Y-603130D03*
X363982Y-73780D03*
X363982Y-88780D03*
X732409Y-72651D03*
X732409Y-57651D03*
X1022865Y-260350D03*
X1007865Y-260350D03*
X1254245Y-260985D03*
X1269245Y-260985D03*
X1982597Y-473717D03*
X1982597Y-458717D03*
X1594605Y-261620D03*
X1609605Y-261620D03*
X1844795Y-260350D03*
X1859795Y-260350D03*
X2121535Y-87764D03*
X2121535Y-72764D03*
X2482088Y-73018D03*
X2482088Y-88018D03*
X804164Y-485528D03*
X804164Y-470528D03*
X753449Y-588130D03*
X753449Y-603130D03*
X2033016Y-461003D03*
X2033016Y-476003D03*
X770255Y-588130D03*
X770255Y-603130D03*
X1885696Y-635882D03*
X1885696Y-650882D03*
D11*
X1784096Y-636402D03*
X1784096Y-652902D03*
D12*
X1837817Y-633730D03*
X1837817Y-652526D03*
X1817751Y-643128D03*
D13*
X1852812Y-633984D03*
X1869812Y-633984D03*
X1852812Y-653034D03*
X1869812Y-653034D03*
D14*
X1848358Y-694436D03*
X1797558Y-694436D03*
D15*
X1822958Y-823186D03*
D16*
X1822958Y-770586D03*
D17*
X1766824Y-652898D03*
X1766824Y-635898D03*
D10*
X1622178Y-422656D03*
X1607178Y-422656D03*
D11*
X1621658Y-321056D03*
X1605158Y-321056D03*
D18*
X1624330Y-372237D03*
X1605534Y-372237D03*
X1614932Y-352171D03*
D17*
X1624076Y-389772D03*
X1624076Y-406772D03*
X1605026Y-389772D03*
X1605026Y-406772D03*
D19*
X1668526Y-338582D03*
X1668526Y-389382D03*
D20*
X1797276Y-363982D03*
D21*
X1744676Y-363982D03*
D13*
X1605162Y-305054D03*
X1622162Y-305054D03*
D10*
X1732026Y-635882D03*
X1732026Y-650882D03*
D11*
X1629156Y-636402D03*
X1629156Y-652902D03*
D12*
X1682877Y-633730D03*
X1682877Y-652526D03*
X1662811Y-643128D03*
D13*
X1699142Y-633984D03*
X1716142Y-633984D03*
X1699142Y-653034D03*
X1716142Y-653034D03*
D14*
X1638554Y-594106D03*
X1689354Y-594106D03*
D15*
X1663954Y-465356D03*
D16*
X1663954Y-517956D03*
D17*
X1611884Y-652898D03*
X1611884Y-635898D03*
D10*
X914788Y-597408D03*
X899788Y-597408D03*
D11*
X871088Y-495046D03*
X854588Y-495046D03*
D18*
X916940Y-541147D03*
X898144Y-541147D03*
X907542Y-521081D03*
D17*
X916686Y-562492D03*
X916686Y-579492D03*
X897636Y-562492D03*
X897636Y-579492D03*
D14*
X757682Y-341884D03*
X808482Y-341884D03*
D15*
X783082Y-213134D03*
D16*
X783082Y-265734D03*
D13*
X854592Y-479044D03*
X871592Y-479044D03*
D10*
X822706Y-633342D03*
X822706Y-648342D03*
D11*
X721106Y-632592D03*
X721106Y-649092D03*
D12*
X773557Y-629920D03*
X773557Y-648716D03*
X753491Y-639318D03*
D13*
X789822Y-631444D03*
X806822Y-631444D03*
X789822Y-650494D03*
X806822Y-650494D03*
D14*
X800100Y-690626D03*
X749300Y-690626D03*
D15*
X774700Y-819376D03*
D16*
X774700Y-766776D03*
D17*
X703834Y-649088D03*
X703834Y-632088D03*
D10*
X576968Y-391414D03*
X561968Y-391414D03*
D11*
X576448Y-288036D03*
X559948Y-288036D03*
D18*
X579120Y-341757D03*
X560324Y-341757D03*
X569722Y-321691D03*
D17*
X578866Y-358022D03*
X578866Y-375022D03*
X559816Y-358022D03*
X559816Y-375022D03*
D14*
X627380Y-417322D03*
X678180Y-417322D03*
D15*
X652780Y-288572D03*
D16*
X652780Y-341172D03*
D13*
X559952Y-270764D03*
X576952Y-270764D03*
D10*
X533012Y-543814D03*
X548012Y-543814D03*
D11*
X533532Y-644144D03*
X550032Y-644144D03*
D18*
X530860Y-591693D03*
X549656Y-591693D03*
X540258Y-611759D03*
D17*
X531114Y-576698D03*
X531114Y-559698D03*
X550164Y-576698D03*
X550164Y-559698D03*
D14*
X649732Y-511048D03*
X598932Y-511048D03*
D15*
X624332Y-639798D03*
D16*
X624332Y-587198D03*
D13*
X550028Y-661416D03*
X533028Y-661416D03*
D10*
X411868Y-326136D03*
X396868Y-326136D03*
D11*
X411348Y-228092D03*
X394848Y-228092D03*
D18*
X414020Y-276987D03*
X395224Y-276987D03*
X404622Y-256921D03*
D17*
X413766Y-293252D03*
X413766Y-310252D03*
X393192Y-293252D03*
X393192Y-310252D03*
D14*
X461772Y-353314D03*
X512572Y-353314D03*
D15*
X487172Y-224564D03*
D16*
X487172Y-277164D03*
D13*
X394852Y-204724D03*
X411852Y-204724D03*
D10*
X366642Y-542544D03*
X381642Y-542544D03*
D11*
X368432Y-644144D03*
X384932Y-644144D03*
D18*
X365760Y-590423D03*
X384556Y-590423D03*
X375158Y-610489D03*
D17*
X364744Y-575428D03*
X364744Y-558428D03*
X383794Y-575428D03*
X383794Y-558428D03*
D14*
X483870Y-512318D03*
X433070Y-512318D03*
D15*
X458470Y-641068D03*
D16*
X458470Y-588468D03*
D13*
X384928Y-661416D03*
X367928Y-661416D03*
D10*
X218828Y-404876D03*
X203828Y-404876D03*
D11*
X218308Y-300736D03*
X201808Y-300736D03*
D18*
X220980Y-353695D03*
X202184Y-353695D03*
X211582Y-333629D03*
D17*
X220726Y-374024D03*
X220726Y-391024D03*
X201676Y-374024D03*
X201676Y-391024D03*
D14*
X267462Y-430784D03*
X318262Y-430784D03*
D15*
X292862Y-302034D03*
D16*
X292862Y-354634D03*
D13*
X200542Y-283464D03*
X217542Y-283464D03*
D10*
X2643886Y-326002D03*
X2643886Y-341002D03*
D11*
X2573152Y-303784D03*
X2589652Y-303784D03*
D12*
X2594737Y-323850D03*
X2594737Y-342646D03*
X2574671Y-333248D03*
D13*
X2611002Y-324104D03*
X2628002Y-324104D03*
X2611002Y-343154D03*
X2628002Y-343154D03*
D14*
X2472182Y-448564D03*
X2522982Y-448564D03*
D15*
X2497582Y-319814D03*
D16*
X2497582Y-372414D03*
D13*
X2589648Y-362966D03*
X2572648Y-362966D03*
D10*
X201542Y-542544D03*
X216542Y-542544D03*
D11*
X202062Y-644144D03*
X218562Y-644144D03*
D18*
X199390Y-590423D03*
X218186Y-590423D03*
X208788Y-610489D03*
D17*
X199644Y-575428D03*
X199644Y-558428D03*
X218694Y-575428D03*
X218694Y-558428D03*
D14*
X316992Y-512318D03*
X266192Y-512318D03*
D15*
X291592Y-641068D03*
D16*
X291592Y-588468D03*
D13*
X218558Y-661416D03*
X201558Y-661416D03*
D10*
X19932Y-143764D03*
X34932Y-143764D03*
D11*
X20452Y-246634D03*
X36952Y-246634D03*
D18*
X17780Y-192913D03*
X36576Y-192913D03*
X27178Y-212979D03*
D17*
X18034Y-176648D03*
X18034Y-159648D03*
X37084Y-176648D03*
X37084Y-159648D03*
D14*
X85090Y-341122D03*
X135890Y-341122D03*
D15*
X110490Y-212372D03*
D16*
X110490Y-264972D03*
D13*
X36948Y-263906D03*
X19948Y-263906D03*
D10*
X2546738Y-658876D03*
X2531738Y-658876D03*
D11*
X2546218Y-559816D03*
X2529718Y-559816D03*
D18*
X2548890Y-612267D03*
X2530094Y-612267D03*
X2539492Y-592201D03*
D17*
X2548636Y-627262D03*
X2548636Y-644262D03*
X2529586Y-627262D03*
X2529586Y-644262D03*
D14*
X2483358Y-512826D03*
X2432558Y-512826D03*
D15*
X2457958Y-641576D03*
D16*
X2457958Y-588976D03*
D13*
X2529722Y-542544D03*
X2546722Y-542544D03*
D10*
X2431662Y-205994D03*
X2446662Y-205994D03*
D11*
X2418334Y-313558D03*
X2418334Y-297058D03*
D18*
X2429510Y-255143D03*
X2448306Y-255143D03*
X2438908Y-275209D03*
D17*
X2429764Y-238878D03*
X2429764Y-221878D03*
X2448814Y-238878D03*
X2448814Y-221878D03*
D14*
X2321560Y-341122D03*
X2372360Y-341122D03*
D15*
X2346960Y-212372D03*
D16*
X2346960Y-264972D03*
D17*
X2418334Y-344288D03*
X2418334Y-327288D03*
D10*
X2383924Y-661416D03*
X2368924Y-661416D03*
D11*
X2382388Y-557276D03*
X2365888Y-557276D03*
D18*
X2385060Y-610997D03*
X2366264Y-610997D03*
X2375662Y-590931D03*
D17*
X2384806Y-625992D03*
X2384806Y-642992D03*
X2365756Y-625992D03*
X2365756Y-642992D03*
D14*
X2319528Y-512826D03*
X2268728Y-512826D03*
D15*
X2294128Y-641576D03*
D16*
X2294128Y-588976D03*
D13*
X2365892Y-540004D03*
X2382892Y-540004D03*
D10*
X2309876Y-376802D03*
X2309876Y-391802D03*
D11*
X2283328Y-458216D03*
X2266828Y-458216D03*
D18*
X2265680Y-412623D03*
X2284476Y-412623D03*
X2275078Y-432689D03*
D17*
X2265934Y-395088D03*
X2265934Y-378088D03*
X2284984Y-395088D03*
X2284984Y-378088D03*
D14*
X2166112Y-418084D03*
X2216912Y-418084D03*
D15*
X2191512Y-289334D03*
D16*
X2191512Y-341934D03*
D13*
X2266832Y-473964D03*
X2283832Y-473964D03*
D10*
X2219078Y-658876D03*
X2204078Y-658876D03*
D11*
X2218558Y-557276D03*
X2202058Y-557276D03*
D18*
X2221230Y-610997D03*
X2202434Y-610997D03*
X2211832Y-590931D03*
D17*
X2220976Y-625992D03*
X2220976Y-642992D03*
X2201926Y-625992D03*
X2201926Y-642992D03*
D14*
X2155190Y-512318D03*
X2104390Y-512318D03*
D15*
X2129790Y-641068D03*
D16*
X2129790Y-588468D03*
D13*
X2202062Y-540004D03*
X2219062Y-540004D03*
D10*
X2050034Y-414408D03*
X2050034Y-399408D03*
D11*
X2121276Y-437896D03*
X2104776Y-437896D03*
D12*
X2099183Y-416560D03*
X2099183Y-397764D03*
X2119249Y-407162D03*
D13*
X2082918Y-416306D03*
X2065918Y-416306D03*
X2082918Y-397256D03*
X2065918Y-397256D03*
D14*
X2034032Y-340614D03*
X2084832Y-340614D03*
D15*
X2059432Y-211864D03*
D16*
X2059432Y-264464D03*
D13*
X2100462Y-377444D03*
X2117462Y-377444D03*
D10*
X1917954Y-650628D03*
X1917954Y-635628D03*
D11*
X2019554Y-650108D03*
X2019554Y-633608D03*
D12*
X1965833Y-652780D03*
X1965833Y-633984D03*
X1985899Y-643382D03*
D13*
X1950838Y-652526D03*
X1933838Y-652526D03*
X1950838Y-633476D03*
X1933838Y-633476D03*
D14*
X1994027Y-694436D03*
X1943227Y-694436D03*
D15*
X1968627Y-823186D03*
D16*
X1968627Y-770586D03*
D17*
X2036826Y-633612D03*
X2036826Y-650612D03*
D10*
X1893958Y-595376D03*
X1878958Y-595376D03*
D11*
X1878884Y-465328D03*
X1862384Y-465328D03*
D18*
X1888490Y-546227D03*
X1869694Y-546227D03*
X1879092Y-526161D03*
D17*
X1889506Y-562492D03*
X1889506Y-579492D03*
X1869186Y-562492D03*
X1869186Y-579492D03*
D14*
X1766570Y-593852D03*
X1817370Y-593852D03*
D15*
X1791970Y-465102D03*
D16*
X1791970Y-517702D03*
D13*
X1862210Y-449682D03*
X1879210Y-449682D03*
D22*
X2688336Y-156712D03*
X2688336Y-251212D03*
X2422144Y-47365D03*
X2422144Y-141865D03*
X2082489Y-807091D03*
X2082489Y-712591D03*
X1382624Y-46349D03*
X1382624Y-140849D03*
X907034Y-807091D03*
X907034Y-712591D03*
X1138174Y-48635D03*
X1138174Y-143135D03*
X565827Y-807091D03*
X565827Y-712591D03*
X825754Y-46095D03*
X825754Y-140595D03*
X472440Y-807091D03*
X472440Y-712591D03*
X518592Y-48635D03*
X518592Y-143135D03*
X307340Y-807091D03*
X307340Y-712591D03*
X430276Y-48635D03*
X430276Y-143135D03*
X2527554Y-807091D03*
X2527554Y-712591D03*
X214630Y-807091D03*
X214630Y-712591D03*
X97536Y-44952D03*
X97536Y-139452D03*
D23*
X1370197Y-318318D03*
X1464697Y-318318D03*
D22*
X2329434Y-47365D03*
X2329434Y-141865D03*
X2434703Y-807091D03*
X2434703Y-712591D03*
X2038096Y-46095D03*
X2038096Y-140595D03*
X2266922Y-807091D03*
X2266922Y-712591D03*
X1722349Y-47416D03*
X1722349Y-141916D03*
X2175341Y-807091D03*
X2175341Y-712591D03*
X1471168Y-46120D03*
X1471168Y-140620D03*
D24*
X243713Y-176530D03*
X351155Y-176530D03*
D25*
X282448Y-231267D03*
X312420Y-231267D03*
D24*
X586010Y-176530D03*
X693452Y-176530D03*
D25*
X624745Y-231267D03*
X654717Y-231267D03*
D24*
X961009Y-176213D03*
X1068451Y-176213D03*
D25*
X999744Y-230950D03*
X1029716Y-230950D03*
D24*
X1207643Y-176213D03*
X1315085Y-176213D03*
D25*
X1246378Y-230950D03*
X1276350Y-230950D03*
D24*
X1548511Y-176213D03*
X1655953Y-176213D03*
D25*
X1587246Y-230950D03*
X1617218Y-230950D03*
D24*
X1795399Y-176213D03*
X1902841Y-176213D03*
D25*
X1834134Y-230950D03*
X1864106Y-230950D03*
D24*
X2148808Y-175260D03*
X2256250Y-175260D03*
D25*
X2187543Y-229997D03*
X2217515Y-229997D03*
D24*
X2492121Y-175260D03*
X2599563Y-175260D03*
D25*
X2530856Y-229997D03*
X2560828Y-229997D03*
D17*
X1931162Y-605400D03*
X1931162Y-588400D03*
X363982Y-43570D03*
X363982Y-60570D03*
X732409Y-27568D03*
X732409Y-44568D03*
D13*
X832984Y-610718D03*
X815984Y-610718D03*
X846007Y-610667D03*
X863007Y-610667D03*
D17*
X717982Y-604765D03*
X717982Y-587765D03*
D13*
X977782Y-260350D03*
X994782Y-260350D03*
X1299328Y-260985D03*
X1282328Y-260985D03*
X1639688Y-261620D03*
X1622688Y-261620D03*
X1889878Y-260350D03*
X1872878Y-260350D03*
D17*
X2121535Y-59554D03*
X2121535Y-42554D03*
X2482088Y-59808D03*
X2482088Y-42808D03*
X2482088Y-100720D03*
X2482088Y-117720D03*
X2121535Y-117974D03*
X2121535Y-100974D03*
D13*
X1814712Y-260350D03*
X1831712Y-260350D03*
X1564522Y-261620D03*
X1581522Y-261620D03*
D17*
X820166Y-468512D03*
X820166Y-485512D03*
D13*
X1224162Y-260985D03*
X1241162Y-260985D03*
X1052948Y-260350D03*
X1035948Y-260350D03*
D17*
X732409Y-102734D03*
X732409Y-85734D03*
X363982Y-101990D03*
X363982Y-118990D03*
X2015744Y-477003D03*
X2015744Y-460003D03*
D26*
X785368Y-448056D03*
X869442Y-226695D03*
D27*
X2053336Y-600202D03*
D26*
X1972818Y-225425D03*
X1975866Y-601726D03*
X1972818Y-198755D03*
D27*
X723646Y-470662D03*
D26*
X869442Y-200025D03*
D28*
X918745Y-297460D03*
X918745Y-302460D03*
X918745Y-307460D03*
X918745Y-312460D03*
X918745Y-317460D03*
X918745Y-322460D03*
X918745Y-327460D03*
X918745Y-332460D03*
X960855Y-297460D03*
X960855Y-302460D03*
X960855Y-307460D03*
X960855Y-312460D03*
X960855Y-317460D03*
X960855Y-322460D03*
X960855Y-327460D03*
X960855Y-332460D03*
D29*
X939800Y-314960D03*
D30*
X981710Y-319680D03*
X981710Y-338180D03*
D31*
X890270Y-316470D03*
X890270Y-346470D03*
D13*
X942730Y-273050D03*
X959730Y-273050D03*
D32*
X957910Y-387350D03*
X903910Y-387350D03*
D13*
X854160Y-314706D03*
X871160Y-314706D03*
D28*
X1920975Y-397230D03*
X1920975Y-392230D03*
X1920975Y-387230D03*
X1920975Y-382230D03*
X1920975Y-377230D03*
X1920975Y-372230D03*
X1920975Y-367230D03*
X1920975Y-362230D03*
X1878865Y-397230D03*
X1878865Y-392230D03*
X1878865Y-387230D03*
X1878865Y-382230D03*
X1878865Y-377230D03*
X1878865Y-372230D03*
X1878865Y-367230D03*
X1878865Y-362230D03*
D29*
X1899920Y-379730D03*
D30*
X1860550Y-373029D03*
X1860550Y-354529D03*
D31*
X1959610Y-396000D03*
X1959610Y-366000D03*
D13*
X1895568Y-412039D03*
X1878568Y-412039D03*
D32*
X1876730Y-309880D03*
X1930730Y-309880D03*
D17*
X1938960Y-411496D03*
X1938960Y-394496D03*
D10*
X1960880Y-332860D03*
X1960880Y-347860D03*
X868680Y-363100D03*
X868680Y-348100D03*
X1966976Y-473590D03*
X1966976Y-458590D03*
X785876Y-587876D03*
X785876Y-602876D03*
D13*
X1944760Y-269240D03*
X1961760Y-269240D03*
X929250Y-227330D03*
X912250Y-227330D03*
D11*
X912500Y-201930D03*
X929000Y-201930D03*
X1913260Y-269240D03*
X1929760Y-269240D03*
D13*
X1160390Y-840740D03*
X1143390Y-840740D03*
D11*
X1190620Y-840740D03*
X1174120Y-840740D03*
D13*
X1579000Y-840740D03*
X1596000Y-840740D03*
D11*
X1547500Y-840740D03*
X1564000Y-840740D03*
D33*
X1249680Y-833501D03*
X1249680Y-726059D03*
D34*
X1304417Y-794766D03*
X1304417Y-764794D03*
D10*
X1421054Y-483761D03*
X1421054Y-498761D03*
D33*
X1485900Y-726059D03*
X1485900Y-833501D03*
D34*
X1431163Y-764794D03*
X1431163Y-794766D03*
D13*
X1372480Y-683260D03*
X1355480Y-683260D03*
D35*
X1344125Y-517830D03*
X1363022Y-517830D03*
X1381920Y-517830D03*
X1401920Y-517830D03*
X1420818Y-517830D03*
X1439715Y-517830D03*
X1344125Y-660730D03*
X1363022Y-660730D03*
X1381920Y-660730D03*
X1401920Y-660730D03*
X1420665Y-660730D03*
X1439715Y-660730D03*
D13*
X1919766Y-478942D03*
X1936766Y-478942D03*
X1936360Y-463144D03*
X1919360Y-463144D03*
X1919284Y-447497D03*
X1936284Y-447497D03*
X1936284Y-431825D03*
X1919284Y-431825D03*
D10*
X1864709Y-430428D03*
X1879709Y-430428D03*
X1362786Y-483863D03*
X1362786Y-498863D03*
D13*
X861991Y-576097D03*
X844991Y-576097D03*
X845143Y-592150D03*
X862143Y-592150D03*
D10*
X876224Y-570604D03*
X876224Y-585604D03*
D13*
X862067Y-555396D03*
X845067Y-555396D03*
X844940Y-534289D03*
X861940Y-534289D03*
X1428360Y-683260D03*
X1411360Y-683260D03*
D36*
X1241471Y-323914D03*
X1259971Y-331914D03*
X1241471Y-331914D03*
X1259971Y-323914D03*
D37*
X788945Y-503053D03*
X783945Y-503053D03*
X778945Y-503053D03*
X773945Y-503053D03*
X768945Y-503053D03*
X763945Y-503053D03*
X758945Y-503053D03*
X753945Y-503053D03*
X748945Y-503053D03*
X743945Y-503053D03*
X738945Y-503053D03*
X733945Y-503053D03*
X728945Y-503053D03*
X723945Y-503053D03*
X718945Y-503053D03*
X713945Y-503053D03*
X708945Y-503053D03*
X793945Y-503053D03*
X798945Y-503053D03*
X803945Y-503053D03*
X808945Y-503053D03*
X813945Y-503053D03*
X818945Y-503053D03*
X823945Y-503053D03*
X708945Y-570553D03*
X713945Y-570553D03*
X718945Y-570553D03*
X723945Y-570553D03*
X728945Y-570553D03*
X733945Y-570553D03*
X738945Y-570553D03*
X743945Y-570553D03*
X748945Y-570553D03*
X753945Y-570553D03*
X758945Y-570553D03*
X763945Y-570553D03*
X768945Y-570553D03*
X773945Y-570553D03*
X778945Y-570553D03*
X783945Y-570553D03*
X788945Y-570553D03*
X793945Y-570553D03*
X798945Y-570553D03*
X803945Y-570553D03*
X808945Y-570553D03*
X813945Y-570553D03*
X818945Y-570553D03*
X823945Y-570553D03*
X1973762Y-566744D03*
X1978762Y-566744D03*
X1983762Y-566744D03*
X1988762Y-566744D03*
X1993762Y-566744D03*
X1998762Y-566744D03*
X2003762Y-566744D03*
X2008762Y-566744D03*
X2013762Y-566744D03*
X2018762Y-566744D03*
X2023762Y-566744D03*
X2028762Y-566744D03*
X2033762Y-566744D03*
X2038762Y-566744D03*
X2043762Y-566744D03*
X2048762Y-566744D03*
X2053762Y-566744D03*
X1968762Y-566744D03*
X1963762Y-566744D03*
X1958762Y-566744D03*
X1953762Y-566744D03*
X1948762Y-566744D03*
X1943762Y-566744D03*
X1938762Y-566744D03*
X2053762Y-499244D03*
X2048762Y-499244D03*
X2043762Y-499244D03*
X2038762Y-499244D03*
X2033762Y-499244D03*
X2028762Y-499244D03*
X2023762Y-499244D03*
X2018762Y-499244D03*
X2013762Y-499244D03*
X2008762Y-499244D03*
X2003762Y-499244D03*
X1998762Y-499244D03*
X1993762Y-499244D03*
X1988762Y-499244D03*
X1983762Y-499244D03*
X1978762Y-499244D03*
X1973762Y-499244D03*
X1968762Y-499244D03*
X1963762Y-499244D03*
X1958762Y-499244D03*
X1953762Y-499244D03*
X1948762Y-499244D03*
X1943762Y-499244D03*
X1938762Y-499244D03*
D17*
X1915363Y-561120D03*
X1915363Y-578120D03*
X1915363Y-548428D03*
X1915363Y-531428D03*
X1285240Y-319160D03*
X1285240Y-336160D03*
X1225575Y-319338D03*
X1225575Y-336338D03*
D10*
X1209530Y-335991D03*
X1194530Y-335991D03*
X1209555Y-320015D03*
X1194555Y-320015D03*
X1905000Y-467480D03*
X1905000Y-482480D03*
X876224Y-542816D03*
X876224Y-557816D03*
D18*
X530098Y-462153D03*
X511302Y-462153D03*
X520700Y-442087D03*
X2672842Y-378587D03*
X2691638Y-378587D03*
X2682240Y-398653D03*
D17*
X474980Y-460620D03*
X474980Y-443620D03*
D13*
X2709300Y-378460D03*
X2726300Y-378460D03*
D10*
X492760Y-459620D03*
X492760Y-444620D03*
X2710180Y-393820D03*
X2710180Y-408820D03*
D17*
X548640Y-443620D03*
X548640Y-460620D03*
X2654300Y-397120D03*
X2654300Y-380120D03*
D13*
X582540Y-459740D03*
X565540Y-459740D03*
X2620400Y-378460D03*
X2637400Y-378460D03*
M02*
