%TF.GenerationSoftware,Altium Limited,Altium Designer,23.9.2 (47)*%
G04 Layer_Color=0*
%FSLAX26Y26*%
%MOIN*%
%TF.SameCoordinates,9865C014-B1B1-49D6-8399-87C266C41E35*%
%TF.FilePolarity,Positive*%
%TF.FileFunction,Other,Top_Component_Center*%
%TF.Part,Single*%
G01*
G75*
%TA.AperFunction,NonConductor*%
%ADD92C,0.003937*%
%ADD145C,0.001968*%
D92*
X1397638Y3464567D02*
X1437008D01*
X1417323Y3444882D02*
Y3484252D01*
X1555118Y3110236D02*
X1594488D01*
X1574803Y3090551D02*
Y3129921D01*
X1476378Y3110236D02*
X1515748D01*
X1496063Y3090551D02*
Y3129921D01*
X4890315Y3320000D02*
X4929685D01*
X4910000Y3300315D02*
Y3339685D01*
X2300315Y4031431D02*
X2339685D01*
X2320000Y4011746D02*
Y4051116D01*
X2212315Y4031431D02*
X2251685D01*
X2232000Y4011746D02*
Y4051116D01*
X2036315Y4031431D02*
X2075685D01*
X2056000Y4011746D02*
Y4051116D01*
X2124315Y4031431D02*
X2163685D01*
X2144000Y4011746D02*
Y4051116D01*
X1860315Y4031431D02*
X1899685D01*
X1880000Y4011746D02*
Y4051116D01*
X1948315Y4031431D02*
X1987685D01*
X1968000Y4011746D02*
Y4051116D01*
X2220315Y2830000D02*
X2259685D01*
X2240000Y2810315D02*
Y2849685D01*
X2400000Y3590315D02*
Y3629685D01*
X2380315Y3610000D02*
X2419685D01*
X1840000Y3040315D02*
Y3079685D01*
X1820315Y3060000D02*
X1859685D01*
X2400000Y3470315D02*
Y3509685D01*
X2380315Y3490000D02*
X2419685D01*
D145*
X4565116Y2436535D02*
X4604486D01*
X4584801Y2416850D02*
Y2456220D01*
%TF.MD5,aeb7d0a0debdd3c98861f2ab2850fdee*%
M02*
